<svg width="432" height="202" fill="none" xmlns="http://www.w3.org/2000/svg"><path d="M376.056 194.213a5 5 0 007.071 0l31.82-31.819a5 5 0 10-7.071-7.071l-28.285 28.284-28.284-28.284a5 5 0 00-7.071 0 5 5 0 000 7.071l31.82 31.819zM11.272 118.935c11.157-29.714 38.861-51.08 75.256-63.519C122.866 43 167.2 39.752 210.205 45.816c43.019 6.066 84.279 21.387 114.663 45.666 30.273 24.189 49.723 57.207 49.723 99.196h10c0-45.512-21.237-81.245-53.48-107.008-32.131-25.675-75.216-41.51-119.509-47.756-44.306-6.248-90.254-2.964-128.308 10.04C45.3 58.938 14.504 81.884 1.91 115.42l9.362 3.515z" fill="#306990"/></svg>