<svg width="432" height="276" fill="none" xmlns="http://www.w3.org/2000/svg"><path d="M392.359 67.791a5 5 0 00-7.071 0l-31.82 31.82a5 5 0 107.071 7.071l28.284-28.284 28.284 28.284a5 5 0 007.072-7.071l-31.82-31.82zM11.142 146.584c12.593 33.537 43.389 56.482 81.385 69.467 38.053 13.004 84.001 16.288 128.307 10.04 44.293-6.246 87.378-22.082 119.509-47.756 32.243-25.764 53.48-61.497 53.48-107.008h-10c0 41.989-19.45 75.006-49.723 99.196-30.384 24.279-71.644 39.6-114.663 45.666-43.006 6.065-87.339 2.817-123.677-9.601-36.395-12.438-64.099-33.805-75.256-63.519l-9.362 3.515z" fill="#306990"/></svg>