<svg width="432" height="276" viewBox="0 0 432 276" fill="none" xmlns="http://www.w3.org/2000/svg">
<path d="M392.359 67.7911C390.406 65.8385 387.24 65.8385 385.288 67.7911L353.468 99.6109C351.515 101.564 351.515 104.729 353.468 106.682C355.421 108.635 358.586 108.635 360.539 106.682L388.823 78.3977L417.107 106.682C419.06 108.635 422.226 108.635 424.179 106.682C426.131 104.729 426.131 101.564 424.179 99.611L392.359 67.7911ZM11.1421 146.584C23.7347 180.121 54.531 203.066 92.5265 216.051C130.58 229.055 176.528 232.339 220.834 226.091C265.127 219.845 308.212 204.009 340.343 178.335C372.586 152.571 393.823 116.838 393.823 71.3267L383.823 71.3267C383.823 113.316 364.373 146.333 334.1 170.523C303.716 194.802 262.456 210.123 219.437 216.189C176.431 222.254 132.098 219.006 95.7603 206.588C59.3651 194.15 31.6614 172.783 20.5039 143.069L11.1421 146.584Z" fill="#306990"/>
</svg>
