<svg width="150" height="100" fill="none" xmlns="http://www.w3.org/2000/svg"><g clip-path="url(#clip0)"><path d="M147.618 35.44L75.908.298a2.914 2.914 0 00-2.567 0L1.631 35.44A2.918 2.918 0 000 38.113a2.91 2.91 0 001.729 2.608l34.999 15.57v22.116c0 1.385.972 2.576 2.325 2.854 20.304 4.182 28.924 8.654 32.937 17.077A2.91 2.91 0 0074.62 100h.02a2.918 2.918 0 002.63-1.7c3.82-8.344 14.556-13.911 32.82-17.019a2.913 2.913 0 002.427-2.874V56.291l12.203-5.43 3.542 10.81c-3.169 1.434-5.38 4.62-5.38 8.319 0 1.799.526 3.472 1.426 4.889l-3.634 5.4a2.917 2.917 0 00.792 4.045c1.311.883 3.169.506 4.048-.791l3.21-4.773s-.786 5.678-.789 5.708c-.204 1.472.996 3.08 2.489 3.285 1.524.208 3.067-.9 3.286-2.485l.873-6.326s1.875 4.906 1.881 4.918c.552 1.449 2.319 2.234 3.762 1.682 1.41-.54 2.234-2.313 1.682-3.761l-2.471-6.467a9.064 9.064 0 001.72-5.322c0-4.276-2.955-7.874-6.936-8.861l-4.145-12.653 17.44-7.76a2.916 2.916 0 00.102-5.278zM106.69 75.968c-8.596 1.618-15.468 3.785-20.95 6.601-4.75 2.439-8.468 5.418-11.108 8.888-6.087-8.178-16.707-12.1-32.07-15.416V62.217c0-2.272 3.216-4.941 8.395-6.971 6.276-2.457 14.682-3.812 23.672-3.812s17.396 1.355 23.673 3.812c5.175 2.027 8.394 4.7 8.394 6.971v13.751h-.006zm0-22.913c-1.732-1.194-3.826-2.281-6.268-3.236-6.937-2.716-16.1-4.212-25.799-4.212-9.7 0-18.859 1.496-25.799 4.212-2.438.955-4.535 2.041-6.267 3.236v-6.402c0-2.273 3.215-4.945 8.394-6.972 6.276-2.456 14.682-3.811 23.672-3.811s17.396 1.355 23.673 3.811c5.175 2.027 8.394 4.7 8.394 6.972v6.402zm25.323 13.637h.02a3.307 3.307 0 013.298 3.298c0 1.679-1.572 3.297-3.307 3.3-1.711 0-3.306-1.53-3.306-3.298a3.303 3.303 0 013.295-3.3zM112.52 49.91v-3.257c0-4.942-4.297-9.346-12.098-12.402-6.937-2.716-16.1-4.211-25.799-4.211-9.7 0-18.859 1.495-25.799 4.211-7.8 3.056-12.097 7.46-12.097 12.402v3.257L9.797 37.928 74.624 6.163 139.45 37.93l-26.93 11.98z" fill="#306990" stroke="#306990"/></g><defs><clipPath id="clip0"><path fill="#fff" d="M0 0h149.249v100H0z"/></clipPath></defs></svg>