<svg width="156" height="207" fill="none" xmlns="http://www.w3.org/2000/svg"><g clip-path="url(#clip0)" fill="#3F7BA3"><path d="M139.813 0H16.187C7.259 0 0 6.08 0 13.559V193.44C0 200.92 7.259 207 16.187 207h123.631c8.929 0 16.187-6.08 16.187-13.559V13.559C156 6.08 148.741 0 139.813 0zm7.951 193.441c0 3.671-3.564 6.66-7.951 6.66H16.187c-4.382 0-7.95-2.985-7.95-6.66V13.559c0-3.67 3.563-6.66 7.95-6.66h123.631c4.382 0 7.951 2.985 7.951 6.66l-.005 179.882z"/><path d="M137.391 31.44H18.614c-2.274 0-4.118 1.546-4.118 3.45v137.22c0 1.904 1.844 3.449 4.118 3.449H137.39c2.274 0 4.119-1.545 4.119-3.449V34.89c0-1.909-1.845-3.45-4.119-3.45zM22.731 96.135L62.596 38.34h11.19l-51.053 74.016V96.134zM53.08 38.34l-30.348 44v-44H53.08zm-30.348 87.809l60.564-87.81h49.977v72.918L93.679 168.66H22.732v-42.511zm80.457 42.511l30.079-43.61v43.61h-30.079zM66.268 23h23.464C91.536 23 93 21.432 93 19.5S91.536 16 89.732 16H66.268C64.464 16 63 17.568 63 19.5s1.464 3.5 3.268 3.5zM78 178c-4.964 0-9 4.036-9 9s4.036 9 9 9 9-4.036 9-9-4.036-9-9-9zm0 10.94a1.938 1.938 0 01-1.936-1.935c0-1.065.872-1.936 1.936-1.936s1.936.871 1.936 1.936A1.938 1.938 0 0178 188.94z"/></g><defs><clipPath id="clip0"><path fill="#fff" d="M0 0h156v207H0z"/></clipPath></defs></svg>