<svg width="54" height="77" fill="none" xmlns="http://www.w3.org/2000/svg"><path d="M36.67 48.07c-4.952-2.667-6.015-2.16-9.142-4.19-3.84-2.494-6.094-5.713-5.713-7.999.127-2.158 1.98-5.256 11.427-1.904 4.95 1.757 8.76 1.294 11.807 4.95l6.475 6.476c.762.762.38 3.047.38 3.047-2.285 10.665.381 23.614-22.852 25.9-9.014 1.015-26.965-2.437-25.137-21.329" stroke="#353535" stroke-width="3" stroke-linecap="round" stroke-linejoin="round"/><path d="M12.295 48.831c.38 5.332-9.522 6.475-10.284 0V32.453c-.38-4.57 9.141-6.475 10.284 0m0 0V30.55c-.38-4.19 9.141-6.475 10.665 0m-10.665 1.904v20.568c.762 5.332 10.055 5.79 10.665 0m0-22.472v-1.524c0-5.332 9.522-6.856 10.664 0M22.96 30.55v2.666c-2.438 1.523-1.016 5.205 0 6.856v12.95m10.664-23.996l.381-22.853c0-4.57 9.522-6.474 11.046 0v32.375m-11.427-9.522v4.952M22.96 53.02v3.428c.38 5.713 10.664 5.713 10.664 0v-9.142" stroke="#353535" stroke-width="3" stroke-linecap="round" stroke-linejoin="round"/></svg>