<svg width="54" height="70" fill="none" xmlns="http://www.w3.org/2000/svg"><path d="M45.803 47.44l.352-12.66 5.688-24.966c1.406-7.352-7.033-8.056-8.44-1.407l-7.094 24.264L35.667 7c-.703-7.353-8.853-5.946-8.853 0v24.967L21.953 9.143C19.49 2.11 12.81 3.868 13.513 10.9l3.516 23.88-7.384-17.55c-2.171-5.627-9.846-4.923-7.033 3.164l4.311 17.55 1.055 10.12c4.571 18.99 10.198 19.341 17.934 20.044 14.066-.703 16.727-7.736 20.243-11.955 3.224-3.869.938-6.956-.352-8.714zm0 0l-15.472-9.494c-3.376-3.095-6.095-1.993-7.033-1.055-2.25 2.813-.469 7.501.703 9.494l8.791 8.088" stroke="#353535" stroke-width="3" stroke-linecap="round" stroke-linejoin="round"/></svg>