<svg width="54" height="78" fill="none" xmlns="http://www.w3.org/2000/svg"><path d="M44.713 42.448l1.582-6.328s3.955-19.38 5.537-26.102C53.414 3.295 43.357.13 41.154 7.645c-2.203 7.514-6.328 22.938-6.328 22.938s-4.818-19.379-6.328-24.916C26.988.131 17.028.921 18.215 7.645c1.187 6.723 3.558 19.38 3.558 19.38l.791 4.745m22.15 10.678c-1.188-.395-9.23-2.24-13.053-3.56-5.933-2.045-10.283-3.163-13.052-2.768-6.327.904-5.932 7.12-3.954 9.492m30.058-3.164c1.582 1.582 4.667 5.22 4.35 7.12-2.372 14.237-4.35 24.52-21.356 26.102C2.394 78.024 2.394 51.545 2.394 41.262m20.17-9.492l.493 4.35m-.493-4.35c-1.186-4.746-9.49-3.955-9.49.791v3.164m0 0C12.283 30.584 2 29.793 2 36.515l.394 4.747m10.68-5.537l1.58 9.887m.396 3.955c-1.186 5.142-8.7 5.537-10.678 1.187l-1.978-9.492m12.656 8.305c.791 2.505 5.14 7.91 9.887 2.373m-9.887-2.373l-.395-3.955m10.282 6.328l5.933 1.978m-5.933-1.978c-2.768-.79-8.99-4.35-10.282-6.328" stroke="#353535" stroke-width="3" stroke-linecap="round" stroke-linejoin="round"/></svg>