<svg width="54" height="70" viewBox="0 0 54 70" fill="none" xmlns="http://www.w3.org/2000/svg">
<path d="M45.8034 47.4399L46.155 34.7807L51.8425 9.81379C53.2491 2.46158 44.8096 1.75828 43.403 8.40722L36.3089 32.6708L35.6668 7.00065C34.9635 -0.351633 26.8145 1.05486 26.8145 7.00062V31.9675L21.9526 9.14282C19.491 2.10989 12.8098 3.86812 13.5131 10.901L17.0294 34.7807L9.64489 17.2307C7.47398 11.6043 -0.20118 12.3076 2.61201 20.3955L6.92304 37.9455L7.97798 48.0657C12.5494 67.0545 18.1757 67.4062 25.9119 68.1095C39.9778 67.4062 42.6386 60.3733 46.155 56.1535C49.3785 52.2854 47.0928 49.1982 45.8034 47.4399ZM45.8034 47.4399L30.331 37.9455C26.9551 34.851 24.2357 35.9528 23.298 36.8905C21.0475 39.7036 22.8292 44.3923 24.0013 46.385L32.7925 54.4729" stroke="#353535" stroke-width="3" stroke-linecap="round" stroke-linejoin="round"/>
</svg>
