<svg width="69" height="78" fill="none" xmlns="http://www.w3.org/2000/svg"><path d="M8.55 52.382c0 8.09 2.928 24.119 14.64 23.502h8.863c2.568.257 9.092-1.54 14.64-10.788 1.285-2.055 3.083-4.238 5.78-5.009l10.788-4.623c2.055-.9 5.471-3.853 2.697-8.477-.693-1.155-3.853-3.313-11.559-1.155l-6.935 1.155v-8.09l7.706-23.889c2.312-5.779-6.165-9.247-8.862-4.238L35.52 37.74 33.98 6.147c-.771-5.009-9.248-6.165-10.404.385V36.97l-.77-6.165m-11.174 3.083V31.96c.386-10.403 11.174-8.09 11.174-2.312v1.156m-11.174 3.083c0-3.853-8.09-7.32-9.632 0v13.87c.385 5.394 9.632 5.486 9.632.554m0-14.424v14.424m0 0c1.541 4.623 8.862 5.61 10.403-.554l.77-16.953" stroke="#353535" stroke-width="3" stroke-linecap="round" stroke-linejoin="round"/></svg>