<svg width="102" height="102" fill="none" xmlns="http://www.w3.org/2000/svg"><path d="M7.788 32.674h86.429a2.263 2.263 0 001.107-4.236L52.204 1.347a2.263 2.263 0 00-2.408 0L6.584 28.496a2.263 2.263 0 001.204 4.178zM51 5.934L86.36 28.15H15.641l35.36-22.215zm47.738 79.229h-2.263v-6.787a2.263 2.263 0 00-2.262-2.263H91.95V41.724h2.263a2.263 2.263 0 000-4.525H7.787a2.263 2.263 0 000 4.525h2.263v34.39H7.787a2.263 2.263 0 00-2.262 2.262v6.787H3.262A2.263 2.263 0 001 87.425v11.313A2.263 2.263 0 003.262 101h95.476A2.263 2.263 0 00101 98.737V87.425a2.263 2.263 0 00-2.262-2.262zm-11.313-9.05H82.9V41.724h4.525v34.39zm-17.948 0V41.724h8.899v34.39h-8.9zm-9.05 0V41.724h4.525v34.39h-4.525zm-14.329 0V41.724h9.804v34.39h-9.804zm-9.05 0V41.724h4.525v34.39h-4.525zm-13.424 0V41.724h8.9v34.39h-8.9zm-9.05-34.389H19.1v34.39h-4.524v-34.39zm81.901 54.751H5.525v-6.787h18.238a2.263 2.263 0 000-4.525H10.05v-4.525h81.9v4.525H31.48a2.263 2.263 0 000 4.525h64.995v6.787z" fill="#306990" stroke="#306990" stroke-width="2"/></svg>