<svg width="1321" height="800" fill="none" xmlns="http://www.w3.org/2000/svg"><path d="M352.582 745.3l-18.432 13.433-.254 4.249-5.823-5.57-10.008.317.507-8.74-2.6-3.678-2.917-8.423-2.663.253-5.824-8.233-24.265 1.332s-15.018-16.086-27.172-22.427l-21.666 6.901-.444 41.43h-4.566s-7.408-11.087-10.008-11.911c-1.903-.571-7.916 3.044-11.023 5.073-1.839-1.649-1.205-7.155-1.395-8.487-.254-1.839-6.585-6.331-8.994-7.091-2.347-.825-5.253-10.833-6.838-12.989-1.586-2.093-1.078-4.439 2.346-3.425 3.424 1.078 1.902-6.33 5.073-6.838 3.171-.57 6.584-.253 10.008-2.409 1.205-.698 3.425-4.999 3.171-7.663-.254-2.599-3.678-6.33-3.678-6.33-11.847-3.171-20.524 1.014-26.538 5.696l-9.121-5.696 5.507-.761-7.853-11.467h-7.535l.38-7.155-4.745-.761 3.551-8.74-.38-9.882 5.569-6.331s6.711 6.711 8.677 7.092c1.966.444-.824-9.501-.824-9.501l6.33-1.966.444-3.932 11.087-7.916 4.312.381s0 3.551 1.649 2.79c1.521-.824 6.711-3.995 6.711-3.995l1.965 3.171h6.331l5.136 5.136 4.376 7.535 1.205-6.33 9.12 7.155s1.142-2.029 3.171-4.376c1.966-2.346 6.331-3.995 6.331-3.995l4.312 3.615 2.029-3.615s4.692-.76 5.506.825c.825 1.585 9.121 6.711 9.121 6.711l2.727-4.376s5.189 2.791 10.325 2.791c5.137 0 2.346-7.916-.38-10.643-2.79-2.79-7.536-3.995-7.536-3.995s-1.966-2.79 1.586-5.126c3.551-2.409 4.375-3.17 3.995-5.189-.444-1.966.76-6.711.76-6.711l9.502.824-7.916-3.995 1.966-2.79-5.126-2.346 3.17-5.506 5.137 1.141 5.189.38 10.643-4.312 12.291-2.029.761-4.692 22.617-3.615 1.966-2.726 3.931-4.376s3.615 3.551 7.98 4.376c4.312.761 5.886-1.205 7.472-1.205 1.585 0 .38 4.375 1.585 5.126 1.205.761.444 7.091.824 10.706.381 3.551 7.472-1.966 7.472-1.966l4.376 4.312 11.467-.761s-1.966 2.346-3.932 3.171c-1.966.76 0 5.136 0 5.136l6.331-3.551s7.091-3.615 16.593-8.74c9.501-5.137 4.375.443 2.79 1.585-1.586 1.205-.381 4.375-.381 4.375s11.087 10.326 12.292 11.467c1.141 1.205 15.018 30.089 15.018 30.089s5.126-5.886 6.33-7.916c1.205-1.965 3.995 5.951 3.995 5.951l3.171 1.585 5.95.38s1.966-1.965 7.472-2.346c5.57-.38 6.711 6.711 6.711 6.711l5.57 3.932s1.966 4.375 6.331 7.155c4.375 2.79 9.12-3.995 9.12-3.995s-.38 2.409-.38 3.614c0 .761 2.79 2.346 5.189 3.424l-5.189 2.917.38 4.756-9.501 5.126s.381 1.585 0 9.121c-.38 7.535-6.331 7.535-6.331 7.535l-13.496-5.189-6.33 17.417 1.585 7.155-6.711-1.205-13.052 3.552 5.95 19.002-4.82 3.995v7.916l-7.472-5.95-34.845-.825-5.189-5.506-7.472 1.966.761 8.74-17.798-4.375-1.585 4.502-2.198 1.564z" fill="#97CFEE"/><path d="M366.205 756.64l3.17 4.376-3.17 1.966-5.887 4.745h-4.375l-1.586 1.585-2.029-1.965-2.917.19-.634-2.981 2.41-2.346-.825-3.171-5.126 2.347-5.569.824-.381 5.126-5.125.38 1.204 4.756-1.585 1.586h-7.535l-1.586 1.585 3.995 4.375 1.966 5.137 1.585 5.125-4.375 8.741-9.501-2.22v-1.902c0-3.932-2.917-5.253-5.824-6.584-2.917-1.332-17.67-11.594-24.265-15.832-6.585-4.249-5.57-7.662-7.916-13.433-2.347-5.823-10.326-2.663-12.672-2.917-2.346-.317-18.178-13.496-18.178-13.496s-4.249 3.741-5.316 4.999c-1.015 1.332-3.425.571-3.425.571l-1.331 7.916h-8.36l.444-41.43 21.666-6.901c12.164 6.331 27.172 22.427 27.172 22.427l24.265-1.332 5.824 8.233 2.663-.254 2.917 8.424 2.6 3.678-.507 8.74 10.008-.317 5.823 5.569.254-4.248 18.432-13.433 2.156 1.839-7.536 5.57 4.376 3.17h3.931l7.536-2.029 3.139 2.811z" fill="#CFEAFA"/><path d="M1090.99 506.86l17.29 6.648c-.69.634-1.39 1.459-2.15 2.41-7.85 10.262-14.64 25.713-10.64 29.708 3.93 3.932 13.05 21.349 6.71 25.333-6.33 3.932-12.29 5.137-11.09 11.087 1.2 5.95 2.79 9.882-3.99 12.672-6.72 2.79-10.27 4.745-11.03 15.451-.82 10.643-22.17 34.021-25.78 34.021-3.55 0-17.79-64.554-10.26-76.391 7.54-11.911 36.04-43.965 43.9-53.467 2.04-2.335 4.45-4.872 7.04-7.472zm-87.73-329.838c7.86 6.331-1.65 11.911-14.317 11.911-12.672 0-30.723-12.545-25.333-23.822 1.331-2.726 8.74-3.17 11.911 2.41 3.17 5.58 19.763 3.171 27.739 9.501zm-55.481-18.241c15.081 8.74 6.33 22.997-6.331 22.997-12.672 0-26.855 10.326-42.698 7.155-10.706-2.156-11.276-18.685-7.915-32.118 2.156-8.55 11.847-12.672 19.573-8.423.063.063.126.063.19.127 7.155 3.931 22.162 1.585 37.181 10.262zm-8.804 63.856c2.98 4.122 4.439 9.628 2.473 14.32-9.057 1.966-18.051-2.726-26.094-7.345-.888-.507-1.902-1.205-2.029-2.219-.191-1.268 1.014-2.22 2.029-3.044a20.732 20.732 0 007.599-12.038c.761-1.078 3.297-.57 4.692.381 4.164 2.906 8.413 5.823 11.33 9.945zM626.846 47.2c5.351 0 9.809 17.702 5.779 23.142-3.994 5.441-21.831 9.974-26.289 9.502-4.458-.436 4.458-21.29 11.165-30.834 0 0 3.994-1.81 9.345-1.81zm-24.851-19.364c8.646 0 9.076 7.777 6.829 15.51-2.254 7.74-.437 15.511-3.63 16.863-3.193 1.389-16.341-2.265-22.225-5-5.919-2.74-2.29-18.725-.472-23.25-.006 0 10.888-4.123 19.498-4.123zM592.343.073c2.187.472 8.387 7.449 7.929 16.056-.459 8.613-5.284 8.613-11.872 12.717-6.624 4.103-13.247-1.346-14.094-8.607-.917-7.268-2.08-7.122 6.306-18.93 0 0 9.551-1.673 11.731-1.236zm-279.29 127.351c1.585-3.171 23.758-23.251 23.758-6.902 0 16.403-6.33 25.334-30.659 36.991-24.266 11.594-50.677 30.596-63.856 68.601-13.179 38.005-15.832 43.839-11.594 52.262 2.98 5.95 9.121 15.388 12.482 20.334a2.946 2.946 0 01-1.966 4.503c-9.058 1.775-25.217 1.902-27.426-2.156-2.663-4.746-3.171-16.34-8.423-17.418-5.316-1.014-16.403-7.916-6.902-18.431 9.502-10.58 39.083-80.766 39.083-86.59 0-5.823 29.011-34.337 41.176-36.926 12.154-2.674 32.742-11.098 34.327-14.268z" fill="#56A9DE"/><path d="M152.982 748.777l-2.537-.888-3.171-6.331-1.965-1.522-5.57.761-4.756 1.586-2.346-2.347-9.501-5.95-6.712.381-10.706-3.551-2.853 1.141c-7.726-6.204-14.257-12.862-16.847-13.433-3.424-.761-5.76-6.33-2.346-12.418 3.424-6.077 7.916-12.418 9.248-13.179 1.331-.825 7.662-3.995 1.331-3.995-2.029 0-4.248.317-6.52.824.76-3.044 1.902-7.028 2.916-8.043 1.776-1.775 6.965-1.585 9.692-1.585 2.79 0 2.219-2.41 2.41-4.185.19-1.776-3.995-3.932-3.995-3.932l4.375-3.995-4.756-2.155 4.376-.825s1.204-3.741 1.395-4.566c.19-.761-2.981-.951-4.376-.951-1.395 0-4.946-1.966-4.946-1.966l-5.38-4.375s-1.521.761-3.17 1.966c-1.522 1.205-4.946-6.521-4.946-6.521s-4.566 2.79-6.077 2.79c-1.649 0-5.38-3.805-5.38-3.805l-2.98 2.791-1.966-4.376-.19-3.741-1.585.19.19-4.745-8.296.57-.635-6.077h3.361l-4.312-5.76-2.22-3.17-3.93 1.775-2.41 1.395-.38-1.585-4.376-.634.063 3.615-5.38.126v-6.077h-2.092l-.317-8.677 7.662 1.015 4.249-4.999-2.917-2.346v-2.664l-5.253 1.332.508-6.33-3.932-.318-1.839-7.091-3.17-1.839 1.521-3.995-2.6-2.6 1.84-2.41.253-2.916-2.917-1.015-2.092-2.917-4.249 2.6-2.568 1.353-.317-4.503-5.01.571-5.126-2.853-.887-11.15-4.376 1.204 1.205-7.535L0 551.523l.19-.444 2.98-7.852S.38 532.964.76 530.555c.445-2.347 6.332-7.536 6.332-7.536l-1.522-3.107c4.565-1.839 6.774-6.394 9.5-6.394 3.552 0 9.058 0 7.093-1.966-1.966-1.966-8.74-2.727-9.882-4.375-.951-1.142-2.537-4.312-9.375-3.678 7.916-9.882 27.49-34.528 30.343-39.844 3.551-6.711-11.847-16.656-11.847-16.656l4.312-5.887-3.54-3.995-.381-9.501h-3.171l-1.205-2.79 2.346-2.727-1.965-1.585.824-9.502 3.551-.824s-9.12-24.139-9.12-25.344c0-1.204 5.188-7.916 5.569-9.501.38-1.585 3.17-7.535 0-11.086-3.17-3.552-9.12-5.951-9.12-5.951l1.204-12.228s-.127-1.712.064-4.121l3.487-1.839 1.966-5.95 5.95-2.727v-5.189l3.17 2.029h3.552l-.19-3.868c6.647 3.868 16.085 8.486 22.743 8.994 10.326.761 18.242 2.346 29.709 13.432 11.467 11.087 30.469 17.418 30.913 28.124.381 10.706 2.727 12.671-5.569 20.587-8.297 7.916-13.053 11.467-31.23 3.171-18.242-8.296-28.505-13.433-30.914-14.638-2.41-1.204-4.756-3.17.38 4.376 5.19 7.472 15.452 11.467 15.832 17.354.38 5.95 1.205 21.031 2.79 26.157 1.586 5.136 10.706 12.672 15.082 13.052 4.312.444 9.5.444 8.296-3.551-1.205-3.995-5.95-6.711-9.12-11.847-3.171-5.189-1.206-10.706 6.33-5.95 7.535 4.756 26.538 9.12 22.173 1.585-4.375-7.536-9.12-9.501-4.375-13.496 4.756-3.932 16.656-21.349 24.582-17.417 7.916 3.995 12.672 5.125 12.672-.761 0-2.6-1.014-5.887-2.092-9.565l12.798-2.219c.508.887 1.268 1.585 2.346 2.156 6.331 3.17 3.171 4.185 16.34-11.658 13.242-15.832 32.245-32.689 44.917-26.347 12.671 6.33 14.257 2.6 23.758 1.585 9.501-1.078 19.002-1.585 27.933-5.316 8.994-3.678 4.248-16.847-1.015-19.51-5.316-2.663 0-7.916 11.087-3.17 11.086 4.755 25.84 6.33 35.352 16.909 9.501 10.516 16.91 18.432 20.081 18.432 3.17 0 13.179-2.092 3.17-15.832-10.072-13.686-17.988-30.089-14.828-38.005 3.171-7.916 12.165-25.333 16.91-41.683 4.756-16.339 6.331-21.095 14.765-19.002 8.486 2.093 22.173 5.253 17.417 25.84-4.756 20.588 2.156 22.744 1.585 32.753-.507 10.008-4.185 45.413 1.078 45.413s14.257 4.756 11.594-12.164c-2.6-16.91-6.331-50.677 5.823-58.086 12.165-7.345 28.504-19.509 32.753-16.846 4.185 2.6 14.764 15.832 20.017 15.832 5.316 0 8.994-4.249 4.248-11.087-4.756-6.901-16.339-26.411-13.75-33.259 2.664-6.902 46.492-5.316 50.17-13.243 3.678-7.916-12.672-15.832-3.171-27.426 9.501-11.593 21.666-27.996 35.352-27.996 13.75 0 18.496-6.331 25.334-8.931 6.901-2.663 18.495-5.316 30.089-5.823 11.657-.507 12.164-7.916 19.573-11.086 7.345-3.171 10.516-7.409 12.672-17.925 2.092-10.579 8.423-23.758 16.846-26.411 8.487-2.663 24.329 5.253 21.159 8.994-3.171 3.678-13.75 12.101-8.994 11.594 4.756-.508 21.095 2.092 22.173 7.916 1.078 5.823 27.996 1.078 33.259 6.33 5.263 5.253 27.426 30.089 14.257 45.921-13.179 15.832-38.512 37.498-35.341 41.683 3.17 4.249 15.261 3.171 27.933 5.316 12.672 2.093 45.921 1.015 52.262 10.009 6.331 8.994 36.42 21.095 36.42 9.501s-3.171-19.51 21.158-8.994c24.266 10.579 26.918 15.324 23.758 23.251-3.17 7.916-6.33 15.325-1.585 23.251 4.756 7.916 18.432 34.845 22.68 14.764 4.249-20.08 1.586-23.758 12.672-15.324 11.087 8.487 49.599 10.072 52.262 1.078 2.664-8.994-3.17-27.997 19.003-24.836 22.173 3.17 50.169 4.248 57.007 12.164 6.838 7.916 12.166 13.179 19.006 23.251 6.83 10.009 20.08 10.009 29.01 7.345 8.99-2.599 38-1.585 38.57 8.994.51 10.58-3.74 26.919 13.18 24.837 16.91-2.156 33.26-2.156 38.51 1.014 5.32 3.171 12.68-4.756 16.41-5.252 3.68-.508 31.1-11.594 52.26-3.678 21.09 7.916 47.51 27.425 61.76 36.927 14.26 9.501 23.19 13.75 23.19 17.417 0 3.667-2.09 15.832 1.59 15.832 3.74 0 6.64-6.711 6.64-6.711 2.35 0 15.96 1.331 16.6 2.346 1.2 1.966 15.45 17.798 15.45 17.798-3.17 5.189-6.33 6.33-5.95 7.979.38 1.522-7.09 2.346-9.5 5.887-2.41 3.614-6.71 23.378-9.12 22.617-2.35-.825-22.94-8.741-23.32-13.116-.44-4.376-5.95-12.672-13.11-11.087-7.1 1.586-12.68-7.916-11.85-10.262.76-2.409-5.95-6.711-6.71-2.409-.83 4.375 4.69 14.257-.83 19.826-5.5 5.507-15.83 10.706-19.38 8.297-3.62-2.41-10.33-3.551-7.54.761 2.79 4.375 6.72 5.569 10.27 9.945 3.61 4.375 2.41 8.296 5.95 12.228 3.55 3.995 7.91 14.701 4.37 17.48-3.55 2.727-14.64-3.614-19.83-1.204-5.12 2.346-51.05 29.264-51.43 35.214-.38 5.95-5.13 11.467-11.91-1.585-6.71-13.052-17.8 13.877-24.14 12.291-5.76-1.458-11.15-8.423-18.05-2.029l-17.29-6.647c7.72-7.663 16.84-16.086 19.51-23.822 3.61-10.262 9.5-20.588-1.21-16.213-10.64 4.376-5.89 7.155-18.56 22.554-12.67 15.451-11.91 19.827-13.11 13.496-1.14-6.331 3.17-21.032-7.1-21.032-10.26 0-31.29 20.208-36.41 28.124-5.14 7.916 7.53 15.081-5.96 16.212-13.43 1.205-17.41-1.966-48.262-3.171-30.913-1.141-42.381-3.551-70.123 30.914-27.68 34.464-37.561 41.936-19.383 45.107 18.241 3.171 33.259-6.711 34.464 11.15 1.205 17.798-8.74 78.356-35.225 104.08-26.538 25.777-29.709 30.913-36.864 25.777-3.17-2.283-8.994.951-14.954 6.077l-.888-5.316-1.332-.951 6.141-1.839 1.141-13.813s-4.312-6.775-2.79-8.36c1.649-1.585 7.155-7.472 11.15-4.756 3.931 2.79 4.312 3.614 7.852-3.171 3.615-6.711 7.98-13.876 6.775-16.592-1.205-2.791 4.375-8.741 4.375-8.741v-7.916l-13.496 2.41s-1.966 5.126-7.155 5.126c-5.136 0-13.433 0-12.672-3.171.825-3.17-.761-11.086-.761-11.086l-3.17-1.205-5.57-5.887-5.136-1.205-8.297-1.205-1.965-8.296-6.331-11.467s0-13.116-1.585-13.116c-1.586 0-2.791-11.467-17.037-15.018-14.257-3.551-20.588.381-22.998.381-2.346 0-10.262 1.965-11.467 6.711-1.204 4.756 3.615 3.17 3.615 3.17l.761 6.331s-7.092 5.57-7.916 9.121c-.824 3.551-5.126 11.467-4.375 13.052.824 1.585-1.966 7.536-6.712 8.74-3.614.888-8.423-.317-12.925-1.775-1.395-.444-2.79-.951-4.122-1.395-5.506-2.029-9.882.761-11.847-1.205-2.03-1.966-4.376-5.506-9.882.824-5.57 6.331-14.321 9.502-24.202 9.502-9.882 0-19.764-2.41-21.349-6.331-1.585-3.995-6.331-3.171-6.331-3.171s-2.79-7.979-10.706-6.33c-7.916 1.522-20.588 6.711-25.713.38-5.19-6.33-5.951-12.291-5.951-12.291l-8.296-3.932-9.945-.444.444-2.726-7.155-3.615c-9.882 10.326-7.916 18.242-6.331 20.588 1.586 2.41-.761 11.086-4.312 10.706-3.614-.381-9.501-5.126-14.32-3.551-4.693 1.585-11.023-.444-13.053-5.126-1.965-4.819-9.501-1.649-9.501-1.649l-.38-2.346-7.092-2.346-24.583 17.798-7.535 1.204s-.888 1.269-1.966 2.156h-.063c-.634.571-1.332 1.015-1.903 1.015-.57 0-1.775-.38-3.107-.951-2.41-1.078-5.189-2.663-5.189-3.424 0-1.205.38-3.615.38-3.615s-4.756 6.775-9.12 3.995c-4.376-2.79-6.331-7.155-6.331-7.155l-5.57-3.932s-1.141-7.091-6.711-6.711c-5.506.381-7.472 2.347-7.472 2.347l-5.95-.381-3.171-1.585s-2.79-7.916-3.995-5.95c-1.204 2.029-6.33 7.916-6.33 7.916s-13.877-28.885-15.018-30.089a7166.827 7166.827 0 00-12.292-11.467s-1.204-3.171.381-4.376c1.585-1.141 6.711-6.711-2.79-1.585a890.787 890.787 0 01-16.593 8.74l-6.331 3.551s-1.966-4.375 0-5.136c1.966-.824 3.932-3.171 3.932-3.171l-11.467.761-4.376-4.312s-7.091 5.506-7.472 1.966c-.38-3.615.381-9.945-.824-10.706-1.205-.761 0-5.126-1.585-5.126-1.586 0-3.171 1.966-7.472 1.205-4.376-.824-7.98-4.376-7.98-4.376l-3.931 4.376-1.966 2.727-22.617 3.614-.761 4.693-12.291 2.029-10.675 4.365-5.189-.381-5.136-1.141-3.171 5.506 5.126 2.346-1.966 2.79 7.916 3.995-9.501-.824s-1.205 4.756-.761 6.711c.38 2.029-.444 2.79-3.995 5.189-3.551 2.347-1.585 5.126-1.585 5.126s4.756 1.205 7.535 3.995c2.727 2.727 5.506 10.643.381 10.643-5.126 0-10.326-2.79-10.326-2.79l-2.727 4.375s-8.296-5.136-9.121-6.711c-.824-1.585-5.506-.824-5.506-.824l-2.029 3.614-4.312-3.614s-4.375 1.648-6.331 3.995c-2.029 2.346-3.17 4.375-3.17 4.375l-9.121-7.155-1.205 6.331-4.375-7.536-5.137-5.136h-6.33l-1.966-3.171s-5.189 3.171-6.711 3.995c-1.649.761-1.649-2.79-1.649-2.79l-4.312-.38-11.086 7.915-.444 3.932-6.331 1.966s2.79 9.945.824 9.501c-1.965-.38-8.676-7.092-8.676-7.092l-5.57 6.331.38 9.882-3.551 8.74 4.746.761-.381 7.155h7.536l7.852 11.467-5.506.761 9.121 5.696-.127.127c-6.077 4.756-17.988 13.497-17.988 16.91 0 3.414 3.741 7.916 3.995 13.75.253 5.76.761 13.433 5.506 17.671.761.634 1.522 1.458 2.22 2.41l-5.887 5.633-5.126-1.586-3.551-4.375-4.597-1.511z" fill="#56A9DE"/><path d="M145.701 349.641c3.17 2.093 17.924 13.75 11.086 17.417-5.633 3.044-9.564 10.453-7.091 14.765l-12.799 2.219c-1.332-4.756-2.663-10.262-1.776-15.895 1.575-10.083 7.409-20.599 10.58-18.506z" fill="#56A9DE"/><path d="M385.542 421.566c-.132 5.853-1.547 11.356-3.917 16.664-4.712 10.543-11.441 19.695-19.417 27.941-3.716 3.845-7.759 7.376-11.711 10.989-2.037 1.861-3.49 1.786-5.593.016-7.781-6.551-14.894-13.745-20.989-21.906-4.862-6.51-9.106-13.415-11.73-21.124-3.939-11.557-2.636-22.659 4.018-32.942 5.471-8.456 13.246-13.886 23.061-16.158 9.206-2.132 18.085-.948 26.406 3.584 8.698 4.737 14.596 11.906 17.819 21.262.487 1.416.914 2.876 1.152 4.348.393 2.426.609 4.88.901 7.326zm-37.801 23.484c12.687-.025 22.917-10.286 22.885-22.951-.031-12.649-10.38-22.951-22.985-22.882-12.612.069-22.835 10.333-22.832 22.923.01 12.674 10.28 22.935 22.932 22.91z" fill="#353535"/><path d="M333.416 421.729c.223-7.558 6.369-13.673 13.965-13.886 2.046-.057 3.675 1.337 3.791 3.245a3.352 3.352 0 01-3.314 3.566 7.72 7.72 0 00-7.599 7.58c-.035 2.085-1.733 3.472-3.663 3.327-1.924-.144-3.243-1.732-3.18-3.832zm-9.356 232.367c-.103 4.564-1.207 8.854-3.054 12.992-3.674 8.22-8.92 15.356-15.139 21.785-2.897 2.998-6.049 5.751-9.13 8.568-1.589 1.451-2.722 1.392-4.361.012-6.067-5.107-11.612-10.716-16.365-17.079-3.79-5.075-7.099-10.459-9.145-16.47-3.071-9.01-2.055-17.666 3.133-25.683 4.265-6.593 10.327-10.826 17.979-12.598 7.178-1.662 14.101-.739 20.588 2.795 6.782 3.692 11.38 9.282 13.893 16.577.379 1.104.712 2.242.898 3.389.306 1.892.475 3.806.703 5.712zm-29.472 18.31c9.892-.02 17.867-8.019 17.843-17.894-.025-9.862-8.093-17.894-17.921-17.84-9.833.054-17.804 8.056-17.801 17.872.007 9.882 8.014 17.882 17.879 17.862z" fill="#353535"/><path d="M283.421 654.224c.173-5.893 4.965-10.66 10.887-10.827 1.596-.044 2.866 1.043 2.956 2.531a2.614 2.614 0 01-2.584 2.78 6.018 6.018 0 00-5.924 5.91c-.027 1.625-1.351 2.706-2.856 2.594-1.5-.113-2.528-1.351-2.479-2.988zm32.954 86.4c-.065 2.877-.761 5.581-1.926 8.19-2.315 5.183-5.623 9.681-9.543 13.734-1.827 1.89-3.814 3.626-5.757 5.402-1.001.915-1.715.877-2.749.007-3.825-3.219-7.321-6.756-10.317-10.767-2.389-3.2-4.475-6.594-5.765-10.383-1.936-5.68-1.296-11.137 1.975-16.192 2.689-4.156 6.51-6.825 11.335-7.942 4.525-1.047 8.889-.466 12.979 1.762 4.275 2.328 7.174 5.852 8.759 10.451.239.696.449 1.413.566 2.137.193 1.192.299 2.399.443 3.601zm-18.58 11.543c6.236-.013 11.264-5.056 11.248-11.281-.015-6.218-5.102-11.281-11.298-11.247-6.199.034-11.223 5.079-11.222 11.267.005 6.23 5.053 11.273 11.272 11.261z" fill="#353535"/><path d="M290.752 740.704c.11-3.715 3.13-6.72 6.864-6.825 1.006-.028 1.807.657 1.864 1.595a1.65 1.65 0 01-1.63 1.753 3.795 3.795 0 00-3.735 3.726c-.017 1.024-.851 1.706-1.8 1.635-.946-.071-1.594-.852-1.563-1.884z" fill="#353535"/></svg>