<svg width="1321" height="800" viewBox="0 0 1321 800" fill="none" xmlns="http://www.w3.org/2000/svg">
<path d="M352.582 745.3L334.15 758.733L333.896 762.982L328.073 757.412L318.065 757.729L318.572 748.989L315.972 745.311L313.055 736.888L310.392 737.141L304.568 728.908L280.303 730.24C280.303 730.24 265.285 714.154 253.131 707.813L231.465 714.714L231.021 756.144H226.455C226.455 756.144 219.047 745.057 216.447 744.233C214.544 743.662 208.531 747.277 205.424 749.306C203.585 747.657 204.219 742.151 204.029 740.819C203.775 738.98 197.444 734.488 195.035 733.728C192.688 732.903 189.782 722.895 188.197 720.739C186.611 718.646 187.119 716.3 190.543 717.314C193.967 718.392 192.445 710.984 195.616 710.476C198.787 709.906 202.2 710.223 205.624 708.067C206.829 707.369 209.049 703.068 208.795 700.404C208.541 697.805 205.117 694.074 205.117 694.074C193.27 690.903 184.593 695.088 178.579 699.77L169.458 694.074L174.965 693.313L167.112 681.846H159.577L159.957 674.691L155.212 673.93L158.763 665.19L158.383 655.308L163.952 648.977C163.952 648.977 170.663 655.688 172.629 656.069C174.595 656.513 171.805 646.568 171.805 646.568L178.135 644.602L178.579 640.67L189.666 632.754L193.978 633.135C193.978 633.135 193.978 636.686 195.627 635.925C197.148 635.101 202.338 631.93 202.338 631.93L204.303 635.101H210.634L215.77 640.237L220.146 647.772L221.351 641.442L230.471 648.597C230.471 648.597 231.613 646.568 233.642 644.221C235.608 641.875 239.973 640.226 239.973 640.226L244.285 643.841L246.314 640.226C246.314 640.226 251.006 639.466 251.82 641.051C252.645 642.636 260.941 647.762 260.941 647.762L263.668 643.386C263.668 643.386 268.857 646.177 273.993 646.177C279.13 646.177 276.339 638.261 273.613 635.534C270.823 632.744 266.077 631.539 266.077 631.539C266.077 631.539 264.111 628.749 267.663 626.413C271.214 624.004 272.038 623.243 271.658 621.224C271.214 619.258 272.418 614.513 272.418 614.513L281.92 615.337L274.004 611.342L275.97 608.552L270.844 606.206L274.014 600.7L279.151 601.841L284.34 602.221L294.983 597.909L307.274 595.88L308.035 591.188L330.652 587.573L332.618 584.847L336.549 580.471C336.549 580.471 340.164 584.022 344.529 584.847C348.841 585.608 350.415 583.642 352.001 583.642C353.586 583.642 352.381 588.017 353.586 588.768C354.791 589.529 354.03 595.859 354.41 599.474C354.791 603.025 361.882 597.508 361.882 597.508L366.258 601.82L377.725 601.059C377.725 601.059 375.759 603.405 373.793 604.23C371.827 604.99 373.793 609.366 373.793 609.366L380.124 605.815C380.124 605.815 387.215 602.2 396.717 597.075C406.218 591.938 401.092 597.518 399.507 598.66C397.921 599.865 399.126 603.035 399.126 603.035C399.126 603.035 410.213 613.361 411.418 614.502C412.559 615.707 426.436 644.591 426.436 644.591C426.436 644.591 431.562 638.705 432.766 636.675C433.971 634.71 436.761 642.626 436.761 642.626L439.932 644.211L445.882 644.591C445.882 644.591 447.848 642.626 453.354 642.245C458.924 641.865 460.065 648.956 460.065 648.956L465.635 652.888C465.635 652.888 467.601 657.263 471.966 660.043C476.341 662.833 481.086 656.048 481.086 656.048C481.086 656.048 480.706 658.457 480.706 659.662C480.706 660.423 483.496 662.008 485.895 663.086L480.706 666.003L481.086 670.759L471.585 675.885C471.585 675.885 471.966 677.47 471.585 685.006C471.205 692.541 465.254 692.541 465.254 692.541L451.758 687.352L445.428 704.769L447.013 711.924L440.302 710.719L427.25 714.271L433.2 733.273L428.38 737.268V745.184L420.908 739.234L386.063 738.409L380.874 732.903L373.402 734.869L374.163 743.609L356.365 739.234L354.78 743.736L352.582 745.3Z" fill="#97CFEE"/>
<path d="M366.205 756.64L369.375 761.016L366.205 762.982L360.318 767.727H355.943L354.357 769.312L352.328 767.347L349.411 767.537L348.777 764.556L351.187 762.21L350.362 759.039L345.236 761.386L339.667 762.21L339.286 767.336L334.161 767.716L335.365 772.472L333.78 774.058H326.245L324.659 775.643L328.654 780.018L330.62 785.155L332.205 790.28L327.83 799.021L318.329 796.801C318.329 796.167 318.329 795.533 318.329 794.899C318.329 790.967 315.412 789.646 312.505 788.315C309.588 786.983 294.835 776.721 288.24 772.483C281.655 768.234 282.67 764.821 280.324 759.05C277.977 753.227 269.998 756.387 267.652 756.133C265.306 755.816 249.474 742.637 249.474 742.637C249.474 742.637 245.225 746.378 244.158 747.636C243.143 748.968 240.733 748.207 240.733 748.207L239.402 756.123H231.042L231.486 714.693L253.152 707.792C265.316 714.123 280.324 730.219 280.324 730.219L304.589 728.887L310.413 737.12L313.076 736.866L315.993 745.29L318.593 748.968L318.086 757.708L328.094 757.391L333.917 762.96L334.171 758.712L352.603 745.279L354.759 747.118L347.223 752.688L351.599 755.858H355.53L363.066 753.829L366.205 756.64Z" fill="#CFEAFA"/>
<path d="M1090.99 506.86L1108.28 513.508C1107.59 514.142 1106.89 514.967 1106.13 515.918C1098.28 526.18 1091.49 541.631 1095.49 545.626C1099.42 549.558 1108.54 566.975 1102.2 570.959C1095.87 574.891 1089.91 576.096 1091.11 582.046C1092.31 587.996 1093.9 591.928 1087.12 594.718C1080.4 597.508 1076.85 599.463 1076.09 610.169C1075.27 620.812 1053.92 644.19 1050.31 644.19C1046.76 644.19 1032.52 579.636 1040.05 567.799C1047.59 555.888 1076.09 523.834 1083.95 514.332C1085.99 511.997 1088.4 509.46 1090.99 506.86Z" fill="#56A9DE"/>
<path d="M1003.26 177.022C1011.12 183.353 1001.61 188.933 988.943 188.933C976.271 188.933 958.22 176.388 963.61 165.111C964.941 162.385 972.35 161.941 975.521 167.521C978.691 173.101 995.284 170.692 1003.26 177.022Z" fill="#56A9DE"/>
<path d="M947.779 158.781C962.86 167.521 954.109 181.778 941.448 181.778C928.776 181.778 914.593 192.104 898.75 188.933C888.044 186.777 887.474 170.248 890.835 156.815C892.991 148.265 902.682 144.143 910.408 148.392C910.471 148.455 910.534 148.455 910.598 148.519C917.753 152.45 932.76 150.104 947.779 158.781Z" fill="#56A9DE"/>
<path d="M938.975 222.637C941.955 226.759 943.414 232.265 941.448 236.957C932.391 238.923 923.397 234.231 915.354 229.612C914.466 229.105 913.452 228.407 913.325 227.393C913.134 226.125 914.339 225.173 915.354 224.349C919.222 221.369 921.938 217.067 922.953 212.311C923.714 211.233 926.25 211.741 927.645 212.692C931.809 215.598 936.058 218.515 938.975 222.637Z" fill="#56A9DE"/>
<path d="M626.846 47.2002C632.197 47.2002 636.655 64.9018 632.625 70.3424C628.631 75.783 610.794 80.3158 606.336 79.8437C601.878 79.408 610.794 58.5534 617.501 49.0097C617.501 49.0097 621.495 47.2002 626.846 47.2002Z" fill="#56A9DE"/>
<path d="M601.995 27.8364C610.641 27.8364 611.071 35.613 608.824 43.3469C606.57 51.0868 608.387 58.8573 605.194 60.2092C602.001 61.5976 588.853 57.9438 582.969 55.2096C577.05 52.4692 580.679 36.4838 582.497 31.9591C582.491 31.9591 593.385 27.8364 601.995 27.8364Z" fill="#56A9DE"/>
<path d="M592.343 0.0726286C594.53 0.545414 600.73 7.52203 600.272 16.1291C599.813 24.7423 594.988 24.7423 588.4 28.8458C581.776 32.9494 575.153 27.5002 574.306 20.2387C573.389 12.9712 572.226 13.1167 580.612 1.30914C580.612 1.30914 590.163 -0.363789 592.343 0.0726286Z" fill="#56A9DE"/>
<path d="M313.053 127.424C314.638 124.253 336.811 104.173 336.811 120.522C336.811 136.925 330.481 145.856 306.152 157.513C281.886 169.107 255.475 188.109 242.296 226.114C229.117 264.119 226.464 269.953 230.702 278.376C233.682 284.326 239.823 293.764 243.184 298.71C244.325 300.486 243.31 302.832 241.218 303.213C232.16 304.988 216.001 305.115 213.792 301.057C211.129 296.311 210.621 284.717 205.369 283.639C200.053 282.625 188.966 275.723 198.467 265.208C207.969 254.628 237.55 184.442 237.55 178.618C237.55 172.795 266.561 144.281 278.726 141.692C290.88 139.018 311.468 130.594 313.053 127.424Z" fill="#56A9DE"/>
<path d="M152.982 748.777L150.445 747.889L147.274 741.558L145.309 740.036L139.739 740.797L134.983 742.383L132.637 740.036L123.136 734.086L116.424 734.467L105.718 730.916L102.865 732.057C95.1392 725.853 88.6077 719.195 86.0184 718.624C82.5942 717.863 80.2585 712.294 83.6722 706.206C87.0964 700.129 91.5881 693.788 92.9198 693.027C94.2514 692.202 100.582 689.032 94.2514 689.032C92.2222 689.032 90.0028 689.349 87.7306 689.856C88.4915 686.812 89.6329 682.828 90.6475 681.813C92.423 680.038 97.6123 680.228 100.339 680.228C103.129 680.228 102.558 677.818 102.749 676.043C102.939 674.267 98.7537 672.111 98.7537 672.111L103.129 668.116L98.3732 665.961L102.749 665.136C102.749 665.136 103.953 661.395 104.144 660.57C104.334 659.809 101.163 659.619 99.7683 659.619C98.3732 659.619 94.8221 657.653 94.8221 657.653L89.4427 653.278C89.4427 653.278 87.9208 654.039 86.2721 655.244C84.7502 656.449 81.3259 648.723 81.3259 648.723C81.3259 648.723 76.7603 651.513 75.2489 651.513C73.6002 651.513 69.8695 647.708 69.8695 647.708L66.8891 650.499L64.9234 646.123L64.7331 642.382L63.1478 642.572L63.3381 637.827L55.0416 638.397L54.4075 632.32H57.7684L53.4563 626.56L51.2369 623.39L47.3054 625.165L44.8957 626.56L44.5152 624.975L40.1398 624.341L40.2032 627.956L34.8238 628.082V622.005H32.7312L32.4141 613.328L40.0764 614.343L44.325 609.344L41.4081 606.998V604.334L36.1554 605.666L36.6627 599.336L32.7312 599.018L30.8922 591.927L27.7216 590.088L29.2435 586.093L26.6436 583.493L28.4826 581.083L28.7362 578.167L25.8193 577.152L23.7267 574.235L19.4781 576.835L16.9099 578.188L16.5928 573.685L11.5833 574.256L6.45746 571.403L5.56969 560.253L1.19426 561.457L2.39909 553.922L0 551.523L0.190236 551.079L3.1706 543.227C3.1706 543.227 0.380472 532.964 0.760944 530.555C1.20483 528.208 7.09158 523.019 7.09158 523.019L5.56969 519.912C10.1354 518.073 12.3442 513.518 15.0709 513.518C18.622 513.518 24.1283 513.518 22.1625 511.552C20.1967 509.586 13.4222 508.825 12.2808 507.177C11.3296 506.035 9.74432 502.865 2.90638 503.499C10.8223 493.617 30.3955 468.971 33.249 463.655C36.8001 456.944 21.4016 446.999 21.4016 446.999L25.7136 441.112L22.1731 437.117L21.7926 427.616H18.622L17.4172 424.826L19.7634 422.099L17.7976 420.514L18.622 411.012L22.1731 410.188C22.1731 410.188 13.0523 386.049 13.0523 384.844C13.0523 383.64 18.2415 376.928 18.622 375.343C19.0025 373.758 21.7926 367.808 18.622 364.257C15.4514 360.705 9.50124 358.306 9.50124 358.306L10.7061 346.078C10.7061 346.078 10.5792 344.366 10.7695 341.957L14.2571 340.118L16.2229 334.168L22.1731 331.441V326.252L25.3437 328.281H28.8948L28.7045 324.413C35.3522 328.281 44.79 332.899 51.4483 333.407C61.7739 334.168 69.6898 335.753 81.1568 346.839C92.6238 357.926 111.626 364.257 112.07 374.963C112.451 385.669 114.797 387.634 106.501 395.55C98.2041 403.466 93.4482 407.017 75.2701 398.721C57.0286 390.425 46.7664 385.288 44.3567 384.083C41.9471 382.879 39.6008 380.913 44.7372 388.459C49.9264 395.931 60.1886 399.926 60.5691 405.813C60.9495 411.763 61.7739 426.844 63.3592 431.97C64.9445 437.106 74.0653 444.642 78.4407 445.022C82.7527 445.466 87.9419 445.466 86.7371 441.471C85.5323 437.476 80.7869 434.76 77.6163 429.624C74.4457 424.435 76.4115 418.918 83.947 423.674C91.4824 428.43 110.485 432.794 106.12 425.259C101.745 417.723 96.9993 415.758 101.745 411.763C106.501 407.831 118.401 390.414 126.327 394.346C134.243 398.341 138.999 399.471 138.999 393.585C138.999 390.985 137.985 387.698 136.907 384.02L149.705 381.801C150.213 382.688 150.973 383.386 152.051 383.957C158.382 387.127 155.222 388.142 168.391 372.299C181.633 356.467 200.636 339.61 213.308 345.952C225.979 352.282 227.565 348.552 237.066 347.537C246.567 346.459 256.068 345.952 264.999 342.221C273.993 338.543 269.247 325.374 263.984 322.711C258.668 320.048 263.984 314.795 275.071 319.541C286.157 324.296 300.911 325.871 310.423 336.45C319.924 346.966 327.333 354.882 330.504 354.882C333.674 354.882 343.683 352.79 333.674 339.05C323.602 325.364 315.686 308.961 318.846 301.045C322.017 293.129 331.011 275.712 335.756 259.362C340.512 243.023 342.087 238.267 350.521 240.36C359.007 242.453 372.694 245.613 367.938 266.2C363.182 286.788 370.094 288.944 369.523 298.953C369.016 308.961 365.338 344.366 370.601 344.366C375.864 344.366 384.858 349.122 382.195 332.202C379.595 315.292 375.864 281.525 388.018 274.116C400.183 266.771 416.522 254.607 420.771 257.27C424.956 259.87 435.535 273.102 440.788 273.102C446.104 273.102 449.782 268.853 445.036 262.015C440.28 255.114 428.697 235.604 431.286 228.756C433.95 221.854 477.778 223.44 481.456 215.513C485.134 207.597 468.784 199.681 478.285 188.087C487.786 176.494 499.951 160.091 513.637 160.091C527.387 160.091 532.133 153.76 538.971 151.16C545.872 148.497 557.466 145.844 569.06 145.337C580.717 144.83 581.224 137.421 588.633 134.251C595.978 131.08 599.149 126.842 601.305 116.326C603.397 105.747 609.728 92.5677 618.151 89.915C626.638 87.2516 642.48 95.1676 639.31 98.9089C636.139 102.587 625.56 111.01 630.316 110.503C635.072 109.995 651.411 112.595 652.489 118.419C653.567 124.242 680.485 119.497 685.748 124.749C691.011 130.002 713.174 154.838 700.005 170.67C686.826 186.502 661.493 208.168 664.664 212.353C667.834 216.602 679.925 215.524 692.597 217.669C705.269 219.762 738.518 218.684 744.859 227.678C751.19 236.672 781.279 248.773 781.279 237.179C781.279 225.585 778.108 217.669 802.437 228.185C826.703 238.764 829.355 243.509 826.195 251.436C823.025 259.352 819.865 266.761 824.61 274.687C829.366 282.603 843.042 309.532 847.29 289.451C851.539 269.371 848.876 265.693 859.962 274.127C871.049 282.614 909.561 284.199 912.224 275.205C914.888 266.211 909.054 247.208 931.227 250.369C953.4 253.539 981.396 254.617 988.234 262.533C995.072 270.449 1000.4 275.712 1007.24 285.784C1014.07 295.793 1027.32 295.793 1036.25 293.129C1045.24 290.53 1074.25 291.544 1074.82 302.123C1075.33 312.703 1071.08 329.042 1088 326.96C1104.91 324.804 1121.26 324.804 1126.51 327.974C1131.83 331.145 1139.19 323.218 1142.92 322.722C1146.6 322.214 1174.02 311.128 1195.18 319.044C1216.27 326.96 1242.69 346.469 1256.94 355.971C1271.2 365.472 1280.13 369.721 1280.13 373.388C1280.13 377.055 1278.04 389.22 1281.72 389.22C1285.46 389.22 1288.36 382.509 1288.36 382.509C1290.71 382.509 1304.32 383.84 1304.96 384.855C1306.16 386.821 1320.41 402.653 1320.41 402.653C1317.24 407.842 1314.08 408.983 1314.46 410.632C1314.84 412.154 1307.37 412.978 1304.96 416.519C1302.55 420.133 1298.25 439.897 1295.84 439.136C1293.49 438.311 1272.9 430.395 1272.52 426.02C1272.08 421.644 1266.57 413.348 1259.41 414.933C1252.31 416.519 1246.73 407.017 1247.56 404.671C1248.32 402.262 1241.61 397.96 1240.85 402.262C1240.02 406.637 1245.54 416.519 1240.02 422.088C1234.52 427.595 1224.19 432.794 1220.64 430.385C1217.02 427.975 1210.31 426.834 1213.1 431.146C1215.89 435.521 1219.82 436.715 1223.37 441.091C1226.98 445.466 1225.78 449.387 1229.32 453.319C1232.87 457.314 1237.23 468.02 1233.69 470.799C1230.14 473.526 1219.05 467.185 1213.86 469.595C1208.74 471.941 1162.81 498.859 1162.43 504.809C1162.05 510.759 1157.3 516.276 1150.52 503.224C1143.81 490.172 1132.72 517.101 1126.38 515.515C1120.62 514.057 1115.23 507.092 1108.33 513.486L1091.04 506.839C1098.76 499.176 1107.88 490.753 1110.55 483.017C1114.16 472.755 1120.05 462.429 1109.34 466.804C1098.7 471.18 1103.45 473.959 1090.78 489.358C1078.11 504.809 1078.87 509.185 1077.67 502.854C1076.53 496.523 1080.84 481.822 1070.57 481.822C1060.31 481.822 1039.28 502.03 1034.16 509.946C1029.02 517.862 1041.69 525.027 1028.2 526.158C1014.77 527.363 1010.79 524.192 979.938 522.987C949.025 521.846 937.557 519.436 909.815 553.901C882.135 588.365 872.254 595.837 890.432 599.008C908.673 602.179 923.691 592.297 924.896 610.158C926.101 627.956 916.156 688.514 889.671 714.238C863.133 740.015 859.962 745.151 852.807 740.015C849.637 737.732 843.813 740.966 837.853 746.092L836.965 740.776L835.633 739.825L841.774 737.986L842.915 724.173C842.915 724.173 838.603 717.398 840.125 715.813C841.774 714.228 847.28 708.341 851.275 711.057C855.206 713.847 855.587 714.671 859.127 707.886C862.742 701.175 867.107 694.01 865.902 691.294C864.697 688.503 870.277 682.553 870.277 682.553V674.637L856.781 677.047C856.781 677.047 854.815 682.173 849.626 682.173C844.49 682.173 836.193 682.173 836.954 679.002C837.779 675.832 836.193 667.916 836.193 667.916L833.023 666.711L827.453 660.824L822.317 659.619L814.02 658.414L812.055 650.118L805.724 638.651C805.724 638.651 805.724 625.535 804.139 625.535C802.553 625.535 801.348 614.068 787.102 610.517C772.845 606.966 766.514 610.898 764.104 610.898C761.758 610.898 753.842 612.863 752.637 617.609C751.433 622.365 756.252 620.779 756.252 620.779L757.013 627.11C757.013 627.11 749.921 632.68 749.097 636.231C748.273 639.782 743.971 647.698 744.722 649.283C745.546 650.868 742.756 656.819 738.01 658.023C734.396 658.911 729.587 657.706 725.085 656.248C723.69 655.804 722.295 655.297 720.963 654.853C715.457 652.824 711.081 655.614 709.116 653.648C707.086 651.682 704.74 648.142 699.234 654.472C693.664 660.803 684.913 663.974 675.032 663.974C665.15 663.974 655.268 661.564 653.683 657.643C652.098 653.648 647.352 654.472 647.352 654.472C647.352 654.472 644.562 646.493 636.646 648.142C628.73 649.664 616.058 654.853 610.933 648.522C605.743 642.192 604.982 636.231 604.982 636.231L596.686 632.299L586.741 631.855L587.185 629.129L580.03 625.514C570.148 635.84 572.114 643.756 573.699 646.102C575.285 648.512 572.938 657.188 569.387 656.808C565.773 656.427 559.886 651.682 555.067 653.257C550.374 654.842 544.044 652.813 542.014 648.131C540.049 643.312 532.513 646.482 532.513 646.482L532.133 644.136L525.041 641.79L500.458 659.588L492.923 660.792C492.923 660.792 492.035 662.061 490.957 662.948H490.894C490.26 663.519 489.562 663.963 488.991 663.963C488.421 663.963 487.216 663.583 485.884 663.012C483.474 661.934 480.695 660.349 480.695 659.588C480.695 658.383 481.075 655.973 481.075 655.973C481.075 655.973 476.319 662.748 471.955 659.968C467.579 657.178 465.624 652.813 465.624 652.813L460.054 648.881C460.054 648.881 458.913 641.79 453.343 642.17C447.837 642.551 445.871 644.517 445.871 644.517L439.921 644.136L436.75 642.551C436.75 642.551 433.96 634.635 432.755 636.601C431.551 638.63 426.425 644.517 426.425 644.517C426.425 644.517 412.548 615.632 411.407 614.428C410.202 613.286 399.115 602.961 399.115 602.961C399.115 602.961 397.911 599.79 399.496 598.585C401.081 597.444 406.207 591.874 396.706 597C387.204 602.126 380.113 605.74 380.113 605.74L373.782 609.291C373.782 609.291 371.816 604.916 373.782 604.155C375.748 603.331 377.714 600.984 377.714 600.984L366.247 601.745L361.871 597.433C361.871 597.433 354.78 602.939 354.399 599.399C354.019 595.784 354.78 589.454 353.575 588.693C352.37 587.932 353.575 583.567 351.99 583.567C350.404 583.567 348.819 585.533 344.518 584.772C340.142 583.948 336.538 580.396 336.538 580.396L332.607 584.772L330.641 587.499L308.024 591.113L307.263 595.806L294.972 597.835L284.297 602.2L279.108 601.819L273.972 600.678L270.801 606.184L275.927 608.53L273.961 611.32L281.877 615.315L272.376 614.491C272.376 614.491 271.171 619.247 271.615 621.202C271.995 623.231 271.171 623.992 267.62 626.391C264.069 628.738 266.035 631.517 266.035 631.517C266.035 631.517 270.791 632.722 273.57 635.512C276.297 638.239 279.076 646.155 273.951 646.155C268.825 646.155 263.625 643.365 263.625 643.365L260.898 647.74C260.898 647.74 252.602 642.604 251.777 641.029C250.953 639.444 246.271 640.205 246.271 640.205L244.242 643.819L239.93 640.205C239.93 640.205 235.555 641.853 233.599 644.2C231.57 646.546 230.429 648.575 230.429 648.575L221.308 641.42L220.103 647.751L215.728 640.215L210.591 635.079H204.261L202.295 631.908C202.295 631.908 197.106 635.079 195.584 635.903C193.935 636.664 193.935 633.113 193.935 633.113L189.623 632.733L178.537 640.648L178.093 644.58L171.762 646.546C171.762 646.546 174.552 656.491 172.586 656.047C170.621 655.667 163.91 648.955 163.91 648.955L158.34 655.286L158.72 665.168L155.169 673.908L159.915 674.669L159.534 681.824H167.07L174.922 693.291L169.416 694.052L178.537 699.748C178.473 699.812 178.473 699.812 178.41 699.875C172.333 704.631 160.422 713.372 160.422 716.785C160.422 720.199 164.163 724.701 164.417 730.535C164.67 736.295 165.178 743.968 169.923 748.206C170.684 748.84 171.445 749.664 172.143 750.616L166.256 756.249L161.13 754.663L157.579 750.288L152.982 748.777Z" fill="#56A9DE"/>
<path d="M145.701 349.641C148.871 351.734 163.625 363.391 156.787 367.058C151.154 370.102 147.223 377.511 149.696 381.823L136.897 384.042C135.565 379.286 134.234 373.78 135.121 368.147C136.696 358.064 142.53 347.548 145.701 349.641Z" fill="#56A9DE"/>
<path d="M385.542 421.566C385.41 427.419 383.995 432.922 381.625 438.23C376.913 448.773 370.184 457.925 362.208 466.171C358.492 470.016 354.449 473.547 350.497 477.16C348.46 479.021 347.007 478.946 344.904 477.176C337.123 470.625 330.01 463.431 323.915 455.27C319.053 448.76 314.809 441.855 312.185 434.146C308.246 422.589 309.549 411.487 316.203 401.204C321.674 392.748 329.449 387.318 339.264 385.046C348.47 382.914 357.349 384.098 365.67 388.63C374.368 393.367 380.266 400.536 383.489 409.892C383.976 411.308 384.403 412.768 384.641 414.24C385.034 416.666 385.25 419.12 385.542 421.566ZM347.741 445.05C360.428 445.025 370.658 434.764 370.626 422.099C370.595 409.45 360.246 399.148 347.641 399.217C335.029 399.286 324.806 409.55 324.809 422.14C324.819 434.814 335.089 445.075 347.741 445.05Z" fill="#353535"/>
<path d="M333.416 421.729C333.639 414.171 339.785 408.056 347.381 407.843C349.427 407.786 351.056 409.18 351.172 411.088C351.285 412.937 349.867 414.623 347.858 414.654C343.677 414.723 340.331 418.088 340.259 422.234C340.224 424.319 338.526 425.706 336.596 425.561C334.672 425.417 333.353 423.829 333.416 421.729Z" fill="#353535"/>
<path d="M324.06 654.096C323.957 658.66 322.853 662.95 321.006 667.088C317.332 675.308 312.086 682.444 305.867 688.873C302.97 691.871 299.818 694.624 296.737 697.441C295.148 698.892 294.015 698.833 292.376 697.453C286.309 692.346 280.764 686.737 276.011 680.374C272.221 675.299 268.912 669.915 266.866 663.904C263.795 654.894 264.811 646.238 269.999 638.221C274.264 631.628 280.326 627.395 287.978 625.623C295.156 623.961 302.079 624.884 308.566 628.418C315.348 632.11 319.946 637.7 322.459 644.995C322.838 646.099 323.171 647.237 323.357 648.384C323.663 650.276 323.832 652.19 324.06 654.096ZM294.588 672.406C304.48 672.386 312.455 664.387 312.431 654.512C312.406 644.65 304.338 636.618 294.51 636.672C284.677 636.726 276.706 644.728 276.709 654.544C276.716 664.426 284.723 672.426 294.588 672.406Z" fill="#353535"/>
<path d="M283.421 654.224C283.594 648.331 288.386 643.564 294.308 643.397C295.904 643.353 297.174 644.44 297.264 645.928C297.353 647.369 296.246 648.683 294.68 648.708C291.421 648.762 288.812 651.385 288.756 654.618C288.729 656.243 287.405 657.324 285.9 657.212C284.4 657.099 283.372 655.861 283.421 654.224Z" fill="#353535"/>
<path d="M316.375 740.624C316.31 743.501 315.614 746.205 314.449 748.814C312.134 753.997 308.826 758.495 304.906 762.548C303.079 764.438 301.092 766.174 299.149 767.95C298.148 768.865 297.434 768.827 296.4 767.957C292.575 764.738 289.079 761.201 286.083 757.19C283.694 753.99 281.608 750.596 280.318 746.807C278.382 741.127 279.022 735.67 282.293 730.615C284.982 726.459 288.803 723.79 293.628 722.673C298.153 721.626 302.517 722.207 306.607 724.435C310.882 726.763 313.781 730.287 315.366 734.886C315.605 735.582 315.815 736.299 315.932 737.023C316.125 738.215 316.231 739.422 316.375 740.624ZM297.795 752.167C304.031 752.154 309.059 747.111 309.043 740.886C309.028 734.668 303.941 729.605 297.745 729.639C291.546 729.673 286.522 734.718 286.523 740.906C286.528 747.136 291.576 752.179 297.795 752.167Z" fill="#353535"/>
<path d="M290.752 740.704C290.862 736.989 293.882 733.984 297.616 733.879C298.622 733.851 299.423 734.536 299.48 735.474C299.535 736.383 298.838 737.211 297.85 737.227C295.795 737.261 294.151 738.915 294.115 740.953C294.098 741.977 293.264 742.659 292.315 742.588C291.369 742.517 290.721 741.736 290.752 740.704Z" fill="#353535"/>
</svg>
