<svg width="100" height="114" fill="none" xmlns="http://www.w3.org/2000/svg"><g clip-path="url(#clip0)"><path d="M52.682 74.439v18.557c-6.275.396-12.131.3-15.558.094a3.875 3.875 0 00-4.099 3.635 3.876 3.876 0 003.631 4.105c.922.056 3.742.205 7.607.205 2.458 0 5.34-.062 8.42-.245v5.419H36.89a3.875 3.875 0 00-3.872 3.877 3.875 3.875 0 003.872 3.878h39.33a3.875 3.875 0 003.872-3.878 3.875 3.875 0 00-3.872-3.877H60.427v-6.138c8.495-1.102 17.13-3.38 21.974-7.946 2.777-2.617 4.245-5.897 4.245-9.486 0-6.058-4.011-10.326-11.923-12.682-4.042-1.205-8.957-1.919-14.296-2.488V60.14c9.81-.599 18.958-3.461 26.085-8.219 8.54-5.7 13.243-13.44 13.243-21.79a3.875 3.875 0 00-3.871-3.877H17.225a3.875 3.875 0 00-3.872 3.877c0 8.35 4.703 16.09 13.243 21.79 7.127 4.758 16.275 7.62 26.086 8.219v6.587l-.132-.012C26.458 64.36 7.989 61.3 7.989 43.258c0-21.673 18.723-27.2 26.191-28.543 2.106 3.665 6.869 6.166 12.543 6.166 7.685 0 13.704-4.586 13.704-10.44C60.427 4.586 54.407 0 46.722 0c-6.061 0-11.084 2.854-12.937 6.933-3.352.55-9.212 1.887-15.107 5.042C10.267 16.477.243 25.56.243 43.258c0 11.84 6.12 20.294 18.19 25.128 9.786 3.92 23.17 5.053 34.248 6.053zm-5.96-66.684c3.64 0 5.96 1.763 5.96 2.686 0 .922-2.32 2.686-5.96 2.686-3.639 0-5.96-1.764-5.96-2.686 0-.923 2.321-2.686 5.96-2.686zM72.515 77.39c6.386 1.902 6.386 4.163 6.386 5.25 0 1.456-.574 2.675-1.806 3.838-3.247 3.062-9.713 4.809-16.669 5.763V75.268c4.623.512 8.804 1.143 12.089 2.122zm-50.87-43.382h69.819c-1.209 4.245-4.388 8.217-9.248 11.462-6.8 4.538-15.912 7.038-25.662 7.038-9.749 0-18.862-2.5-25.661-7.038-4.86-3.244-8.04-7.217-9.248-11.462z" fill="#306990"/></g><defs><clipPath id="clip0"><path fill="#fff" d="M0 0h100v113.964H0z"/></clipPath></defs></svg>