<svg width="102" height="102" fill="none" xmlns="http://www.w3.org/2000/svg"><path d="M96.683 73.99c-1.315-1.27-2.966-1.856-4.648-1.647-2.823.35-6.52 1.176-10.435 2.051-5.286 1.182-10.751 2.403-14.936 2.687-3.614.244-10.197-.777-12.148-1.884-1.315-.747-2.051-1.663-2.463-2.472h8.112c3.347 0 6.07-2.951 6.07-6.578v-5.165c0-3.627-2.723-6.578-6.07-6.578H37.927c-.945-.031-12.29-.263-20.148 7a32.827 32.827 0 00-3.379 3.604c-.933-1.263-2.367-2.075-3.973-2.075H3.178C1.975 62.933 1 63.99 1 65.293V98.64c0 .627.23 1.227.638 1.67a2.1 2.1 0 001.54.691h7.25c2.805 0 5.087-2.474 5.087-5.514v-1.814c2.168.147 7.081.729 17.478 2.844 12.28 2.499 19.941 3.346 25.977 3.346 4.327 0 7.819-.435 11.575-1.009 4.644-.708 10.485-2.499 15.638-4.078 2.385-.732 4.638-1.422 6.632-1.967 5.373-1.469 6.175-5.14 6.175-7.198v-6.013c0-2.114-.862-4.21-2.307-5.607zM11.159 95.486c0 .437-.328.793-.732.793h-5.07V67.654h5.07c.404 0 .732.356.732.793v27.039h0zm83.475-9.876c0 .501 0 1.832-2.884 2.62-2.054.562-4.336 1.261-6.752 2.002-5.02 1.539-10.71 3.283-15.06 3.947-8.57 1.307-15.716 1.854-36.14-2.302-10.505-2.138-15.718-2.784-18.283-2.932V71.42a2.32 2.32 0 00.212-.34c.558-1.103 1.934-3.36 4.879-6.083 6.715-6.207 17.096-5.876 17.199-5.873.028.002.056.002.084.002h22.276c.945 0 1.714.833 1.714 1.857v5.165c0 1.024-.769 1.857-1.713 1.857H37.889c-1.203 0-2.178 1.057-2.178 2.36 0 1.304.976 2.361 2.178 2.361h9.537c.448 1.936 1.684 4.733 5.07 6.654 3.095 1.758 10.774 2.663 14.44 2.414 4.491-.304 10.11-1.56 15.544-2.775 3.816-.853 7.42-1.659 10.05-1.985.555-.068.987.223 1.253.48.525.508.852 1.307.852 2.084v6.013h0zM95.415 1h-76.5c-3.08 0-5.586 2.716-5.586 6.053v38.868c0 3.338 2.506 6.054 5.586 6.054h76.5c3.08 0 5.586-2.716 5.586-6.054V7.053c0-3.337-2.506-6.053-5.586-6.053zM84.61 47.254H29.725c-.577-7.038-5.626-12.7-12.04-13.62V18.697c6.217-.892 11.15-6.239 11.973-12.975h55.018c.823 6.735 5.755 12.08 11.969 12.974v14.94c-6.411.922-11.458 6.583-12.035 13.619zm12.035-40.2v6.862c-3.809-.807-6.815-4.067-7.559-8.195h6.329c.678 0 1.23.598 1.23 1.332zM18.915 5.72h6.333c-.743 4.13-3.752 7.39-7.563 8.196V7.053c0-.734.552-1.332 1.23-1.332zm-1.23 40.2v-7.507c4.007.847 7.126 4.408 7.659 8.84h-6.429c-.678 0-1.23-.598-1.23-1.333zm77.73 1.333h-6.424c.532-4.43 3.65-7.99 7.653-8.84v7.507c0 .735-.551 1.333-1.229 1.333z" fill="#306990" stroke="#306990" stroke-width="2"/><path d="M57.282 9.601c-8.592 0-15.582 7.576-15.582 16.887 0 9.312 6.99 16.887 15.582 16.887S72.864 35.8 72.864 26.488c0-9.311-6.99-16.887-15.582-16.887zm0 29.053c-6.19 0-11.226-5.457-11.226-12.166 0-6.708 5.036-12.165 11.226-12.165 6.19 0 11.225 5.457 11.225 12.165 0 6.709-5.035 12.166-11.225 12.166zM32.207 19.23c-3.695 0-6.7 3.256-6.7 7.26 0 4.003 3.005 7.26 6.7 7.26 3.694 0 6.699-3.257 6.699-7.26 0-4.004-3.005-7.26-6.7-7.26zm0 9.8c-1.293 0-2.344-1.14-2.344-2.54 0-1.4 1.051-2.54 2.344-2.54 1.292 0 2.343 1.14 2.343 2.54 0 1.4-1.051 2.54-2.343 2.54zm50.151-9.8c-3.694 0-6.7 3.256-6.7 7.26 0 4.003 3.006 7.26 6.7 7.26 3.694 0 6.7-3.257 6.7-7.26 0-4.004-3.006-7.26-6.7-7.26zm0 9.8c-1.292 0-2.344-1.14-2.344-2.54 0-1.4 1.052-2.54 2.344-2.54 1.292 0 2.344 1.14 2.344 2.54 0 1.4-1.052 2.54-2.344 2.54z" fill="#306990" stroke="#306990" stroke-width="2"/></svg>