<svg width="107" height="107" viewBox="0 0 107 107" fill="none" xmlns="http://www.w3.org/2000/svg">
<path d="M53.8714 1.63109C51.8251 2.86322 39.397 5.50779 34.853 5.65805C31.7836 5.74821 30.941 6.04873 30.3993 7.22075C30.2188 7.61143 29.6771 8.18241 29.1655 8.45288C28.0521 9.08397 28.022 9.41454 29.0151 9.41454C29.5868 9.41454 29.8577 9.65496 30.0984 10.2259L30.4294 11.0674L30.941 10.0456C31.6632 8.6933 32.5961 8.24252 34.7326 8.21247C36.8993 8.21247 43.6099 9.98553 42.8877 10.3762C41.353 11.2477 31.0614 13.9223 29.316 13.9223C29.0151 13.9223 28.8646 13.6218 28.8646 13.0508C28.8646 11.9389 28.3831 11.6083 27.9618 12.4197C27.7813 12.7503 27.4202 13.0208 27.1192 13.0208C26.8484 13.0208 25.8554 13.5918 24.9526 14.283C23.5082 15.3648 21.3415 16.3265 20.3485 16.3265C20.1679 16.3265 20.3785 15.9358 20.8299 15.485C22.0637 14.1928 21.7929 14.0726 19.9873 15.0944C19.0545 15.6052 17.8207 16.1462 17.2188 16.2664C16.1656 16.4768 16.0452 16.597 15.5638 18.2799C15.2628 19.2716 14.9318 20.3234 14.8415 20.6239C14.7212 21.0146 14.8415 21.1048 15.3832 21.0747C16.0452 20.9845 16.0753 21.0747 15.9851 22.4871C15.9249 23.4789 15.4133 24.9815 14.5406 26.9048C13.8184 28.5276 13.2165 29.94 13.2165 30.0903C13.2165 30.5411 10.0568 32.825 8.55222 33.4561L7.19806 34.0271L7.67954 33.1255C7.92028 32.6146 8.61241 31.4727 9.18416 30.5711C10.448 28.6177 10.5985 27.4758 9.39481 29.0385C8.91333 29.6095 8.10084 30.8416 7.52908 31.7431C6.95732 32.6747 5.99437 33.7867 5.39252 34.2374L4.2791 35.0789L4.09854 39.0157C3.91799 43.3432 3.04531 47.9712 1.9018 50.5256C0.968932 52.6292 0.968932 54.0116 1.9018 55.364C3.01522 56.9868 4.64021 65.4314 5.24206 72.5537C5.42261 74.7775 5.4527 74.8376 6.47585 75.3185C7.0476 75.5889 7.49899 76.0397 7.49899 76.2801C7.49899 76.5506 8.01056 77.3019 8.6425 78.0231C10.7189 80.3071 14.3601 85.9568 15.2327 88.3009C16.0753 90.5247 16.0753 90.5548 17.58 91.0356C18.4225 91.3061 20.1378 92.1175 21.4318 92.8688C22.7558 93.59 23.8994 94.131 23.9896 94.0108C24.2003 93.8004 23.4179 93.1092 21.2813 91.6968C20.4688 91.1859 19.867 90.7351 19.9272 90.675C19.9573 90.6449 21.7628 90.9154 23.8994 91.276C28.5938 92.0574 30.0683 92.7486 31.5127 94.9123C32.4757 96.3849 33.2581 98.5787 32.9572 98.8792C32.8669 98.9693 32.0243 98.5486 31.0614 97.9776C26.8183 95.4232 25.1632 95.0926 28.6239 97.4667C29.6771 98.188 31.4225 99.4802 32.5058 100.382C34.4317 101.914 34.5521 101.975 36.4178 101.975C39.4571 102.005 48.0636 104.168 50.9224 105.641L52.0659 106.212L53.42 105.431C55.7371 104.078 69.038 101.373 73.4616 101.373C75.4778 101.373 75.4778 101.373 76.4708 100.141C77.0125 99.4502 78.487 98.1279 79.7208 97.2263C80.9546 96.2947 81.7972 95.5134 81.5865 95.4232C81.3759 95.3631 80.5333 95.8139 79.7208 96.4149C77.4639 98.0678 74.7556 98.789 71.5959 98.5787C68.7672 98.3984 64.5843 97.2564 65.3065 96.8657C65.9084 96.5051 77.9153 93.4698 78.0657 93.6201C78.156 93.6802 78.0657 94.1911 77.9153 94.7621C77.5542 96.0242 77.7347 96.2346 78.6074 95.4533C78.9685 95.1227 79.8713 94.5517 80.6236 94.1911C81.3759 93.8305 82.2486 93.1994 82.5796 92.8087C82.9106 92.418 84.0842 91.7569 85.2277 91.3361C86.9129 90.675 87.2439 90.6449 87.2439 91.0356C87.2439 91.276 87.1235 91.3962 86.943 91.3061C86.7925 91.2159 86.6421 91.3962 86.6421 91.7268C86.6421 92.3579 87.1235 92.8387 87.3041 92.388C87.3342 92.2377 88.2069 91.7268 89.23 91.2159C91.4268 90.104 91.517 90.0139 92.6004 87.3693C93.0818 86.1973 94.0749 84.2439 94.8573 82.9817C95.6397 81.7496 96.2716 80.5775 96.2716 80.3371C96.2716 79.6159 95.4591 80.6076 94.0448 82.9817C93.2925 84.2739 92.2694 85.7765 91.7578 86.3475L90.8249 87.3993L90.9754 84.5444C91.0657 82.9817 91.3365 80.9983 91.6073 80.1268C92.48 77.2718 94.9777 74.7775 98.2878 73.4552L99.8526 72.8542L99.1003 74.5371C98.679 75.4387 98.4082 76.2801 98.4985 76.3402C98.5587 76.4304 99.2809 75.649 100.093 74.6273C100.876 73.6055 101.869 72.5837 102.32 72.3734C103.073 71.9827 103.103 71.8925 102.952 69.5785C102.772 66.1827 103.313 62.7267 104.848 57.7982C105.6 55.394 106.202 53.2303 106.202 52.9899C106.202 52.7494 105.931 52.2085 105.6 51.7878C105.269 51.3671 104.998 50.5557 104.998 49.8945C104.998 48.5121 104.667 48.4821 103.945 49.8044L103.373 50.8261L102.049 49.3536C100.515 47.6406 99.9128 47.6106 101.297 49.3235C104.096 52.7795 103.945 55.7847 100.906 58.3091L99.6721 59.3008L99.01 54.252C98.6188 51.4873 98.2577 48.7826 98.1675 48.2417C98.017 47.31 98.017 47.28 99.1304 47.28C99.8827 47.28 100.184 47.1598 100.063 46.8893C98.7392 43.7339 98.679 39.6769 99.8827 36.8219C100.274 35.9504 100.635 35.2893 100.695 35.3794C100.966 35.6499 101.718 38.8654 102.441 42.8624C102.862 45.1764 103.404 47.4603 103.644 47.9712L104.035 48.9329L104.066 47.9411C104.096 47.4002 103.765 45.4769 103.343 43.6437C102.501 39.9473 101.989 36.1608 101.989 33.8468C101.989 32.4644 101.899 32.1939 101.177 31.7431C100.695 31.4727 99.973 30.8115 99.5517 30.3307C98.7693 29.4291 98.7693 29.4291 98.5587 30.0903C98.4383 30.4509 98.2577 30.7514 98.1374 30.7514C97.7462 30.7214 95.7601 28.798 95.0679 27.7462C94.6767 27.1752 93.9244 26.2136 93.3828 25.6426C92.48 24.6809 91.4569 22.3369 91.4569 21.2851C91.4569 21.0146 91.6073 20.5638 91.818 20.2633C92.2994 19.4819 91.5772 17.0177 90.7346 16.4768C89.6513 15.8156 84.8064 13.8322 84.656 14.0125C84.5657 14.1026 85.1675 14.7037 86.0402 15.3348C87.2439 16.2363 87.4546 16.5068 87.0032 16.5669C85.98 16.7172 82.4893 15.7555 80.5333 14.7938C77.2532 13.141 76.3204 12.1793 75.1769 9.20418C74.906 8.45288 74.906 8.42283 75.9593 8.60314C76.531 8.6933 77.0125 8.6933 77.0125 8.63319C77.0125 8.15236 76.3204 7.31091 75.9593 7.31091C75.7185 7.31091 75.1769 6.76997 74.7556 6.10883C74.0634 4.99691 73.8829 4.90675 72.6491 4.90675C68.707 4.90675 60.9431 3.40416 57.7232 2.05182C56.3992 1.48083 55.1955 1 55.1052 1C54.9878 1 54.4432 1.27047 53.8714 1.63109ZM51.9786 4.36582C51.5573 4.90675 50.2633 6.01867 49.0596 6.86013L46.8629 8.36273H42.9208C39.8514 8.36273 38.4972 8.24252 37.0528 7.79174C36.0296 7.46117 35.2773 7.10054 35.3977 7.01039C35.8491 6.58966 38.6777 5.83836 41.5064 5.35753C43.0712 5.08706 44.7865 4.75649 45.268 4.60623C46.1407 4.33577 50.9856 3.52436 52.1592 3.43421C52.6677 3.40416 52.6376 3.49431 51.9786 4.36582ZM62.0265 4.15545C64.2232 4.54613 67.1723 5.20727 68.5866 5.59795L71.1144 6.28914L69.3088 6.80002C66.9616 7.46117 65.9686 7.43112 64.5542 6.73992C63.9223 6.40935 62.4478 5.92852 61.2742 5.65805C59.258 5.20727 57.4524 4.27566 57.4524 3.67462C57.4524 3.314 57.4825 3.314 62.0265 4.15545ZM57.6631 4.78655C58.957 5.53784 60.7024 7.49122 60.3714 7.82179C60.1607 8.0021 50.8923 9.08397 49.2372 9.11402H48.3946L49.6886 7.49122C50.4108 6.58966 51.2534 5.71816 51.5844 5.53784C51.9154 5.35753 52.6677 4.84665 53.2395 4.42592C54.4733 3.52436 55.6469 3.61452 57.6631 4.78655ZM73.5519 8.12231C74.5449 9.14408 74.9963 10.0156 75.5981 12.0291L76.0796 13.6218L75.1167 13.2011C74.575 12.9907 73.281 12.4197 72.1977 11.969C69.0681 10.6467 65.5774 8.78345 65.7579 8.48293C66.0588 7.97205 68.7672 7.34096 70.7232 7.34096C72.4986 7.31091 72.7995 7.40106 73.5519 8.12231ZM61.4848 9.98553C61.9964 10.2861 63.4408 10.7068 64.6746 10.9171C68.1954 11.4581 69.038 11.7586 72.1074 13.3814C74.1236 14.4633 74.8458 14.9742 74.5449 15.1545C73.8829 15.6052 71.2648 16.2964 69.1283 16.597C66.5403 16.9576 65.0658 16.627 63.9825 15.4249L63.1098 14.4633L62.4177 15.1244C61.7556 15.7255 61.4848 15.7856 59.7996 15.6353C58.2348 15.485 57.1214 15.0643 53.2696 13.141L48.6052 10.7969L49.7788 10.5265C51.7349 10.1358 57.1816 9.47465 58.9269 9.4446C60.0404 9.41454 60.8559 9.59486 61.4848 9.98553ZM44.2117 12.9607C44.2117 14.283 42.1956 19.0011 40.39 21.826C39.6979 22.9379 39.5775 22.998 38.5544 22.8478C36.6285 22.5172 34.2812 21.0747 32.1146 18.8208C28.6841 15.3047 28.654 15.6653 32.566 14.4933C37.5011 13.0508 40.2095 12.4798 42.346 12.4498C43.971 12.4197 44.2117 12.4798 44.2117 12.9607ZM49.5381 12.8705C52.3969 13.712 59.5589 17.6788 59.5589 18.4001C59.5589 19.2115 50.2603 22.3369 42.8877 23.9897L42.015 24.17L42.1956 22.5773C42.3761 20.7141 44.9942 14.4633 46.1076 13.2311C46.9502 12.2995 47.4316 12.2394 49.5381 12.8705ZM23.8994 17.4384C23.0267 19.512 17.4897 26.5442 16.7073 26.5442C16.5568 26.5442 16.4966 25.4623 16.617 23.8395C16.7975 20.9845 17.4596 19.0011 18.6031 18.0094C19.4156 17.2882 22.0938 16.3565 23.3878 16.3265H24.3507L23.8994 17.4384ZM85.2879 16.9576C87.3944 17.3783 89.1999 18.5203 90.0726 20.0229C90.7948 21.2851 91.6675 24.6509 91.3365 24.9514C91.0055 25.282 89.7115 24.3804 84.9268 20.5638C80.7139 17.1679 80.2926 16.7773 80.9546 16.597C81.7069 16.3866 82.7902 16.4768 85.2879 16.9576ZM76.6815 17.6488C77.5842 18.1296 78.1861 19.3016 79.0889 22.5172C79.8111 24.9815 81.2254 31.1421 81.1051 31.2623C80.8944 31.4727 76.8921 28.798 74.0333 26.5442C72.2579 25.1317 69.9408 23.3586 68.9176 22.5472C67.2926 21.2851 65.8181 19.3016 66.2093 18.8809C66.2996 18.8208 67.5635 18.4001 69.0681 18.0094C72.1405 17.1679 75.4176 17.0177 76.6815 17.6488ZM31.272 19.3918C32.7766 20.3835 34.1609 21.5255 34.3414 21.856C34.522 22.2167 34.9734 22.8177 35.3345 23.2384C35.7257 23.6592 36.1169 24.2903 36.2072 24.6208C36.3877 25.1618 36.2072 25.3421 35.2141 25.7328C33.5289 26.4239 28.8044 27.3255 24.2003 27.8965C22.0637 28.1369 19.8369 28.4074 19.2952 28.4975C18.3924 28.6177 18.3323 28.5576 18.5128 27.9566C18.9943 26.2737 23.2373 20.4436 25.3137 18.5804C27.029 17.0177 27.9317 17.1379 31.272 19.3918ZM82.071 19.9027C85.0803 22.1265 89.2029 25.7628 89.8349 26.6944C90.4367 27.626 90.0756 28.3473 88.3002 29.5493C87.0363 30.4209 83.2145 31.6229 82.8534 31.2924C82.7631 31.2022 81.9507 28.3773 81.0479 25.0115C80.1451 21.6457 79.3326 18.7006 79.2724 18.4902C79.0287 17.799 79.6636 18.1296 82.071 19.9027ZM61.1839 21.7959C61.7255 24.3804 61.4848 32.8851 60.7325 38.4147C60.3112 41.6302 60.1607 42.1712 59.7093 42.1712C58.6561 42.1712 54.1122 38.5649 49.3275 33.9069C44.1817 28.9183 42.4062 27.025 42.4062 26.5141C42.4062 25.6726 51.3737 22.5172 56.2487 21.6457C60.1036 20.9545 61.0334 20.9845 61.1839 21.7959ZM66.7239 22.9079C68.3188 23.7193 70.3651 25.1918 76.6243 30.0903C79.2724 32.1639 80.0247 33.1856 79.5433 33.997C78.6405 35.4395 69.3118 40.7287 65.2193 42.1411L63.4739 42.7421L63.2633 41.9307C62.8721 40.5183 62.9924 27.8063 63.4137 25.0416C63.6545 23.6291 63.8952 22.397 63.9554 22.2768C64.2232 21.856 64.9755 22.0364 66.7239 22.9079ZM36.5081 28.1069C36.0567 29.5794 34.7326 31.8633 31.9641 35.9504C30.3692 38.2945 28.5336 40.9991 27.9017 41.9307C25.8253 45.0261 24.8021 45.2064 23.0568 42.8323C21.1008 40.1877 17.7304 32.4644 17.7304 30.6913C17.7304 30.3908 19.4156 29.94 24.1401 29.0084C31.4526 27.5659 31.5729 27.5659 34.522 27.4758C36.6886 27.4457 36.7187 27.4457 36.5081 28.1069ZM41.8044 29.94C42.5868 30.3006 44.7233 32.1038 46.9201 34.2374C48.9964 36.2509 51.6446 38.7152 52.8483 39.737C54.052 40.7587 55.5867 42.2914 56.2487 43.1629C57.3621 44.5453 57.4223 44.7256 56.9107 44.9059C55.1353 45.567 42.5567 46.3784 33.9201 46.3784H27.0892L27.3901 45.4769C27.7813 44.365 29.7072 41.3898 34.5521 34.3276L38.2534 28.8882L39.3669 29.0986C39.9687 29.1887 41.052 29.5794 41.8044 29.94ZM98.1374 31.5628C99.7323 33.0654 99.8226 34.8685 98.5286 38.7152C97.8966 40.5784 97.5355 41.2696 97.2045 41.2696C96.6929 41.2696 94.6767 34.0571 94.0749 30.1203L93.9545 29.339L95.6397 30.0602C96.5726 30.481 97.686 31.1421 98.1374 31.5628ZM92.8411 31.4727C93.6536 33.2758 94.8874 37.7836 95.2184 40.338L95.4291 41.9608L91.5772 39.3162C86.5819 35.9204 85.98 35.3494 85.98 33.967C85.98 33.3359 86.2509 32.4944 86.612 32.0136C87.4245 30.8716 89.4708 29.8499 90.9453 29.8499C92.0286 29.8499 92.1189 29.91 92.8411 31.4727ZM13.5175 31.9535C13.5175 32.3742 11.4411 36.4312 9.66564 39.4064C8.28139 41.7504 8.19111 41.8706 7.70964 41.3297C7.01751 40.5784 6.47585 37.9639 6.71658 36.6717C6.92723 35.4996 8.55222 34.0872 11.5615 32.4944C13.2466 31.5929 13.5175 31.5027 13.5175 31.9535ZM16.4695 32.9152C18.1246 35.6198 21.7056 43.1629 21.8561 44.2447C22.0065 45.4168 22.0065 45.4468 20.8931 45.6572C18.0644 46.1681 12.1964 44.996 10.3307 43.5235L9.4881 42.8323L11.3237 39.0758C13.3399 34.9887 15.1455 31.9535 15.5969 31.9535C15.7443 31.9535 16.1355 32.4043 16.4695 32.9152ZM82.6398 37.4831C82.6699 37.5131 82.9106 38.3245 83.1513 39.3162C83.9337 42.2613 84.5356 47.2199 84.6259 51.1867C84.6861 54.9432 84.6861 54.9432 83.9939 54.8831C82.1884 54.6728 69.7903 49.4738 66.6908 47.5805C65.3667 46.7992 65.0959 46.4686 65.2163 45.9878C65.4871 44.9059 67.5635 43.1629 69.9709 41.9908C71.2949 41.3598 73.5519 40.1577 75.0264 39.3463C78.0657 37.6333 80.0217 37.0022 81.5264 37.2426C82.0981 37.3328 82.6097 37.453 82.6398 37.4831ZM87.0935 38.1743C89.5008 39.3763 92.5101 41.48 93.6837 42.7722C95.4892 44.7857 95.2485 45.7173 91.7277 50.4655C89.4407 53.5308 88.568 54.2821 87.4847 54.1318C86.8828 54.0417 86.7323 53.7412 86.281 51.6375C85.7694 49.2634 84.7462 42.1411 84.3851 38.7753C84.2347 37.0623 84.2347 37.0323 84.8967 37.2426C85.2879 37.3328 86.284 37.7836 87.0935 38.1743ZM5.874 42.5318C5.60317 43.824 5.39252 45.2665 5.39252 45.7473C5.39252 46.1981 5.24206 47.0396 5.03141 47.6106C4.6703 48.7225 3.58697 50.4054 3.40642 50.195C3.19577 49.9847 4.15873 43.824 4.85085 40.8188L5.4828 38.1142L5.90409 39.1359C6.29529 40.0375 6.29529 40.4883 5.874 42.5318ZM17.2219 46.3484C19.3584 46.8292 21.1339 47.28 21.2241 47.3401C21.5853 47.7007 20.2913 50.7059 18.9672 52.5691C16.6501 55.8749 11.7751 60.1122 11.1131 59.3909C10.9626 59.2707 10.5112 57.5277 10.0599 55.5443C9.24736 51.938 8.94643 47.881 9.39782 46.2883C9.60847 45.5069 9.69874 45.4769 11.5043 45.4769C12.5244 45.4769 15.1154 45.8676 17.2219 46.3484ZM8.07074 49.8645C8.88324 53.621 9.57537 59.6313 9.18416 59.3609C9.00361 59.2707 8.2513 58.7298 7.52908 58.1888C6.80686 57.6179 6.14483 57.2272 6.08464 57.3173C5.99437 57.4075 6.41566 58.249 7.01751 59.2106C9.39481 63.0873 9.63555 66.2728 7.83 69.9692L6.80686 72.0428L6.41566 70.9609C5.4527 68.1661 3.01522 55.8748 3.37633 55.5142C3.43651 55.4541 3.8578 55.6645 4.30919 56.0251C5.42261 56.8966 5.51289 56.6261 4.64021 55.3039C3.4967 53.621 3.40642 52.6893 4.2791 50.8261C5.27215 48.6924 6.86705 46.5287 7.22816 46.8893C7.37862 47.0396 7.76982 48.3619 8.07074 49.8645ZM97.3249 50.3453C97.6258 52.3888 97.7763 55.0033 97.7161 56.8966L97.6258 60.0521L96.723 60.1422C95.4892 60.2925 92.4499 59.6614 91.0957 58.9702C90.1328 58.4894 89.9522 58.249 89.9522 57.4075C89.9522 56.2956 91.5471 52.7795 93.0217 50.6458C94.3156 48.7525 96.2716 46.6489 96.5726 46.8292C96.6929 46.9194 97.024 48.4821 97.3249 50.3453ZM56.4925 47.881C56.1013 48.3619 54.5665 49.6841 53.092 50.7961C51.5874 51.908 48.1569 54.6728 45.4485 56.8966C38.2264 62.877 33.3514 66.2127 31.7866 66.2127C30.4625 66.2127 27.0621 54.9432 27.0621 50.5857C27.0621 49.2334 27.1223 49.1132 27.9047 48.9629C29.4093 48.6624 36.7819 47.9111 41.356 47.5805C48.2772 47.0997 48.5782 47.0997 53.0318 47.0396L57.1846 46.9795L56.4925 47.881ZM58.5056 51.9681C57.6932 57.0769 54.3228 71.2013 52.7881 76.0698C52.096 78.2635 51.9455 78.4739 51.1029 78.6542C49.9594 78.8646 47.8529 78.4138 46.2279 77.5724C44.4826 76.7008 38.4039 73.0045 36.2974 71.5319C34.6424 70.3599 34.522 70.2397 34.6724 69.3081C34.9132 67.8956 35.8461 66.7236 38.1933 64.9205C39.3067 64.049 43.3391 60.8635 47.1307 57.7982C53.5103 52.6593 58.5959 48.9329 58.8367 49.1733C58.8999 49.2334 58.7494 50.4956 58.5056 51.9681ZM67.2325 50.165C69.7602 51.0966 76.4106 53.9816 79.0588 55.2438C81.3759 56.3557 84.2347 58.7598 84.2347 59.5712C84.2347 60.2324 81.5564 64.3796 79.3898 66.9941C77.5542 69.248 74.6954 71.9226 74.1537 71.9226C73.7625 71.9226 73.3713 71.2614 71.4454 67.4148C69.0681 62.6966 63.7718 50.1049 63.7718 49.2334C63.7718 48.993 65.1862 49.3836 67.2325 50.165ZM62.4478 51.5474C62.8991 52.4189 64.2533 55.4241 65.457 58.249C66.6607 61.0438 68.1653 64.5599 68.8274 66.0625C70.2417 69.248 70.7834 71.5019 70.6329 73.5754L70.5426 75.048L67.3528 76.4604C65.5774 77.2117 63.5612 77.933 62.839 78.0532C62.1167 78.1734 60.4015 78.5941 59.0172 79.0148C57.6631 79.4356 56.1584 79.7361 55.7071 79.676C55.0149 79.5858 54.8946 79.4356 54.8043 78.4439C54.6839 76.9112 55.8876 70.6304 57.9038 62.4562C59.3783 56.4458 61.2742 49.9847 61.545 49.9847C61.6082 49.9847 62.0265 50.7059 62.4478 51.5474ZM24.9526 51.8479C26.3068 54.1018 28.7141 61.9754 29.0753 65.4013L29.2558 67.1443L27.9317 66.934C27.2095 66.8138 25.3438 66.4231 23.8091 66.0324C22.2744 65.6417 20.7697 65.3112 20.4688 65.3112C20.1679 65.3112 19.3253 64.9806 18.6031 64.5899C17.8809 64.1992 16.5869 63.6583 15.7443 63.3878C14.9017 63.1174 13.9689 62.6966 13.6378 62.4863C13.0962 62.0956 13.0962 62.0054 13.5777 61.0438C14.2397 59.6313 20.8901 52.509 22.3947 51.6075C23.9595 50.6759 24.2304 50.7059 24.9526 51.8479ZM102.32 62.7567C101.508 68.3464 101.478 68.4366 101.237 66.6936C100.936 64.4397 101.207 60.7433 101.839 59.0303C102.26 57.7681 102.862 56.7764 103.073 56.9567C103.103 57.0168 102.772 59.6313 102.32 62.7567ZM94.1652 60.8034C95.2485 61.1339 96.392 61.5547 96.6929 61.7951C97.2647 62.2158 97.2647 62.2459 96.6027 64.1391C94.8874 68.8573 90.6143 75.9495 90.5541 74.1164C90.5541 73.7558 90.1027 71.3215 89.5309 68.707C88.9592 66.0925 88.3874 63.1174 88.2671 62.0956C88.0865 60.3225 88.1166 60.2624 88.7786 60.1122C89.862 59.9018 92.0015 60.1723 94.1652 60.8034ZM87.8458 66.5433C88.8388 71.3817 89.1096 74.9879 88.5379 75.5589C88.0263 76.0698 81.5264 75.7091 78.9685 75.048C77.163 74.5672 76.862 74.3868 76.9523 73.876C77.2532 72.0127 80.2023 67.4148 84.0842 62.907C86.1305 60.5028 86.1606 60.4728 86.5518 61.194C86.7624 61.6148 87.3372 64.0189 87.8458 66.5433ZM14.1795 64.3795C15.1124 64.6801 16.6471 65.1008 17.61 65.3112C18.6031 65.5215 19.536 65.792 19.7165 65.9423C19.8971 66.0925 21.4318 66.6936 23.1771 67.2946C24.8924 67.8956 26.6679 68.5868 27.1493 68.8573L27.9618 69.3381L26.5475 70.8107C23.7188 73.6656 17.8809 77.3319 16.1355 77.3319C15.3832 77.3319 14.5707 75.4086 13.4874 71.1412C12.6749 67.9257 12.0429 63.8086 12.374 63.8086C12.4642 63.8086 13.2767 64.079 14.1795 64.3795ZM99.8827 65.3713C101.207 68.4065 100.936 70.2697 98.9198 72.1029C97.8364 73.0646 93.7138 75.2283 92.9615 75.2283C92.5402 75.2283 93.1119 73.9361 95.1281 70.2697C97.2647 66.4231 98.7392 64.1091 99.0702 64.1091C99.1906 64.1091 99.5818 64.6801 99.8827 65.3713ZM12.1633 70.5702C13.367 75.2584 13.698 77.3319 13.2767 77.3319C13.1263 77.3319 12.4341 77.1216 11.742 76.8812C10.2976 76.3703 10.1471 76.7008 11.3809 77.6926C11.8624 78.0832 12.5244 78.9547 12.8855 79.6459C13.2165 80.3071 13.8485 81.1485 14.2999 81.5092C15.0823 82.1102 15.9249 84.2739 15.9249 85.6563C15.9249 86.2874 15.8647 86.3175 15.2929 86.0169C14.9619 85.8366 14.4503 85.2957 14.1795 84.7848C13.8786 84.2739 12.5545 82.2003 11.1703 80.1268C9.8161 78.0832 8.76287 76.2801 8.85315 76.1299C8.94342 76.0097 8.79296 75.3185 8.55222 74.6273C7.83 72.5537 7.98047 70.8708 9.24435 67.6252L10.3578 64.6801L10.7791 65.6718C10.9897 66.2127 11.6217 68.4065 12.1633 70.5702ZM29.4364 72.4335C30.0984 73.906 30.4595 79.0749 30.2188 84.0335C30.0683 87.4895 29.9178 88.7517 29.6169 88.7517C28.4433 88.7517 18.573 81.6895 17.8809 80.3071C17.4596 79.4957 17.4596 79.3755 18.0614 78.5641C18.8137 77.5423 19.4156 77.0915 24.0498 73.9661C27.8716 71.3516 28.8345 71.0811 29.4364 72.4335ZM35.8461 73.1247C37.3808 73.6957 44.4224 77.8128 47.3113 79.8262L49.0566 81.0283L48.214 81.8998C46.559 83.6428 34.522 89.0522 32.3252 89.0522H31.6632L31.4526 80.9081C31.3623 76.4304 31.3322 72.6438 31.4526 72.4936C31.6933 72.1029 34.0104 72.4335 35.8461 73.1247ZM87.0363 77.362C87.6381 77.5724 88.1497 77.9029 88.1497 78.1133C88.1497 79.4356 82.4321 88.6315 81.0479 89.5631C80.446 89.9538 80.3558 89.9237 79.784 88.962C78.791 87.4294 76.7146 82.2004 76.203 80.0667C75.6914 77.933 75.8419 77.3319 77.0456 76.9713C78.159 76.6407 85.7393 76.9413 87.0363 77.362ZM70.2417 78.9848C68.9176 82.5009 64.1329 91.6667 62.4177 93.9807C62.0265 94.5216 61.9362 94.5217 61.2441 94.0709C59.3181 92.8087 55.7672 86.4677 55.4663 83.733C55.2858 82.3506 55.3459 82.2004 56.0983 81.5993C56.5797 81.2387 58.1144 80.5775 59.5288 80.1568C60.9431 79.706 62.6283 79.105 63.2603 78.7744C64.3436 78.2335 68.8875 77.1216 70.3019 77.0615L70.994 77.0314L70.2417 78.9848ZM74.3975 79.1952C75.3905 80.5475 75.7817 81.2988 76.8049 84.0936C77.9484 87.189 78.4298 89.3527 78.2794 90.8253L78.159 91.9973L74.9692 92.9289C71.0873 94.0408 67.2054 94.9424 65.0387 95.2429L63.4137 95.4533L65.4299 91.4263C68.71 84.905 72.7424 78.2335 73.4345 78.2335C73.5519 78.2335 74.0032 78.6843 74.3975 79.1952ZM89.9522 86.5278C89.561 88.4211 88.6282 89.4429 86.7022 90.074C84.8666 90.705 82.4291 91.0056 82.4291 90.6449C82.4291 90.1942 86.612 83.9434 88.4175 81.6895L90.1027 79.5858L90.193 82.2605C90.2532 83.733 90.1328 85.6563 89.9522 86.5278ZM23.6917 86.6781C28.4463 90.1942 28.5366 90.4646 24.745 90.1341C21.6454 89.8335 18.6964 88.8719 17.7033 87.8201C16.8306 86.8885 16.2288 84.9651 16.2288 83.0418V81.7796L17.8538 82.6812C18.7536 83.162 21.3716 84.9651 23.6917 86.6781ZM49.177 86.4377C48.7858 88.3309 48.1839 89.8335 46.7997 92.388C44.9942 95.7538 44.934 95.8139 43.8506 95.904C41.4132 96.1144 36.6285 94.3113 34.2812 92.3279L33.2581 91.4564L33.9502 90.9154C35.3947 89.8636 38.7349 88.0605 41.8645 86.618C45.1446 85.1154 49.3576 83.5827 49.5983 83.7931C49.6585 83.8833 49.4779 85.0553 49.177 86.4377ZM54.1422 86.5278C56.67 89.3227 59.6191 94.8823 59.1677 96.0843C58.9269 96.6854 55.8876 97.1963 51.2233 97.3766L46.9201 97.5569V96.1445C46.9201 93.1994 50.9525 84.8449 52.3668 84.8449C52.4872 84.8449 53.2696 85.5962 54.1422 86.5278ZM37.0197 95.2128C38.5243 95.9942 41.8044 98.1579 41.8044 98.3984C41.8044 98.7289 39.6979 99.4802 38.1331 99.6906C37.3507 99.8108 36.2072 99.7507 35.5451 99.6004C34.5822 99.33 34.2512 98.9994 33.6192 97.8574C33.1979 97.046 32.7465 95.904 32.6563 95.273C32.5359 94.6419 32.3553 93.9206 32.2651 93.6802C32.1447 93.3496 32.566 93.4097 34.0405 93.9807C35.1268 94.3714 36.481 94.9424 37.0197 95.2128ZM58.6561 98.3683C58.0543 99.5103 55.1955 102.035 53.751 102.726L52.2765 103.417L50.8923 102.816C50.1099 102.485 48.9062 101.644 48.1839 100.983C46.9502 99.7807 46.9201 99.7206 47.5821 99.4802C48.6654 99.0895 51.3136 98.6388 55.045 98.218C56.9408 98.0077 58.626 97.8274 58.7464 97.7973C58.8668 97.7973 58.8367 98.0377 58.6561 98.3683ZM70.5426 99.5103L72.3482 100.051L69.9408 100.712C67.5635 101.343 58.2348 103.237 55.7071 103.597C54.4733 103.778 54.4131 103.778 54.8043 103.207C55.7071 101.914 58.8969 99.8709 60.6422 99.4502C61.6353 99.2098 62.6885 98.9393 63.0195 98.8491C64.1931 98.5486 68.7672 98.9393 70.5426 99.5103ZM46.5289 101.193C48.0034 101.914 49.3275 102.726 49.4177 102.996C49.5381 103.267 49.508 103.477 49.3876 103.477C49.2673 103.477 46.4386 102.906 43.0682 102.215C36.8391 100.923 36.4479 100.712 39.1863 100.201C42.1986 99.6004 43.64 99.7807 46.5289 101.193Z" stroke="#7AC3ED" stroke-miterlimit="10"/>
</svg>
