<svg width="107" height="107" fill="none" xmlns="http://www.w3.org/2000/svg"><path d="M53.871 1.631c-2.046 1.232-14.474 3.877-19.018 4.027-3.07.09-3.912.39-4.454 1.563-.18.39-.722.961-1.233 1.232-1.114.631-1.144.962-.15.962.57 0 .842.24 1.082.81l.331.842.512-1.021c.722-1.353 1.655-1.803 3.792-1.834 2.166 0 8.877 1.774 8.155 2.164-1.535.872-11.827 3.546-13.572 3.546-.3 0-.451-.3-.451-.871 0-1.112-.482-1.443-.903-.631-.18.33-.542.6-.843.6-.27 0-1.264.572-2.166 1.263-1.445 1.082-3.611 2.043-4.604 2.043-.181 0 .03-.39.48-.841 1.235-1.292.964-1.412-.842-.39-.932.51-2.166 1.051-2.768 1.171-1.053.21-1.174.331-1.655 2.014-.301.992-.632 2.043-.723 2.344-.12.39 0 .48.542.45.662-.09.692 0 .602 1.413-.06.992-.572 2.495-1.444 4.418-.723 1.623-1.325 3.035-1.325 3.185 0 .451-3.16 2.735-4.664 3.366l-1.354.571.482-.901c.24-.511.932-1.653 1.504-2.555 1.264-1.953 1.415-3.095.21-1.533-.48.572-1.293 1.804-1.865 2.705-.572.932-1.535 2.044-2.136 2.494l-1.114.842-.18 3.937c-.181 4.327-1.054 8.955-2.197 11.51-.933 2.103-.933 3.486 0 4.838 1.113 1.623 2.738 10.067 3.34 17.19.18 2.224.21 2.284 1.234 2.764.572.27 1.023.722 1.023.962 0 .27.512 1.022 1.144 1.743 2.076 2.284 5.717 7.934 6.59 10.278.842 2.224.842 2.254 2.347 2.735.843.27 2.558 1.082 3.852 1.833 1.324.721 2.467 1.262 2.558 1.142.21-.21-.572-.902-2.709-2.314-.812-.511-1.414-.962-1.354-1.022.03-.03 1.836.24 3.972.601 4.695.781 6.17 1.473 7.614 3.636.963 1.473 1.745 3.667 1.444 3.967-.09.09-.933-.33-1.896-.901-4.243-2.555-5.898-2.885-2.437-.511 1.053.721 2.799 2.013 3.882 2.915 1.926 1.532 2.046 1.593 3.912 1.593 3.04.03 11.646 2.193 14.504 3.666l1.144.571 1.354-.781c2.317-1.353 15.618-4.058 20.042-4.058 2.016 0 2.016 0 3.009-1.232.541-.69 2.016-2.013 3.25-2.915 1.234-.931 2.076-1.713 1.865-1.803-.21-.06-1.053.39-1.865.992-2.257 1.653-4.965 2.374-8.125 2.164-2.829-.18-7.012-1.323-6.29-1.713.602-.36 12.61-3.396 12.76-3.246.09.06 0 .571-.15 1.142-.362 1.262-.181 1.473.691.691.362-.33 1.264-.901 2.017-1.262.752-.36 1.625-.992 1.956-1.382.33-.391 1.504-1.052 2.648-1.473 1.685-.661 2.016-.691 2.016-.3 0 .24-.12.36-.301.27-.15-.09-.3.09-.3.42 0 .632.48 1.113.661.662.03-.15.903-.661 1.926-1.172 2.197-1.112 2.287-1.202 3.37-3.847.482-1.172 1.475-3.125 2.257-4.387.783-1.232 1.415-2.404 1.415-2.645 0-.721-.813.27-2.227 2.645-.752 1.292-1.776 2.794-2.287 3.365l-.933 1.052.15-2.855c.09-1.562.362-3.546.632-4.417.873-2.855 3.37-5.35 6.68-6.672l1.566-.6-.753 1.682c-.421.902-.692 1.743-.601 1.803.06.09.782-.691 1.594-1.713.783-1.021 1.776-2.043 2.227-2.254.753-.39.783-.48.632-2.794-.18-3.396.361-6.852 1.896-11.78.752-2.405 1.354-4.569 1.354-4.81 0-.24-.271-.78-.602-1.201-.331-.42-.602-1.232-.602-1.893 0-1.383-.331-1.413-1.053-.09l-.572 1.021-1.324-1.472c-1.534-1.713-2.136-1.743-.752-.03 2.799 3.456 2.648 6.46-.391 8.985l-1.234.992-.662-5.049c-.391-2.765-.752-5.47-.843-6.01-.15-.932-.15-.962.963-.962.753 0 1.054-.12.933-.39-1.324-3.156-1.384-7.213-.18-10.068.391-.872.752-1.533.812-1.443.271.27 1.023 3.486 1.746 7.483.421 2.314.963 4.598 1.203 5.11l.391.96.031-.99c.03-.542-.301-2.465-.723-4.298-.842-3.697-1.354-7.483-1.354-9.797 0-1.383-.09-1.653-.812-2.104-.482-.27-1.204-.931-1.625-1.412-.783-.902-.783-.902-.993-.24-.12.36-.301.66-.422.66-.39-.03-2.377-1.953-3.07-3.005a20.644 20.644 0 00-1.684-2.103c-.903-.962-1.926-3.306-1.926-4.358 0-.27.15-.721.361-1.022.481-.781-.24-3.245-1.083-3.786-1.084-.661-5.929-2.645-6.079-2.465-.09.09.511.692 1.384 1.323 1.204.901 1.415 1.172.963 1.232-1.023.15-4.514-.812-6.47-1.773-3.28-1.653-4.213-2.615-5.356-5.59-.271-.751-.271-.781.782-.6.572.09 1.053.09 1.053.03 0-.482-.692-1.323-1.053-1.323-.24 0-.782-.541-1.203-1.202-.693-1.112-.873-1.202-2.107-1.202-3.942 0-11.706-1.503-14.926-2.855C56.4 1.48 55.196 1 55.105 1c-.117 0-.662.27-1.234.631zM51.98 4.366c-.422.54-1.716 1.653-2.92 2.494l-2.196 1.503H42.92c-3.07 0-4.424-.12-5.868-.571-1.023-.33-1.776-.691-1.655-.782.451-.42 3.28-1.172 6.108-1.652 1.565-.27 3.28-.602 3.762-.752.873-.27 5.718-1.082 6.891-1.172.509-.03.479.06-.18.932zm10.047-.21c2.197.39 5.146 1.051 6.56 1.442l2.528.691-1.805.511c-2.347.661-3.34.631-4.755-.06-.632-.33-2.106-.811-3.28-1.082-2.016-.45-3.822-1.382-3.822-1.983 0-.361.03-.361 4.575.48zm-4.363.63c1.294.752 3.04 2.705 2.708 3.036-.21.18-9.479 1.262-11.134 1.292h-.842l1.294-1.623c.722-.901 1.564-1.773 1.895-1.953.331-.18 1.084-.691 1.655-1.112 1.234-.902 2.408-.811 4.424.36zm15.889 3.336c.993 1.022 1.444 1.894 2.046 3.907l.482 1.593-.963-.42c-.542-.211-1.836-.782-2.92-1.233-3.129-1.322-6.62-3.186-6.44-3.486.302-.511 3.01-1.142 4.966-1.142 1.776-.03 2.076.06 2.829.781zM61.485 9.986c.511.3 1.956.72 3.19.931 3.52.541 4.363.842 7.432 2.464 2.017 1.082 2.739 1.593 2.438 1.774-.662.45-3.28 1.141-5.417 1.442-2.588.36-4.062.03-5.145-1.172l-.873-.962-.692.661c-.662.601-.933.662-2.618.511-1.565-.15-2.679-.57-6.53-2.494l-4.665-2.344 1.174-.27c1.956-.391 7.403-1.052 9.148-1.082 1.113-.03 1.929.15 2.558.54zM44.212 12.96c0 1.322-2.016 6.04-3.822 8.865-.692 1.112-.813 1.172-1.836 1.022-1.925-.33-4.273-1.773-6.44-4.027-3.43-3.516-3.46-3.156.452-4.328 4.935-1.442 7.643-2.013 9.78-2.043 1.625-.03 1.866.03 1.866.51zm5.326-.09c2.859.841 10.02 4.808 10.02 5.53 0 .81-9.298 3.936-16.67 5.589l-.873.18.18-1.593c.181-1.863 2.8-8.114 3.913-9.346.842-.931 1.324-.992 3.43-.36zM23.9 17.438c-.872 2.074-6.41 9.106-7.192 9.106-.15 0-.21-1.082-.09-2.704.18-2.855.843-4.839 1.986-5.83.813-.722 3.49-1.654 4.785-1.684h.963l-.452 1.112zm61.389-.48c2.106.42 3.912 1.562 4.785 3.065.722 1.262 1.595 4.628 1.264 4.928-.332.331-1.626-.57-6.41-4.387-4.213-3.396-4.634-3.787-3.972-3.967.752-.21 1.835-.12 4.333.36zm-8.606.69c.902.482 1.504 1.654 2.407 4.87.722 2.463 2.136 8.624 2.016 8.744-.21.21-4.213-2.464-7.072-4.718-1.775-1.412-4.092-3.185-5.115-3.997-1.625-1.262-3.1-3.245-2.709-3.666.09-.06 1.355-.48 2.86-.872 3.072-.841 6.349-.991 7.612-.36zm-45.41 1.744c1.505.992 2.889 2.134 3.07 2.464.18.36.631.962.992 1.382.392.421.783 1.052.873 1.383.18.54 0 .721-.993 1.112-1.685.69-6.41 1.593-11.014 2.163-2.136.24-4.363.511-4.905.601-.903.12-.963.06-.782-.54.481-1.683 4.724-7.513 6.8-9.377 1.716-1.562 2.619-1.442 5.959.812zm50.799.51c3.01 2.224 7.132 5.86 7.764 6.792.602.932.24 1.653-1.535 2.855-1.264.872-5.085 2.074-5.447 1.743-.09-.09-.902-2.915-1.805-6.28a831.078 831.078 0 00-1.776-6.522c-.243-.691.392-.36 2.799 1.413zm-20.887 1.894c.541 2.584.3 11.09-.451 16.619-.422 3.215-.572 3.756-1.024 3.756-1.053 0-5.597-3.606-10.382-8.264-5.145-4.989-6.92-6.882-6.92-7.393 0-.841 8.967-3.997 13.842-4.868 3.855-.692 4.784-.662 4.935.15zm5.54 1.112c1.595.811 3.641 2.284 9.9 7.182 2.648 2.074 3.4 3.096 2.92 3.907-.903 1.443-10.232 6.732-14.325 8.144l-1.745.601-.21-.811c-.392-1.413-.272-14.125.15-16.89.24-1.412.481-2.644.541-2.764.268-.421 1.02-.24 2.769.63zm-30.216 5.199c-.451 1.472-1.775 3.756-4.544 7.843-1.595 2.344-3.43 5.05-4.062 5.98-2.077 3.096-3.1 3.276-4.845.902-1.956-2.644-5.327-10.368-5.327-12.14 0-.301 1.686-.752 6.41-1.684 7.313-1.442 7.433-1.442 10.382-1.532 2.167-.03 2.197-.03 1.986.63zm5.296 1.833c.783.36 2.92 2.164 5.116 4.297 2.076 2.014 4.725 4.478 5.928 5.5 1.204 1.022 2.739 2.554 3.4 3.426 1.114 1.382 1.174 1.563.663 1.743-1.776.661-14.354 1.472-22.99 1.472H27.09l.301-.901c.391-1.112 2.317-4.087 7.162-11.15l3.701-5.439 1.114.21c.602.09 1.685.481 2.437.842zm56.333 1.623c1.595 1.502 1.686 3.305.392 7.152-.632 1.863-.993 2.555-1.325 2.555-.511 0-2.527-7.213-3.13-11.15l-.12-.781 1.686.721c.933.421 2.046 1.082 2.497 1.503zm-5.296-.09c.813 1.803 2.046 6.31 2.377 8.865l.211 1.623-3.852-2.645c-4.995-3.396-5.597-3.967-5.597-5.349 0-.631.27-1.473.632-1.953.813-1.142 2.859-2.164 4.333-2.164 1.084 0 1.174.06 1.896 1.623zm-79.323.48c0 .421-2.077 4.478-3.852 7.453C8.28 41.75 8.19 41.871 7.71 41.33c-.692-.752-1.234-3.366-.993-4.658.21-1.172 1.835-2.585 4.845-4.178 1.685-.901 1.956-.991 1.956-.54zm2.951.962c1.656 2.705 5.237 10.248 5.387 11.33.15 1.172.15 1.202-.963 1.412-2.829.511-8.697-.661-10.562-2.133l-.843-.692 1.836-3.756c2.016-4.087 3.822-7.123 4.273-7.123.147 0 .539.451.873.962zm66.17 4.568c.03.03.272.842.512 1.833.783 2.945 1.385 7.904 1.475 11.87.06 3.757.06 3.757-.632 3.697-1.806-.21-14.204-5.41-17.303-7.303-1.324-.78-1.595-1.111-1.475-1.592.271-1.082 2.348-2.825 4.755-3.997 1.324-.631 3.58-1.833 5.055-2.645 3.04-1.713 4.996-2.344 6.5-2.103.572.09 1.084.21 1.114.24zm4.455.691c2.407 1.202 5.416 3.306 6.59 4.598 1.805 2.014 1.565 2.945-1.956 7.694-2.287 3.065-3.16 3.816-4.243 3.666-.602-.09-.753-.39-1.204-2.494-.512-2.375-1.535-9.497-1.896-12.863-.15-1.713-.15-1.743.512-1.532.39.09 1.387.54 2.197.931zm-81.22 4.358c-.27 1.292-.481 2.735-.481 3.215 0 .451-.15 1.293-.362 1.864-.36 1.111-1.444 2.794-1.625 2.584-.21-.21.753-6.371 1.445-9.376l.632-2.705.421 1.022c.391.901.391 1.352-.03 3.396zm11.348 3.816c2.136.481 3.912.932 4.002.992.361.36-.933 3.366-2.257 5.23-2.317 3.305-7.192 7.542-7.854 6.82-.15-.12-.602-1.862-1.053-3.846-.813-3.606-1.114-7.663-.662-9.256.21-.781.3-.811 2.106-.811 1.02 0 3.611.39 5.718.871zM8.07 49.865c.812 3.756 1.504 9.766 1.113 9.496-.18-.09-.933-.631-1.655-1.172-.722-.571-1.384-.962-1.444-.872-.09.09.33.932.933 1.894 2.377 3.876 2.618 7.062.812 10.758l-1.023 2.074-.391-1.082c-.963-2.795-3.4-15.086-3.04-15.447.06-.06.482.15.933.511 1.114.872 1.204.601.331-.721-1.143-1.683-1.234-2.615-.36-4.478.992-2.134 2.587-4.297 2.948-3.937.15.15.542 1.473.843 2.975zm89.254.48c.3 2.044.451 4.658.391 6.552l-.09 3.155-.903.09c-1.234.15-4.273-.48-5.627-1.172-.963-.48-1.144-.721-1.144-1.563 0-1.111 1.595-4.627 3.07-6.761 1.294-1.894 3.25-3.997 3.55-3.817.12.09.452 1.653.753 3.516zm-40.833-2.464c-.39.48-1.925 1.803-3.4 2.915-1.505 1.112-4.935 3.877-7.643 6.1-7.223 5.981-12.098 9.317-13.662 9.317-1.325 0-4.725-11.27-4.725-15.627 0-1.353.06-1.473.843-1.623 1.504-.3 8.877-1.052 13.451-1.383 6.921-.48 7.222-.48 11.676-.54l4.153-.06-.693.901zm2.014 4.087c-.813 5.109-4.183 19.233-5.718 24.102-.692 2.194-.842 2.404-1.685 2.584-1.144.21-3.25-.24-4.875-1.082-1.745-.871-7.824-4.568-9.93-6.04-1.656-1.172-1.776-1.292-1.626-2.224.241-1.412 1.174-2.584 3.521-4.388a887.067 887.067 0 008.938-7.122c6.38-5.139 11.465-8.865 11.706-8.625.063.06-.088 1.323-.331 2.795zm8.727-1.803c2.527.932 9.178 3.817 11.826 5.079 2.317 1.112 5.176 3.516 5.176 4.327 0 .661-2.679 4.809-4.845 7.423-1.836 2.254-4.695 4.929-5.236 4.929-.391 0-.783-.662-2.709-4.508-2.377-4.718-7.673-17.31-7.673-18.182 0-.24 1.414.15 3.46.932zm-4.785 1.382c.451.872 1.805 3.877 3.009 6.702 1.204 2.795 2.708 6.31 3.37 7.813 1.415 3.186 1.956 5.44 1.806 7.513l-.09 1.473-3.19 1.412c-1.776.752-3.792 1.473-4.514 1.593-.722.12-2.438.541-3.822.962-1.354.42-2.859.721-3.31.661-.692-.09-.812-.24-.903-1.232-.12-1.533 1.084-7.814 3.1-15.988 1.474-6.01 3.37-12.471 3.641-12.471.063 0 .481.72.903 1.562zm-37.495.3c1.354 2.255 3.761 10.128 4.122 13.554l.18 1.743-1.323-.21c-.723-.12-2.588-.51-4.123-.902-1.535-.39-3.04-.72-3.34-.72-.301 0-1.144-.331-1.866-.722-.722-.39-2.016-.932-2.859-1.202-.842-.27-1.775-.691-2.106-.902-.542-.39-.542-.48-.06-1.442.662-1.413 7.312-8.535 8.817-9.436 1.564-.932 1.835-.902 2.558.24zm77.367 10.91c-.812 5.59-.842 5.68-1.083 3.937-.301-2.254-.03-5.95.602-7.664.421-1.262 1.023-2.254 1.234-2.073.03.06-.301 2.674-.753 5.8zm-8.155-1.954c1.084.33 2.227.752 2.528.992.572.42.572.45-.09 2.344-1.716 4.718-5.989 11.81-6.049 9.977 0-.36-.451-2.794-1.023-5.409-.572-2.614-1.144-5.59-1.264-6.611-.18-1.773-.15-1.834.512-1.984 1.083-.21 3.222.06 5.386.691zm-6.32 5.74c.994 4.839 1.265 8.445.693 9.016-.512.51-7.012.15-9.57-.511-1.805-.48-2.106-.661-2.016-1.172.301-1.863 3.25-6.461 7.132-10.969 2.046-2.404 2.077-2.434 2.468-1.713.21.42.785 2.825 1.294 5.35zM14.18 64.38a43.91 43.91 0 003.43.932c.993.21 1.926.481 2.107.631.18.15 1.715.752 3.46 1.353 1.715.6 3.49 1.292 3.972 1.562l.813.481-1.415 1.473c-2.828 2.855-8.666 6.52-10.412 6.52-.752 0-1.564-1.922-2.648-6.19-.812-3.215-1.444-7.332-1.113-7.332.09 0 .903.27 1.806.57zm85.703.992c1.324 3.035 1.053 4.899-.963 6.732-1.084.962-5.206 3.125-5.959 3.125-.42 0 .15-1.292 2.167-4.958 2.137-3.847 3.611-6.16 3.942-6.16.12 0 .512.57.813 1.261zm-87.72 5.2c1.204 4.687 1.535 6.76 1.114 6.76-.15 0-.843-.21-1.535-.45-1.444-.51-1.595-.18-.361.812.481.39 1.143 1.262 1.505 1.953.33.661.963 1.502 1.414 1.863.782.601 1.625 2.765 1.625 4.147 0 .631-.06.661-.632.36-.331-.18-.843-.72-1.113-1.231-.301-.511-1.625-2.585-3.01-4.658-1.354-2.044-2.407-3.847-2.317-3.997.09-.12-.06-.811-.3-1.503-.723-2.073-.573-3.756.691-7.002l1.114-2.945.421.992c.21.54.843 2.734 1.384 4.898zm17.273 1.862c.662 1.473 1.023 6.642.783 11.6-.15 3.457-.301 4.719-.602 4.719-1.174 0-11.044-7.063-11.736-8.445-.421-.811-.421-.931.18-1.743.753-1.022 1.355-1.472 5.989-4.598 3.822-2.614 4.784-2.885 5.386-1.532zm6.41.692c1.535.57 8.576 4.688 11.465 6.701l1.746 1.202-.843.872c-1.655 1.743-13.692 7.152-15.889 7.152h-.662l-.21-8.144c-.09-4.478-.12-8.264 0-8.414.24-.391 2.557-.06 4.393.63zm51.19 4.237c.602.21 1.114.54 1.114.751 0 1.323-5.718 10.519-7.102 11.45-.602.39-.692.36-1.264-.601-.993-1.533-3.07-6.762-3.581-8.895-.512-2.134-.361-2.735.843-3.096 1.113-.33 8.693-.03 9.99.391zm-16.794 1.623c-1.324 3.516-6.11 12.682-7.824 14.996-.392.54-.482.54-1.174.09-1.926-1.262-5.477-7.603-5.778-10.338-.18-1.382-.12-1.533.632-2.134.482-.36 2.016-1.022 3.43-1.442 1.415-.451 3.1-1.052 3.732-1.383 1.084-.54 5.628-1.652 7.042-1.713l.692-.03-.752 1.954zm4.155.21c.993 1.353 1.385 2.104 2.408 4.899 1.143 3.095 1.625 5.259 1.474 6.731l-.12 1.172-3.19.932c-3.882 1.112-7.764 2.013-9.93 2.314l-1.625.21 2.016-4.027c3.28-6.521 7.312-13.192 8.004-13.192.118 0 .57.45.963.961zm15.555 7.333c-.391 1.893-1.324 2.915-3.25 3.546-1.835.631-4.273.932-4.273.57 0-.45 4.183-6.7 5.989-8.955l1.685-2.103.09 2.674c.06 1.473-.06 3.396-.24 4.268zm-66.26.15c4.754 3.516 4.845 3.787 1.053 3.456-3.1-.3-6.049-1.262-7.042-2.314-.872-.931-1.474-2.855-1.474-4.778V81.78l1.625.901c.9.481 3.518 2.284 5.838 3.997zm25.485-.24c-.391 1.893-.993 3.395-2.377 5.95-1.806 3.366-1.866 3.426-2.95 3.516-2.437.21-7.221-1.593-9.569-3.576l-1.023-.872.692-.54c1.445-1.052 4.785-2.855 7.914-4.298 3.28-1.503 7.494-3.035 7.734-2.825.06.09-.12 1.262-.421 2.645zm4.965.09c2.528 2.795 5.477 8.354 5.026 9.556-.241.601-3.28 1.112-7.945 1.293l-4.303.18v-1.413c0-2.945 4.032-11.3 5.447-11.3.12 0 .903.752 1.775 1.684zM37.02 95.213c1.504.781 4.784 2.945 4.784 3.185 0 .33-2.106 1.082-3.67 1.293-.783.12-1.927.06-2.589-.09-.963-.271-1.294-.602-1.926-1.744-.421-.811-.873-1.953-.963-2.584-.12-.631-.3-1.352-.39-1.593-.121-.33.3-.27 1.775.3 1.086.391 2.44.962 2.979 1.233zm21.636 3.155c-.602 1.142-3.46 3.667-4.905 4.358l-1.474.691-1.385-.601c-.782-.331-1.986-1.172-2.708-1.833-1.234-1.202-1.264-1.262-.602-1.503 1.083-.39 3.732-.841 7.463-1.262 1.896-.21 3.581-.39 3.701-.42.12 0 .09.24-.09.57zm11.887 1.142l1.805.541-2.407.661c-2.377.631-11.706 2.525-14.234 2.885-1.234.181-1.294.181-.903-.39.903-1.293 4.093-3.336 5.838-3.757.993-.24 2.046-.51 2.377-.6 1.174-.301 5.748.09 7.524.66zm-24.014 1.683c1.474.721 2.798 1.533 2.889 1.803.12.271.09.481-.03.481s-2.95-.571-6.32-1.262c-6.229-1.292-6.62-1.503-3.882-2.014 3.013-.6 4.454-.42 7.343.992z" stroke="#7AC3ED" stroke-miterlimit="10"/></svg>