<svg width="107" height="107" viewBox="0 0 107 107" fill="none" xmlns="http://www.w3.org/2000/svg">
<path d="M53.1898 1.63109C51.1435 2.86322 38.7153 5.50779 34.1714 5.65805C31.1019 5.74821 30.2593 6.04873 29.7177 7.22075C29.5371 7.61143 28.9955 8.18241 28.4839 8.45288C27.3705 9.08397 27.3404 9.41454 28.3334 9.41454C28.9052 9.41454 29.176 9.65496 29.4168 10.2259L29.7478 11.0674L30.2593 10.0456C30.9816 8.6933 31.9144 8.24252 34.051 8.21247C36.2176 8.21247 42.9283 9.98553 42.206 10.3762C40.6713 11.2477 30.3797 13.9223 28.6344 13.9223C28.3334 13.9223 28.183 13.6218 28.183 13.0508C28.183 11.9389 27.7015 11.6083 27.2802 12.4197C27.0996 12.7503 26.7385 13.0208 26.4376 13.0208C26.1668 13.0208 25.1737 13.5918 24.271 14.283C22.8265 15.3648 20.6599 16.3265 19.6668 16.3265C19.4863 16.3265 19.6969 15.9358 20.1483 15.485C21.3821 14.1928 21.1112 14.0726 19.3057 15.0944C18.3728 15.6052 17.139 16.1462 16.5372 16.2664C15.484 16.4768 15.3636 16.597 14.8821 18.2799C14.5812 19.2716 14.2502 20.3234 14.1599 20.6239C14.0395 21.0146 14.1599 21.1048 14.7016 21.0747C15.3636 20.9845 15.3937 21.0747 15.3034 22.4871C15.2432 23.4789 14.7317 24.9815 13.859 26.9048C13.1368 28.5276 12.5349 29.94 12.5349 30.0903C12.5349 30.5411 9.3752 32.825 7.87058 33.4561L6.51642 34.0271L6.9979 33.1255C7.23864 32.6146 7.93077 31.4727 8.50252 30.5711C9.7664 28.6177 9.91687 27.4758 8.71317 29.0385C8.23169 29.6095 7.4192 30.8416 6.84744 31.7431C6.27568 32.6747 5.31273 33.7867 4.71088 34.2374L3.59746 35.0789L3.4169 39.0157C3.23635 43.3432 2.36367 47.9712 1.22016 50.5256C0.287291 52.6292 0.287291 54.0116 1.22016 55.364C2.33358 56.9868 3.95857 65.4314 4.56042 72.5537C4.74097 74.7775 4.77106 74.8376 5.79421 75.3185C6.36596 75.5889 6.81735 76.0397 6.81735 76.2801C6.81735 76.5506 7.32892 77.3019 7.96086 78.0231C10.0372 80.3071 13.6784 85.9568 14.5511 88.3009C15.3937 90.5247 15.3937 90.5548 16.8983 91.0356C17.7409 91.3061 19.4562 92.1175 20.7501 92.8688C22.0742 93.59 23.2177 94.131 23.308 94.0108C23.5186 93.8004 22.7362 93.1092 20.5997 91.6968C19.7872 91.1859 19.1853 90.7351 19.2455 90.675C19.2756 90.6449 21.0812 90.9154 23.2177 91.276C27.9121 92.0574 29.3867 92.7486 30.8311 94.9123C31.7941 96.3849 32.5765 98.5787 32.2755 98.8792C32.1853 98.9693 31.3427 98.5486 30.3797 97.9776C26.1367 95.4232 24.4816 95.0926 27.9422 97.4667C28.9955 98.188 30.7408 99.4802 31.8242 100.382C33.7501 101.914 33.8704 101.975 35.7362 101.975C38.7755 102.005 47.3819 104.168 50.2407 105.641L51.3842 106.212L52.7384 105.431C55.0555 104.078 68.3564 101.373 72.7799 101.373C74.7961 101.373 74.7961 101.373 75.7892 100.141C76.3308 99.4502 77.8054 98.1279 79.0392 97.2263C80.273 96.2947 81.1155 95.5134 80.9049 95.4232C80.6942 95.3631 79.8517 95.8139 79.0392 96.4149C76.7822 98.0678 74.0739 98.789 70.9142 98.5787C68.0855 98.3984 63.9027 97.2564 64.6249 96.8657C65.2267 96.5051 77.2336 93.4698 77.3841 93.6201C77.4744 93.6802 77.3841 94.1911 77.2336 94.7621C76.8725 96.0242 77.0531 96.2346 77.9257 95.4533C78.2869 95.1227 79.1896 94.5517 79.9419 94.1911C80.6943 93.8305 81.5669 93.1994 81.898 92.8087C82.229 92.418 83.4026 91.7569 84.5461 91.3361C86.2313 90.675 86.5623 90.6449 86.5623 91.0356C86.5623 91.276 86.4419 91.3962 86.2614 91.3061C86.1109 91.2159 85.9604 91.3962 85.9604 91.7268C85.9604 92.3579 86.4419 92.8387 86.6225 92.388C86.6525 92.2377 87.5252 91.7268 88.5484 91.2159C90.7451 90.104 90.8354 90.0139 91.9187 87.3693C92.4002 86.1973 93.3933 84.2439 94.1757 82.9817C94.9581 81.7496 95.59 80.5775 95.59 80.3371C95.59 79.6159 94.7775 80.6076 93.3632 82.9817C92.6108 84.2739 91.5877 85.7765 91.0761 86.3475L90.1433 87.3993L90.2937 84.5444C90.384 82.9817 90.6548 80.9983 90.9257 80.1268C91.7984 77.2718 94.296 74.7775 97.6062 73.4552L99.171 72.8542L98.4187 74.5371C97.9974 75.4387 97.7266 76.2801 97.8168 76.3402C97.877 76.4304 98.5992 75.649 99.4117 74.6273C100.194 73.6055 101.187 72.5837 101.639 72.3734C102.391 71.9827 102.421 71.8925 102.271 69.5785C102.09 66.1827 102.632 62.7267 104.166 57.7982C104.919 55.394 105.521 53.2303 105.521 52.9899C105.521 52.7494 105.25 52.2085 104.919 51.7878C104.588 51.3671 104.317 50.5557 104.317 49.8945C104.317 48.5121 103.986 48.4821 103.264 49.8044L102.692 50.8261L101.368 49.3536C99.833 47.6406 99.2312 47.6106 100.615 49.3235C103.414 52.7795 103.264 55.7847 100.224 58.3091L98.9904 59.3008L98.3284 54.252C97.9372 51.4873 97.5761 48.7826 97.4858 48.2417C97.3354 47.31 97.3354 47.28 98.4488 47.28C99.2011 47.28 99.502 47.1598 99.3816 46.8893C98.0576 43.7339 97.9974 39.6769 99.2011 36.8219C99.5923 35.9504 99.9534 35.2893 100.014 35.3794C100.284 35.6499 101.037 38.8654 101.759 42.8624C102.18 45.1764 102.722 47.4603 102.963 47.9712L103.354 48.9329L103.384 47.9411C103.414 47.4002 103.083 45.4769 102.662 43.6437C101.819 39.9473 101.308 36.1608 101.308 33.8468C101.308 32.4644 101.217 32.1939 100.495 31.7431C100.014 31.4727 99.2914 30.8115 98.8701 30.3307C98.0877 29.4291 98.0877 29.4291 97.877 30.0903C97.7567 30.4509 97.5761 30.7514 97.4557 30.7514C97.0645 30.7214 95.0784 28.798 94.3863 27.7462C93.9951 27.1752 93.2428 26.2136 92.7011 25.6426C91.7984 24.6809 90.7752 22.3369 90.7752 21.2851C90.7752 21.0146 90.9257 20.5638 91.1363 20.2633C91.6178 19.4819 90.8956 17.0177 90.053 16.4768C88.9697 15.8156 84.1248 13.8322 83.9743 14.0125C83.884 14.1026 84.4859 14.7037 85.3586 15.3348C86.5623 16.2363 86.7729 16.5068 86.3215 16.5669C85.2984 16.7172 81.8077 15.7555 79.8517 14.7938C76.5716 13.141 75.6387 12.1793 74.4952 9.20418C74.2244 8.45288 74.2244 8.42283 75.2776 8.60314C75.8494 8.6933 76.3308 8.6933 76.3308 8.63319C76.3308 8.15236 75.6387 7.31091 75.2776 7.31091C75.0369 7.31091 74.4952 6.76997 74.0739 6.10883C73.3818 4.99691 73.2012 4.90675 71.9674 4.90675C68.0253 4.90675 60.2615 3.40416 57.0416 2.05182C55.7175 1.48083 54.5138 1 54.4236 1C54.3062 1 53.7615 1.27047 53.1898 1.63109ZM51.297 4.36582C50.8757 4.90675 49.5817 6.01867 48.378 6.86013L46.1812 8.36273H42.2391C39.1697 8.36273 37.8156 8.24252 36.3711 7.79174C35.348 7.46117 34.5957 7.10054 34.716 7.01039C35.1674 6.58966 37.9961 5.83836 40.8248 5.35753C42.3896 5.08706 44.1049 4.75649 44.5863 4.60623C45.459 4.33577 50.3039 3.52436 51.4775 3.43421C51.9861 3.40416 51.956 3.49431 51.297 4.36582ZM61.3448 4.15545C63.5416 4.54613 66.4906 5.20727 67.905 5.59795L70.4327 6.28914L68.6272 6.80002C66.28 7.46117 65.2869 7.43112 63.8726 6.73992C63.2406 6.40935 61.7661 5.92852 60.5925 5.65805C58.5763 5.20727 56.7708 4.27566 56.7708 3.67462C56.7708 3.314 56.8009 3.314 61.3448 4.15545ZM56.9814 4.78655C58.2754 5.53784 60.0208 7.49122 59.6897 7.82179C59.4791 8.0021 50.2106 9.08397 48.5555 9.11402H47.713L49.0069 7.49122C49.7291 6.58966 50.5717 5.71816 50.9027 5.53784C51.2338 5.35753 51.9861 4.84665 52.5578 4.42592C53.7916 3.52436 54.9652 3.61452 56.9814 4.78655ZM72.8702 8.12231C73.8633 9.14408 74.3147 10.0156 74.9165 12.0291L75.398 13.6218L74.435 13.2011C73.8934 12.9907 72.5994 12.4197 71.5161 11.969C68.3864 10.6467 64.8957 8.78345 65.0763 8.48293C65.3772 7.97205 68.0855 7.34096 70.0415 7.34096C71.817 7.31091 72.1179 7.40106 72.8702 8.12231ZM60.8032 9.98553C61.3147 10.2861 62.7592 10.7068 63.993 10.9171C67.5138 11.4581 68.3564 11.7586 71.4258 13.3814C73.442 14.4633 74.1642 14.9742 73.8633 15.1545C73.2012 15.6052 70.5832 16.2964 68.4466 16.597C65.8587 16.9576 64.3842 16.627 63.3008 15.4249L62.4281 14.4633L61.736 15.1244C61.074 15.7255 60.8032 15.7856 59.118 15.6353C57.5532 15.485 56.4398 15.0643 52.5879 13.141L47.9236 10.7969L49.0972 10.5265C51.0532 10.1358 56.4999 9.47465 58.2453 9.4446C59.3587 9.41454 60.1742 9.59486 60.8032 9.98553ZM43.5301 12.9607C43.5301 14.283 41.5139 19.0011 39.7084 21.826C39.0162 22.9379 38.8959 22.998 37.8727 22.8478C35.9468 22.5172 33.5996 21.0747 31.433 18.8208C28.0024 15.3047 27.9723 15.6653 31.8843 14.4933C36.8195 13.0508 39.5278 12.4798 41.6644 12.4498C43.2894 12.4197 43.5301 12.4798 43.5301 12.9607ZM48.8565 12.8705C51.7152 13.712 58.8772 17.6788 58.8772 18.4001C58.8772 19.2115 49.5787 22.3369 42.206 23.9897L41.3334 24.17L41.5139 22.5773C41.6945 20.7141 44.3125 14.4633 45.4259 13.2311C46.2685 12.2995 46.75 12.2394 48.8565 12.8705ZM23.2177 17.4384C22.345 19.512 16.808 26.5442 16.0256 26.5442C15.8752 26.5442 15.815 25.4623 15.9354 23.8395C16.1159 20.9845 16.7779 19.0011 17.9215 18.0094C18.7339 17.2882 21.4122 16.3565 22.7061 16.3265H23.6691L23.2177 17.4384ZM84.6063 16.9576C86.7127 17.3783 88.5183 18.5203 89.391 20.0229C90.1132 21.2851 90.9859 24.6509 90.6548 24.9514C90.3238 25.282 89.0299 24.3804 84.2452 20.5638C80.0322 17.1679 79.6109 16.7773 80.273 16.597C81.0253 16.3866 82.1086 16.4768 84.6063 16.9576ZM75.9998 17.6488C76.9026 18.1296 77.5045 19.3016 78.4072 22.5172C79.1294 24.9815 80.5438 31.1421 80.4234 31.2623C80.2128 31.4727 76.2105 28.798 73.3517 26.5442C71.5762 25.1317 69.2591 23.3586 68.236 22.5472C66.611 21.2851 65.1365 19.3016 65.5277 18.8809C65.6179 18.8208 66.8818 18.4001 68.3865 18.0094C71.4589 17.1679 74.736 17.0177 75.9998 17.6488ZM30.5904 19.3918C32.095 20.3835 33.4792 21.5255 33.6598 21.856C33.8403 22.2167 34.2917 22.8177 34.6528 23.2384C35.044 23.6592 35.4352 24.2903 35.5255 24.6208C35.7061 25.1618 35.5255 25.3421 34.5325 25.7328C32.8473 26.4239 28.1228 27.3255 23.5186 27.8965C21.3821 28.1369 19.1552 28.4074 18.6136 28.4975C17.7108 28.6177 17.6506 28.5576 17.8312 27.9566C18.3127 26.2737 22.5557 20.4436 24.6321 18.5804C26.3473 17.0177 27.2501 17.1379 30.5904 19.3918ZM81.3894 19.9027C84.3986 22.1265 88.5213 25.7628 89.1532 26.6944C89.7551 27.626 89.394 28.3473 87.6185 29.5493C86.3546 30.4209 82.5329 31.6229 82.1718 31.2924C82.0815 31.2022 81.269 28.3773 80.3662 25.0115C79.4635 21.6457 78.651 18.7006 78.5908 18.4902C78.347 17.799 78.982 18.1296 81.3894 19.9027ZM60.5022 21.7959C61.0439 24.3804 60.8032 32.8851 60.0508 38.4147C59.6296 41.6302 59.4791 42.1712 59.0277 42.1712C57.9745 42.1712 53.4305 38.5649 48.6458 33.9069C43.5 28.9183 41.7246 27.025 41.7246 26.5141C41.7246 25.6726 50.6921 22.5172 55.5671 21.6457C59.4219 20.9545 60.3518 20.9845 60.5022 21.7959ZM66.0422 22.9079C67.6371 23.7193 69.6834 25.1918 75.9427 30.0903C78.5908 32.1639 79.3431 33.1856 78.8616 33.997C77.9588 35.4395 68.6302 40.7287 64.5376 42.1411L62.7923 42.7421L62.5816 41.9307C62.1904 40.5183 62.3108 27.8063 62.7321 25.0416C62.9728 23.6291 63.2136 22.397 63.2737 22.2768C63.5416 21.856 64.2939 22.0364 66.0422 22.9079ZM35.8264 28.1069C35.3751 29.5794 34.051 31.8633 31.2825 35.9504C29.6876 38.2945 27.852 40.9991 27.22 41.9307C25.1436 45.0261 24.1205 45.2064 22.3751 42.8323C20.4191 40.1877 17.0488 32.4644 17.0488 30.6913C17.0488 30.3908 18.7339 29.94 23.4585 29.0084C30.7709 27.5659 30.8913 27.5659 33.8403 27.4758C36.007 27.4457 36.0371 27.4457 35.8264 28.1069ZM41.1227 29.94C41.9051 30.3006 44.0417 32.1038 46.2384 34.2374C48.3148 36.2509 50.9629 38.7152 52.1666 39.737C53.3703 40.7587 54.905 42.2914 55.5671 43.1629C56.6805 44.5453 56.7407 44.7256 56.2291 44.9059C54.4537 45.567 41.875 46.3784 33.2385 46.3784H26.4075L26.7084 45.4769C27.0996 44.365 29.0256 41.3898 33.8704 34.3276L37.5718 28.8882L38.6852 29.0986C39.2871 29.1887 40.3704 29.5794 41.1227 29.94ZM97.4557 31.5628C99.0506 33.0654 99.1409 34.8685 97.8469 38.7152C97.215 40.5784 96.8539 41.2696 96.5229 41.2696C96.0113 41.2696 93.9951 34.0571 93.3933 30.1203L93.2729 29.339L94.9581 30.0602C95.8909 30.481 97.0043 31.1421 97.4557 31.5628ZM92.1595 31.4727C92.972 33.2758 94.2058 37.7836 94.5368 40.338L94.7474 41.9608L90.8956 39.3162C85.9002 35.9204 85.2984 35.3494 85.2984 33.967C85.2984 33.3359 85.5692 32.4944 85.9303 32.0136C86.7428 30.8716 88.7891 29.8499 90.2636 29.8499C91.347 29.8499 91.4372 29.91 92.1595 31.4727ZM12.8358 31.9535C12.8358 32.3742 10.7595 36.4312 8.984 39.4064C7.59975 41.7504 7.50947 41.8706 7.02799 41.3297C6.33587 40.5784 5.7942 37.9639 6.03494 36.6717C6.24559 35.4996 7.87058 34.0872 10.8798 32.4944C12.565 31.5929 12.8358 31.5027 12.8358 31.9535ZM15.7879 32.9152C17.443 35.6198 21.024 43.1629 21.1744 44.2447C21.3249 45.4168 21.3249 45.4468 20.2115 45.6572C17.3828 46.1681 11.5148 44.996 9.64904 43.5235L8.80646 42.8323L10.6421 39.0758C12.6583 34.9887 14.4638 31.9535 14.9152 31.9535C15.0627 31.9535 15.4539 32.4043 15.7879 32.9152ZM81.9581 37.4831C81.9882 37.5131 82.229 38.3245 82.4697 39.3162C83.2521 42.2613 83.854 47.2199 83.9442 51.1867C84.0044 54.9432 84.0044 54.9432 83.3123 54.8831C81.5067 54.6728 69.1087 49.4738 66.0091 47.5805C64.6851 46.7992 64.4142 46.4686 64.5346 45.9878C64.8055 44.9059 66.8818 43.1629 69.2892 41.9908C70.6133 41.3598 72.8702 40.1577 74.3448 39.3463C77.3841 37.6333 79.3401 37.0022 80.8447 37.2426C81.4165 37.3328 81.928 37.453 81.9581 37.4831ZM86.4118 38.1743C88.8192 39.3763 91.8284 41.48 93.0021 42.7722C94.8076 44.7857 94.5669 45.7173 91.046 50.4655C88.759 53.5308 87.8863 54.2821 86.803 54.1318C86.2012 54.0417 86.0507 53.7412 85.5993 51.6375C85.0877 49.2634 84.0646 42.1411 83.7035 38.7753C83.553 37.0623 83.553 37.0323 84.2151 37.2426C84.6063 37.3328 85.6023 37.7836 86.4118 38.1743ZM5.19236 42.5318C4.92153 43.824 4.71088 45.2665 4.71088 45.7473C4.71088 46.1981 4.56042 47.0396 4.34977 47.6106C3.98866 48.7225 2.90533 50.4054 2.72478 50.195C2.51413 49.9847 3.47709 43.824 4.16921 40.8188L4.80116 38.1142L5.22245 39.1359C5.61365 40.0375 5.61365 40.4883 5.19236 42.5318ZM16.5402 46.3484C18.6768 46.8292 20.4522 47.28 20.5425 47.3401C20.9036 47.7007 19.6096 50.7059 18.2856 52.5691C15.9685 55.8749 11.0935 60.1122 10.4314 59.3909C10.281 59.2707 9.8296 57.5277 9.37821 55.5443C8.56572 51.938 8.26479 47.881 8.71618 46.2883C8.92683 45.5069 9.0171 45.4769 10.8226 45.4769C11.8428 45.4769 14.4337 45.8676 16.5402 46.3484ZM7.3891 49.8645C8.2016 53.621 8.89372 59.6313 8.50252 59.3609C8.32197 59.2707 7.56966 58.7298 6.84744 58.1888C6.12522 57.6179 5.46319 57.2272 5.403 57.3173C5.31273 57.4075 5.73402 58.249 6.33587 59.2106C8.71317 63.0873 8.95391 66.2728 7.14836 69.9692L6.12522 72.0428L5.73402 70.9609C4.77106 68.1661 2.33358 55.8748 2.69469 55.5142C2.75487 55.4541 3.17616 55.6645 3.62755 56.0251C4.74097 56.8966 4.83125 56.6261 3.95857 55.3039C2.81506 53.621 2.72478 52.6893 3.59746 50.8261C4.59051 48.6924 6.18541 46.5287 6.54652 46.8893C6.69698 47.0396 7.08818 48.3619 7.3891 49.8645ZM96.6432 50.3453C96.9442 52.3888 97.0946 55.0033 97.0344 56.8966L96.9442 60.0521L96.0414 60.1422C94.8076 60.2925 91.7683 59.6614 90.4141 58.9702C89.4511 58.4894 89.2706 58.249 89.2706 57.4075C89.2706 56.2956 90.8655 52.7795 92.34 50.6458C93.634 48.7525 95.59 46.6489 95.8909 46.8292C96.0113 46.9194 96.3423 48.4821 96.6432 50.3453ZM55.8108 47.881C55.4196 48.3619 53.8849 49.6841 52.4104 50.7961C50.9058 51.908 47.4752 54.6728 44.7669 56.8966C37.5447 62.877 32.6697 66.2127 31.1049 66.2127C29.7809 66.2127 26.3804 54.9432 26.3804 50.5857C26.3804 49.2334 26.4406 49.1132 27.223 48.9629C28.7276 48.6624 36.1003 47.9111 40.6743 47.5805C47.5956 47.0997 47.8965 47.0997 52.3502 47.0396L56.503 46.9795L55.8108 47.881ZM57.824 51.9681C57.0115 57.0769 53.6412 71.2013 52.1064 76.0698C51.4143 78.2635 51.2639 78.4739 50.4213 78.6542C49.2778 78.8646 47.1713 78.4138 45.5463 77.5724C43.8009 76.7008 37.7223 73.0045 35.6158 71.5319C33.9607 70.3599 33.8403 70.2397 33.9908 69.3081C34.2315 67.8956 35.1644 66.7236 37.5116 64.9205C38.625 64.049 42.6574 60.8635 46.4491 57.7982C52.8287 52.6593 57.9143 48.9329 58.155 49.1733C58.2182 49.2334 58.0678 50.4956 57.824 51.9681ZM66.5508 50.165C69.0786 51.0966 75.729 53.9816 78.3771 55.2438C80.6943 56.3557 83.553 58.7598 83.553 59.5712C83.553 60.2324 80.8748 64.3796 78.7082 66.9941C76.8725 69.248 74.0137 71.9226 73.4721 71.9226C73.0809 71.9226 72.6897 71.2614 70.7637 67.4148C68.3864 62.6966 63.0902 50.1049 63.0902 49.2334C63.0902 48.993 64.5045 49.3836 66.5508 50.165ZM61.7661 51.5474C62.2175 52.4189 63.5717 55.4241 64.7754 58.249C65.9791 61.0438 67.4837 64.5599 68.1457 66.0625C69.5601 69.248 70.1017 71.5019 69.9513 73.5754L69.861 75.048L66.6712 76.4604C64.8957 77.2117 62.8795 77.933 62.1573 78.0532C61.4351 78.1734 59.7198 78.5941 58.3356 79.0148C56.9814 79.4356 55.4768 79.7361 55.0254 79.676C54.3333 79.5858 54.2129 79.4356 54.1226 78.4439C54.0023 76.9112 55.206 70.6304 57.2222 62.4562C58.6967 56.4458 60.5925 49.9847 60.8633 49.9847C60.9265 49.9847 61.3448 50.7059 61.7661 51.5474ZM24.271 51.8479C25.6251 54.1018 28.0325 61.9754 28.3936 65.4013L28.5742 67.1443L27.2501 66.934C26.5279 66.8138 24.6622 66.4231 23.1274 66.0324C21.5927 65.6417 20.0881 65.3112 19.7872 65.3112C19.4863 65.3112 18.6437 64.9806 17.9215 64.5899C17.1992 64.1992 15.9053 63.6583 15.0627 63.3878C14.2201 63.1174 13.2872 62.6966 12.9562 62.4863C12.4145 62.0956 12.4145 62.0054 12.896 61.0438C13.5581 59.6313 20.2085 52.509 21.7131 51.6075C23.2779 50.6759 23.5487 50.7059 24.271 51.8479ZM101.639 62.7567C100.826 68.3464 100.796 68.4366 100.555 66.6936C100.254 64.4397 100.525 60.7433 101.157 59.0303C101.578 57.7681 102.18 56.7764 102.391 56.9567C102.421 57.0168 102.09 59.6313 101.639 62.7567ZM93.4835 60.8034C94.5669 61.1339 95.7104 61.5547 96.0113 61.7951C96.5831 62.2158 96.583 62.2459 95.921 64.1391C94.2057 68.8573 89.9326 75.9495 89.8724 74.1164C89.8724 73.7558 89.4211 71.3215 88.8493 68.707C88.2775 66.0925 87.7058 63.1174 87.5854 62.0956C87.4049 60.3225 87.435 60.2624 88.097 60.1122C89.1803 59.9018 91.3199 60.1723 93.4835 60.8034ZM87.1641 66.5433C88.1572 71.3817 88.428 74.9879 87.8562 75.5589C87.3447 76.0698 80.8447 75.7091 78.2869 75.048C76.4813 74.5672 76.1804 74.3868 76.2707 73.876C76.5716 72.0127 79.5206 67.4148 83.4026 62.907C85.4489 60.5028 85.4789 60.4728 85.8701 61.194C86.0808 61.6148 86.6556 64.0189 87.1641 66.5433ZM13.4979 64.3795C14.4307 64.6801 15.9654 65.1008 16.9284 65.3112C17.9215 65.5215 18.8543 65.792 19.0349 65.9423C19.2154 66.0925 20.7501 66.6936 22.4955 67.2946C24.2108 67.8956 25.9862 68.5868 26.4677 68.8573L27.2802 69.3381L25.8659 70.8107C23.0372 73.6656 17.1992 77.3319 15.4539 77.3319C14.7016 77.3319 13.8891 75.4086 12.8057 71.1412C11.9932 67.9257 11.3613 63.8086 11.6923 63.8086C11.7826 63.8086 12.5951 64.079 13.4979 64.3795ZM99.2011 65.3713C100.525 68.4065 100.254 70.2697 98.2381 72.1029C97.1548 73.0646 93.0321 75.2283 92.2798 75.2283C91.8585 75.2283 92.4303 73.9361 94.4465 70.2697C96.583 66.4231 98.0576 64.1091 98.3886 64.1091C98.509 64.1091 98.9002 64.6801 99.2011 65.3713ZM11.4817 70.5702C12.6854 75.2584 13.0164 77.3319 12.5951 77.3319C12.4446 77.3319 11.7525 77.1216 11.0604 76.8812C9.61594 76.3703 9.46548 76.7008 10.6993 77.6926C11.1807 78.0832 11.8428 78.9547 12.2039 79.6459C12.5349 80.3071 13.1668 81.1485 13.6182 81.5092C14.4006 82.1102 15.2432 84.2739 15.2432 85.6563C15.2432 86.2874 15.183 86.3175 14.6113 86.0169C14.2803 85.8366 13.7687 85.2957 13.4979 84.7848C13.1969 84.2739 11.8729 82.2003 10.4886 80.1268C9.13446 78.0832 8.08123 76.2801 8.17151 76.1299C8.26178 76.0097 8.11132 75.3185 7.87058 74.6273C7.14836 72.5537 7.29883 70.8708 8.56271 67.6252L9.67613 64.6801L10.0974 65.6718C10.3081 66.2127 10.94 68.4065 11.4817 70.5702ZM28.7547 72.4335C29.4168 73.906 29.7779 79.0749 29.5371 84.0335C29.3867 87.4895 29.2362 88.7517 28.9353 88.7517C27.7617 88.7517 17.8914 81.6895 17.1992 80.3071C16.7779 79.4957 16.7779 79.3755 17.3798 78.5641C18.1321 77.5423 18.7339 77.0915 23.3682 73.9661C27.1899 71.3516 28.1529 71.0811 28.7547 72.4335ZM35.1644 73.1247C36.6991 73.6957 43.7408 77.8128 46.6296 79.8262L48.375 81.0283L47.5324 81.8998C45.8773 83.6428 33.8403 89.0522 31.6436 89.0522H30.9816L30.7709 80.9081C30.6806 76.4304 30.6505 72.6438 30.7709 72.4936C31.0117 72.1029 33.3288 72.4335 35.1644 73.1247ZM86.3546 77.362C86.9565 77.5724 87.4681 77.9029 87.4681 78.1133C87.4681 79.4356 81.7505 88.6315 80.3662 89.5631C79.7644 89.9538 79.6741 89.9237 79.1024 88.962C78.1093 87.4294 76.0329 82.2004 75.5214 80.0667C75.0098 77.933 75.1603 77.3319 76.364 76.9713C77.4774 76.6407 85.0577 76.9413 86.3546 77.362ZM69.5601 78.9848C68.236 82.5009 63.4513 91.6667 61.736 93.9807C61.3448 94.5216 61.2545 94.5217 60.5624 94.0709C58.6365 92.8087 55.0856 86.4677 54.7847 83.733C54.6041 82.3506 54.6643 82.2004 55.4166 81.5993C55.8981 81.2387 57.4328 80.5775 58.8472 80.1568C60.2615 79.706 61.9467 79.105 62.5786 78.7744C63.6619 78.2335 68.2059 77.1216 69.6202 77.0615L70.3124 77.0314L69.5601 78.9848ZM73.7158 79.1952C74.7089 80.5475 75.1001 81.2988 76.1232 84.0936C77.2667 87.189 77.7482 89.3527 77.5977 90.8253L77.4774 91.9973L74.2876 92.9289C70.4057 94.0408 66.5237 94.9424 64.3571 95.2429L62.7321 95.4533L64.7483 91.4263C68.0283 84.905 72.0607 78.2335 72.7529 78.2335C72.8702 78.2335 73.3216 78.6843 73.7158 79.1952ZM89.2706 86.5278C88.8794 88.4211 87.9465 89.4429 86.0206 90.074C84.185 90.705 81.7475 91.0056 81.7475 90.6449C81.7475 90.1942 85.9303 83.9434 87.7359 81.6895L89.4211 79.5858L89.5113 82.2605C89.5715 83.733 89.4511 85.6563 89.2706 86.5278ZM23.0101 86.6781C27.7647 90.1942 27.855 90.4646 24.0633 90.1341C20.9638 89.8335 18.0147 88.8719 17.0217 87.8201C16.149 86.8885 15.5472 84.9651 15.5472 83.0418V81.7796L17.1722 82.6812C18.0719 83.162 20.69 84.9651 23.0101 86.6781ZM48.4954 86.4377C48.1042 88.3309 47.5023 89.8335 46.1181 92.388C44.3125 95.7538 44.2523 95.8139 43.169 95.904C40.7315 96.1144 35.9468 94.3113 33.5996 92.3279L32.5765 91.4564L33.2686 90.9154C34.713 89.8636 38.0533 88.0605 41.1829 86.618C44.463 85.1154 48.6759 83.5827 48.9167 83.7931C48.9768 83.8833 48.7963 85.0553 48.4954 86.4377ZM53.4606 86.5278C55.9884 89.3227 58.9374 94.8823 58.486 96.0843C58.2453 96.6854 55.206 97.1963 50.5416 97.3766L46.2384 97.5569V96.1445C46.2384 93.1994 50.2708 84.8449 51.6852 84.8449C51.8055 84.8449 52.5879 85.5962 53.4606 86.5278ZM36.338 95.2128C37.8426 95.9942 41.1227 98.1579 41.1227 98.3984C41.1227 98.7289 39.0162 99.4802 37.4514 99.6906C36.669 99.8108 35.5255 99.7507 34.8635 99.6004C33.9005 99.33 33.5695 98.9994 32.9376 97.8574C32.5163 97.046 32.0649 95.904 31.9746 95.273C31.8542 94.6419 31.6737 93.9206 31.5834 93.6802C31.463 93.3496 31.8843 93.4097 33.3589 93.9807C34.4452 94.3714 35.7994 94.9424 36.338 95.2128ZM57.9745 98.3683C57.3726 99.5103 54.5138 102.035 53.0694 102.726L51.5949 103.417L50.2106 102.816C49.4282 102.485 48.2245 101.644 47.5023 100.983C46.2685 99.7807 46.2384 99.7206 46.9005 99.4802C47.9838 99.0895 50.6319 98.6388 54.3634 98.218C56.2592 98.0077 57.9444 97.8274 58.0647 97.7973C58.1851 97.7973 58.155 98.0377 57.9745 98.3683ZM69.861 99.5103L71.6665 100.051L69.2591 100.712C66.8818 101.343 57.5532 103.237 55.0254 103.597C53.7916 103.778 53.7314 103.778 54.1226 103.207C55.0254 101.914 58.2152 99.8709 59.9606 99.4502C60.9536 99.2098 62.0069 98.9393 62.3379 98.8491C63.5115 98.5486 68.0855 98.9393 69.861 99.5103ZM45.8472 101.193C47.3218 101.914 48.6458 102.726 48.7361 102.996C48.8565 103.267 48.8264 103.477 48.706 103.477C48.5856 103.477 45.7569 102.906 42.3866 102.215C36.1575 100.923 35.7663 100.712 38.5047 100.201C41.5169 99.6004 42.9583 99.7807 45.8472 101.193Z" stroke="white" stroke-miterlimit="10"/>
</svg>
