<svg width="107" height="107" fill="none" xmlns="http://www.w3.org/2000/svg"><path d="M53.19 1.631c-2.046 1.232-14.475 3.877-19.02 4.027-3.07.09-3.912.39-4.453 1.563-.18.39-.723.961-1.234 1.232-1.114.631-1.144.962-.15.962.571 0 .842.24 1.083.81l.33.842.512-1.021c.723-1.353 1.655-1.803 3.792-1.834 2.167 0 8.877 1.774 8.155 2.164-1.535.872-11.826 3.546-13.572 3.546-.3 0-.451-.3-.451-.871 0-1.112-.482-1.443-.903-.631-.18.33-.542.6-.842.6-.271 0-1.264.572-2.167 1.263-1.445 1.082-3.611 2.043-4.604 2.043-.18 0 .03-.39.481-.841 1.234-1.292.963-1.412-.842-.39-.933.51-2.167 1.051-2.769 1.171-1.053.21-1.173.331-1.655 2.014-.3.992-.632 2.043-.722 2.344-.12.39 0 .48.542.45.662-.09.692 0 .601 1.413-.06.992-.571 2.495-1.444 4.418-.722 1.623-1.324 3.035-1.324 3.185 0 .451-3.16 2.735-4.664 3.366l-1.355.571.482-.901c.24-.511.933-1.653 1.505-2.555 1.263-1.953 1.414-3.095.21-1.533-.481.572-1.294 1.804-1.866 2.705-.571.932-1.534 2.044-2.136 2.494l-1.114.842-.18 3.937c-.18 4.327-1.053 8.955-2.197 11.51-.933 2.103-.933 3.486 0 4.838 1.114 1.623 2.739 10.067 3.34 17.19.181 2.224.211 2.284 1.234 2.764.572.27 1.023.722 1.023.962 0 .27.512 1.022 1.144 1.743 2.076 2.284 5.717 7.934 6.59 10.278.843 2.224.843 2.254 2.347 2.735.843.27 2.558 1.082 3.852 1.833 1.324.721 2.468 1.262 2.558 1.142.21-.21-.572-.902-2.708-2.314-.813-.511-1.415-.962-1.355-1.022.03-.03 1.836.24 3.973.601 4.694.781 6.169 1.473 7.613 3.636.963 1.473 1.746 3.667 1.445 3.967-.09.09-.933-.33-1.896-.901-4.243-2.555-5.898-2.885-2.438-.511 1.053.721 2.799 2.013 3.882 2.915 1.926 1.532 2.046 1.593 3.912 1.593 3.04.03 11.646 2.193 14.505 3.666l1.143.571 1.354-.781c2.318-1.353 15.618-4.058 20.042-4.058 2.016 0 2.016 0 3.01-1.232.54-.69 2.015-2.013 3.25-2.915 1.233-.931 2.075-1.713 1.865-1.803-.21-.06-1.053.39-1.866.992-2.257 1.653-4.965 2.374-8.125 2.164-2.829-.18-7.011-1.323-6.29-1.713.603-.36 12.61-3.396 12.76-3.246.09.06 0 .571-.15 1.142-.361 1.262-.18 1.473.692.691.36-.33 1.264-.901 2.016-1.262.752-.36 1.625-.992 1.956-1.382.331-.391 1.505-1.052 2.648-1.473 1.685-.661 2.016-.691 2.016-.3 0 .24-.12.36-.3.27-.151-.09-.302.09-.302.42 0 .632.482 1.113.663.662.03-.15.902-.661 1.925-1.172 2.197-1.112 2.287-1.202 3.37-3.847.482-1.172 1.475-3.125 2.258-4.387.782-1.232 1.414-2.404 1.414-2.645 0-.721-.813.27-2.227 2.645-.752 1.292-1.775 2.794-2.287 3.365l-.933 1.052.15-2.855c.091-1.562.362-3.546.633-4.417.872-2.855 3.37-5.35 6.68-6.672l1.565-.6-.752 1.682c-.422.902-.692 1.743-.602 1.803.06.09.782-.691 1.595-1.713.782-1.021 1.775-2.043 2.227-2.254.752-.39.782-.48.632-2.794-.181-3.396.361-6.852 1.895-11.78.753-2.405 1.355-4.569 1.355-4.81 0-.24-.271-.78-.602-1.201-.331-.42-.602-1.232-.602-1.893 0-1.383-.331-1.413-1.053-.09l-.572 1.021-1.324-1.472c-1.535-1.713-2.137-1.743-.753-.03 2.799 3.456 2.649 6.46-.391 8.985l-1.234.992-.662-5.049c-.39-2.765-.752-5.47-.842-6.01-.15-.932-.15-.962.963-.962.752 0 1.053-.12.933-.39-1.324-3.156-1.385-7.213-.18-10.068.39-.872.751-1.533.812-1.443.27.27 1.023 3.486 1.745 7.483.421 2.314.963 4.598 1.204 5.11l.391.96.03-.99c.03-.542-.301-2.465-.722-4.298-.843-3.697-1.354-7.483-1.354-9.797 0-1.383-.091-1.653-.813-2.104-.481-.27-1.204-.931-1.625-1.412-.782-.902-.782-.902-.993-.24-.12.36-.3.66-.421.66-.392-.03-2.378-1.953-3.07-3.005-.39-.57-1.143-1.532-1.685-2.103-.903-.962-1.926-3.306-1.926-4.358 0-.27.15-.721.361-1.022.482-.781-.24-3.245-1.083-3.786-1.083-.661-5.928-2.645-6.079-2.465-.09.09.512.692 1.385 1.323 1.203.901 1.414 1.172.963 1.232-1.024.15-4.514-.812-6.47-1.773-3.28-1.653-4.213-2.615-5.357-5.59-.27-.751-.27-.781.783-.6.571.09 1.053.09 1.053.03 0-.482-.692-1.323-1.053-1.323-.241 0-.783-.541-1.204-1.202-.692-1.112-.873-1.202-2.107-1.202-3.942 0-11.706-1.503-14.925-2.855C55.717 1.48 54.514 1 54.424 1c-.118 0-.663.27-1.234.631zm-1.893 2.735c-.421.54-1.715 1.653-2.919 2.494l-2.197 1.503H42.24c-3.07 0-4.423-.12-5.868-.571-1.023-.33-1.775-.691-1.655-.782.451-.42 3.28-1.172 6.109-1.652 1.565-.27 3.28-.602 3.761-.752.873-.27 5.718-1.082 6.892-1.172.508-.03.478.06-.181.932zm10.048-.21c2.197.39 5.146 1.051 6.56 1.442l2.528.691-1.806.511c-2.347.661-3.34.631-4.754-.06-.632-.33-2.107-.811-3.28-1.082-2.017-.45-3.822-1.382-3.822-1.983 0-.361.03-.361 4.574.48zm-4.364.63c1.294.752 3.04 2.705 2.709 3.036-.21.18-9.48 1.262-11.134 1.292h-.843l1.294-1.623c.722-.901 1.565-1.773 1.896-1.953.33-.18 1.083-.691 1.655-1.112 1.234-.902 2.407-.811 4.423.36zm15.89 3.336c.992 1.022 1.444 1.894 2.046 3.907l.481 1.593-.963-.42c-.542-.211-1.836-.782-2.919-1.233-3.13-1.322-6.62-3.186-6.44-3.486.301-.511 3.01-1.142 4.966-1.142 1.775-.03 2.076.06 2.828.781zM60.802 9.986c.512.3 1.956.72 3.19.931 3.52.541 4.363.842 7.433 2.464 2.016 1.082 2.738 1.593 2.437 1.774-.662.45-3.28 1.141-5.416 1.442-2.588.36-4.063.03-5.146-1.172l-.873-.962-.692.661c-.662.601-.933.662-2.618.511-1.565-.15-2.678-.57-6.53-2.494l-4.664-2.344 1.173-.27c1.956-.391 7.403-1.052 9.148-1.082 1.114-.03 1.93.15 2.558.54zM43.53 12.96c0 1.322-2.016 6.04-3.822 8.865-.692 1.112-.812 1.172-1.835 1.022-1.926-.33-4.273-1.773-6.44-4.027-3.43-3.516-3.46-3.156.451-4.328 4.935-1.442 7.644-2.013 9.78-2.043 1.625-.03 1.866.03 1.866.51zm5.326-.09c2.86.841 10.021 4.808 10.021 5.53 0 .81-9.298 3.936-16.671 5.589l-.873.18.18-1.593c.181-1.863 2.8-8.114 3.913-9.346.843-.931 1.324-.992 3.43-.36zm-25.638 4.567c-.873 2.074-6.41 9.106-7.192 9.106-.15 0-.211-1.082-.09-2.704.18-2.855.842-4.839 1.986-5.83.812-.722 3.49-1.654 4.784-1.684h.963l-.451 1.112zm61.388-.48c2.107.42 3.912 1.562 4.785 3.065.722 1.262 1.595 4.628 1.264 4.928-.331.331-1.625-.57-6.41-4.387-4.213-3.396-4.634-3.787-3.972-3.967.752-.21 1.836-.12 4.333.36zm-8.606.69c.903.482 1.504 1.654 2.407 4.87.722 2.463 2.137 8.624 2.016 8.744-.21.21-4.213-2.464-7.071-4.718-1.776-1.412-4.093-3.185-5.116-3.997-1.625-1.262-3.1-3.245-2.708-3.666.09-.06 1.354-.48 2.858-.872 3.073-.841 6.35-.991 7.614-.36zm-45.41 1.744c1.505.992 2.89 2.134 3.07 2.464.18.36.632.962.993 1.382.391.421.782 1.052.873 1.383.18.54 0 .721-.994 1.112-1.685.69-6.41 1.593-11.013 2.163-2.137.24-4.364.511-4.905.601-.903.12-.963.06-.783-.54.482-1.683 4.725-7.513 6.801-9.377 1.715-1.562 2.618-1.442 5.958.812zm50.8.51c3.009 2.224 7.131 5.86 7.763 6.792.602.932.241 1.653-1.535 2.855-1.263.872-5.085 2.074-5.446 1.743-.09-.09-.903-2.915-1.806-6.28a828.477 828.477 0 00-1.775-6.522c-.244-.691.391-.36 2.798 1.413zm-20.888 1.894c.542 2.584.301 11.09-.451 16.619-.421 3.215-.572 3.756-1.023 3.756-1.053 0-5.597-3.606-10.382-8.264-5.146-4.989-6.921-6.882-6.921-7.393 0-.841 8.967-3.997 13.842-4.868 3.855-.692 4.785-.662 4.935.15zm5.54 1.112c1.595.811 3.641 2.284 9.9 7.182 2.649 2.074 3.401 3.096 2.92 3.907-.903 1.443-10.232 6.732-14.324 8.144l-1.746.601-.21-.811c-.392-1.413-.271-14.125.15-16.89.24-1.412.482-2.644.542-2.764.268-.421 1.02-.24 2.768.63zm-30.216 5.199c-.45 1.472-1.775 3.756-4.544 7.843-1.594 2.344-3.43 5.05-4.062 5.98-2.076 3.096-3.1 3.276-4.845.902-1.956-2.644-5.326-10.368-5.326-12.14 0-.301 1.685-.752 6.41-1.684 7.312-1.442 7.432-1.442 10.381-1.532 2.167-.03 2.197-.03 1.986.63zm5.297 1.833c.782.36 2.919 2.164 5.115 4.297 2.077 2.014 4.725 4.478 5.929 5.5 1.203 1.022 2.738 2.554 3.4 3.426 1.114 1.382 1.174 1.563.662 1.743-1.775.661-14.354 1.472-22.99 1.472h-6.831l.3-.901c.392-1.112 2.318-4.087 7.162-11.15l3.702-5.439 1.113.21c.602.09 1.685.481 2.438.842zm56.333 1.623c1.595 1.502 1.685 3.305.39 7.152-.631 1.863-.992 2.555-1.323 2.555-.512 0-2.528-7.213-3.13-11.15l-.12-.781 1.685.721c.933.421 2.046 1.082 2.498 1.503zm-5.297-.09c.813 1.803 2.047 6.31 2.378 8.865l.21 1.623-3.851-2.645c-4.996-3.396-5.598-3.967-5.598-5.349 0-.631.271-1.473.632-1.953.813-1.142 2.86-2.164 4.334-2.164 1.083 0 1.173.06 1.895 1.623zm-79.323.48c0 .421-2.077 4.478-3.852 7.453C7.6 41.75 7.509 41.871 7.028 41.33c-.692-.752-1.234-3.366-.993-4.658.21-1.172 1.836-2.585 4.845-4.178 1.685-.901 1.956-.991 1.956-.54zm2.952.962c1.655 2.705 5.236 10.248 5.386 11.33.15 1.172.15 1.202-.962 1.412-2.83.511-8.697-.661-10.563-2.133l-.843-.692 1.836-3.756c2.016-4.087 3.822-7.123 4.273-7.123.148 0 .539.451.873.962zm66.17 4.568c.03.03.271.842.512 1.833.782 2.945 1.384 7.904 1.474 11.87.06 3.757.06 3.757-.632 3.697-1.805-.21-14.203-5.41-17.303-7.303-1.324-.78-1.595-1.111-1.474-1.592.27-1.082 2.347-2.825 4.754-3.997 1.324-.631 3.581-1.833 5.056-2.645 3.04-1.713 4.995-2.344 6.5-2.103.572.09 1.083.21 1.113.24zm4.454.691c2.407 1.202 5.416 3.306 6.59 4.598 1.806 2.014 1.565 2.945-1.956 7.694-2.287 3.065-3.16 3.816-4.243 3.666-.602-.09-.752-.39-1.204-2.494-.511-2.375-1.534-9.497-1.895-12.863-.151-1.713-.151-1.743.511-1.532.391.09 1.387.54 2.197.931zm-81.22 4.358c-.27 1.292-.481 2.735-.481 3.215 0 .451-.15 1.293-.361 1.864-.361 1.111-1.445 2.794-1.625 2.584-.21-.21.752-6.371 1.444-9.376l.632-2.705.421 1.022c.392.901.392 1.352-.03 3.396zm11.348 3.816c2.137.481 3.912.932 4.003.992.36.36-.933 3.366-2.257 5.23-2.318 3.305-7.193 7.542-7.855 6.82-.15-.12-.601-1.862-1.053-3.846-.812-3.606-1.113-7.663-.662-9.256.21-.781.301-.811 2.107-.811 1.02 0 3.61.39 5.717.871zm-9.15 3.517c.812 3.756 1.504 9.766 1.113 9.496-.181-.09-.933-.631-1.656-1.172-.722-.571-1.384-.962-1.444-.872-.09.09.331.932.933 1.894 2.377 3.876 2.618 7.062.812 10.758l-1.023 2.074-.391-1.082c-.963-2.795-3.4-15.086-3.04-15.447.06-.06.482.15.934.511 1.113.872 1.203.601.33-.721-1.143-1.683-1.233-2.615-.36-4.478.993-2.134 2.587-4.297 2.949-3.937.15.15.541 1.473.842 2.975zm89.253.48c.301 2.044.452 4.658.391 6.552l-.09 3.155-.903.09c-1.233.15-4.273-.48-5.627-1.172-.963-.48-1.143-.721-1.143-1.563 0-1.111 1.594-4.627 3.069-6.761 1.294-1.894 3.25-3.997 3.55-3.817.121.09.452 1.653.753 3.516zM55.811 47.88c-.391.48-1.926 1.803-3.4 2.915-1.505 1.112-4.936 3.877-7.644 6.1-7.222 5.981-12.097 9.317-13.662 9.317-1.324 0-4.725-11.27-4.725-15.627 0-1.353.06-1.473.843-1.623 1.505-.3 8.877-1.052 13.451-1.383 6.922-.48 7.223-.48 11.676-.54l4.153-.06-.692.901zm2.013 4.087c-.813 5.109-4.183 19.233-5.718 24.102-.692 2.194-.842 2.404-1.685 2.584-1.143.21-3.25-.24-4.875-1.082-1.745-.871-7.824-4.568-9.93-6.04-1.655-1.172-1.776-1.292-1.625-2.224.24-1.412 1.173-2.584 3.52-4.388a887.906 887.906 0 008.938-7.122c6.38-5.139 11.465-8.865 11.706-8.625.063.06-.087 1.323-.331 2.795zm8.727-1.803c2.528.932 9.178 3.817 11.826 5.079 2.317 1.112 5.176 3.516 5.176 4.327 0 .661-2.678 4.809-4.845 7.423-1.835 2.254-4.694 4.929-5.236 4.929-.391 0-.782-.662-2.708-4.508-2.378-4.718-7.674-17.31-7.674-18.182 0-.24 1.414.15 3.46.932zm-4.785 1.382c.452.872 1.806 3.877 3.01 6.702 1.203 2.795 2.708 6.31 3.37 7.813 1.414 3.186 1.956 5.44 1.805 7.513l-.09 1.473-3.19 1.412c-1.775.752-3.792 1.473-4.514 1.593-.722.12-2.437.541-3.821.962-1.355.42-2.86.721-3.31.661-.693-.09-.813-.24-.903-1.232-.12-1.533 1.083-7.814 3.1-15.988 1.474-6.01 3.37-12.471 3.64-12.471.063 0 .482.72.903 1.562zm-37.495.3c1.354 2.255 3.761 10.128 4.123 13.554l.18 1.743-1.324-.21c-.722-.12-2.588-.51-4.123-.902-1.534-.39-3.039-.72-3.34-.72-.3 0-1.143-.331-1.865-.722-.723-.39-2.017-.932-2.86-1.202-.842-.27-1.775-.691-2.106-.902-.541-.39-.541-.48-.06-1.442.662-1.413 7.313-8.535 8.817-9.436 1.565-.932 1.836-.902 2.558.24zm77.368 10.91c-.813 5.59-.843 5.68-1.084 3.937-.301-2.254-.03-5.95.602-7.664.421-1.262 1.023-2.254 1.234-2.073.03.06-.301 2.674-.752 5.8zm-8.155-1.954c1.083.33 2.226.752 2.527.992.572.42.572.45-.09 2.344-1.715 4.718-5.988 11.81-6.049 9.977 0-.36-.45-2.794-1.023-5.409-.572-2.614-1.143-5.59-1.264-6.611-.18-1.773-.15-1.834.512-1.984 1.083-.21 3.223.06 5.387.691zm-6.32 5.74c.993 4.839 1.264 8.445.692 9.016-.511.51-7.011.15-9.57-.511-1.805-.48-2.106-.661-2.015-1.172.3-1.863 3.25-6.461 7.132-10.969 2.046-2.404 2.076-2.434 2.467-1.713.21.42.786 2.825 1.294 5.35zM13.498 64.38a44.03 44.03 0 003.43.932c.994.21 1.926.481 2.107.631.18.15 1.715.752 3.46 1.353 1.716.6 3.491 1.292 3.973 1.562l.812.481-1.414 1.473c-2.829 2.855-8.667 6.52-10.412 6.52-.752 0-1.565-1.922-2.648-6.19-.813-3.215-1.445-7.332-1.114-7.332.09 0 .903.27 1.806.57zm85.703.992c1.324 3.035 1.053 4.899-.963 6.732-1.083.962-5.206 3.125-5.958 3.125-.421 0 .15-1.292 2.166-4.958 2.137-3.847 3.612-6.16 3.943-6.16.12 0 .511.57.812 1.261zm-87.72 5.2c1.204 4.687 1.535 6.76 1.114 6.76-.15 0-.843-.21-1.535-.45-1.444-.51-1.595-.18-.36.812.48.39 1.143 1.262 1.504 1.953.33.661.963 1.502 1.414 1.863.783.601 1.625 2.765 1.625 4.147 0 .631-.06.661-.632.36-.33-.18-.842-.72-1.113-1.231-.301-.511-1.625-2.585-3.01-4.658-1.354-2.044-2.407-3.847-2.316-3.997.09-.12-.06-.811-.301-1.503-.723-2.073-.572-3.756.692-7.002l1.113-2.945.421.992c.211.54.843 2.734 1.385 4.898zm17.274 1.862c.662 1.473 1.023 6.642.782 11.6-.15 3.457-.3 4.719-.602 4.719-1.173 0-11.044-7.063-11.736-8.445-.421-.811-.421-.931.18-1.743.753-1.022 1.355-1.472 5.99-4.598 3.82-2.614 4.784-2.885 5.386-1.532zm6.41.692c1.534.57 8.576 4.688 11.465 6.701l1.745 1.202-.843.872c-1.655 1.743-13.692 7.152-15.888 7.152h-.662l-.211-8.144c-.09-4.478-.12-8.264 0-8.414.24-.391 2.558-.06 4.393.63zm51.19 4.237c.602.21 1.113.54 1.113.751 0 1.323-5.718 10.519-7.102 11.45-.602.39-.692.36-1.264-.601-.993-1.533-3.07-6.762-3.58-8.895-.512-2.134-.362-2.735.842-3.096 1.113-.33 8.694-.03 9.99.391zM69.56 78.985c-1.324 3.516-6.109 12.682-7.824 14.996-.391.54-.481.54-1.174.09-1.925-1.262-5.476-7.603-5.777-10.338-.18-1.382-.12-1.533.632-2.134.481-.36 2.016-1.022 3.43-1.442 1.414-.451 3.1-1.052 3.732-1.383 1.083-.54 5.627-1.652 7.041-1.713l.692-.03-.752 1.954zm4.156.21c.993 1.353 1.384 2.104 2.407 4.899 1.144 3.095 1.625 5.259 1.475 6.731l-.12 1.172-3.19.932c-3.882 1.112-7.764 2.013-9.93 2.314l-1.626.21 2.016-4.027c3.28-6.521 7.313-13.192 8.005-13.192.117 0 .569.45.963.961zm15.555 7.333c-.392 1.893-1.325 2.915-3.25 3.546-1.836.631-4.273.932-4.273.57 0-.45 4.182-6.7 5.988-8.955l1.685-2.103.09 2.674c.06 1.473-.06 3.396-.24 4.268zm-66.26.15c4.754 3.516 4.844 3.787 1.052 3.456-3.1-.3-6.048-1.262-7.041-2.314-.873-.931-1.475-2.855-1.475-4.778V81.78l1.625.901c.9.481 3.518 2.284 5.838 3.997zm25.484-.24c-.39 1.893-.993 3.395-2.377 5.95-1.806 3.366-1.866 3.426-2.949 3.516-2.438.21-7.222-1.593-9.57-3.576l-1.022-.872.692-.54c1.444-1.052 4.784-2.855 7.914-4.298 3.28-1.503 7.493-3.035 7.734-2.825.06.09-.12 1.262-.422 2.645zm4.966.09c2.527 2.795 5.476 8.354 5.025 9.556-.24.601-3.28 1.112-7.944 1.293l-4.304.18v-1.413c0-2.945 4.033-11.3 5.447-11.3.12 0 .903.752 1.776 1.684zm-17.123 8.685c1.505.781 4.785 2.945 4.785 3.185 0 .33-2.107 1.082-3.672 1.293-.782.12-1.925.06-2.587-.09-.963-.271-1.294-.602-1.926-1.744-.422-.811-.873-1.953-.963-2.584-.12-.631-.301-1.352-.392-1.593-.12-.33.301-.27 1.776.3 1.086.391 2.44.962 2.979 1.233zm21.636 3.155c-.601 1.142-3.46 3.667-4.905 4.358l-1.474.691-1.384-.601c-.783-.331-1.986-1.172-2.709-1.833-1.233-1.202-1.264-1.262-.602-1.503 1.084-.39 3.732-.841 7.463-1.262 1.896-.21 3.581-.39 3.702-.42.12 0 .09.24-.09.57zm11.887 1.142l1.805.541-2.407.661c-2.377.631-11.706 2.525-14.234 2.885-1.233.181-1.294.181-.902-.39.902-1.293 4.092-3.336 5.838-3.757.993-.24 2.046-.51 2.377-.6 1.173-.301 5.747.09 7.523.66zm-24.014 1.683c1.475.721 2.799 1.533 2.89 1.803.12.271.09.481-.031.481-.12 0-2.95-.571-6.32-1.262-6.229-1.292-6.62-1.503-3.881-2.014 3.012-.6 4.453-.42 7.342.992z" stroke="#fff" stroke-miterlimit="10"/></svg>