<svg width="958" height="777" fill="none" xmlns="http://www.w3.org/2000/svg"><path d="M358.397 7.18c-15.102 11.248-118.298 44.077-157.965 50.09-26.821 3.978-33.53 7.093-35.522 16.276-.664 3.06-4.082 7.834-7.946 10.37-8.311 5.833-7.793 8.29.954 7.218 5.036-.618 7.991.853 11.465 4.78l4.91 5.815 2.084-8.047c3.155-10.7 10.303-15.015 29.051-17.545 19.083-2.341 82.392 3.413 76.957 7.06-11.452 8.05-95.758 38.791-111.131 40.677-2.65.326-4.688-1.716-6.041-5.905-2.636-8.156-7.661-10.06-9.448-3.653-.807 2.62-3.346 4.994-5.996 5.319-2.386.293-9.779 5.554-16.092 11.6-10.158 9.497-26.961 18.892-35.708 19.965-1.59.195-.661-2.898 2.246-6.692 7.804-10.813 5.133-11.402-8.347-1.956-7.006 4.756-16.59 10.057-21.607 11.589-8.778 2.681-9.553 3.693-9.804 16.558-.3 7.6-.722 15.673-.805 17.975-.134 2.996 1.14 3.527 5.84 2.721 5.617-1.376 6.096-.748 8.649 9.711 1.82 7.339.877 18.914-2.25 33.965-2.515 12.685-4.467 23.696-4.111 24.798 1.068 3.306-21.348 23.474-33.104 29.73l-10.574 5.651 2.104-7.133c.91-4.008 4.298-13.133 7.197-20.364 6.502-15.694 5.12-24.233-1.778-11.47-2.887 4.709-7.122 14.625-10.021 21.856-2.828 7.452-8.673 16.648-12.906 20.605L.886 306.12l7.742 29.073c8.668 31.938 11.953 66.829 7.936 86.802-3.23 16.439.047 26.579 11.47 35.491 13.653 10.701 47.984 70.889 70.168 122.483 6.862 16.117 7.27 16.525 17.421 18.947 5.678 1.366 10.722 4.185 11.292 5.948.641 1.984 6.928 6.942 14.203 11.55 23.703 14.51 69.167 52.018 82.41 68.269 12.693 15.402 12.764 15.623 27.156 17.524 8.063 1.073 25.094 5.171 38.272 9.284 13.372 3.86 24.726 6.592 25.236 5.613 1.357-1.771-7.173-5.996-29.34-14.047-8.367-2.87-14.736-5.526-14.349-6.032.194-.253 16.738-.22 36.411.116 43.2.659 57.826 4.136 75.678 18.446 11.972 9.761 24.063 25.008 22.125 27.538-.581.759-9-1.417-18.835-4.565-43.427-14.152-58.788-14.789-22.68-1.113 10.987 4.152 29.423 11.745 41.102 17.187 20.596 9.162 21.799 9.472 38.232 7.456 26.841-3.064 107.774 3.508 136.444 11.22l11.425 2.953 10.075-7.195c17.203-12.424 127.943-46.637 166.905-51.417 17.759-2.179 17.759-2.179 23.585-12.29 3.132-5.655 12.985-16.948 21.715-24.895 8.658-8.166 14.227-14.808 12.158-15.242-1.998-.213-8.35 4.004-14.082 9.291-15.96 14.563-38.105 22.78-66.434 24.651-25.342 1.734-64.891-2.122-59.455-5.768 4.446-3.296 103.005-38.535 104.686-37.596.938.343 1.354 4.188 1.382 8.539-.188 9.649 1.901 10.997 7.735 4.323 2.397-2.815 8.995-7.979 14.766-11.438 5.771-3.458 11.962-9.03 13.951-12.254 1.99-3.223 10.759-9.341 19.834-13.663 13.275-6.671 16.119-7.249 17.046-4.383.569 1.764-.206 2.775-2.01 2.309-1.539-.499-2.437.987-1.653 3.412 1.496 4.629 6.877 7.636 7.398 4.134-.091-1.135 6.385-5.825 14.185-10.679 16.713-10.53 17.294-11.289 20.567-31.858 1.462-9.118 5.579-24.519 9.478-34.623 3.97-9.884 6.758-19.164 6.188-20.927-1.71-5.291-6.515 2.862-13.345 21.805-3.563 10.292-9.012 22.419-12.164 27.161l-5.724 8.723-5.442-21.104c-2.909-11.561-5.226-26.403-4.906-33.088.919-21.885 17.005-42.881 43.026-56.157l12.357-6.1-2.637 13.158c-1.573 7.068-1.964 13.533-1.026 13.877.744.596 5.253-5.916 9.987-14.289 4.469-8.34 10.793-16.908 14.27-18.939 5.701-3.679 5.752-4.373-1.059-21.184-9.64-24.715-13.062-50.651-11.227-88.461.927-18.449 1.099-34.971.529-36.734-.57-1.764-4.238-5.439-8.151-8.167-3.913-2.729-8.222-8.388-9.789-13.238-3.277-10.14-6.264-10.003-9.49.477l-2.614 8.113-15.153-9.371c-17.578-10.907-22.95-10.477-6.697.593 32.842 22.326 38.64 44.533 17.854 66.334l-8.516 8.608-17.799-36.319c-10-19.858-19.592-39.307-21.669-43.177-3.534-6.671-3.605-6.892 6.202-8.095 6.626-.813 8.992-2.02 7.29-3.874-19.142-21.715-29.289-51.41-25.455-73.652 1.38-6.816 2.993-12.056 3.737-11.459 3.026 1.691 17.275 24.465 33.111 53.003 9.196 16.519 19.381 32.687 22.713 36.174l5.725 6.632-2.086-7.307c-1.017-4.001-8.492-17.751-16.548-30.743-16.184-26.204-29.666-53.426-35.151-70.4-3.277-10.14-4.714-12.027-12.143-14.553-4.882-1.464-12.811-5.533-17.661-8.605-9.029-5.767-9.029-5.767-9.317-.69-.205 2.775-1.083 5.175-2.143 5.305-3.517.202-25.569-11.76-34.159-18.727-4.799-3.766-13.705-10.007-19.829-13.61-10.231-6.079-24.8-22.167-27.293-29.883-.641-1.984-.385-5.453.758-7.885 2.389-6.252-9.814-23.547-18.518-26.605-11.109-3.679-58.483-12.992-59.381-11.507-.581.759 6.144 4.517 15.327 8.203 12.739 5.313 15.235 7.07 11.402 7.998-8.655 2.208-41.681-1.074-61.188-6.015-32.809-8.58-43.305-14.625-60.429-35.213-4.167-5.218-4.238-5.439 5.466-5.255 5.25.044 9.491-.476 9.348-.917-1.14-3.527-9.231-8.952-12.411-8.561-2.121.26-8.174-3.123-13.452-7.517-8.732-7.409-10.536-7.875-21.403-6.542-34.721 4.26-106.665 1.628-138.231-4.812-13.016-2.758-24.758-4.984-25.553-4.886-1.034.126-5.19 2.699-9.371 5.962zm-10.189 22.105c-2.428 4.423-11.189 13.977-19.797 21.45l-15.786 13.396-34.722 4.26c-27.034 3.317-39.247 3.899-53.038 2.153-9.795-1.32-17.276-3.151-16.429-3.943 2.978-3.574 26.112-12.142 49.886-18.725 13.142-3.675 27.466-7.954 31.35-9.576 7.046-2.927 47.795-14.115 57.918-16.044 4.408-.77 4.357-.076.618 7.029zm88.001-12.401c20.275.491 47.817 2.154 61.2 3.492l23.903 2.338-14.692 5.699c-19.106 7.386-27.924 8.239-42.02 4.697-6.35-1.742-20.477-3.676-31.455-4.392-18.827-1.127-36.938-6.01-38.363-10.419-.855-2.645-.59-2.678 41.427-1.415zm-36.936 9.344c13.178 4.113 33.182 16.555 31.05 19.338-1.428 1.55-80.498 19.502-95.005 21.51l-7.421.911 7.55-13.302c4.224-7.394 9.579-14.697 12.067-16.377 2.489-1.68 7.904-6.241 11.942-9.945 8.73-7.947 19.281-8.553 39.817-2.135zm147.853 7.299c11.169 6.422 17.211 12.327 27.285 26.446l8.016 11.163-9.479-2.046c-5.269-.957-18.02-3.747-28.63-5.883-30.7-6.318-65.862-16.213-64.984-18.612 1.439-4.073 23.797-11.629 41.026-13.743 15.566-2.139 18.43-1.803 26.766 2.675zM445.259 60.234c5.218 1.652 18.938 3.177 30.303 3.387 32.293.163 40.427 1.457 71.309 10.044 20.323 5.757 27.895 8.724 25.672 10.372-4.763 4.022-26.183 11.921-44.289 16.434-21.94 5.442-35.711 4.611-48.102-3.036l-9.966-6.111-4.529 5.597c-4.406 5.125-6.649 5.858-21.848 6.577-14.139.589-24.943-1.294-63.428-11.24l-46.64-12.154 9.696-3.252c16.302-4.98 62.709-15.715 78.01-17.822 9.736-1.423 17.346-.982 23.812 1.204zm-145.085 40.49c3.134 9.699-3.44 46.487-12.646 69.159-3.46 8.905-4.378 9.476-13.746 9.479-17.747-.344-41.84-8.388-66.266-22.58-38.551-22.084-37.961-19.407-6.283-32.231 40.048-15.914 62.549-23.029 81.297-25.559 14.241-1.976 16.504-1.796 17.644 1.732zm46.699-6.418c27.175 3.084 99.66 24.442 101.37 29.733 1.923 5.952-72.568 38.926-133.587 59.017l-7.259 2.266-2.185-11.879c-2.827-13.862 5.415-62.543 12.301-72.784 5.213-7.744 9.311-8.706 29.36-6.353zM131.88 155.52c-2.77 16.154-34.87 73.72-41.76 74.566-1.326.162-4.42-7.709-7.207-19.742-5.178-21.137-4.048-36.402 3.672-44.912 5.447-6.169 26.828-15.896 38.154-17.515l8.481-1.041-1.34 8.644zm539.56-69.865c19.55.81 38.16 7.236 49.409 17.315 9.353 8.478 25.018 32.224 22.815 34.786-2.132 2.783-15.666-2.432-66.856-25.258-45.157-20.357-49.794-22.767-44.39-24.805 6.127-2.356 15.883-2.866 39.022-2.038zm-74.166 14.371c9.091 2.551 17.171 10.498 32.745 33.109 12.203 17.296 39.264 60.958 38.488 61.97-1.356 1.771-42.948-13.524-73.47-26.967-18.986-8.442-43.598-18.945-54.533-23.791-17.305-7.502-34.994-20.458-32.546-23.967.653-.538 10.787-4.99 23.114-9.482 25.067-9.492 53.574-14.136 66.202-10.872zm-395.826 61.856c15.603 5.648 30.502 12.529 32.876 14.759 2.446 2.45 7.846 6.371 12.024 9.067 4.443 2.664 9.385 6.87 10.963 9.197 2.873 3.773 1.71 5.291-6.11 9.23-13.205 6.891-52.68 18.61-91.879 27.773-18.248 4.073-37.221 8.463-41.778 9.71-7.667 1.857-8.339 1.481-8.174-3.123.252-12.865 23.803-60.215 37.675-76.126 11.403-13.317 19.64-13.411 54.403-.487zm448.639-51.147c31.777 13.06 76.708 35.279 84.483 41.429 7.509 6.184 6.038 11.864-6.75 22.601-9.066 7.758-39.878 20.706-43.842 18.671-1.009-.564-14.862-20.407-30.792-44.121-15.93-23.714-30.068-44.439-31.096-45.917-3.786-4.807 2.59-3.068 27.997 7.337zm-179.482 36.459c10.898 18.372 28.938 81.017 35.42 122.391 3.911 24.042 3.868 28.173-.107 28.661-9.277 1.138-57.848-20.405-111.033-49.403-57.149-31.032-77.275-43.001-78.486-46.749-1.994-6.172 69.51-39.009 110.382-50.67 32.314-9.235 40.575-10.02 43.824-4.23zm51.431 2.169c15.971 4.229 37.485 12.819 104.227 41.987 28.24 12.349 37.289 19.031 34.971 25.503-4.532 11.556-74.159 60.435-106.857 75.218l-13.948 6.295-3.779-5.724c-6.794-9.938-35.868-103.315-38.711-124.051-1.228-10.62-2.028-19.919-1.783-20.865 1.362-3.376 8.415-2.866 25.88 1.637zm-253.81 70.788c-.485 11.29-6.733 29.474-21.429 62.446a33303.833 33303.833 0 00-21.605 48.257c-10.951 24.949-19.535 27.378-40.536 11.849-23.497-17.285-71.491-70.296-75.694-83.302-.713-2.205 13.062-7.332 52.466-19.271 60.987-18.484 62.047-18.614 87.808-22.462 19.013-2.562 19.278-2.594 18.99 2.483zm50.994 7.724c7.746 1.8 30.839 12.717 55.245 25.995 23.061 12.525 52.227 27.74 65.251 33.934 13.024 6.194 30.175 15.778 38.072 21.456 13.084 8.937 14.041 10.194 9.963 12.07-14.071 6.768-122.937 26.313-199.006 35.646l-60.166 7.381.513-6.938c.81-8.579 10.72-32.484 36.652-89.523l19.707-43.899 10.305.34c5.515.011 15.983 1.706 23.464 3.538zm500.017-48.971c17.61 9.298 22.679 22.427 20.401 52.042-1.149 14.35-2.692 19.81-5.607 20.168-4.506.553-39.361-50.174-53.995-78.401l-2.912-5.602 16.552 3.47c9.214 2.078 20.588 5.724 25.561 8.323zm-46.862 5.062c11.431 12.348 32.984 44.081 41.954 62.461l5.703 11.676-40.196-15.237c-52.048-19.511-58.702-23.049-61.979-33.189-1.496-4.63-1.105-11.095.935-15.012 4.45-9.255 20.051-18.961 33.038-20.554 9.542-1.171 10.479-.828 20.545 9.855zM74.847 273.211c.998 3.086-7.674 35.089-16.259 58.832-6.635 18.69-7.146 19.669-12.669 16.221-7.877-4.763-18.845-23.356-19.788-33.095-.923-8.825 10.041-20.941 32.77-35.876 12.706-8.435 14.877-9.389 15.946-6.082zm28.281 3.864c20.989 18.051 70.411 69.512 74.301 77.285 4.103 8.435 4.175 8.655-5.134 11.401-23.703 6.805-78.166 4.549-98.09-4.237l-9.06-4.159 7.264-29.539c8.07-32.159 16.777-56.374 20.753-56.862 1.299-.159 5.813 2.724 9.966 6.111zm593.643-37.998c.337.188 4.381 5.879 8.852 12.894 13.873 20.757 30.928 56.48 41.127 85.48 9.435 27.49 9.434 27.49 3.196 27.797-16.402.408-137.926-24.33-169.714-34.869-13.514-4.3-16.683-6.432-16.763-10.089-.179-8.229 13.977-23.258 32.403-34.457 10.166-6.06 27.195-17.317 38.259-24.862 22.709-15.849 38.441-22.592 52.264-22.455 5.249.044 10.04.373 10.376.561zm40.866.257c24.054 6.216 55.545 18.395 68.945 26.606 20.676 12.818 20.764 19.912 1.009 58.546-12.877 24.957-18.782 31.411-28.68 31.479-5.515-.011-7.553-2.053-16.515-16.996-10.134-16.862-36.029-68-47.188-92.3-5.386-12.402-5.458-12.622.872-11.795 3.659.239 13.501 2.469 21.557 4.46zM32.601 359.066c.678 9.771 2.242 20.58 3.382 24.107 1.068 3.307 1.738 9.642 1.236 14.058-.545 8.546-6.097 22.061-8.186 20.713-2.354-1.315-8.477-47.546-9.504-70.338l-.846-20.522 6.133 7.039c5.583 6.191 6.651 9.497 7.785 24.943zm108.997 15.733c19.958 1.218 36.665 2.606 37.602 2.949 4.036 2.255-.237 25.698-7.483 40.796-12.572 26.752-45.465 63.102-53.006 58.527-1.61-.719-9.718-13.017-18.395-27.078-15.705-25.575-27.973-55.009-27.773-67.18.003-5.959.727-6.277 16.63-8.228 8.985-1.103 32.732-1.037 52.425.214zm-72.266 35.68c16.06 26.677 36.405 70.017 32.318 68.456-1.804-.466-9.713-3.621-17.356-6.808-7.715-3.408-14.472-5.559-14.788-4.832-.582.759 5.124 6.476 12.704 12.879 30.129 25.868 39.801 48.975 32.66 78.04l-4.096 16.316-6.01-7.513c-15.107-19.46-65.713-106.987-63.387-110.022.388-.506 4.597.582 9.428 2.739 11.872 5.19 12.026 3.108 1.205-5.648-14.06-11.109-17.064-17.845-13.795-32.455 3.689-16.725 12.607-34.32 16.643-32.065 1.681.94 8.261 10.216 14.474 20.913zm787.273-92.923c7.495 14.665 15.018 33.68 18.976 47.633l6.685 23.244-7.738 1.637c-10.511 2.435-38.776 1.091-52.342-2.516-9.622-2.487-11.782-4.055-13.776-10.227-2.636-8.157 3.076-35.672 11.006-52.916 6.909-15.286 19.15-32.831 22.228-31.834 1.274.532 7.894 11.637 14.961 24.979zm-365.486 26.048c-2.305 3.95-12.688 15.308-23.04 25.058-10.616 9.782-34.278 33.77-52.861 53.009-49.435 51.672-84.465 81.409-98.248 83.1-11.662 1.431-68.327-77.56-78.656-109.524-3.206-9.92-2.961-10.866 3.574-12.814 12.54-3.83 75.696-17.308 115.2-24.676 59.821-11.006 62.471-11.332 101.556-16.585l36.434-4.929-3.959 7.361zm27.421 27.805c4.954 38.353 8.751 145.602 6.774 182.972-.896 16.84-1.722 18.545-8.716 20.778-9.573 2.779-29.195 1.749-45.503-2.667-17.438-4.507-79.74-25.052-101.785-33.578-17.356-6.808-18.701-7.56-19.584-14.556-1.228-10.621 4.21-20.226 20.61-35.989 7.741-7.596 35.706-35.32 61.836-61.903 44.008-44.589 79.968-77.419 82.658-75.916.699.373 2.366 9.794 3.71 20.859zm72.589-22.657c24.473 4.102 89.888 18.078 116.204 24.475 23.044 5.652 53.923 20.198 55.847 26.15 1.567 4.849-12.192 38.164-25.077 59.684-10.825 18.517-29.665 41.225-34.436 41.811-3.445.422-8.458-4.005-34.54-30.14-32.123-32.04-108.621-118.681-110.687-125.074-.569-1.764 12.814-.426 32.689 3.094zm-38.865 15.311c6.041 5.905 25.092 26.485 42.391 45.906 17.227 19.2 38.814 43.366 48.207 53.672 20.009 21.839 30.123 37.786 33.713 53.159l2.696 10.9-24.747 13.807c-13.857 7.43-29.906 14.899-35.982 16.561-6.076 1.663-20.187 6.602-31.382 11.184-10.929 4.55-23.469 8.38-27.588 8.427-6.309.087-7.726-.885-10.872-8.062-4.693-11.113-8.98-58.486-10.599-120.624-1.26-45.682.121-95.125 2.507-95.418.556-.068 5.95 4.771 11.656 10.488zm-329.538 42.722c17.27 15.07 57.138 70.224 68.44 94.964l5.722 12.59-12.161-.112c-6.646-.101-24.005-.951-38.448-2.158-14.444-1.207-28.48-2.006-31.131-1.681-2.65.325-10.855-1.189-18.142-3.274-7.288-2.086-19.967-4.655-28.029-5.729-8.063-1.073-17.277-3.151-20.691-4.337-5.697-2.28-5.911-2.941-3.95-10.516 2.483-11.076 44.175-70.507 55.291-78.746 11.574-8.525 14.03-8.597 23.099-1.001zm707.299-3.585c6.094 41.88 6.043 42.574-.209 30.048-7.994-16.208-14.371-43.615-12.865-56.863.718-9.713 3.668-17.638 5.951-16.543.408.408 3.69 19.944 7.123 43.358zm-76.459-5.516c10.326 1.254 21.395 3.104 24.615 4.543 6.034 2.468 6.105 2.688 4.762 17.292-3.923 36.462-24.748 93.104-29.624 79.722-.854-2.645-10.601-20.013-21.834-38.574-11.234-18.56-23.323-39.766-26.805-47.131-5.793-12.811-5.671-13.284-.196-15.102 9.043-2.713 28.529-3.041 49.082-.75zm-42.053 48.933c20.216 34.418 31.15 60.578 27.468 65.384-3.295 4.3-61.4 8.679-85.497 6.593-17.043-1.576-20.121-2.573-20.536-6.418-1.767-13.993 13.308-50.907 36.814-88.168 12.324-19.846 12.518-20.099 17.673-15.231 2.853 2.858 13.614 19.872 24.078 37.84zm-653.968 63.734c8.929 1.196 23.444 2.624 32.424 3.126 9.245.47 18.103 1.446 20.049 2.353 1.947.907 16.889 3.658 33.687 6.18 16.532 2.556 33.808 5.707 38.69 7.171l8.297 2.649-8.967 12.33c-18.147 23.998-60.875 57.201-76.248 59.087-6.626.813-18.342-12.417-37.999-42.549-14.779-22.709-30.105-52.227-27.19-52.585.796-.097 8.593 1.009 17.257 2.238zm757.209-85.339c18.857 20.834 20.889 34.794 7.476 50.419-7.262 8.225-38.445 28.552-45.071 29.365-3.711.455-1.738-9.642 7.329-38.714 9.7-30.525 17.202-49.093 20.118-49.45 1.06-.13 5.859 3.635 10.148 8.38zM154.462 557.94c21.715 33.088 29.546 47.941 25.835 48.396-1.325.163-7.92-.633-14.586-1.648-13.933-2.187-14.475.401-1.257 6.342 5.167 2.345 13.064 8.023 17.883 12.703 4.483 4.492 12.044 9.981 16.874 12.139 8.316 3.563 20.867 18.524 24.144 28.664 1.496 4.63 1.037 4.915-4.711 3.329-3.343-.965-9.131-4.381-12.728-7.835-3.861-3.423-20.439-17.202-37.547-30.917-16.771-13.526-30.322-25.615-29.883-26.814.51-.98-2.454-5.887-6.213-10.697-11.276-14.43-13.94-26.937-10.502-52.111l2.825-22.806 6.062 6.819c3.137 3.741 13.904 19.15 23.804 34.436zm156.555-4.998c9.321 10.086 24.755 47.611 34.389 84.244 6.867 25.513 8.534 34.935 5.884 35.26-10.337 1.268-114.014-39.869-123.388-49.262-5.634-5.496-5.919-6.378-2.541-12.98 4.204-8.308 8.436-12.265 41.845-40.199 27.463-23.308 35.304-26.333 43.811-17.063zm58.093-1.857c14.871 2.53 86.652 25.121 116.87 36.769l18.222 6.932-5.355 7.303c-10.446 14.574-103.642 67.261-122.991 69.634l-5.831.716-21.161-59.512c-11.41-32.748-20.651-60.491-19.947-61.723 1.195-3.126 22.387-3.205 40.193-.119zm460.919-24.235c5.8.893 11.089 2.765 11.588 4.308 3.134 9.699-25.426 83.333-35.41 91.662-4.375 3.516-5.241 3.393-12.556-3.043-12.38-10.169-43.064-46.282-52.628-61.381-9.564-15.098-9.663-19.669.084-23.615 9.023-3.629 76.501-9.616 88.922-7.931zm-144.077 30.052c-3.327 27.223-23.742 99.628-33.364 118.455-2.163 4.391-2.959 4.488-10.123 1.93-19.955-7.178-66.262-49.853-75.396-69.588-4.867-9.945-4.693-11.113.508-16.334 3.386-3.166 15.336-9.674 26.796-14.289 11.389-4.835 24.807-11.065 29.589-14.172 8.26-5.139 45.646-18.205 57.961-20.175l6.025-.968-1.996 15.141zm37.102-2.947c11.953 8.846 17.179 13.935 32.816 33.33 17.409 21.47 26.779 36.821 28.945 47.785l1.718 8.727-25.887 10.281c-31.555 12.351-63.609 23.159-81.98 27.705l-13.814 3.299 8.212-31.717c13.431-51.381 33.133-104.676 39.229-105.424 1.034-.127 6.078 2.692 10.761 6.014zm154.386 36.978c1.042 14.311-4.752 22.814-20.219 29.524-14.672 6.613-35.428 11.452-36.283 8.806-1.069-3.306 20.955-53.678 31.515-72.162l9.856-17.252 7.136 19.522c4.02 10.736 7.519 24.974 7.995 31.562zm-583.254 72.705c50.213 20.654 51.649 22.54 17.469 24.213-28.012 1.145-56.267-2.722-67.507-9.365-9.894-5.89-19.755-19.348-24.314-33.456l-2.992-9.259 16.45 4.857c9.065 2.555 36.398 12.952 60.894 23.01zm223.9-29.303c1.042 14.31-.697 25.983-6.834 46.216-7.924 26.64-8.312 27.146-17.64 28.978-20.97 4.177-67.387-3.879-92.763-15.891l-11.077-5.287 4.814-4.716c10.229-9.276 35.375-26.113 59.52-40.076 25.329-14.566 58.802-30.361 61.421-29.078.744.596 1.932 9.388 2.559 19.854zm43.946-4.705c28.89 17.77 68.044 55.364 66.917 64.67-.695 4.669-26.254 11.701-66.909 18.064l-37.475 5.973-3.348-10.361c-6.981-21.603 8.731-87.243 21.188-88.772 1.06-.13 9.733 4.536 19.627 10.426zm-130.224 82.211c15.104 4.105 49.124 16.433 49.694 18.196.783 2.425-15.989 10.212-29.273 13.446-6.606 1.728-16.82 2.522-23.008 2.136-9.122-.944-12.822-3.011-21.095-10.705-5.634-5.496-12.317-13.385-14.608-17.917-2.556-4.499-5.856-9.595-7.221-11.261-1.844-2.294 2.009-2.309 16.35.286 10.495 1.692 23.775 4.417 29.161 5.819zm198.05-.235c-2.594 9.027-21.79 30.634-32.874 37.265l-11.348 6.663-13.617-2.913c-7.675-1.579-20.272-6.451-28.2-10.52-13.717-7.484-14.124-7.893-8.863-10.372 8.615-4.036 30.871-10.204 62.74-17.323 16.199-3.592 30.614-6.735 31.603-7.086 1.061-.13 1.365 1.666.559 4.286zm107.401-4.468l17.185 2.017-19.636 7.451c-19.443 7.198-97.12 31.167-118.529 36.544-10.44 2.656-10.97 2.721-8.878-1.891 4.888-10.454 28.139-28.891 42.515-33.863 8.176-2.837 16.812-5.959 19.514-6.978 9.624-3.473 50.838-5.55 67.829-3.28zM529.74 745.433c14.697 3.697 28.282 8.218 29.719 10.104 1.701 1.854 1.935 3.43.874 3.56-1.06.13-27.328-1.002-58.652-2.43-57.928-2.747-61.872-3.868-38.964-10.574 25.107-7.664 38.23-7.899 67.023-.66z" stroke="#fff" stroke-miterlimit="10"/></svg>