<svg width="958" height="777" viewBox="0 0 958 777" fill="none" xmlns="http://www.w3.org/2000/svg">
<path d="M358.397 7.17906C343.295 18.4284 240.099 51.2573 200.432 57.2699C173.611 61.2481 166.902 64.363 164.91 73.5455C164.246 76.6064 160.828 81.3801 156.964 83.9168C148.653 89.7493 149.171 92.2066 157.918 91.1335C162.954 90.5157 165.909 91.9865 169.383 95.9147L174.293 101.729L176.377 93.6816C179.532 82.9813 186.68 78.6666 205.428 76.1374C224.511 73.796 287.82 79.5503 282.385 83.1965C270.933 91.2477 186.627 121.988 171.254 123.874C168.604 124.2 166.566 122.158 165.213 117.969C162.577 109.813 157.552 107.909 155.765 114.316C154.958 116.936 152.419 119.31 149.769 119.635C147.383 119.928 139.99 125.189 133.677 131.235C123.519 140.732 106.716 150.127 97.9689 151.2C96.3786 151.395 97.3079 148.302 100.215 144.508C108.019 133.695 105.348 133.106 91.8675 142.552C84.8621 147.308 75.2774 152.609 70.2614 154.141C61.4834 156.822 60.7081 157.834 60.4567 170.699C60.1571 178.299 59.735 186.372 59.6522 188.674C59.5181 191.67 60.792 192.201 65.4917 191.395C71.109 190.019 71.5878 190.647 74.1409 201.106C75.9616 208.445 75.0178 220.02 71.8906 235.071C69.3764 247.756 67.4236 258.767 67.7798 259.869C68.8484 263.175 46.4325 283.343 34.6761 289.599L24.1024 295.25L26.206 288.117C27.1154 284.109 30.5044 274.984 33.4032 267.753C39.9047 252.059 38.5228 243.52 31.6253 256.283C28.7381 260.992 24.5026 270.908 21.6038 278.139C18.7763 285.591 12.9306 294.787 8.69819 298.744L0.886087 306.12L8.62809 335.193C17.2962 367.131 20.5806 402.022 16.564 421.995C13.3343 438.434 16.6112 448.574 28.0335 457.486C41.6872 468.187 76.0179 528.375 98.2025 579.969C105.064 596.086 105.472 596.494 115.623 598.916C121.301 600.282 126.345 603.101 126.915 604.864C127.556 606.848 133.843 611.806 141.118 616.414C164.821 630.924 210.285 668.432 223.528 684.683C236.221 700.085 236.292 700.306 250.684 702.207C258.747 703.28 275.778 707.378 288.956 711.491C302.328 715.351 313.682 718.083 314.192 717.104C315.549 715.333 307.019 711.108 284.852 703.057C276.485 700.187 270.116 697.531 270.503 697.025C270.697 696.772 287.241 696.805 306.914 697.141C350.114 697.8 364.74 701.277 382.592 715.587C394.564 725.348 406.655 740.595 404.717 743.125C404.136 743.884 395.717 741.708 385.882 738.56C342.455 724.408 327.094 723.771 363.202 737.447C374.189 741.599 392.625 749.192 404.304 754.634C424.9 763.796 426.103 764.106 442.536 762.09C469.377 759.026 550.31 765.598 578.98 773.31L590.405 776.263L600.48 769.068C617.683 756.644 728.423 722.431 767.385 717.651C785.144 715.472 785.144 715.472 790.97 705.361C794.102 699.706 803.955 688.413 812.685 680.466C821.343 672.3 826.912 665.658 824.843 665.224C822.845 665.011 816.493 669.228 810.761 674.515C794.801 689.078 772.656 697.295 744.327 699.166C718.985 700.9 679.436 697.044 684.872 693.398C689.318 690.102 787.877 654.863 789.558 655.802C790.496 656.145 790.912 659.99 790.94 664.341C790.752 673.99 792.841 675.338 798.675 668.664C801.072 665.849 807.67 660.685 813.441 657.226C819.212 653.768 825.403 648.196 827.392 644.972C829.382 641.749 838.151 635.631 847.226 631.309C860.501 624.638 863.345 624.06 864.272 626.926C864.841 628.69 864.066 629.701 862.262 629.235C860.723 628.736 859.825 630.222 860.609 632.647C862.105 637.276 867.486 640.283 868.007 636.781C867.916 635.646 874.392 630.956 882.192 626.102C898.905 615.572 899.486 614.813 902.759 594.244C904.221 585.126 908.338 569.725 912.237 559.621C916.207 549.737 918.995 540.457 918.425 538.694C916.715 533.403 911.91 541.556 905.08 560.499C901.517 570.791 896.068 582.918 892.916 587.66L887.192 596.383L881.75 575.279C878.841 563.718 876.524 548.876 876.844 542.191C877.763 520.306 893.849 499.31 919.87 486.034L932.227 479.934L929.59 493.092C928.017 500.16 927.626 506.625 928.564 506.969C929.308 507.565 933.817 501.053 938.551 492.68C943.02 484.34 949.344 475.772 952.821 473.741C958.522 470.062 958.573 469.368 951.762 452.557C942.122 427.842 938.7 401.906 940.535 364.096C941.462 345.647 941.634 329.125 941.064 327.362C940.494 325.598 936.826 321.923 932.913 319.195C929 316.466 924.691 310.807 923.124 305.957C919.847 295.817 916.86 295.954 913.634 306.434L911.02 314.547L895.867 305.176C878.289 294.269 872.917 294.699 889.17 305.769C922.012 328.095 927.81 350.302 907.024 372.103L898.508 380.711L880.709 344.392C870.709 324.534 861.117 305.085 859.04 301.215C855.506 294.544 855.435 294.323 865.242 293.12C871.868 292.307 874.234 291.1 872.532 289.246C853.39 267.531 843.243 237.836 847.077 215.594C848.457 208.778 850.07 203.538 850.814 204.135C853.84 205.826 868.089 228.6 883.925 257.138C893.121 273.657 903.306 289.825 906.638 293.312L912.363 299.944L910.277 292.637C909.26 288.636 901.785 274.886 893.729 261.894C877.545 235.69 864.063 208.468 858.578 191.494C855.301 181.354 853.864 179.467 846.435 176.941C841.553 175.477 833.624 171.408 828.774 168.336C819.745 162.569 819.745 162.569 819.457 167.646C819.252 170.421 818.374 172.821 817.314 172.951C813.797 173.153 791.745 161.191 783.155 154.224C778.356 150.458 769.45 144.217 763.326 140.614C753.095 134.535 738.526 118.447 736.033 110.731C735.392 108.747 735.648 105.278 736.791 102.846C739.18 96.5943 726.977 79.2987 718.273 76.2413C707.164 72.5623 659.79 63.2487 658.892 64.7339C658.311 65.4928 665.036 69.2512 674.219 72.9374C686.958 78.2499 689.454 80.0062 685.621 80.9349C676.966 83.1427 643.94 79.8608 624.433 74.9204C591.624 66.3407 581.128 60.2947 564.004 39.7068C559.837 34.4885 559.766 34.2681 569.47 34.4525C574.72 34.496 578.961 33.9757 578.818 33.5348C577.678 30.0078 569.587 24.5834 566.407 24.9736C564.286 25.2338 558.233 21.8512 552.955 17.4567C544.223 10.0484 542.419 9.58216 531.552 10.9154C496.831 15.1754 424.887 12.5432 393.321 6.10284C380.305 3.34529 368.563 1.119 367.768 1.21655C366.734 1.34337 362.578 3.91592 358.397 7.17906ZM348.208 29.2846C345.78 33.7077 337.019 43.2623 328.411 50.7354L312.625 64.1313L277.903 68.3912C250.869 71.7081 238.656 72.2897 224.865 70.544C215.07 69.2248 207.589 67.3925 208.436 66.6011C211.414 63.0271 234.548 54.4594 258.322 47.8756C271.464 44.2007 285.788 39.9222 289.672 38.2997C296.718 35.3727 337.467 24.1853 347.59 22.2558C351.998 21.4858 351.947 22.1796 348.208 29.2846ZM436.209 16.8835C456.484 17.3754 484.026 19.0382 497.409 20.3756L521.312 22.7141L506.62 28.4127C487.514 35.7989 478.696 36.6516 464.6 33.1098C458.25 31.3679 444.123 29.4342 433.145 28.7185C414.318 27.5906 396.207 22.7081 394.782 18.2993C393.927 15.654 394.192 15.6215 436.209 16.8835ZM399.273 26.228C412.451 30.3407 432.455 42.7832 430.323 45.5658C428.895 47.116 349.825 65.0676 335.318 67.0766L327.897 67.9871L335.447 54.685C339.671 47.2914 345.026 39.9881 347.514 38.3077C350.003 36.6274 355.418 32.0669 359.456 28.3629C368.186 20.4164 378.737 19.8095 399.273 26.228ZM547.126 33.527C558.295 39.9489 564.337 45.8538 574.411 59.973L582.427 71.136L572.948 69.0904C567.679 68.1327 554.928 65.3426 544.318 63.2067C513.618 56.8893 478.456 46.9941 479.334 44.5946C480.773 40.5219 503.131 32.966 520.36 30.8523C535.926 28.7133 538.79 29.0494 547.126 33.527ZM445.259 60.2343C450.477 61.8859 464.197 63.4111 475.562 63.6209C507.855 63.7842 515.989 65.0781 546.871 73.665C567.194 79.4221 574.766 82.3891 572.543 84.0369C567.78 88.0589 546.36 95.9582 528.254 100.471C506.314 105.913 492.543 105.082 480.152 97.4349L470.186 91.3239L465.657 96.9215C461.251 102.046 459.008 102.779 443.809 103.498C429.67 104.087 418.866 102.204 380.381 92.2581L333.741 80.1041L343.437 76.852C359.739 71.8725 406.146 61.1369 421.447 59.0304C431.183 57.6068 438.793 58.0482 445.259 60.2343ZM300.174 100.724C303.308 110.423 296.734 147.211 287.528 169.883C284.068 178.788 283.15 179.359 273.782 179.362C256.035 179.018 231.942 170.974 207.516 156.782C168.965 134.698 169.555 137.375 201.233 124.551C241.281 108.637 263.782 101.522 282.53 98.9922C296.771 97.0158 299.034 97.1965 300.174 100.724ZM346.873 94.3065C374.048 97.3895 446.533 118.748 448.243 124.039C450.166 129.991 375.675 162.965 314.656 183.056L307.397 185.322L305.212 173.443C302.385 159.581 310.627 110.9 317.513 100.659C322.726 92.9147 326.824 91.9535 346.873 94.3065ZM131.88 155.519C129.11 171.673 97.0105 229.239 90.1193 230.085C88.794 230.247 85.6993 222.376 82.9126 210.343C77.7352 189.206 78.8645 173.941 86.5855 165.431C92.0321 159.262 113.413 149.535 124.739 147.916L133.22 146.875L131.88 155.519ZM671.44 85.6542C690.99 86.464 709.6 92.8897 720.849 102.969C730.202 111.447 745.867 135.193 743.664 137.755C741.532 140.538 727.998 135.323 676.808 112.497C631.651 92.1401 627.014 89.7297 632.418 87.6916C638.545 85.3355 648.301 84.8262 671.44 85.6542ZM597.274 100.025C606.365 102.576 614.445 110.523 630.019 133.134C642.222 150.43 669.283 194.092 668.507 195.104C667.151 196.875 625.559 181.58 595.037 168.137C576.051 159.695 551.439 149.192 540.504 144.346C523.199 136.844 505.51 123.888 507.958 120.379C508.611 119.841 518.745 115.389 531.072 110.897C556.139 101.405 584.646 96.7612 597.274 100.025ZM201.448 161.881C217.051 167.529 231.95 174.41 234.324 176.64C236.77 179.09 242.17 183.011 246.348 185.707C250.791 188.371 255.733 192.577 257.311 194.904C260.184 198.677 259.021 200.195 251.201 204.134C237.996 211.025 198.521 222.744 159.322 231.907C141.074 235.98 122.101 240.37 117.544 241.617C109.877 243.474 109.205 243.098 109.37 238.494C109.622 225.629 133.173 178.279 147.045 162.368C158.448 149.051 166.685 148.957 201.448 161.881ZM650.087 110.734C681.864 123.794 726.795 146.013 734.57 152.163C742.079 158.347 740.608 164.027 727.82 174.764C718.754 182.522 687.942 195.47 683.978 193.435C682.969 192.871 669.116 173.028 653.186 149.314C637.256 125.6 623.118 104.875 622.09 103.397C618.304 98.5904 624.68 100.329 650.087 110.734ZM470.605 147.193C481.503 165.565 499.543 228.21 506.025 269.584C509.936 293.626 509.893 297.757 505.918 298.245C496.641 299.383 448.07 277.84 394.885 248.842C337.736 217.81 317.61 205.841 316.399 202.093C314.405 195.921 385.909 163.084 426.781 151.423C459.095 142.188 467.356 141.403 470.605 147.193ZM522.036 149.362C538.007 153.591 559.521 162.181 626.263 191.349C654.503 203.698 663.552 210.38 661.234 216.852C656.702 228.408 587.075 277.287 554.377 292.07L540.429 298.365L536.65 292.641C529.856 282.703 500.782 189.326 497.939 168.59C496.711 157.97 495.911 148.671 496.156 147.725C497.518 144.349 504.571 144.859 522.036 149.362ZM268.226 220.15C267.741 231.44 261.493 249.624 246.797 282.596C238.306 301.513 228.549 323.337 225.192 330.853C214.241 355.802 205.657 358.231 184.656 342.702C161.159 325.417 113.165 272.406 108.962 259.4C108.249 257.195 122.024 252.068 161.428 240.129C222.415 221.645 223.475 221.515 249.236 217.667C268.249 215.105 268.514 215.073 268.226 220.15ZM319.22 227.874C326.966 229.674 350.059 240.591 374.465 253.869C397.526 266.394 426.692 281.609 439.716 287.803C452.74 293.997 469.891 303.581 477.788 309.259C490.872 318.196 491.829 319.453 487.751 321.329C473.68 328.097 364.814 347.642 288.745 356.975L228.579 364.356L229.092 357.418C229.902 348.839 239.812 324.934 265.744 267.895L285.451 223.996L295.756 224.336C301.271 224.347 311.739 226.042 319.22 227.874ZM819.237 178.903C836.847 188.201 841.916 201.33 839.638 230.945C838.489 245.295 836.946 250.755 834.031 251.113C829.525 251.666 794.67 200.939 780.036 172.712L777.124 167.11L793.676 170.58C802.89 172.658 814.264 176.304 819.237 178.903ZM772.375 183.965C783.806 196.313 805.359 228.046 814.329 246.426L820.032 258.102L779.836 242.865C727.788 223.354 721.134 219.816 717.857 209.676C716.361 205.046 716.752 198.581 718.792 194.664C723.242 185.409 738.843 175.703 751.83 174.11C761.372 172.939 762.309 173.282 772.375 183.965ZM74.8471 273.211C75.8445 276.297 67.1734 308.3 58.5882 332.043C51.9526 350.733 51.4424 351.712 45.9193 348.264C38.0422 343.501 27.0735 324.908 26.1307 315.169C25.2077 306.344 36.1721 294.228 58.9013 279.293C71.6068 270.858 73.7785 269.904 74.8471 273.211ZM103.128 277.075C124.117 295.126 173.539 346.587 177.429 354.36C181.532 362.795 181.604 363.015 172.295 365.761C148.592 372.566 94.1292 370.31 74.2055 361.524L65.1456 357.365L72.4087 327.826C80.4785 295.667 89.1863 271.452 93.162 270.964C94.4607 270.805 98.9749 273.688 103.128 277.075ZM696.771 239.077C697.108 239.265 701.152 244.956 705.623 251.971C719.496 272.728 736.551 308.451 746.75 337.451C756.185 364.941 756.184 364.941 749.946 365.248C733.544 365.656 612.02 340.918 580.232 330.379C566.718 326.079 563.549 323.947 563.469 320.29C563.29 312.061 577.446 297.032 595.872 285.833C606.038 279.773 623.067 268.516 634.131 260.971C656.84 245.122 672.572 238.379 686.395 238.516C691.644 238.56 696.435 238.889 696.771 239.077ZM737.637 239.334C761.691 245.55 793.182 257.729 806.582 265.94C827.258 278.758 827.346 285.852 807.591 324.486C794.714 349.443 788.809 355.897 778.911 355.965C773.396 355.954 771.358 353.912 762.396 338.969C752.262 322.107 726.367 270.969 715.208 246.669C709.822 234.267 709.75 234.047 716.08 234.874C719.739 235.113 729.581 237.343 737.637 239.334ZM32.6009 359.066C33.2787 368.837 34.8429 379.646 35.9827 383.173C37.0513 386.48 37.7207 392.815 37.2189 397.231C36.6742 405.777 31.1218 419.292 29.0328 417.944C26.6788 416.629 20.5564 370.398 19.5286 347.606L18.6832 327.084L24.816 334.123C30.3987 340.314 31.4673 343.62 32.6009 359.066ZM141.598 374.799C161.556 376.017 178.263 377.405 179.2 377.748C183.236 380.003 178.963 403.446 171.717 418.544C159.145 445.296 126.252 481.646 118.711 477.071C117.101 476.352 108.993 464.054 100.316 449.993C84.6106 424.418 72.3429 394.984 72.5429 382.813C72.5461 376.854 73.27 376.536 89.1729 374.585C98.158 373.482 121.905 373.548 141.598 374.799ZM69.3317 410.479C85.3929 437.156 105.737 480.496 101.65 478.935C99.846 478.469 91.9375 475.314 84.294 472.127C76.5793 468.719 69.8221 466.568 69.5057 467.295C68.9243 468.054 74.6297 473.771 82.2103 480.174C112.339 506.042 122.011 529.149 114.87 558.214L110.774 574.53L104.764 567.017C89.657 547.557 39.0513 460.03 41.3771 456.995C41.7647 456.489 45.974 457.577 50.8046 459.734C62.6774 464.924 62.8313 462.842 52.0104 454.086C37.9492 442.977 34.9457 436.241 38.2153 421.631C41.9039 404.906 50.8223 387.311 54.8577 389.566C56.5391 390.506 63.1193 399.782 69.3317 410.479ZM856.605 317.556C864.1 332.221 871.623 351.236 875.581 365.189L882.266 388.433L874.528 390.07C864.017 392.505 835.752 391.161 822.186 387.554C812.564 385.067 810.404 383.499 808.41 377.327C805.774 369.17 811.486 341.655 819.416 324.411C826.325 309.125 838.566 291.58 841.644 292.577C842.918 293.109 849.538 304.214 856.605 317.556ZM491.119 343.604C488.814 347.554 478.431 358.912 468.079 368.662C457.463 378.444 433.801 402.432 415.218 421.671C365.783 473.343 330.753 503.08 316.97 504.771C305.308 506.202 248.643 427.211 238.314 395.247C235.108 385.327 235.353 384.381 241.888 382.433C254.428 378.603 317.584 365.125 357.088 357.757C416.909 346.751 419.559 346.425 458.644 341.172L495.078 336.243L491.119 343.604ZM518.54 371.409C523.494 409.762 527.291 517.011 525.314 554.381C524.418 571.221 523.592 572.926 516.598 575.159C507.025 577.938 487.403 576.908 471.095 572.492C453.657 567.985 391.355 547.44 369.31 538.914C351.954 532.106 350.609 531.354 349.726 524.358C348.498 513.737 353.936 504.132 370.336 488.369C378.077 480.773 406.042 453.049 432.172 426.466C476.18 381.877 512.14 349.047 514.83 350.55C515.529 350.923 517.196 360.344 518.54 371.409ZM591.129 348.752C615.602 352.854 681.017 366.83 707.333 373.227C730.377 378.879 761.256 393.425 763.18 399.377C764.747 404.226 750.988 437.541 738.103 459.061C727.278 477.578 708.438 500.286 703.667 500.872C700.222 501.294 695.209 496.867 669.127 470.732C637.004 438.692 560.506 352.051 558.44 345.658C557.871 343.894 571.254 345.232 591.129 348.752ZM552.264 364.063C558.305 369.968 577.356 390.548 594.655 409.969C611.882 429.169 633.469 453.335 642.862 463.641C662.871 485.48 672.985 501.427 676.575 516.8L679.271 527.7L654.524 541.507C640.667 548.937 624.618 556.406 618.542 558.068C612.466 559.731 598.355 564.67 587.16 569.252C576.231 573.802 563.691 577.632 559.572 577.679C553.263 577.766 551.846 576.794 548.7 569.617C544.007 558.504 539.72 511.131 538.101 448.993C536.841 403.311 538.222 353.868 540.608 353.575C541.164 353.507 546.558 358.346 552.264 364.063ZM222.726 406.785C239.996 421.855 279.864 477.009 291.166 501.749L296.888 514.339L284.727 514.227C278.081 514.126 260.722 513.276 246.279 512.069C231.835 510.862 217.799 510.063 215.148 510.388C212.498 510.713 204.293 509.199 197.006 507.114C189.718 505.028 177.039 502.459 168.977 501.385C160.914 500.312 151.7 498.234 148.286 497.048C142.589 494.768 142.375 494.107 144.336 486.532C146.819 475.456 188.511 416.025 199.627 407.786C211.201 399.261 213.657 399.189 222.726 406.785ZM930.025 403.2C936.119 445.08 936.068 445.774 929.816 433.248C921.822 417.04 915.445 389.633 916.951 376.385C917.669 366.672 920.619 358.747 922.902 359.842C923.31 360.25 926.592 379.786 930.025 403.2ZM853.566 397.684C863.892 398.938 874.961 400.788 878.181 402.227C884.215 404.695 884.286 404.915 882.943 419.519C879.02 455.981 858.195 512.623 853.319 499.241C852.465 496.596 842.718 479.228 831.485 460.667C820.251 442.107 808.162 420.901 804.68 413.536C798.887 400.725 799.009 400.252 804.484 398.434C813.527 395.721 833.013 395.393 853.566 397.684ZM811.513 446.617C831.729 481.035 842.663 507.195 838.981 512.001C835.686 516.301 777.581 520.68 753.484 518.594C736.441 517.018 733.363 516.021 732.948 512.176C731.181 498.183 746.256 461.269 769.762 424.008C782.086 404.162 782.28 403.909 787.435 408.777C790.288 411.635 801.049 428.649 811.513 446.617ZM157.545 510.351C166.474 511.547 180.989 512.975 189.969 513.477C199.214 513.947 208.072 514.923 210.018 515.83C211.965 516.737 226.907 519.488 243.705 522.01C260.237 524.566 277.513 527.717 282.395 529.181L290.692 531.83L281.725 544.16C263.578 568.158 220.85 601.361 205.477 603.247C198.851 604.06 187.135 590.83 167.478 560.698C152.699 537.989 137.373 508.471 140.288 508.113C141.084 508.016 148.881 509.122 157.545 510.351ZM914.754 425.012C933.611 445.846 935.643 459.806 922.23 475.431C914.968 483.656 883.785 503.983 877.159 504.796C873.448 505.251 875.421 495.154 884.488 466.082C894.188 435.557 901.69 416.989 904.606 416.632C905.666 416.502 910.465 420.267 914.754 425.012ZM154.462 557.94C176.177 591.028 184.008 605.881 180.297 606.336C178.972 606.499 172.377 605.703 165.711 604.688C151.778 602.501 151.236 605.089 164.454 611.03C169.621 613.375 177.518 619.053 182.337 623.733C186.82 628.225 194.381 633.714 199.211 635.872C207.527 639.435 220.078 654.396 223.355 664.536C224.851 669.166 224.392 669.451 218.644 667.865C215.301 666.9 209.513 663.484 205.916 660.03C202.055 656.607 185.477 642.828 168.369 629.113C151.598 615.587 138.047 603.498 138.486 602.299C138.996 601.319 136.032 596.412 132.273 591.602C120.997 577.172 118.333 564.665 121.771 539.491L124.596 516.685L130.658 523.504C133.795 527.245 144.562 542.654 154.462 557.94ZM311.017 552.942C320.338 563.028 335.772 600.553 345.406 637.186C352.273 662.699 353.94 672.121 351.29 672.446C340.953 673.714 237.276 632.577 227.902 623.184C222.268 617.688 221.983 616.806 225.361 610.204C229.565 601.896 233.797 597.939 267.206 570.005C294.669 546.697 302.51 543.672 311.017 552.942ZM369.11 551.085C383.981 553.615 455.762 576.206 485.98 587.854L504.202 594.786L498.847 602.089C488.401 616.663 395.205 669.35 375.856 671.723L370.025 672.439L348.864 612.927C337.454 580.179 328.213 552.436 328.917 551.204C330.112 548.078 351.304 547.999 369.11 551.085ZM830.029 526.85C835.829 527.743 841.118 529.615 841.617 531.158C844.751 540.857 816.191 614.491 806.207 622.82C801.832 626.336 800.966 626.213 793.651 619.777C781.271 609.608 750.587 573.495 741.023 558.396C731.459 543.298 731.36 538.727 741.107 534.781C750.13 531.152 817.608 525.165 830.029 526.85ZM685.952 556.902C682.625 584.125 662.21 656.53 652.588 675.357C650.425 679.748 649.629 679.845 642.465 677.287C622.51 670.109 576.203 627.434 567.069 607.699C562.202 597.754 562.376 596.586 567.577 591.365C570.963 588.199 582.913 581.691 594.373 577.076C605.762 572.241 619.18 566.011 623.962 562.904C632.222 557.765 669.608 544.699 681.923 542.729L687.948 541.761L685.952 556.902ZM723.054 553.955C735.007 562.801 740.233 567.89 755.87 587.285C773.279 608.755 782.649 624.106 784.815 635.07L786.533 643.797L760.646 654.078C729.091 666.429 697.037 677.237 678.666 681.783L664.852 685.082L673.064 653.365C686.495 601.984 706.197 548.689 712.293 547.941C713.327 547.814 718.371 550.633 723.054 553.955ZM877.44 590.933C878.482 605.244 872.688 613.747 857.221 620.457C842.549 627.07 821.793 631.909 820.938 629.263C819.869 625.957 841.893 575.585 852.453 557.101L862.309 539.849L869.445 559.371C873.465 570.107 876.964 584.345 877.44 590.933ZM294.186 663.638C344.399 684.292 345.835 686.178 311.655 687.851C283.643 688.996 255.388 685.129 244.148 678.486C234.254 672.596 224.393 659.138 219.834 645.03L216.842 635.771L233.292 640.628C242.357 643.183 269.69 653.58 294.186 663.638ZM518.086 634.335C519.128 648.645 517.389 660.318 511.252 680.551C503.328 707.191 502.94 707.697 493.612 709.529C472.642 713.706 426.225 705.65 400.849 693.638L389.772 688.351L394.586 683.635C404.815 674.359 429.961 657.522 454.106 643.559C479.435 628.993 512.908 613.198 515.527 614.481C516.271 615.077 517.459 623.869 518.086 634.335ZM562.032 629.63C590.922 647.4 630.076 684.994 628.949 694.3C628.254 698.969 602.695 706.001 562.04 712.364L524.565 718.337L521.217 707.976C514.236 686.373 529.948 620.733 542.405 619.204C543.465 619.074 552.138 623.74 562.032 629.63ZM431.808 711.841C446.912 715.946 480.932 728.274 481.502 730.037C482.285 732.462 465.513 740.249 452.229 743.483C445.623 745.211 435.409 746.005 429.221 745.619C420.099 744.675 416.399 742.608 408.126 734.914C402.492 729.418 395.809 721.529 393.518 716.997C390.962 712.498 387.662 707.402 386.297 705.736C384.453 703.442 388.306 703.427 402.647 706.022C413.142 707.714 426.422 710.439 431.808 711.841ZM629.858 711.606C627.264 720.633 608.068 742.24 596.984 748.871L585.636 755.534L572.019 752.621C564.344 751.042 551.747 746.17 543.819 742.101C530.102 734.617 529.695 734.208 534.956 731.729C543.571 727.693 565.827 721.525 597.696 714.406C613.895 710.814 628.31 707.671 629.299 707.32C630.36 707.19 630.664 708.986 629.858 711.606ZM737.259 707.138L754.444 709.155L734.808 716.606C715.365 723.804 637.688 747.773 616.279 753.15C605.839 755.806 605.309 755.871 607.401 751.259C612.289 740.805 635.54 722.368 649.916 717.396C658.092 714.559 666.728 711.437 669.43 710.418C679.054 706.945 720.268 704.868 737.259 707.138ZM529.74 745.433C544.437 749.13 558.022 753.651 559.459 755.537C561.16 757.391 561.394 758.967 560.333 759.097C559.273 759.227 533.005 758.095 501.681 756.667C443.753 753.92 439.809 752.799 462.717 746.093C487.824 738.429 500.947 738.194 529.74 745.433Z" stroke="white" stroke-miterlimit="10"/>
</svg>
