<svg width="890" height="872" viewBox="0 0 890 872" fill="none" xmlns="http://www.w3.org/2000/svg">
<path d="M446.432 6.21851C429.126 16.407 324.019 38.2751 285.59 39.5176C259.631 40.2631 252.506 42.7481 247.925 52.4396C246.398 55.6701 241.817 60.3916 237.49 62.6281C228.074 67.8466 227.819 70.5801 236.218 70.5801C241.053 70.5801 243.344 72.5681 245.38 77.2896L248.179 84.2476L252.506 75.7986C258.614 64.6161 266.503 60.8886 284.572 60.6401C302.896 60.6401 359.648 75.3016 353.54 78.5321C340.561 85.7386 253.524 107.855 238.763 107.855C236.218 107.855 234.945 105.37 234.945 100.649C234.945 91.4542 230.873 88.7207 227.31 95.4302C225.784 98.1637 222.73 100.4 220.185 100.4C217.894 100.4 209.496 105.122 201.861 110.837C189.645 119.783 171.321 127.735 162.923 127.735C161.396 127.735 163.178 124.505 166.995 120.777C177.429 110.092 175.139 109.098 159.869 117.547C151.98 121.771 141.545 126.244 136.455 127.238C127.548 128.978 126.53 129.972 122.458 143.888C119.913 152.088 117.114 160.786 116.35 163.271C115.332 166.501 116.35 167.247 120.931 166.998C126.53 166.253 126.785 166.998 126.021 178.678C125.512 186.878 121.186 199.303 113.805 215.207C107.697 228.626 102.607 240.306 102.607 241.548C102.607 245.276 75.8854 264.162 63.1606 269.38L51.7083 274.102L55.7802 266.647C57.8162 262.422 63.6696 252.979 68.505 245.524C79.1939 229.372 80.4664 219.929 70.2865 232.851C66.2146 237.572 59.3432 247.761 54.5078 255.216C49.6723 262.919 41.5285 272.114 36.4386 275.841L27.0222 282.799L25.4952 315.353C23.9683 351.137 16.5879 389.406 6.91703 410.529C-0.972343 427.924 -0.972343 439.355 6.91703 450.537C16.3334 463.956 30.0762 533.785 35.1661 592.68C36.6931 611.069 36.9475 611.566 45.6004 615.542C50.4358 617.778 54.2533 621.506 54.2533 623.494C54.2533 625.73 58.5797 631.943 63.9241 637.907C81.4843 656.793 112.278 703.511 119.659 722.894C126.785 741.283 126.785 741.531 139.509 745.507C146.635 747.744 161.142 754.453 172.085 760.666C183.283 766.63 192.954 771.103 193.717 770.109C195.499 768.369 188.882 762.654 170.812 750.974C163.941 746.75 158.851 743.022 159.36 742.525C159.615 742.277 174.884 744.513 192.954 747.495C232.655 753.956 245.125 759.672 257.341 777.564C265.485 789.74 272.102 807.881 269.557 810.366C268.793 811.111 261.667 807.632 253.524 802.911C217.64 781.788 203.642 779.055 232.909 798.686C241.817 804.65 256.578 815.336 265.739 822.791C282.027 835.464 283.045 835.961 298.824 835.961C324.528 836.21 397.314 854.102 421.491 866.278L431.162 871L442.614 864.539C462.21 853.356 574.697 830.991 612.108 830.991C629.16 830.991 629.16 830.991 637.558 820.803C642.139 815.087 654.609 804.153 665.044 796.698C675.478 788.995 682.604 782.534 680.822 781.788C679.041 781.291 671.915 785.019 665.044 789.989C645.956 803.656 623.052 809.62 596.33 807.881C572.407 806.39 537.032 796.947 543.14 793.716C548.23 790.734 649.774 765.636 651.046 766.878C651.81 767.375 651.046 771.6 649.774 776.321C646.72 786.758 648.247 788.498 655.627 782.037C658.681 779.303 666.316 774.582 672.678 771.6C679.041 768.618 686.421 763.399 689.221 760.169C692.02 756.938 701.945 751.471 711.616 747.992C725.868 742.525 728.668 742.277 728.668 745.507C728.668 747.495 727.65 748.489 726.123 747.744C724.85 746.998 723.578 748.489 723.578 751.223C723.578 756.441 727.649 760.417 729.176 756.69C729.431 755.447 736.811 751.223 745.464 746.998C764.042 737.804 764.806 737.058 773.968 715.19C778.04 705.499 786.438 689.346 793.055 678.909C799.672 668.721 805.016 659.029 805.016 657.041C805.016 651.077 798.145 659.278 786.184 678.909C779.821 689.595 771.168 702.02 766.842 706.741L758.953 715.439L760.225 691.831C760.988 678.909 763.279 662.508 765.569 655.302C772.95 631.694 794.073 611.069 822.068 600.135L835.301 595.165L828.939 609.081C825.376 616.536 823.086 623.494 823.849 623.991C824.358 624.736 830.466 618.275 837.337 609.826C843.954 601.377 852.353 592.928 856.17 591.189C862.532 587.958 862.787 587.212 861.514 568.078C859.987 539.997 864.568 511.42 877.548 470.666C883.91 450.786 889 432.894 889 430.906C889 428.918 886.71 424.445 883.91 420.966C881.111 417.487 878.82 410.777 878.82 405.31C878.82 393.879 876.021 393.631 869.913 404.565L865.077 413.014L853.879 400.837C840.9 386.673 835.81 386.424 847.517 400.589C871.185 429.166 869.913 454.016 844.209 474.89L833.774 483.091L828.175 441.343C824.867 418.481 821.813 396.116 821.049 391.643C819.777 383.939 819.777 383.691 829.193 383.691C835.556 383.691 838.101 382.697 837.083 380.46C825.885 354.368 825.376 320.82 835.556 297.213C838.864 290.006 841.918 284.539 842.427 285.284C844.718 287.521 851.08 314.111 857.188 347.161C860.751 366.296 865.332 385.182 867.368 389.406L870.676 397.358L870.931 389.158C871.185 384.685 868.386 368.781 864.823 353.622C857.697 323.057 853.371 291.745 853.371 272.611C853.371 261.18 852.607 258.943 846.499 255.216C842.427 252.979 836.319 247.512 832.756 243.536C826.139 236.081 826.139 236.081 824.358 241.548C823.34 244.53 821.813 247.015 820.795 247.015C817.487 246.767 800.69 230.863 794.836 222.165C791.528 217.444 785.166 209.492 780.585 204.77C772.95 196.818 764.297 177.435 764.297 168.738C764.297 166.501 765.569 162.774 767.351 160.289C771.423 153.828 765.315 133.451 758.189 128.978C749.027 123.511 708.053 107.11 706.781 108.601C706.017 109.346 711.107 114.316 718.488 119.535C728.668 126.99 730.449 129.226 726.632 129.723C717.979 130.966 688.457 123.014 671.915 115.062C644.175 101.394 636.285 93.4422 626.615 68.8406C624.324 62.6281 624.324 62.3796 633.232 63.8706C638.067 64.6161 642.139 64.6161 642.139 64.1191C642.139 60.1431 636.285 53.1851 633.232 53.1851C631.196 53.1851 626.615 48.7121 623.052 43.2451C617.198 34.0506 615.671 33.3051 605.237 33.3051C571.898 33.3051 506.238 20.88 479.007 9.69752C467.809 4.97601 457.629 1 456.866 1C455.873 1 451.267 3.2365 446.432 6.21851ZM430.424 28.832C426.861 33.3051 415.917 42.4996 405.738 49.4576L387.159 61.8826H353.82C327.862 61.8826 316.41 60.8886 304.194 57.1611C295.541 54.4276 289.178 51.4456 290.196 50.7001C294.014 47.2211 317.936 41.0086 341.859 37.0326C355.093 34.7961 369.599 32.0626 373.671 30.8201C381.051 28.5835 422.025 21.874 431.951 21.1285C436.252 20.88 435.997 21.6255 430.424 28.832ZM515.4 27.0925C533.978 30.3231 558.919 35.7901 570.88 39.0206L592.258 44.7361L576.988 48.9606C557.137 54.4276 548.739 54.1791 536.778 48.4636C531.433 45.7301 518.963 41.7541 509.037 39.5176C491.986 35.7901 476.717 28.0865 476.717 23.1165C476.717 20.1345 476.971 20.1345 515.4 27.0925ZM478.498 32.3111C489.441 38.5236 504.202 54.6761 501.403 57.4096C499.621 58.9006 421.236 67.8466 407.239 68.0951H400.113L411.057 54.6761C417.164 47.2211 424.29 40.0146 427.09 38.5236C429.889 37.0326 436.252 32.8081 441.087 29.329C451.521 21.874 461.447 22.6195 478.498 32.3111ZM612.872 59.8946C621.27 68.3436 625.088 75.5501 630.178 92.1997L634.25 105.37L626.106 101.891C621.525 100.152 610.581 95.4302 601.42 91.7027C574.952 80.7686 545.43 65.3616 546.957 62.8766C549.502 58.6521 572.407 53.4336 588.949 53.4336C603.964 53.1851 606.509 53.9306 612.872 59.8946ZM510.819 75.3016C515.145 77.7866 527.361 81.2656 537.796 83.0051C567.572 87.4781 574.697 89.9632 600.656 103.382C617.707 112.328 623.815 116.553 621.27 118.044C615.671 121.771 593.53 127.487 575.461 129.972C553.574 132.954 541.104 130.22 531.942 120.28L524.562 112.328L518.708 117.795C513.109 122.765 510.819 123.262 496.567 122.02C483.333 120.777 473.917 117.298 441.342 101.394L401.895 82.0111L411.82 79.7746C428.362 76.5441 474.426 71.0771 489.187 70.8286C498.603 70.5801 505.5 72.0711 510.819 75.3016ZM364.738 99.9032C364.738 110.837 347.687 149.852 332.417 173.211C326.564 182.405 325.546 182.902 316.893 181.66C300.605 178.926 280.755 166.998 262.431 148.361C233.418 119.286 233.164 122.268 266.248 112.577C307.986 100.649 330.89 95.9272 348.96 95.6787C362.702 95.4302 364.738 95.9272 364.738 99.9032ZM409.784 99.1577C433.961 106.116 494.531 138.918 494.531 144.882C494.531 151.591 415.892 177.435 353.54 191.103L346.16 192.594L347.687 179.423C349.214 164.016 371.355 112.328 380.772 102.14C387.897 94.4362 391.969 93.9392 409.784 99.1577ZM192.954 136.93C185.573 154.076 138.746 212.225 132.129 212.225C130.857 212.225 130.348 203.279 131.366 189.86C132.893 166.253 138.491 149.852 148.162 141.651C155.034 135.687 177.684 127.984 188.627 127.735H196.771L192.954 136.93ZM712.125 132.954C729.94 136.433 745.21 145.876 752.59 158.301C758.698 168.738 766.078 196.57 763.279 199.055C760.479 201.788 749.536 194.333 709.071 162.774C673.442 134.693 669.879 131.463 675.478 129.972C681.84 128.232 691.002 128.978 712.125 132.954ZM639.339 138.669C646.974 142.645 652.064 152.337 659.699 178.926C665.807 199.303 677.768 250.246 676.75 251.24C674.969 252.979 641.121 230.863 616.944 212.225C601.929 200.546 582.332 185.884 573.679 179.175C559.937 168.738 547.466 152.337 550.775 148.858C551.538 148.361 562.227 144.882 574.952 141.651C600.936 134.693 628.651 133.451 639.339 138.669ZM255.305 153.082C268.03 161.283 279.737 170.726 281.264 173.459C282.791 176.441 286.608 181.411 289.662 184.89C292.97 188.369 296.279 193.588 297.042 196.321C298.569 200.794 297.042 202.285 288.644 205.516C274.392 211.231 234.436 218.686 195.498 223.408C177.429 225.396 158.597 227.632 154.016 228.378C146.381 229.372 145.872 228.875 147.399 223.905C151.471 209.989 187.355 161.78 204.915 146.373C219.421 133.451 227.056 134.445 255.305 153.082ZM684.92 157.307C710.369 175.696 745.235 205.764 750.58 213.468C755.669 221.171 752.616 227.135 737.6 237.075C726.911 244.282 694.59 254.222 691.537 251.488C690.773 250.743 683.902 227.384 676.267 199.552C668.632 171.72 661.76 147.367 661.251 145.627C659.19 139.912 664.56 142.645 684.92 157.307ZM508.274 172.962C512.855 194.333 510.819 264.659 504.457 310.383C500.894 336.973 499.621 341.446 495.804 341.446C486.896 341.446 448.467 311.626 408.003 273.108C364.484 231.857 349.469 216.201 349.469 211.977C349.469 205.019 425.308 178.926 466.537 171.72C499.138 166.004 507.002 166.253 508.274 172.962ZM555.127 182.157C568.615 188.866 585.921 201.043 638.856 241.548C661.252 258.695 667.614 267.144 663.542 273.853C655.907 285.782 577.013 329.518 542.402 341.197L527.641 346.167L525.86 339.458C522.551 327.778 523.569 222.662 527.132 199.8C529.168 188.121 531.204 177.932 531.713 176.938C533.978 173.459 540.34 174.95 555.127 182.157ZM299.587 225.147C295.77 237.324 284.572 256.21 261.158 290.006C247.67 309.389 232.146 331.754 226.802 339.458C209.241 365.053 200.588 366.544 185.828 346.913C169.285 325.045 140.782 261.18 140.782 246.518C140.782 244.033 155.034 240.306 194.99 232.602C256.832 220.674 257.85 220.674 282.791 219.929C301.114 219.68 301.369 219.68 299.587 225.147ZM344.379 240.306C350.996 243.288 369.065 258.198 387.643 275.841C405.203 292.491 427.599 312.868 437.779 321.317C447.958 329.766 460.938 342.44 466.537 349.646C475.953 361.077 476.462 362.568 472.136 364.059C457.12 369.526 350.741 376.236 277.701 376.236H219.93L222.475 368.781C225.784 359.586 242.071 334.985 283.045 276.587L314.348 231.608L323.764 233.348C328.854 234.093 338.016 237.324 344.379 240.306ZM820.795 253.725C834.283 266.15 835.047 281.06 824.104 312.868C818.759 328.275 815.705 333.991 812.906 333.991C808.579 333.991 791.528 274.35 786.438 241.797L785.42 235.336L799.672 241.3C807.561 244.779 816.978 250.246 820.795 253.725ZM776.004 252.979C782.875 267.889 793.31 305.165 796.109 326.287L797.89 339.706L765.315 317.838C723.069 289.757 717.979 285.036 717.979 273.605C717.979 268.386 720.269 261.428 723.323 257.452C730.194 248.009 747.5 239.56 759.97 239.56C769.132 239.56 769.896 240.057 776.004 252.979ZM105.152 256.955C105.152 260.434 87.5922 293.982 72.577 318.584C60.8702 337.967 60.1067 338.961 56.0347 334.488C50.1813 328.275 45.6004 306.656 47.6364 295.97C49.4178 286.278 63.1606 274.599 88.6102 261.428C102.862 253.973 105.152 253.228 105.152 256.955ZM130.119 264.907C144.116 287.272 174.401 349.646 175.673 358.592C176.946 368.284 176.946 368.532 167.529 370.272C143.607 374.496 93.9801 364.805 78.2013 352.628L71.0755 346.913L86.5997 315.85C103.651 282.054 118.921 256.955 122.738 256.955C123.985 256.955 127.294 260.683 130.119 264.907ZM689.73 302.68C689.984 302.928 692.02 309.638 694.056 317.838C700.673 342.191 705.763 383.194 706.526 415.996C707.035 447.058 707.035 447.058 701.182 446.561C685.912 444.822 581.06 401.831 554.847 386.176C543.649 379.715 541.358 376.981 542.376 373.005C544.667 364.059 562.227 349.646 582.587 339.955C593.785 334.736 612.872 324.796 625.342 318.087C651.046 303.922 667.589 298.704 680.313 300.692C685.149 301.437 689.475 302.431 689.73 302.68ZM727.395 308.395C747.755 318.335 773.204 335.73 783.13 346.416C798.399 363.065 796.363 370.769 766.587 410.032C747.246 435.379 739.865 441.591 730.703 440.349C725.614 439.603 724.341 437.118 720.524 419.723C716.197 400.092 707.544 341.197 704.49 313.365C703.218 299.2 703.218 298.952 708.817 300.692C712.125 301.437 720.549 305.165 727.395 308.395ZM40.5105 344.428C38.22 355.113 36.4386 367.041 36.4386 371.017C36.4386 374.745 35.1661 381.703 33.3846 386.424C30.3307 395.619 21.1688 409.535 19.6418 407.795C17.8604 406.056 26.0042 355.113 31.8576 330.263L37.202 307.898L40.765 316.347C44.0734 323.802 44.0734 327.53 40.5105 344.428ZM136.481 375.987C154.55 379.963 169.565 383.691 170.329 384.188C173.383 387.17 162.439 412.02 151.242 427.427C131.645 454.762 90.4171 489.8 84.8182 483.836C83.5458 482.842 79.7283 468.429 75.9109 452.028C69.0395 422.208 66.4945 388.661 70.312 375.49C72.0934 369.029 72.8569 368.781 88.1267 368.781C96.7541 368.781 118.666 372.011 136.481 375.987ZM59.0887 405.062C65.9601 436.124 71.8135 485.824 68.505 483.588C66.9781 482.842 60.6157 478.369 54.5078 473.896C48.3999 469.175 42.801 465.944 42.292 466.69C41.5285 467.435 45.0914 474.393 50.1813 482.345C70.2865 514.402 72.3225 540.743 57.0527 571.308L48.3999 588.455L45.0914 579.509C36.9475 556.398 16.3334 454.762 19.3873 451.78C19.8963 451.283 23.4593 453.022 27.2767 456.004C36.6931 463.211 37.4565 460.974 30.0762 450.04C20.4053 436.124 19.6418 428.421 27.0222 413.014C35.4206 395.37 48.9089 377.478 51.9628 380.46C53.2353 381.703 56.5437 392.637 59.0887 405.062ZM813.924 409.038C816.469 425.936 817.741 447.555 817.232 463.211L816.469 489.303L808.834 490.049C798.399 491.291 772.695 486.073 761.243 480.357C753.099 476.381 751.572 474.393 751.572 467.435C751.572 458.241 765.06 429.166 777.531 411.523C788.474 395.867 805.016 378.472 807.561 379.963C808.579 380.709 811.379 393.631 813.924 409.038ZM468.598 388.661C465.29 392.637 452.31 403.571 439.84 412.765C427.115 421.96 398.103 444.822 375.198 463.211C314.119 512.662 272.891 540.246 259.657 540.246C248.459 540.246 219.701 447.058 219.701 411.026C219.701 399.843 220.21 398.849 226.827 397.607C239.552 395.122 301.903 388.909 340.587 386.176C399.121 382.2 401.666 382.2 439.331 381.703L474.452 381.206L468.598 388.661ZM485.624 422.457C478.753 464.702 450.249 581.497 437.27 621.754C431.416 639.895 430.144 641.634 423.018 643.125C413.347 644.865 395.532 641.137 381.79 634.179C367.029 626.973 315.621 596.407 297.806 584.23C283.809 574.539 282.791 573.545 284.063 565.841C286.099 554.162 293.988 544.47 313.839 529.56C323.255 522.354 357.358 496.013 389.424 470.666C443.378 428.172 486.387 397.358 488.423 399.346C488.958 399.843 487.685 410.28 485.624 422.457ZM559.428 407.547C580.805 415.25 637.049 439.106 659.445 449.543C679.041 458.738 703.218 478.618 703.218 485.327C703.218 490.794 680.568 525.087 662.244 546.707C646.72 565.344 622.543 587.461 617.962 587.461C614.653 587.461 611.345 581.994 595.057 550.186C574.952 511.171 530.161 407.05 530.161 399.843C530.161 397.855 542.122 401.086 559.428 407.547ZM518.963 418.978C522.78 426.184 534.233 451.034 544.412 474.393C554.592 497.504 567.317 526.578 572.916 539.003C584.877 565.344 589.458 583.982 588.186 601.129L587.422 613.305L560.446 624.985C545.43 631.197 528.379 637.161 522.271 638.155C516.163 639.149 501.657 642.628 489.95 646.107C478.498 649.586 465.773 652.071 461.956 651.574C456.102 650.829 455.084 649.586 454.321 641.386C453.303 628.712 463.483 576.775 480.534 509.183C493.004 459.483 509.038 406.056 511.328 406.056C511.862 406.056 515.4 412.02 518.963 418.978ZM201.861 421.463C213.313 440.1 233.673 505.207 236.727 533.536L238.254 547.949L227.056 546.21C220.948 545.216 205.169 541.985 192.19 538.755C179.211 535.524 166.486 532.791 163.941 532.791C161.396 532.791 154.27 530.057 148.162 526.827C142.054 523.596 131.111 519.123 123.985 516.887C116.859 514.65 108.97 511.171 106.17 509.432C101.59 506.201 101.59 505.456 105.661 497.504C111.26 485.824 167.504 426.93 180.229 419.475C193.463 411.771 195.753 412.02 201.861 421.463ZM856.17 511.668C849.299 557.889 849.044 558.635 847.008 544.222C844.463 525.584 846.754 495.019 852.098 480.854C855.661 470.417 860.751 462.217 862.532 463.708C862.787 464.205 859.987 485.824 856.17 511.668ZM787.202 495.516C796.363 498.249 806.034 501.728 808.579 503.716C813.415 507.195 813.415 507.444 807.816 523.099C793.309 562.114 757.171 620.76 756.662 605.602C756.662 602.62 752.845 582.491 748.009 560.871C743.174 539.252 738.338 514.65 737.32 506.201C735.793 491.54 736.048 491.043 741.647 489.8C750.809 488.061 768.903 490.297 787.202 495.516ZM733.757 542.979C742.156 582.988 744.446 612.808 739.611 617.53C735.284 621.754 680.313 618.772 658.681 613.305C643.411 609.329 640.866 607.838 641.63 603.614C644.175 588.207 669.115 550.186 701.945 512.911C719.251 493.031 719.506 492.782 722.814 498.746C724.596 502.225 729.456 522.105 733.757 542.979ZM110.751 525.087C118.641 527.572 131.62 531.051 139.764 532.791C148.162 534.53 156.052 536.767 157.579 538.009C159.106 539.252 172.085 544.222 186.846 549.192C201.352 554.162 216.367 559.877 220.439 562.114L227.31 566.09L215.349 578.266C191.427 601.874 142.054 632.191 127.294 632.191C120.931 632.191 114.06 616.287 104.898 581C98.0266 554.41 92.6822 520.366 95.4816 520.366C96.2451 520.366 103.116 522.602 110.751 525.087ZM835.556 533.288C846.754 558.386 844.463 573.793 827.412 588.952C818.25 596.904 783.384 614.796 777.022 614.796C773.459 614.796 778.294 604.111 795.345 573.793C813.415 541.985 825.885 522.851 828.684 522.851C829.702 522.851 833.011 527.572 835.556 533.288ZM93.7001 576.278C103.88 615.045 106.679 632.191 103.116 632.191C101.844 632.191 95.9906 630.452 90.1372 628.464C77.9214 624.239 76.6489 626.973 87.0832 635.173C91.1552 638.404 96.7541 645.61 99.808 651.326C102.608 656.793 107.952 663.751 111.769 666.733C118.386 671.703 125.512 689.595 125.512 701.026C125.512 706.244 125.003 706.493 120.168 704.008C117.368 702.517 113.042 698.044 110.751 693.819C108.206 689.595 97.0086 672.448 85.3018 655.302C73.8495 638.404 64.9421 623.494 65.7056 622.251C66.4691 621.257 65.1966 615.542 63.1606 609.826C57.0527 592.68 58.3252 578.763 69.014 551.925L78.4304 527.572L81.9933 535.773C83.7748 540.246 89.1192 558.386 93.7001 576.278ZM239.781 591.686C245.38 603.862 248.434 646.604 246.398 687.607C245.125 716.184 243.853 726.621 241.308 726.621C231.382 726.621 147.908 668.224 142.054 656.793C138.491 650.083 138.491 649.089 143.581 642.38C149.944 633.931 155.034 630.203 194.226 604.359C226.547 582.74 234.691 580.503 239.781 591.686ZM293.988 597.401C306.968 602.123 366.52 636.167 390.951 652.817L405.712 662.757L398.586 669.963C384.589 684.376 282.791 729.106 264.212 729.106H258.614L256.832 661.763C256.069 624.736 255.814 593.425 256.832 592.182C258.868 588.952 278.464 591.686 293.988 597.401ZM726.912 632.44C732.001 634.179 736.328 636.913 736.328 638.652C736.328 649.586 687.974 725.627 676.267 733.331C671.177 736.561 670.413 736.313 665.578 728.361C657.18 715.687 639.619 672.448 635.293 654.805C630.967 637.161 632.239 632.191 642.419 629.209C651.835 626.476 715.943 628.961 726.912 632.44ZM584.877 645.859C573.679 674.933 533.215 750.726 518.708 769.86C515.4 774.333 514.636 774.333 508.783 770.606C492.495 760.169 462.465 707.735 459.92 685.122C458.393 673.691 458.902 672.448 465.264 667.478C469.336 664.496 482.315 659.029 494.277 655.55C506.238 651.823 520.49 646.853 525.834 644.119C534.996 639.646 573.425 630.452 585.386 629.955L591.24 629.706L584.877 645.859ZM620.023 647.598C628.422 658.781 631.73 664.993 640.383 688.104C650.054 713.699 654.126 731.591 652.853 743.768L651.835 753.459L624.859 761.163C592.029 770.357 559.199 777.812 540.875 780.297L527.132 782.037L544.183 748.738C571.923 694.813 606.026 639.646 611.879 639.646C612.872 639.646 616.689 643.374 620.023 647.598ZM751.572 708.232C748.264 723.888 740.374 732.337 724.087 737.555C708.562 742.774 687.948 745.259 687.948 742.277C687.948 738.549 723.323 686.861 738.593 668.224L752.845 650.829L753.608 672.945C754.117 685.122 753.099 701.026 751.572 708.232ZM191.198 709.475C231.408 738.549 232.171 740.786 200.105 738.052C173.892 735.567 148.951 727.615 140.553 718.918C133.172 711.214 128.083 695.31 128.083 679.406V668.969L141.825 676.424C149.435 680.4 171.576 695.31 191.198 709.475ZM406.73 707.487C403.422 723.142 398.332 735.567 386.625 756.69C371.355 784.522 370.846 785.019 361.684 785.764C341.07 787.504 300.605 772.594 280.755 756.193L272.102 748.986L277.955 744.513C290.171 735.816 318.42 720.906 344.888 708.978C372.628 696.553 408.257 683.879 410.293 685.619C410.802 686.364 409.275 696.056 406.73 707.487ZM448.722 708.232C470.1 731.343 495.04 777.315 491.223 787.255C489.187 792.225 463.483 796.45 424.036 797.941L387.643 799.432V787.752C387.643 763.399 421.745 694.316 433.707 694.316C434.725 694.316 441.342 700.529 448.722 708.232ZM303.914 780.049C316.639 786.51 344.379 804.402 344.379 806.39C344.379 809.123 326.564 815.336 313.33 817.075C306.713 818.069 297.042 817.572 291.443 816.33C283.3 814.093 280.5 811.36 275.156 801.917C271.593 795.207 267.775 785.764 267.012 780.546C265.994 775.327 264.467 769.363 263.703 767.375C262.685 764.642 266.248 765.139 278.719 769.86C287.906 773.091 299.358 777.812 303.914 780.049ZM486.896 806.141C481.806 815.584 457.629 836.458 445.414 842.174L432.943 847.889L421.236 842.919C414.619 840.186 404.44 833.228 398.332 827.761C387.897 817.821 387.643 817.324 393.242 815.336C402.404 812.105 424.799 808.378 456.357 804.899C472.39 803.159 486.642 801.668 487.66 801.42C488.678 801.42 488.423 803.408 486.896 806.141ZM587.422 815.584L602.692 820.057L582.332 825.524C562.227 830.743 483.333 846.398 461.956 849.38C451.521 850.871 451.012 850.871 454.321 846.15C461.956 835.464 488.932 818.566 503.693 815.087C512.091 813.099 520.999 810.863 523.798 810.117C533.724 807.632 572.407 810.863 587.422 815.584ZM384.334 829.5C396.805 835.464 408.003 842.174 408.766 844.41C409.784 846.647 409.53 848.386 408.512 848.386C407.494 848.386 383.571 843.665 355.067 837.949C302.387 827.264 299.078 825.524 322.237 821.3C347.713 816.33 359.903 817.821 384.334 829.5Z" stroke="#C9E6F7" stroke-miterlimit="10"/>
</svg>
