<svg width="883" height="1479" fill="none" xmlns="http://www.w3.org/2000/svg"><path d="M-258.498 12.564c-28.768 21.428-225.339 83.962-300.896 95.415-51.09 7.577-63.869 13.511-67.665 31.002-1.265 5.83-7.774 14.923-15.136 19.756-15.83 11.109-14.843 15.79 1.818 13.746 9.593-1.177 15.222 1.625 21.839 9.108l9.354 11.075 3.969-15.329c6.01-20.382 19.626-28.601 55.336-33.419 36.351-4.46 156.943 6.501 146.591 13.446-21.814 15.337-182.403 73.892-211.685 77.485-5.049.619-8.93-3.27-11.509-11.248-5.021-15.536-14.591-19.164-17.996-6.96-1.536 4.991-6.373 9.513-11.422 10.133-4.544.557-18.626 10.579-30.651 22.095-19.349 18.09-51.358 35.987-68.018 38.031-3.03.371-1.26-5.521 4.278-12.749 14.865-20.595 9.778-21.717-15.9-3.724-13.345 9.059-31.602 19.157-41.156 22.075-16.721 5.107-18.198 7.035-18.677 31.54-.57 14.476-1.375 29.854-1.532 34.239-.256 5.707 2.171 6.719 11.123 5.184 10.7-2.623 11.612-1.425 16.475 18.496 3.469 13.981 1.671 36.029-4.286 64.699-4.789 24.161-8.509 45.135-7.83 47.235 2.035 6.298-40.663 44.715-63.057 56.63l-20.141 10.765 4.007-13.588c1.732-7.634 8.187-25.014 13.709-38.788 12.384-29.896 9.752-46.162-3.387-21.849-5.499 8.969-13.567 27.858-19.089 41.632-5.386 14.193-16.521 31.712-24.583 39.249l-14.881 14.049 14.748 55.379c16.511 60.837 22.767 127.299 15.116 165.344-6.152 31.313.09 50.629 21.848 67.604 26.008 20.383 91.402 135.028 133.66 233.308 13.07 30.7 13.847 31.48 33.183 36.09 10.814 2.6 20.423 7.97 21.508 11.33 1.222 3.78 13.197 13.23 27.056 22 45.149 27.64 131.75 99.09 156.976 130.04 24.178 29.34 24.313 29.76 51.728 33.38 15.358 2.05 47.799 9.85 72.901 17.69 25.471 7.35 47.099 12.55 48.071 10.69 2.584-3.37-13.664-11.42-55.887-26.76-15.939-5.46-28.072-10.52-27.333-11.49.369-.48 31.883-.42 69.357.22 82.288 1.26 110.148 7.88 144.152 35.14 22.805 18.59 45.838 47.64 42.146 52.45-1.108 1.45-17.144-2.69-35.878-8.69-82.721-26.96-111.982-28.17-43.202-2.12 20.928 7.91 56.045 22.37 78.292 32.74 39.232 17.45 41.523 18.04 72.825 14.2 51.128-5.84 205.291 6.68 259.903 21.37l21.764 5.63 19.191-13.71c32.769-23.66 243.709-88.83 317.925-97.94 33.827-4.15 33.827-4.15 44.924-23.41 5.966-10.77 24.735-32.28 41.363-47.42 16.494-15.56 27.102-28.21 23.161-29.03-3.806-.41-15.907 7.62-26.824 17.69-30.402 27.74-72.584 43.4-126.546 46.96-48.272 3.3-123.605-4.04-113.253-10.99 8.469-6.27 196.208-73.4 199.411-71.61 1.786.65 2.578 7.98 2.632 16.27-.359 18.37 3.62 20.94 14.733 8.23 4.566-5.36 17.134-15.2 28.127-21.79 10.994-6.58 22.785-17.2 26.575-23.34 3.789-6.14 20.494-17.79 37.779-26.02 25.288-12.71 30.706-13.81 32.47-8.35 1.085 3.36-.392 5.28-3.828 4.39-2.931-.95-4.641 1.88-3.149 6.5 2.85 8.82 13.099 14.55 14.093 7.88-.174-2.16 12.16-11.1 27.019-20.34 31.835-20.06 32.943-21.51 39.177-60.69 2.785-17.37 10.626-46.7 18.053-65.95 7.563-18.83 12.873-36.5 11.788-39.86-3.257-10.08-12.411 5.45-25.42 41.53-6.786 19.61-17.167 42.71-23.171 51.74l-10.902 16.62-10.367-40.2c-5.542-22.02-9.954-50.3-9.345-63.03 1.75-41.687 32.391-81.68 81.956-106.969l23.54-11.619-5.023 25.063c-2.997 13.464-3.742 25.779-1.956 26.433 1.417 1.136 10.006-11.268 19.024-27.218 8.513-15.887 20.56-32.207 27.183-36.076 10.858-7.007 10.955-8.329-2.018-40.351-18.363-47.078-24.88-96.481-21.386-168.504 1.766-35.141 2.093-66.612 1.007-69.972-1.085-3.359-8.072-10.36-15.525-15.557-7.453-5.197-15.661-15.977-18.646-25.215-6.242-19.315-11.932-19.054-18.078.908l-4.979 15.454-28.863-17.85c-33.484-20.775-43.717-19.956-12.758 1.129 62.558 42.528 73.604 84.828 34.01 126.356l-16.221 16.396-33.905-69.181c-19.047-37.825-37.318-74.873-41.276-82.245-6.731-12.708-6.866-13.128 11.814-15.419 12.622-1.549 17.128-3.848 13.887-7.379-36.463-41.364-55.792-97.927-48.488-140.296 2.628-12.982 5.701-22.963 7.118-21.827 5.765 3.221 32.907 46.602 63.071 100.962 17.517 31.466 36.918 62.263 43.264 68.906l10.905 12.632-3.973-13.919c-1.937-7.62-16.176-33.813-31.521-58.559-30.828-49.914-56.508-101.768-66.957-134.101-6.242-19.315-8.978-22.908-23.131-27.72-9.299-2.788-24.401-10.54-33.64-16.391-17.198-10.986-17.198-10.986-17.747-1.315-.391 5.287-2.063 9.857-4.083 10.105-6.699.385-48.705-22.4-65.066-35.672-9.142-7.173-26.106-19.061-37.772-25.924-19.488-11.579-47.239-42.225-51.988-56.922-1.221-3.779-.732-10.387 1.445-15.019 4.549-11.909-18.695-44.854-35.274-50.678-21.16-7.008-111.401-24.749-113.111-21.92-1.107 1.446 11.704 8.605 29.195 15.627 24.266 10.119 29.021 13.465 21.719 15.234-16.487 4.205-79.394-2.046-116.553-11.457-62.495-16.343-82.488-27.859-115.107-67.076-7.936-9.94-8.072-10.36 10.412-10.008 10 .082 18.078-.909 17.807-1.749-2.171-6.718-17.583-17.05-23.642-16.307-4.039.495-15.569-5.948-25.622-14.319-16.633-14.111-20.07-15-40.77-12.46-66.137 8.115-203.179 3.101-263.307-9.167-24.793-5.252-47.159-9.493-48.673-9.307-1.969.241-9.886 5.142-17.85 11.357zm-19.408 42.108c-4.626 8.425-21.315 26.625-37.71 40.86l-30.071 25.517-66.138 8.114c-51.497 6.318-74.759 7.426-101.028 4.101-18.659-2.513-32.909-6.003-31.296-7.511 5.673-6.808 49.739-23.128 95.025-35.669 25.032-7 52.317-15.15 59.717-18.24 13.42-5.576 91.04-26.886 110.323-30.561 8.397-1.467 8.299-.145 1.178 13.389zm167.627-23.622c38.62.936 91.082 4.104 116.575 6.651l45.53 4.455L23.841 53.01C-12.554 67.08-29.35 68.704-56.2 61.958c-12.095-3.318-39.005-7.001-59.916-8.365-35.862-2.148-70.361-11.449-73.075-19.847-1.629-5.038-1.124-5.1 78.912-2.696zm-70.357 17.8c25.102 7.833 63.205 31.534 59.144 36.834-2.72 2.953-153.336 37.148-180.968 40.975l-14.136 1.734 14.382-25.338c8.046-14.084 18.247-27.995 22.986-31.196 4.739-3.2 15.054-11.888 22.747-18.943 16.629-15.137 36.726-16.293 75.845-4.067zm281.635 13.903c21.274 12.232 32.782 23.48 51.972 50.375l15.27 21.263-18.056-3.896c-10.038-1.825-34.325-7.139-54.536-11.208C37.17 107.254-29.807 88.405-28.135 83.834c2.742-7.757 45.33-22.15 78.148-26.176 29.651-4.075 35.107-3.434 50.986 5.095zm-194.04 50.872c9.94 3.146 36.073 6.052 57.722 6.451 61.513.311 77.006 2.776 135.831 19.133 38.711 10.966 53.135 16.617 48.901 19.756-9.072 7.662-49.875 22.708-84.364 31.305-41.79 10.366-68.022 8.782-91.625-5.784l-18.984-11.64-8.626 10.662c-8.394 9.761-12.666 11.158-41.617 12.528-26.932 1.121-47.512-2.466-120.821-21.411l-88.839-23.151 18.469-6.195c31.052-9.485 119.449-29.934 148.596-33.947 18.544-2.712 33.04-1.871 45.356 2.293zm-276.363 77.126c5.971 18.475-6.551 88.55-24.088 131.737-6.591 16.961-8.339 18.049-26.183 18.055-33.805-.654-79.698-15.978-126.227-43.011-73.432-42.067-72.308-36.966-11.967-61.395 76.285-30.314 119.146-43.867 154.856-48.684 27.127-3.765 31.438-3.421 33.609 3.298zm88.955-12.224c51.762 5.873 189.834 46.557 193.09 56.635 3.665 11.337-138.228 74.147-254.458 112.418l-13.828 4.315-4.162-22.626c-5.384-26.405 10.314-119.134 23.431-138.642 9.93-14.751 17.736-16.582 55.927-12.1zm-409.525 116.6c-5.278 30.769-66.421 140.424-79.548 142.034-2.524.31-8.419-14.683-13.727-37.605-9.862-40.262-7.711-69.339 6.996-85.549 10.375-11.75 51.102-30.28 72.676-33.363l16.156-1.983-2.553 16.466zM337.794 162.046c37.241 1.543 72.689 13.782 94.116 32.981 17.816 16.149 47.655 61.382 43.459 66.262-4.061 5.3-29.842-4.633-127.35-48.112-86.016-38.777-94.848-43.368-84.555-47.25 11.672-4.488 30.254-5.458 74.33-3.881zm-141.273 27.373c17.318 4.86 32.707 19.998 62.373 63.069 23.244 32.945 74.791 116.113 73.315 118.041-2.585 3.373-81.81-25.76-139.95-51.368-36.165-16.081-83.046-36.086-103.876-45.317-32.962-14.291-66.657-38.969-61.993-45.653 1.243-1.026 20.548-9.506 44.027-18.062 47.748-18.081 102.05-26.926 126.104-20.71zM-557.46 307.245c29.722 10.759 58.103 23.866 62.624 28.113 4.658 4.668 14.945 12.136 22.903 17.272 8.463 5.073 17.876 13.086 20.884 17.519 5.471 7.186 3.256 10.077-11.64 17.58-25.152 13.127-100.346 35.449-175.013 52.904-34.76 7.757-70.9 16.12-79.58 18.495-14.604 3.538-15.885 2.822-15.57-5.948.479-24.506 45.341-114.7 71.764-145.008 21.721-25.366 37.41-25.544 103.628-.927zm854.581-97.427c60.529 24.878 146.116 67.2 160.925 78.916 14.304 11.778 11.502 22.599-12.857 43.05-17.27 14.779-75.96 39.442-83.512 35.566-1.921-1.074-28.308-38.872-58.653-84.043-30.344-45.171-57.274-84.648-59.234-87.464-7.21-9.156 4.935-5.844 53.331 13.975zm-341.882 69.448C-24.003 314.262 10.36 433.59 22.707 512.4c7.451 45.797 7.37 53.665-.204 54.594-17.67 2.168-110.19-38.867-211.498-94.103-108.858-59.111-147.195-81.91-149.502-89.049-3.799-11.757 132.404-74.305 210.258-96.517 61.553-17.593 77.29-19.087 83.478-8.059zm97.968 4.133c30.422 8.054 71.402 24.417 198.534 79.977 53.792 23.522 71.027 36.25 66.613 48.579-8.632 22.013-141.26 115.118-203.545 143.277l-26.568 11.991-7.198-10.904C68.102 537.389 12.72 359.523 7.305 320.025c-2.339-20.231-3.863-37.942-3.396-39.746 2.593-6.429 16.03-5.459 49.297 3.12zM-430.26 418.238c-.924 21.504-12.825 56.142-40.818 118.947a65433.904 65433.904 0 00-41.154 91.923c-20.859 47.524-37.211 52.149-77.213 22.57-44.759-32.925-136.179-133.902-144.185-158.676-1.357-4.199 24.881-13.967 99.939-36.709 116.17-35.207 118.19-35.455 167.26-42.785 36.215-4.88 36.72-4.941 36.171 4.73zm97.135 14.712c14.755 3.428 58.743 24.224 105.233 49.516 43.928 23.859 99.484 52.84 124.293 64.639 24.808 11.799 57.478 30.055 72.52 40.869 24.922 17.024 26.746 19.419 18.977 22.992-26.802 12.892-234.174 50.121-379.072 67.899l-114.606 14.061.977-13.217c1.543-16.341 20.421-61.876 69.816-170.525l37.538-83.621 19.63.647c10.505.021 30.444 3.25 44.694 6.74zm952.448-93.282c33.543 17.713 43.2 42.721 38.86 99.132-2.189 27.334-5.127 37.735-10.681 38.417-8.582 1.053-74.976-95.573-102.85-149.342l-5.548-10.669 31.53 6.609c17.551 3.958 39.216 10.904 48.689 15.853zm-89.264 9.643c21.773 23.521 62.828 83.967 79.915 118.977l10.862 22.241-76.565-29.023c-99.142-37.166-111.818-43.905-118.06-63.221-2.85-8.818-2.106-21.132 1.782-28.594 8.475-17.629 38.192-36.118 62.931-39.153 18.175-2.23 19.961-1.576 39.135 18.773zM-798.612 519.309c1.899 5.879-14.618 66.84-30.971 112.064-12.64 35.602-13.611 37.467-24.132 30.9-15.004-9.073-35.898-44.489-37.694-63.04-1.758-16.81 19.127-39.89 62.422-68.339 24.202-16.066 28.339-17.883 30.375-11.585zm53.87 7.361c39.981 34.384 134.12 132.408 141.53 147.215 7.816 16.066 7.952 16.486-9.778 21.717-45.151 12.961-148.893 8.664-186.845-8.071l-17.257-7.923 13.835-56.267c15.371-61.256 31.958-107.383 39.531-108.312 2.474-.303 11.073 5.19 18.984 11.641zm1130.789-72.381c.64.358 8.343 11.2 16.86 24.561 26.425 39.54 58.913 107.585 78.339 162.826 17.972 52.364 17.972 52.364 6.089 52.949-31.242.777-262.725-46.346-323.276-66.419-25.743-8.192-31.779-12.254-31.931-19.22-.341-15.674 26.625-44.302 61.722-65.634 19.365-11.543 51.802-32.985 72.877-47.357 43.258-30.191 73.225-43.035 99.554-42.773 10 .083 19.125.709 19.766 1.067zm77.842.491c45.817 11.84 105.803 35.039 131.328 50.679 39.385 24.417 39.552 37.929 1.922 111.521-24.529 47.538-35.778 59.831-54.631 59.962-10.505-.021-14.386-3.91-31.458-32.374-19.303-32.119-68.629-129.53-89.886-175.816-10.259-23.624-10.395-24.044 1.662-22.468 6.971.455 25.718 4.703 41.063 8.496zM-879.084 682.848c1.291 18.613 4.27 39.202 6.441 45.92 2.036 6.299 3.311 18.366 2.355 26.778-1.037 16.279-11.614 42.024-15.593 39.456-4.484-2.506-16.146-90.568-18.104-133.982l-1.61-39.092 11.682 13.409c10.634 11.792 12.669 18.09 14.829 47.511zm207.621 29.969c38.017 2.32 69.839 4.964 71.625 5.618 7.687 4.296-.452 48.949-14.253 77.709-23.949 50.958-86.605 120.199-100.969 111.484-3.067-1.37-18.51-24.795-35.039-51.579-29.916-48.716-53.284-104.783-52.903-127.967.006-11.351 1.385-11.957 31.678-15.673 17.115-2.1 62.348-1.975 99.861.408zm-137.655 67.965c30.593 50.815 69.345 133.371 61.56 130.397-3.436-.888-18.5-6.898-33.06-12.969-14.695-6.492-27.566-10.588-28.169-9.204-1.107 1.445 9.76 12.335 24.2 24.533 57.39 49.274 75.813 93.291 62.212 148.651l-7.803 31.08-11.448-14.31c-28.776-37.07-125.171-203.792-120.741-209.574.738-.963 8.756 1.109 17.958 5.218 22.615 9.886 22.909 5.921 2.297-10.759-26.785-21.16-32.506-33.991-26.278-61.821 7.026-31.858 24.014-65.373 31.701-61.078 3.203 1.79 15.737 19.46 27.571 39.836zM690.503 603.779c14.276 27.934 28.606 64.156 36.145 90.733l12.734 44.276-14.739 3.118c-20.021 4.639-73.863 2.077-99.703-4.793-18.327-4.737-22.442-7.724-26.242-19.481-5.021-15.537 5.861-67.948 20.965-100.796 13.161-29.117 36.478-62.537 42.341-60.637 2.427 1.012 15.037 22.166 28.499 47.58zM-5.685 653.397c-4.392 7.524-24.17 29.158-43.888 47.73-20.223 18.633-65.294 64.326-100.691 100.973-94.165 98.427-160.892 155.07-187.145 158.291-22.215 2.726-130.152-147.738-149.828-208.623-6.106-18.896-5.639-20.699 6.809-24.409 23.886-7.296 144.188-32.97 219.435-47.004 113.95-20.965 118.998-21.585 193.448-31.592l69.401-9.388-7.541 14.022zm52.23 52.962c9.438 73.056 16.67 277.347 12.905 348.531-1.706 32.08-3.28 35.33-16.603 39.58-18.235 5.29-55.612 3.33-86.674-5.08-33.218-8.59-151.893-47.72-193.883-63.96-33.061-12.97-35.623-14.4-37.305-27.729-2.339-20.231 8.02-38.527 39.258-68.553 14.745-14.469 68.014-67.279 117.787-117.913C-34.142 726.3 34.355 663.764 39.48 666.627c1.331.71 4.506 18.656 7.066 39.732zm138.272-43.157c46.616 7.814 171.219 34.435 221.347 46.62 43.896 10.767 102.715 38.474 106.379 49.812 2.985 9.237-23.222 72.697-47.767 113.688-20.62 35.271-56.506 78.527-65.594 79.642-6.563.805-16.112-7.628-65.793-57.411C272.2 834.522 126.485 669.486 122.55 657.309c-1.086-3.36 24.407-.812 62.267 5.893zm-74.033 29.164c11.509 11.248 47.798 50.451 80.748 87.444 32.815 36.573 73.935 82.604 91.827 102.237 38.113 41.598 57.378 71.976 64.217 101.259l5.134 20.764-47.138 26.3c-26.395 14.15-56.965 28.38-68.539 31.54-11.574 3.17-38.452 12.58-59.776 21.31-20.82 8.66-44.707 15.96-52.551 16.05-12.019.16-14.717-1.69-20.71-15.36-8.94-21.17-17.106-111.403-20.19-229.766-2.4-87.016.232-181.197 4.776-181.754 1.06-.13 11.335 9.086 22.202 19.976zm-627.713 81.38c32.896 28.705 108.839 133.764 130.367 180.889l10.9 23.983-23.165-.214c-12.659-.193-45.725-1.812-73.238-4.111-27.512-2.3-54.249-3.822-59.297-3.202-5.049.619-20.678-2.265-34.559-6.237-13.881-3.972-38.033-8.867-53.391-10.912-15.358-2.045-32.908-6.003-39.412-8.261-10.852-4.344-11.259-5.603-7.523-20.031 4.729-21.098 84.145-134.304 105.318-149.998 22.047-16.238 26.726-16.376 44-1.906zm1347.284-6.83c11.608 79.774 11.51 81.095-.399 57.237-15.226-30.873-27.373-83.079-24.506-108.314 1.369-18.503 6.988-33.599 11.337-31.513.776.778 7.028 37.991 13.568 82.59zm-145.641-10.507c19.668 2.389 40.753 5.913 46.887 8.653 11.493 4.702 11.628 5.122 9.07 32.938-7.473 69.455-47.14 177.348-56.427 151.858-1.629-5.039-20.193-38.122-41.592-73.476-21.398-35.355-44.425-75.748-51.058-89.777-11.035-24.402-10.802-25.304-.373-28.766 17.225-5.17 54.343-5.795 93.493-1.43zm-80.105 93.209c38.508 65.56 59.336 115.39 52.322 124.545-6.276 8.192-116.957 16.532-162.856 12.56-32.464-3.002-38.327-4.902-39.119-12.226-3.365-26.654 25.351-96.969 70.125-167.945 23.475-37.804 23.844-38.286 33.665-29.013 5.433 5.445 25.932 37.854 45.863 72.079zM-641.087 971.02c17.008 2.279 44.656 4.998 61.762 5.955 17.61.896 34.483 2.754 38.19 4.482 3.708 1.728 32.171 6.967 64.167 11.772 31.492 4.868 64.4 10.871 73.699 13.661l15.803 5.04-17.08 23.49c-34.566 45.71-115.956 108.96-145.239 112.55-12.622 1.55-34.938-23.65-72.382-81.05-28.152-43.25-57.344-99.48-51.791-100.162 1.515-.186 16.368 1.921 32.871 4.262zM801.266 808.464c35.92 39.685 39.789 66.276 14.24 96.041-13.833 15.666-73.23 54.385-85.852 55.934-7.068.867-3.311-18.366 13.961-73.744 18.476-58.145 32.766-93.513 38.32-94.194 2.019-.248 11.161 6.925 19.331 15.963zM-646.96 1061.67c41.364 63.03 56.28 91.32 49.212 92.19-2.524.31-15.086-1.21-27.784-3.14-26.54-4.17-27.572.76-2.394 12.08 9.842 4.46 24.884 15.28 34.064 24.19 8.539 8.56 22.94 19.02 32.142 23.13 15.841 6.78 39.747 35.28 45.989 54.6 2.85 8.82 1.976 9.36-8.974 6.34-6.367-1.84-17.393-8.35-24.244-14.93-7.355-6.52-38.933-32.76-71.52-58.89-31.947-25.76-57.759-48.79-56.923-51.08.972-1.86-4.673-11.21-11.833-20.37-21.48-27.49-26.555-51.31-20.006-99.26l5.382-43.444 11.546 12.989c5.977 7.125 26.485 36.475 45.343 65.595zm298.21-9.52c17.756 19.21 47.155 90.69 65.506 160.47 13.081 48.6 16.256 66.54 11.207 67.16-19.69 2.42-217.177-75.94-235.031-93.83-10.732-10.47-11.275-12.15-4.841-24.73 8.008-15.82 16.07-23.36 79.707-76.57 52.313-44.4 67.248-50.16 83.452-32.5zm110.658-3.54c28.327 4.82 165.058 47.85 222.617 70.04l34.71 13.2-10.2 13.92c-19.898 27.76-197.421 128.12-234.277 132.64l-11.107 1.36-40.308-113.36c-21.734-62.38-39.336-115.22-37.995-117.57 2.274-5.96 42.642-6.11 76.56-.23zm877.971-46.16c11.048 1.7 21.123 5.26 22.073 8.2 5.971 18.48-48.431 158.74-67.449 174.6-8.333 6.7-9.983 6.47-23.918-5.79-23.582-19.37-82.029-88.16-100.247-116.92-18.217-28.76-18.407-37.47.16-44.99 17.187-6.91 145.722-18.311 169.381-15.1zm-274.441 57.24c-6.338 51.86-45.224 189.78-63.553 225.64-4.121 8.36-5.636 8.55-19.283 3.67-38.011-13.67-126.218-94.96-143.616-132.55-9.271-18.94-8.94-21.17.968-31.11 6.45-6.03 29.213-18.43 51.042-27.22 21.693-9.21 47.252-21.08 56.362-27 15.733-9.78 86.948-34.67 110.405-38.42l11.477-1.85-3.802 28.84zm70.673-5.61c22.767 16.85 32.723 26.54 62.508 63.49 33.162 40.89 51.011 70.13 55.135 91.02l3.273 16.62-49.31 19.59c-60.107 23.52-121.165 44.11-156.159 52.77l-26.313 6.28 15.643-60.41c25.585-97.87 63.113-199.39 74.725-200.82 1.969-.24 11.577 5.13 20.498 11.46zm294.078 70.44c1.986 27.25-9.051 43.45-38.514 56.23-27.947 12.6-67.485 21.82-69.113 16.78-2.035-6.3 39.917-102.25 60.032-137.46l18.774-32.86 13.591 37.18c7.659 20.46 14.324 47.58 15.23 60.13zM-380.81 1263.01c95.647 39.34 98.383 42.93 33.276 46.12-53.359 2.18-107.178-5.19-128.589-17.84-18.847-11.22-37.63-36.86-46.314-63.73l-5.7-17.64 31.335 9.26c17.266 4.86 69.332 24.67 115.992 43.83zm426.49-55.82c1.986 27.26-1.326 49.49-13.016 88.03-15.094 50.75-15.832 51.71-33.6 55.2-39.945 7.96-128.362-7.39-176.698-30.27l-21.101-10.07 9.17-8.98c19.484-17.67 67.383-49.74 113.376-76.34 48.246-27.75 112.008-57.83 116.997-55.39 1.416 1.14 3.68 17.88 4.873 37.82zm83.712-8.96c55.029 33.85 129.61 105.46 127.465 123.18-1.325 8.9-50.01 22.29-127.451 34.41l-71.382 11.38-6.378-19.74c-13.299-41.15 16.63-166.18 40.36-169.09 2.019-.25 18.538 8.64 37.386 19.86zm-248.056 156.59c28.772 7.82 93.573 31.31 94.659 34.66 1.493 4.62-30.456 19.46-55.76 25.62-12.583 3.29-32.04 4.8-43.825 4.06-17.378-1.79-24.424-5.73-40.183-20.39-10.732-10.47-23.461-25.49-27.826-34.12-4.869-8.57-11.155-18.28-13.755-21.45-3.512-4.38 3.827-4.4 31.144.54 19.99 3.22 45.288 8.41 55.546 11.08zm377.252-.44c-4.941 17.19-41.506 58.35-62.618 70.98l-21.618 12.69-25.938-5.55c-14.62-3-38.614-12.28-53.716-20.04-26.128-14.25-26.904-15.03-16.882-19.75 16.41-7.69 58.804-19.44 119.508-33 30.857-6.84 58.316-12.83 60.2-13.5 2.019-.24 2.6 3.18 1.064 8.17zm204.58-8.51l32.735 3.84-37.404 14.19c-37.035 13.71-184.997 59.37-225.778 69.61-19.885 5.06-20.895 5.18-16.91-3.6 9.311-19.91 53.6-55.03 80.983-64.5 15.575-5.41 32.025-11.36 37.171-13.3 18.333-6.61 96.838-10.57 129.203-6.24zM67.88 1418.81c27.995 7.04 53.873 15.65 56.609 19.25 3.241 3.53 3.686 6.53 1.667 6.78-2.02.25-52.056-1.91-111.723-4.63-110.343-5.23-117.856-7.37-74.22-20.14 47.824-14.6 72.821-15.05 127.667-1.26z" stroke="#fff" stroke-miterlimit="10"/></svg>