<svg width="1348" height="1170" viewBox="0 0 1348 1170" fill="none" xmlns="http://www.w3.org/2000/svg">
<path d="M676.251 8.00639C650.016 21.6855 490.68 51.0456 432.424 52.7138C393.072 53.7147 382.269 57.0511 375.325 70.063C373.01 74.4003 366.066 80.7394 359.507 83.7421C345.232 90.7485 344.846 94.4185 357.578 94.4185C364.908 94.4185 368.38 97.0876 371.467 103.427L375.711 112.769L382.269 101.425C391.529 86.4112 403.488 81.4067 430.88 81.073C458.658 81.073 544.692 100.758 535.433 105.095C515.757 114.77 383.812 144.464 361.436 144.464C357.578 144.464 355.649 141.128 355.649 134.789C355.649 122.444 349.476 118.774 344.075 127.782C341.76 131.452 337.13 134.455 333.272 134.455C329.8 134.455 317.069 140.794 305.495 148.468C286.976 160.479 259.198 171.155 246.467 171.155C244.152 171.155 246.853 166.818 252.64 161.813C268.458 147.467 264.985 146.132 241.837 157.476C229.877 163.148 214.059 169.153 206.343 170.488C192.84 172.823 191.297 174.158 185.124 192.842C181.266 203.852 177.022 215.529 175.865 218.865C174.322 223.203 175.865 224.204 182.809 223.87C191.297 222.869 191.683 223.87 190.525 239.551C189.754 250.561 183.195 267.243 172.007 288.596C162.748 306.612 155.032 322.293 155.032 323.961C155.032 328.966 114.522 354.322 95.2323 361.329L77.8711 367.668L84.044 357.659C87.1304 351.987 96.0039 339.309 103.334 329.299C119.538 307.613 121.467 294.935 106.035 312.284C99.8619 318.623 89.4452 332.302 82.115 342.311C74.7847 352.654 62.439 364.999 54.723 370.003L40.4483 379.345L38.1335 423.052C35.8187 471.095 24.6304 522.476 9.96991 550.835C-1.98997 574.189 -1.98997 589.537 9.96991 604.55C24.2446 622.567 45.0779 716.319 52.794 795.391C55.1088 820.08 55.4946 820.748 68.6119 826.086C75.9421 829.088 81.7292 834.093 81.7292 836.762C81.7292 839.765 88.2878 848.106 96.3897 856.113C123.01 881.469 169.692 944.193 180.88 970.217C191.683 994.906 191.683 995.24 210.973 1000.58C221.775 1003.58 243.766 1012.59 260.356 1020.93C277.331 1028.94 291.992 1034.94 293.149 1033.61C295.85 1031.27 285.819 1023.6 258.427 1007.92C248.01 1002.25 240.294 997.242 241.066 996.574C241.451 996.241 264.6 999.244 291.992 1003.25C352.177 1011.92 371.081 1019.6 389.6 1043.62C401.945 1059.97 411.976 1084.32 408.118 1087.66C406.961 1088.66 396.158 1083.99 383.812 1077.65C329.414 1049.29 308.195 1045.62 352.562 1071.98C366.066 1079.98 388.442 1094.33 402.331 1104.34C427.022 1121.35 428.566 1122.02 452.485 1122.02C491.451 1122.36 601.791 1146.38 638.442 1162.73L653.103 1169.07L670.464 1160.39C700.171 1145.38 870.695 1115.35 927.408 1115.35C953.257 1115.35 953.257 1115.35 965.988 1101.67C972.933 1094 991.837 1079.32 1007.66 1069.31C1023.47 1058.96 1034.28 1050.29 1031.57 1049.29C1028.87 1048.62 1018.07 1053.63 1007.66 1060.3C978.72 1078.65 943.998 1086.66 903.488 1084.32C867.223 1082.32 813.597 1069.64 822.856 1065.3C830.572 1061.3 984.507 1027.6 986.436 1029.27C987.593 1029.94 986.436 1035.61 984.507 1041.95C979.877 1055.96 982.192 1058.3 993.38 1049.62C998.01 1045.95 1009.58 1039.61 1019.23 1035.61C1028.87 1031.61 1040.06 1024.6 1044.31 1020.26C1048.55 1015.93 1063.6 1008.59 1078.26 1003.91C1099.86 996.575 1104.11 996.241 1104.11 1000.58C1104.11 1003.25 1102.56 1004.58 1100.25 1003.58C1098.32 1002.58 1096.39 1004.58 1096.39 1008.25C1096.39 1015.26 1102.56 1020.6 1104.88 1015.59C1105.26 1013.92 1116.45 1008.25 1129.57 1002.58C1157.73 990.235 1158.89 989.234 1172.78 959.874C1178.95 946.863 1191.68 925.176 1201.71 911.163C1211.74 897.484 1219.85 884.472 1219.85 881.803C1219.85 873.796 1209.43 884.806 1191.3 911.163C1181.65 925.51 1168.53 942.192 1161.98 948.531L1150.02 960.208L1151.95 928.512C1153.1 911.163 1156.58 889.143 1160.05 879.468C1171.24 847.772 1203.26 820.08 1245.7 805.4L1265.76 798.727L1256.11 817.411C1250.71 827.42 1247.24 836.762 1248.4 837.429C1249.17 838.43 1258.43 829.756 1268.84 818.412C1278.87 807.068 1291.61 795.725 1297.39 793.389C1307.04 789.052 1307.42 788.051 1305.49 762.361C1303.18 724.66 1310.12 686.292 1329.8 631.575C1339.45 604.884 1347.16 580.862 1347.16 578.193C1347.16 575.524 1343.69 569.518 1339.45 564.847C1335.2 560.177 1331.73 551.168 1331.73 543.828C1331.73 528.481 1327.49 528.147 1318.23 542.827L1310.9 554.171L1293.92 537.823C1274.24 518.805 1266.53 518.472 1284.28 537.489C1320.16 575.858 1318.23 609.221 1279.26 637.247L1263.44 648.257L1254.95 592.206C1249.94 561.511 1245.31 531.484 1244.15 525.478C1242.22 515.136 1242.22 514.802 1256.5 514.802C1266.14 514.802 1270 513.467 1268.46 510.465C1251.48 475.433 1250.71 430.392 1266.14 398.696C1271.16 389.02 1275.79 381.68 1276.56 382.681C1280.03 385.684 1289.68 421.383 1298.94 465.757C1304.34 491.447 1311.28 516.804 1314.37 522.476L1319.38 533.152L1319.77 522.142C1320.16 516.136 1315.91 494.784 1310.51 474.432C1299.71 433.394 1293.15 391.356 1293.15 365.666C1293.15 350.319 1291.99 347.316 1282.73 342.311C1276.56 339.309 1267.3 331.968 1261.9 326.63C1251.87 316.621 1251.87 316.621 1249.17 323.961C1247.62 327.965 1245.31 331.301 1243.77 331.301C1238.75 330.968 1213.29 309.615 1204.41 297.937C1199.4 291.598 1189.75 280.922 1182.81 274.583C1171.24 263.906 1158.12 237.883 1158.12 226.205C1158.12 223.203 1160.05 218.198 1162.75 214.862C1168.92 206.187 1159.66 178.829 1148.86 172.823C1134.97 165.483 1072.86 143.463 1070.93 145.465C1069.77 146.466 1077.49 153.139 1088.67 160.145C1104.11 170.154 1106.81 173.157 1101.02 173.824C1087.9 175.492 1043.15 164.816 1018.07 154.14C976.019 135.79 964.059 125.113 949.399 92.0831C945.927 83.7421 945.927 83.4085 959.43 85.4103C966.76 86.4112 972.933 86.4112 972.933 85.7439C972.933 80.4057 964.059 71.0639 959.43 71.0639C956.343 71.0639 949.399 65.0584 943.998 57.7184C935.124 45.3738 932.809 44.3729 916.992 44.3729C866.451 44.3729 766.914 27.691 725.634 12.6773C708.658 6.3382 693.226 1 692.069 1C690.564 1 683.581 4.00274 676.251 8.00639ZM651.984 38.3674C646.583 44.3729 629.993 56.7175 614.561 66.0593L586.397 82.7412H535.857C496.505 82.7412 479.144 81.4067 460.626 76.4021C447.508 72.7321 437.863 68.7284 439.407 67.7275C445.194 63.0566 481.459 54.7157 517.725 49.3774C537.786 46.3747 559.777 42.7047 565.95 41.0365C577.138 38.0338 639.252 29.0256 654.299 28.0246C660.819 27.691 660.433 28.6919 651.984 38.3674ZM780.803 36.0319C808.967 40.3692 846.775 47.7093 864.908 52.0466L897.316 59.7202L874.168 65.3921C844.075 72.7321 831.343 72.3984 813.211 64.7248C805.109 61.0548 786.205 55.7166 771.158 52.7138C745.309 47.7093 722.161 37.3665 722.161 30.6937C722.161 26.6901 722.547 26.6901 780.803 36.0319ZM724.862 43.0383C741.451 51.3793 763.828 73.0657 759.584 76.7357C756.883 78.7376 638.056 90.7485 616.837 91.0821H606.035L622.624 73.0657C631.884 63.0566 642.686 53.3811 646.93 51.3793C651.174 49.3775 660.819 43.7056 668.149 39.0347C683.967 29.0256 699.013 30.0265 724.862 43.0383ZM928.566 80.0721C941.297 91.4158 947.084 101.091 954.8 123.445L960.973 141.128L948.627 136.457C941.683 134.121 925.093 127.782 911.205 122.778C871.081 108.098 826.328 87.4121 828.643 84.0758C832.501 78.4039 867.223 71.3975 892.3 71.3975C915.063 71.0639 918.921 72.0648 928.566 80.0721ZM773.859 100.758C780.418 104.094 798.936 108.765 814.754 111.1C859.893 117.106 870.695 120.442 910.047 138.459C935.896 150.47 945.155 156.141 941.297 158.143C932.809 163.148 899.245 170.822 871.853 174.158C838.674 178.162 819.769 174.492 805.88 161.146L794.692 150.47L785.819 157.81C777.331 164.482 773.859 165.15 752.254 163.482C732.192 161.813 717.918 157.142 668.535 135.79L608.735 109.766L623.782 106.763C648.859 102.426 718.689 95.0858 741.066 94.7522C755.34 94.4185 765.796 96.4203 773.859 100.758ZM552.408 133.788C552.408 148.468 526.559 200.849 503.411 232.211C494.538 244.555 492.995 245.223 479.877 243.555C455.186 239.884 425.093 223.87 397.316 198.847C353.334 159.811 352.948 163.815 403.103 150.803C466.374 134.789 501.096 128.45 528.488 128.116C549.322 127.782 552.408 128.45 552.408 133.788ZM620.695 132.787C657.346 142.129 749.167 186.169 749.167 194.176C749.167 203.184 629.955 237.883 535.433 256.233L524.245 258.235L526.559 240.552C528.874 219.866 562.439 150.47 576.714 136.79C587.516 126.448 593.689 125.78 620.695 132.787ZM291.992 183.5C280.803 206.521 209.816 284.592 199.785 284.592C197.856 284.592 197.084 272.581 198.627 254.565C200.942 222.869 209.43 200.849 224.09 189.839C234.507 181.832 268.843 171.489 285.433 171.155H297.779L291.992 183.5ZM1079.03 178.162C1106.03 182.832 1129.18 195.511 1140.37 212.193C1149.63 226.205 1160.82 263.573 1156.57 266.909C1152.33 270.579 1135.74 260.57 1074.4 218.198C1020.39 180.497 1014.99 176.16 1023.47 174.158C1033.12 171.822 1047.01 172.823 1079.03 178.162ZM968.689 185.835C980.263 191.173 987.979 204.185 999.553 239.884C1008.81 267.243 1026.95 335.638 1025.4 336.973C1022.7 339.308 971.39 309.615 934.739 284.592C911.976 268.911 882.269 249.226 869.152 240.218C848.319 226.205 829.414 204.185 834.43 199.514C835.587 198.847 851.791 194.176 871.081 189.839C910.472 180.497 952.485 178.829 968.689 185.835ZM386.513 205.186C405.803 216.196 423.55 228.874 425.865 232.544C428.18 236.548 433.967 243.221 438.596 247.892C443.612 252.563 448.627 259.569 449.785 263.239C452.1 269.245 449.785 271.246 437.053 275.584C415.448 283.257 354.877 293.267 295.85 299.606C268.458 302.275 239.908 305.277 232.964 306.278C221.39 307.613 220.618 306.946 222.933 300.273C229.106 281.589 283.504 216.864 310.124 196.178C332.115 178.829 343.689 180.163 386.513 205.186ZM1037.79 210.858C1076.37 235.547 1129.22 275.917 1137.32 286.26C1145.04 296.603 1140.41 304.61 1117.65 317.956C1101.44 327.631 1052.45 340.977 1047.82 337.307C1046.66 336.306 1036.24 304.944 1024.67 267.576C1013.09 230.209 1002.68 197.513 1001.91 195.177C998.782 187.503 1006.92 191.173 1037.79 210.858ZM770.001 231.877C776.945 260.57 773.859 354.989 764.214 416.379C758.813 452.078 756.884 458.083 751.096 458.083C737.593 458.083 679.337 418.047 617.995 366.333C552.022 310.949 529.26 289.93 529.26 284.258C529.26 274.916 644.229 239.884 706.729 230.209C756.15 222.535 768.072 222.869 770.001 231.877ZM841.027 244.222C861.475 253.23 887.709 269.578 967.956 323.961C1001.91 346.982 1011.55 358.326 1005.38 367.334C993.805 383.349 874.206 442.069 821.737 457.75L799.36 464.423L796.66 455.414C791.644 439.733 793.188 298.605 798.589 267.91C801.675 252.229 804.762 238.55 805.533 237.215C808.967 232.544 818.612 234.546 841.027 244.222ZM453.643 301.941C447.856 318.289 430.88 343.646 395.387 389.021C374.939 415.044 351.405 445.072 343.303 455.414C316.683 489.779 303.566 491.781 281.189 465.423C256.112 436.063 212.902 350.319 212.902 330.634C212.902 327.298 234.507 322.293 295.078 311.95C388.828 295.936 390.371 295.936 428.18 294.935C455.958 294.601 456.343 294.601 453.643 301.941ZM521.544 322.293C531.575 326.297 558.967 346.315 587.13 370.003C613.751 392.357 647.701 419.715 663.133 431.059C678.566 442.402 698.242 459.418 706.729 469.094C721.004 484.441 721.776 486.443 715.217 488.445C692.455 495.785 531.189 504.793 420.464 504.793H332.887L336.745 494.784C341.76 482.439 366.451 449.409 428.566 371.004L476.019 310.616L490.294 312.951C498.01 313.952 511.899 318.289 521.544 322.293ZM1243.77 340.309C1264.21 356.991 1265.37 377.01 1248.78 419.715C1240.68 440.401 1236.05 448.074 1231.81 448.074C1225.25 448.074 1199.4 368.001 1191.68 324.295L1190.14 315.62L1211.74 323.628C1223.7 328.298 1237.98 335.638 1243.77 340.309ZM1175.86 339.309C1186.28 359.327 1202.1 409.372 1206.34 437.732L1209.04 455.748L1159.66 426.388C1095.62 388.687 1087.9 382.348 1087.9 367C1087.9 359.994 1091.37 350.652 1096 345.314C1106.42 332.636 1132.66 321.292 1151.56 321.292C1165.45 321.292 1166.61 321.959 1175.86 339.309ZM158.89 344.647C158.89 349.318 132.269 394.359 109.507 427.389C91.76 453.413 90.6026 454.747 84.4298 448.742C75.5563 440.401 68.6119 411.374 71.6983 397.028C74.3989 384.016 95.2323 368.335 133.812 350.652C155.417 340.643 158.89 339.642 158.89 344.647ZM196.737 355.323C217.956 385.35 263.866 469.093 265.796 481.104C267.725 494.116 267.725 494.45 253.45 496.785C217.184 502.457 141.953 489.445 118.033 473.097L107.231 465.423L130.765 423.719C156.613 378.344 179.762 344.647 185.549 344.647C187.439 344.647 192.454 349.651 196.737 355.323ZM1045.08 406.036C1045.46 406.37 1048.55 415.378 1051.64 426.388C1061.67 459.084 1069.38 514.135 1070.54 558.175C1071.31 599.879 1071.31 599.879 1062.44 599.212C1039.29 596.877 880.34 539.157 840.603 518.138C823.627 509.464 820.155 505.794 821.698 500.455C825.171 488.444 851.791 469.094 882.655 456.082C899.63 449.075 928.566 435.73 947.47 426.722C986.436 407.704 1011.51 400.698 1030.8 403.367C1038.13 404.368 1044.69 405.702 1045.08 406.036ZM1102.18 413.71C1133.04 427.055 1171.62 450.41 1186.67 464.756C1209.82 487.11 1206.73 497.453 1161.59 550.167C1132.27 584.199 1121.08 592.539 1107.19 590.871C1099.48 589.87 1097.55 586.534 1091.76 563.179C1085.2 536.822 1072.08 457.75 1067.45 420.382C1065.53 401.365 1065.53 401.031 1074.01 403.367C1079.03 404.368 1091.8 409.372 1102.18 413.71ZM60.8958 462.087C57.4236 476.434 54.723 492.448 54.723 497.786C54.723 502.791 52.794 512.133 50.0934 518.472C45.4637 530.817 31.5748 549.5 29.26 547.165C26.5594 544.829 38.9051 476.434 47.7786 443.07L55.8804 413.042L61.2816 424.386C66.2971 434.395 66.2971 439.4 60.8958 462.087ZM206.382 504.459C233.774 509.797 256.536 514.802 257.694 515.469C262.323 519.473 245.734 552.837 228.758 573.522C199.052 610.222 136.552 657.265 128.064 649.258C126.135 647.923 120.348 628.572 114.561 606.552C104.144 566.516 100.286 521.475 106.073 503.792C108.774 495.117 109.931 494.784 133.079 494.784C146.158 494.784 179.376 499.121 206.382 504.459ZM89.0594 543.495C99.4761 585.199 108.35 651.927 103.334 648.924C101.019 647.923 91.3742 641.918 82.115 635.912C72.8557 629.573 64.3681 625.236 63.5964 626.237C62.439 627.238 67.8403 636.58 75.5563 647.256C106.035 690.295 109.121 725.661 85.973 766.698L72.8557 789.719L67.8403 777.708C55.4946 746.68 24.2446 610.222 28.8742 606.219C29.6458 605.551 35.0471 607.887 40.8341 611.89C55.1088 621.566 56.2662 618.563 45.0779 603.883C30.4174 585.199 29.26 574.857 40.4483 554.171C53.1798 530.483 73.6273 506.461 78.2569 510.465C80.186 512.133 85.2014 526.813 89.0594 543.495ZM1233.35 548.833C1237.21 571.52 1239.14 600.547 1238.36 621.566L1237.21 656.598L1225.63 657.599C1209.82 659.267 1170.85 652.261 1153.49 644.587C1141.14 639.249 1138.83 636.58 1138.83 627.238C1138.83 614.893 1159.28 575.858 1178.18 552.169C1194.77 531.15 1219.85 507.795 1223.7 509.797C1225.25 510.798 1229.49 528.147 1233.35 548.833ZM709.854 521.475C704.839 526.813 685.163 541.493 666.258 553.837C646.968 566.182 602.987 596.877 568.265 621.566C475.672 687.96 413.172 724.994 393.11 724.994C376.135 724.994 332.539 599.879 332.539 551.502C332.539 536.488 333.311 535.154 343.342 533.486C362.632 530.149 457.154 521.808 515.796 518.138C604.53 512.8 608.388 512.8 665.487 512.133L718.728 511.465L709.854 521.475ZM735.664 566.849C725.248 623.568 682.038 780.377 662.362 834.427C653.488 858.782 651.559 861.118 640.757 863.119C626.097 865.455 599.09 860.45 578.257 851.109C555.88 841.433 477.948 800.396 450.942 784.047C429.723 771.035 428.18 769.701 430.109 759.358C433.195 743.677 445.155 730.665 475.248 710.647C489.522 700.972 541.22 665.606 589.831 631.575C671.621 574.523 736.822 533.152 739.908 535.821C740.718 536.488 738.789 550.501 735.664 566.849ZM847.547 546.831C879.955 557.174 965.217 589.203 999.167 603.216C1028.87 615.56 1065.53 642.251 1065.53 651.26C1065.53 658.6 1031.19 704.642 1003.41 733.668C979.877 758.691 943.226 788.385 936.282 788.385C931.266 788.385 926.251 781.045 901.559 738.339C871.081 685.958 803.18 546.164 803.18 536.488C803.18 533.819 821.313 538.157 847.547 546.831ZM786.205 562.178C791.992 571.854 809.353 605.218 824.785 636.58C840.217 667.608 859.507 706.643 867.995 723.325C886.127 758.691 893.072 783.714 891.143 806.735L889.985 823.083L849.09 838.764C826.328 847.105 800.479 855.112 791.22 856.447C781.961 857.781 759.97 862.452 742.223 867.123C724.862 871.794 705.572 875.13 699.785 874.463C690.911 873.462 689.368 871.794 688.211 860.784C686.667 843.769 702.1 774.038 727.948 683.289C746.853 616.561 771.158 544.829 774.63 544.829C775.441 544.829 780.803 552.837 786.205 562.178ZM305.495 565.515C322.856 590.538 353.72 677.951 358.35 715.985L360.664 735.336L343.689 733.001C334.43 731.666 310.51 727.329 290.834 722.992C271.158 718.654 251.868 714.984 248.01 714.984C244.152 714.984 233.35 711.314 224.09 706.977C214.831 702.64 198.242 696.634 187.439 693.632C176.637 690.629 164.677 685.958 160.433 683.622C153.488 679.285 153.488 678.284 159.661 667.608C168.149 651.927 253.411 572.855 272.701 562.846C292.763 552.503 296.235 552.837 305.495 565.515ZM1297.39 686.625C1286.98 748.682 1286.59 749.683 1283.5 730.332C1279.65 705.309 1283.12 664.271 1291.22 645.254C1296.62 631.241 1304.34 620.231 1307.04 622.233C1307.42 622.9 1303.18 651.927 1297.39 686.625ZM1192.84 664.939C1206.73 668.609 1221.39 673.28 1225.25 675.949C1232.58 680.62 1232.58 680.953 1224.09 701.973C1202.1 754.354 1147.32 833.092 1146.54 812.74C1146.54 808.737 1140.76 781.712 1133.43 752.685C1126.1 723.659 1118.77 690.629 1117.22 679.285C1114.91 659.601 1115.29 658.933 1123.78 657.265C1137.67 654.93 1165.1 657.932 1192.84 664.939ZM1111.82 728.664C1124.55 782.379 1128.03 822.416 1120.7 828.755C1114.14 834.427 1030.8 830.423 998.01 823.083C974.862 817.745 971.004 815.743 972.161 810.071C976.019 789.386 1013.83 738.339 1063.6 688.293C1089.83 661.602 1090.22 661.269 1095.23 669.276C1097.93 673.947 1105.3 700.638 1111.82 728.664ZM167.377 704.642C179.337 707.978 199.013 712.649 211.359 714.984C224.09 717.32 236.05 720.323 238.365 721.991C240.68 723.659 260.356 730.332 282.732 737.005C304.723 743.677 327.485 751.351 333.658 754.354L344.075 759.692L325.942 776.04C289.677 807.736 214.831 848.439 192.454 848.439C182.809 848.439 172.393 827.087 158.504 779.71C148.087 744.011 139.985 698.303 144.229 698.303C145.387 698.303 155.803 701.305 167.377 704.642ZM1266.14 715.652C1283.12 749.349 1279.65 770.035 1253.8 790.387C1239.91 801.063 1187.05 825.085 1177.41 825.085C1172.01 825.085 1179.34 810.738 1205.19 770.035C1232.58 727.329 1251.48 701.639 1255.73 701.639C1257.27 701.639 1262.28 707.978 1266.14 715.652ZM141.529 773.371C156.961 825.418 161.204 848.439 155.803 848.439C153.874 848.439 145.001 846.104 136.127 843.435C117.609 837.763 115.68 841.433 131.498 852.443C137.671 856.78 146.158 866.456 150.788 874.13C155.032 881.47 163.133 890.811 168.921 894.815C178.951 901.488 189.754 925.51 189.754 940.857C189.754 947.863 188.982 948.197 181.652 944.861C177.408 942.859 170.85 936.853 167.377 931.182C163.519 925.51 146.544 902.489 128.797 879.468C111.436 856.78 97.9329 836.762 99.0903 835.094C100.248 833.759 98.3187 826.086 95.2323 818.412C85.973 795.391 87.902 776.707 104.106 740.674L118.38 707.978L123.782 718.988C126.482 724.994 134.584 749.349 141.529 773.371ZM362.979 794.057C371.467 810.405 376.096 867.79 373.01 922.841C371.081 961.209 369.152 975.222 365.294 975.222C350.248 975.222 223.704 896.817 214.831 881.47C209.43 872.461 209.43 871.127 217.146 862.119C226.791 850.775 234.507 845.77 293.921 811.072C342.917 782.046 355.263 779.043 362.979 794.057ZM445.155 801.73C464.831 808.069 555.109 853.778 592.146 876.131L614.522 889.477L603.72 899.152C582.501 918.503 428.18 978.558 400.016 978.558H391.529L388.828 888.142C387.671 838.43 387.285 796.392 388.828 794.724C391.914 790.386 421.621 794.056 445.155 801.73ZM1101.44 848.773C1109.16 851.109 1115.72 854.779 1115.72 857.114C1115.72 871.794 1042.42 973.887 1024.67 984.23C1016.95 988.567 1015.8 988.234 1008.47 977.557C995.734 960.542 969.113 902.489 962.555 878.8C955.996 855.112 957.925 848.439 973.357 844.436C987.632 840.766 1084.82 844.102 1101.44 848.773ZM886.127 866.789C869.152 905.825 807.809 1007.58 785.819 1033.27C780.803 1039.28 779.646 1039.28 770.772 1034.28C746.081 1020.26 700.556 949.865 696.698 919.504C694.384 904.157 695.155 902.489 704.8 895.816C710.973 891.812 730.649 884.472 748.782 879.801C766.914 874.797 788.519 868.124 796.621 864.454C810.51 858.449 868.766 846.104 886.899 845.437L895.772 845.103L886.127 866.789ZM939.407 869.125C952.138 884.139 957.154 892.48 970.271 923.508C984.931 957.873 991.104 981.894 989.175 998.243L987.632 1011.25L946.737 1021.6C896.968 1033.94 847.2 1043.95 819.422 1047.29L798.589 1049.62L824.438 1004.92C866.49 932.516 918.188 858.449 927.061 858.449C928.566 858.449 934.353 863.453 939.407 869.125ZM1138.83 950.533C1133.81 971.552 1121.85 982.895 1097.16 989.902C1073.63 996.908 1042.38 1000.24 1042.38 996.241C1042.38 991.236 1096 921.84 1119.15 896.817L1140.76 873.462L1141.91 903.156C1142.69 919.504 1141.14 940.857 1138.83 950.533ZM289.329 952.201C350.286 991.236 351.444 994.239 302.833 990.569C263.095 987.233 225.286 976.556 212.555 964.879C201.367 954.536 193.65 933.183 193.65 911.831V897.818L214.484 907.827C226.019 913.165 259.584 933.183 289.329 952.201ZM616.066 949.532C611.05 970.551 603.334 987.233 585.587 1015.59C562.439 1052.96 561.667 1053.63 547.779 1054.63C516.529 1056.96 455.186 1036.94 425.093 1014.92L411.976 1005.25L420.85 999.244C439.368 987.566 482.192 967.548 522.316 951.533C564.368 934.852 618.38 917.836 621.467 920.172C622.239 921.172 619.924 934.184 616.066 949.532ZM679.723 950.533C712.13 981.561 749.939 1043.28 744.152 1056.63C741.066 1063.3 702.1 1068.97 642.3 1070.98L587.13 1072.98V1057.3C587.13 1024.6 638.828 931.849 656.961 931.849C658.504 931.849 668.535 940.19 679.723 950.533ZM460.201 1046.95C479.492 1055.63 521.544 1079.65 521.544 1082.32C521.544 1085.99 494.538 1094.33 474.476 1096.67C464.445 1098 449.785 1097.33 441.297 1095.66C428.951 1092.66 424.708 1088.99 416.606 1076.31C411.204 1067.31 405.417 1054.63 404.26 1047.62C402.717 1040.61 400.402 1032.61 399.245 1029.94C397.701 1026.27 403.103 1026.94 422.007 1033.27C435.934 1037.61 453.296 1043.95 460.201 1046.95ZM737.593 1081.99C729.877 1094.66 693.226 1122.69 674.708 1130.36L655.803 1138.04L638.056 1131.36C628.025 1127.69 612.593 1118.35 603.334 1111.01C587.516 1097.67 587.13 1097 595.618 1094.33C609.507 1089.99 643.458 1084.99 691.297 1080.32C715.603 1077.98 737.208 1075.98 738.751 1075.65C740.294 1075.65 739.908 1078.32 737.593 1081.99ZM889.985 1094.66L913.134 1100.67L882.269 1108.01C851.791 1115.02 732.192 1136.04 699.785 1140.04C683.967 1142.04 683.195 1142.04 688.211 1135.7C699.785 1121.35 740.68 1098.67 763.056 1094C775.788 1091.33 789.291 1088.32 793.535 1087.32C808.581 1083.99 867.223 1088.32 889.985 1094.66ZM582.115 1113.35C601.019 1121.35 617.995 1130.36 619.152 1133.37C620.695 1136.37 620.309 1138.7 618.766 1138.7C617.223 1138.7 580.958 1132.36 537.748 1124.69C457.887 1110.34 452.871 1108.01 487.979 1102.34C526.598 1095.66 545.078 1097.67 582.115 1113.35Z" stroke="white" stroke-opacity="0.5" stroke-miterlimit="10"/>
</svg>
