<svg width="563" height="766" viewBox="0 0 563 766" fill="none" xmlns="http://www.w3.org/2000/svg">
<path d="M411.82 5.58269C395.859 14.5298 298.92 33.7335 263.477 34.8246C239.535 35.4793 232.963 37.6615 228.738 46.1722C227.33 49.0091 223.105 53.1554 219.114 55.1194C210.43 59.7021 210.195 62.1025 217.941 62.1025C222.4 62.1025 224.513 63.8483 226.391 67.9946L228.973 74.1048L232.963 66.6852C238.596 56.8652 245.873 53.5918 262.538 53.3736C279.438 53.3736 331.78 66.2488 326.147 69.0857C314.176 75.4142 233.902 94.836 220.288 94.836C217.941 94.836 216.767 92.6538 216.767 88.5076C216.767 80.4333 213.012 78.0328 209.726 83.9249C208.317 86.3253 205.501 88.2893 203.153 88.2893C201.041 88.2893 193.295 92.4356 186.253 97.4547C174.987 105.311 158.087 112.294 150.341 112.294C148.933 112.294 150.576 109.457 154.097 106.184C163.72 96.8001 161.608 95.9272 147.525 103.347C140.248 107.057 130.625 110.985 125.93 111.857C117.715 113.385 116.776 114.258 113.021 126.478C110.673 133.68 108.091 141.318 107.387 143.5C106.448 146.337 107.387 146.991 111.612 146.773C116.776 146.119 117.011 146.773 116.307 157.03C115.837 164.231 111.847 175.142 105.04 189.109C99.4067 200.893 94.7123 211.149 94.7123 212.24C94.7123 215.514 70.0666 232.099 58.3306 236.681L47.7681 240.827L51.5237 234.281C53.4014 230.571 58.8 222.278 63.2597 215.732C73.118 201.547 74.2916 193.255 64.9028 204.602C61.1472 208.749 54.8098 217.696 50.3501 224.243C45.8904 231.007 38.3793 239.082 33.6849 242.355L25.0002 248.465L23.5919 277.053C22.1836 308.477 15.3767 342.083 6.45726 360.632C-0.819087 375.908 -0.819087 385.946 6.45726 395.766C15.1419 407.55 27.8169 468.871 32.5113 520.59C33.9196 536.738 34.1543 537.175 42.1348 540.666C46.5945 542.63 50.1154 545.904 50.1154 547.65C50.1154 549.614 54.1056 555.069 59.0347 560.306C75.2305 576.891 103.632 617.917 110.439 634.939C117.011 651.087 117.011 651.306 128.747 654.797C135.319 656.761 148.698 662.653 158.791 668.109C169.119 673.346 178.038 677.274 178.742 676.401C180.385 674.874 174.283 669.855 157.618 659.598C151.28 655.888 146.586 652.615 147.055 652.178C147.29 651.96 161.373 653.924 178.038 656.543C214.655 662.217 226.156 667.236 237.423 682.948C244.934 693.641 251.036 709.571 248.689 711.754C247.985 712.408 241.413 709.353 233.902 705.207C200.806 686.658 187.897 684.257 214.889 701.497C223.105 706.734 236.718 716.118 245.168 722.665C260.191 733.794 261.129 734.23 275.682 734.23C299.389 734.449 366.519 750.161 388.818 760.854L397.737 765L408.3 759.326C426.373 749.506 530.12 729.866 564.624 729.866C580.35 729.866 580.35 729.866 588.096 720.919C592.321 715.9 603.822 706.298 613.446 699.751C623.069 692.986 629.641 687.312 627.998 686.658C626.355 686.221 619.783 689.495 613.446 693.859C595.842 705.861 574.717 711.099 550.071 709.571C528.007 708.262 495.381 699.969 501.014 697.133C505.709 694.514 599.362 672.473 600.536 673.564C601.24 674.001 600.536 677.711 599.362 681.857C596.546 691.022 597.954 692.55 604.761 686.876C607.578 684.476 614.619 680.329 620.487 677.711C626.355 675.092 633.162 670.509 635.744 667.672C638.326 664.835 647.48 660.035 656.4 656.979C669.544 652.179 672.126 651.96 672.126 654.797C672.126 656.543 671.187 657.416 669.779 656.761C668.605 656.107 667.431 657.416 667.431 659.816C667.431 664.399 671.187 667.891 672.595 664.617C672.83 663.526 679.637 659.816 687.617 656.107C704.752 648.032 705.456 647.378 713.906 628.174C717.662 619.663 725.407 605.479 731.51 596.313C737.613 587.366 742.542 578.855 742.542 577.11C742.542 571.872 736.205 579.074 725.173 596.313C719.305 605.697 711.324 616.608 707.334 620.754L700.058 628.392L701.231 607.661C701.935 596.313 704.048 581.911 706.16 575.582C712.967 554.851 732.449 536.738 758.268 527.137L770.474 522.772L764.606 534.993C761.32 541.539 759.207 547.65 759.911 548.086C760.381 548.741 766.014 543.067 772.352 535.647C778.454 528.228 786.2 520.808 789.721 519.28C795.589 516.444 795.824 515.789 794.65 498.986C793.242 474.326 797.467 449.231 809.438 413.442C815.306 395.984 820 380.272 820 378.526C820 376.781 817.888 372.853 815.306 369.797C812.724 366.742 810.611 360.85 810.611 356.049C810.611 346.011 808.029 345.793 802.396 355.395L797.936 362.814L787.608 352.121C775.638 339.683 770.943 339.464 781.74 351.903C803.57 376.999 802.396 398.821 778.689 417.152L769.066 424.353L763.902 387.692C760.85 367.615 758.034 347.975 757.33 344.047C756.156 337.282 756.156 337.064 764.841 337.064C770.709 337.064 773.056 336.191 772.117 334.227C761.789 311.314 761.32 281.853 770.709 261.122C773.76 254.794 776.577 249.993 777.046 250.648C779.159 252.612 785.027 275.961 790.66 304.985C793.946 321.788 798.171 338.373 800.049 342.083L803.1 349.066L803.335 341.865C803.57 337.937 800.988 323.971 797.702 310.659C791.129 283.817 787.139 256.321 787.139 239.518C787.139 229.48 786.435 227.516 780.802 224.243C777.046 222.278 771.413 217.478 768.127 213.986C762.024 207.439 762.024 207.439 760.381 212.24C759.442 214.859 758.034 217.041 757.095 217.041C754.043 216.823 738.552 202.857 733.153 195.219C730.102 191.073 724.234 184.089 720.009 179.943C712.967 172.96 704.987 155.939 704.987 148.301C704.987 146.337 706.16 143.063 707.803 140.881C711.559 135.207 705.926 117.313 699.353 113.385C690.903 108.584 653.113 94.1814 651.94 95.4907C651.236 96.1454 655.93 100.51 662.737 105.093C672.126 111.639 673.769 113.603 670.248 114.04C662.268 115.131 635.04 108.148 619.783 101.165C594.198 89.1622 586.922 82.1791 578.003 60.575C575.89 55.1194 575.89 54.9012 584.105 56.2105C588.565 56.8652 592.321 56.8652 592.321 56.4287C592.321 52.9372 586.922 46.8269 584.105 46.8269C582.228 46.8269 578.003 42.8989 574.717 38.098C569.318 30.0237 567.91 29.369 558.286 29.369C527.538 29.369 466.98 18.4579 441.865 8.63782C431.537 4.49157 422.148 1 421.444 1C420.528 1 416.28 2.96401 411.82 5.58269ZM397.056 25.441C393.77 29.369 383.677 37.4433 374.288 43.5536L357.154 54.4647H326.405C302.464 54.4647 291.901 53.5918 280.635 50.3185C272.654 47.918 266.786 45.2993 267.725 44.6447C271.246 41.5895 293.31 36.134 315.373 32.6424C327.579 30.6784 340.958 28.2779 344.714 27.1868C351.52 25.2228 389.311 19.3308 398.465 18.6761C402.431 18.4579 402.197 19.1125 397.056 25.441ZM475.43 23.9135C492.564 26.7504 515.567 31.5513 526.599 34.3882L546.315 39.4073L532.232 43.1171C513.924 47.918 506.178 47.6998 495.146 42.6807C490.217 40.2802 478.716 36.7886 469.562 34.8246C453.835 31.5513 439.752 24.7863 439.752 20.4219C439.752 17.8032 439.987 17.8032 475.43 23.9135ZM441.395 28.4961C451.488 33.9517 465.102 48.1362 462.52 50.5367C460.877 51.846 388.583 59.7021 375.673 59.9203H369.101L379.194 48.1362C384.827 41.5895 391.4 35.2611 393.982 33.9517C396.563 32.6424 402.431 28.9326 406.891 25.8775C416.515 19.3308 425.669 19.9854 441.395 28.4961ZM565.328 52.7189C573.074 60.1385 576.594 66.467 581.289 81.088L585.044 92.6538L577.533 89.5987C573.308 88.0711 563.215 83.9249 554.765 80.6515C530.354 71.0497 503.127 57.5198 504.535 55.3376C506.882 51.6278 528.007 47.0451 543.264 47.0451C557.113 46.8269 559.46 47.4816 565.328 52.7189ZM471.205 66.2488C475.195 68.431 486.462 71.4861 496.085 73.0137C523.547 76.9417 530.12 79.124 554.061 90.908C569.787 98.7641 575.421 102.474 573.074 103.783C567.91 107.057 547.489 112.076 530.824 114.258C510.638 116.877 499.136 114.476 490.687 105.747L483.88 98.7641L478.481 103.565C473.317 107.929 471.205 108.366 458.06 107.275C445.855 106.184 437.17 103.129 407.126 89.1622L370.744 72.1408L379.898 70.1768C395.155 67.3399 437.64 62.539 451.253 62.3208C459.938 62.1025 466.299 63.4119 471.205 66.2488ZM336.475 87.8529C336.475 97.4547 320.749 131.716 306.665 152.229C301.267 160.303 300.328 160.739 292.347 159.648C277.325 157.248 259.017 146.773 242.117 130.406C215.359 104.874 215.124 107.493 245.638 98.9823C284.132 88.5076 305.257 84.3613 321.922 84.1431C334.597 83.9249 336.475 84.3613 336.475 87.8529ZM378.02 87.1982C400.319 93.3085 456.183 122.114 456.183 127.351C456.183 133.243 383.654 155.939 326.147 167.941L319.34 169.25L320.749 157.684C322.157 144.155 342.578 98.7641 351.262 89.8169C357.834 83.052 361.59 82.6155 378.02 87.1982ZM178.038 120.368C171.231 135.426 128.043 186.49 121.94 186.49C120.766 186.49 120.297 178.634 121.236 166.85C122.644 146.119 127.808 131.716 136.727 124.514C143.065 119.277 163.955 112.512 174.048 112.294H181.559L178.038 120.368ZM656.869 116.877C673.299 119.932 687.383 128.224 694.19 139.135C699.823 148.301 706.63 172.742 704.048 174.924C701.466 177.324 691.373 170.778 654.052 143.063C621.191 118.404 617.905 115.567 623.069 114.258C628.937 112.73 637.387 113.385 656.869 116.877ZM589.739 121.896C596.78 125.387 601.475 133.898 608.516 157.248C614.15 175.142 625.182 219.878 624.243 220.751C622.6 222.278 591.382 202.857 569.083 186.49C555.235 176.233 537.161 163.358 529.181 157.466C516.506 148.301 505.005 133.898 508.056 130.843C508.76 130.406 518.618 127.351 530.354 124.514C554.319 118.404 579.881 117.313 589.739 121.896ZM235.545 134.553C247.281 141.754 258.078 150.047 259.486 152.447C260.895 155.066 264.416 159.43 267.232 162.485C270.284 165.54 273.335 170.123 274.039 172.524C275.447 176.452 274.039 177.761 266.293 180.598C253.149 185.617 216.298 192.164 180.385 196.31C163.72 198.056 146.351 200.02 142.126 200.674C135.084 201.547 134.615 201.111 136.023 196.746C139.779 184.526 172.874 142.191 189.07 128.661C202.449 117.313 209.491 118.186 235.545 134.553ZM631.777 138.262C655.249 154.411 687.406 180.816 692.335 187.581C697.03 194.346 694.213 199.583 680.364 208.312C670.506 214.641 640.697 223.37 637.88 220.969C637.176 220.314 630.838 199.801 623.797 175.36C616.755 150.919 610.418 129.534 609.948 128.006C608.047 122.987 613 125.387 631.777 138.262ZM468.858 152.011C473.082 170.778 471.205 232.535 465.337 272.688C462.051 296.038 460.877 299.966 457.356 299.966C449.141 299.966 413.698 273.779 376.377 239.955C336.24 203.729 322.392 189.981 322.392 186.272C322.392 180.161 392.338 157.248 430.363 150.919C460.431 145.9 467.684 146.119 468.858 152.011ZM512.07 160.085C524.51 165.977 540.471 176.67 589.293 212.24C609.948 227.298 615.816 234.717 612.061 240.609C605.019 251.084 532.256 289.491 500.334 299.748L486.72 304.112L485.077 298.22C482.025 287.964 482.964 195.655 486.25 175.579C488.128 165.322 490.006 156.375 490.475 155.502C492.564 152.447 498.432 153.756 512.07 160.085ZM276.386 197.837C272.866 208.53 262.538 225.115 240.943 254.794C228.503 271.815 214.185 291.455 209.256 298.22C193.06 320.697 185.08 322.007 171.466 304.767C156.209 285.563 129.92 229.48 129.92 216.605C129.92 214.422 143.065 211.149 179.916 204.384C236.953 193.909 237.892 193.909 260.895 193.255C277.795 193.037 278.029 193.037 276.386 197.837ZM317.697 211.149C323.8 213.768 340.465 226.861 357.6 242.355C373.796 256.976 394.451 274.87 403.84 282.29C413.229 289.709 425.199 300.839 430.363 307.167C439.048 317.206 439.517 318.515 435.527 319.824C421.679 324.625 323.565 330.517 256.2 330.517H202.919L205.266 323.971C208.317 315.896 223.339 294.292 261.129 243.01L290 203.511L298.685 205.039C303.379 205.694 311.829 208.53 317.697 211.149ZM757.095 222.933C769.535 233.844 770.239 246.938 760.146 274.87C755.217 288.4 752.4 293.419 749.818 293.419C745.828 293.419 730.102 241.046 725.407 212.458L724.469 206.785L737.613 212.022C744.889 215.077 753.574 219.878 757.095 222.933ZM715.784 222.278C722.121 235.372 731.745 268.105 734.327 286.654L735.97 298.438L705.926 279.235C666.962 254.576 662.268 250.429 662.268 240.391C662.268 235.808 664.38 229.698 667.197 226.206C673.534 217.914 689.495 210.494 700.996 210.494C709.446 210.494 710.151 210.931 715.784 222.278ZM97.0595 225.77C97.0595 228.825 80.8638 258.285 67.0153 279.889C56.2181 296.911 55.5139 297.784 51.7584 293.856C46.3598 288.4 42.1348 269.415 44.0126 260.031C45.6557 251.52 58.3306 241.264 81.8027 229.698C94.947 223.151 97.0595 222.497 97.0595 225.77ZM120.086 232.753C132.995 252.393 160.927 307.167 162.101 315.023C163.274 323.534 163.274 323.752 154.59 325.28C132.526 328.99 86.7553 320.479 72.2026 309.786L65.6304 304.767L79.9484 277.489C95.6747 247.811 109.758 225.77 113.279 225.77C114.429 225.77 117.48 229.043 120.086 232.753ZM636.213 265.923C636.448 266.141 638.326 272.033 640.204 279.235C646.307 300.621 651.001 336.628 651.705 365.433C652.175 392.711 652.175 392.711 646.776 392.274C632.693 390.747 535.988 352.994 511.811 339.246C501.484 333.572 499.371 331.172 500.31 327.68C502.423 319.824 518.618 307.167 537.396 298.657C547.724 294.074 565.328 285.345 576.829 279.453C600.536 267.014 615.793 262.432 627.529 264.177C631.989 264.832 635.979 265.705 636.213 265.923ZM670.952 270.942C689.73 279.671 713.202 294.947 722.356 304.33C736.439 318.951 734.562 325.716 707.099 360.196C689.26 382.454 682.454 387.91 674.004 386.819C669.309 386.164 668.136 383.982 664.615 368.706C660.624 351.467 652.644 299.748 649.827 275.307C648.654 262.868 648.654 262.65 653.818 264.177C656.869 264.832 664.638 268.105 670.952 270.942ZM37.4404 302.585C35.3279 311.968 33.6849 322.443 33.6849 325.935C33.6849 329.208 32.5113 335.318 30.8682 339.464C28.0516 347.539 19.6016 359.759 18.1933 358.232C16.5503 356.704 24.0613 311.968 29.4599 290.146L34.3891 270.506L37.6751 277.925C40.7265 284.472 40.7265 287.745 37.4404 302.585ZM125.954 330.299C142.619 333.791 156.467 337.064 157.172 337.5C159.988 340.119 149.895 361.941 139.567 375.471C121.494 399.476 83.4692 430.245 78.3053 425.008C77.1317 424.135 73.6109 411.478 70.0901 397.075C63.7526 370.889 61.4054 341.428 64.9262 329.863C66.5693 324.189 67.2735 323.971 81.3567 323.971C89.3137 323.971 109.523 326.807 125.954 330.299ZM54.575 355.831C60.9125 383.109 66.3111 426.754 63.2597 424.79C61.8514 424.135 55.9834 420.207 50.3501 416.279C44.7168 412.133 39.5529 409.296 39.0835 409.951C38.3793 410.605 41.6654 416.715 46.3598 423.699C64.9028 451.849 66.7805 474.981 52.6973 501.823L44.7168 516.88L41.6654 509.024C34.1543 488.729 15.1419 399.476 17.9586 396.857C18.428 396.421 21.7141 397.948 25.2349 400.567C33.9196 406.895 34.6238 404.931 27.8169 395.33C18.8975 383.109 18.1933 376.344 25.0002 362.814C32.746 347.32 45.1862 331.608 48.0029 334.227C49.1765 335.318 52.2278 344.92 54.575 355.831ZM750.757 359.323C753.105 374.162 754.278 393.147 753.809 406.895L753.105 429.809L746.063 430.464C736.439 431.555 712.733 426.972 702.17 421.953C694.659 418.461 693.251 416.715 693.251 410.605C693.251 402.531 705.691 376.999 717.192 361.505C727.285 347.757 742.542 332.481 744.889 333.791C745.828 334.445 748.41 345.793 750.757 359.323ZM432.264 341.428C429.213 344.92 417.242 354.522 405.741 362.596C394.005 370.67 367.247 390.747 346.122 406.895C289.789 450.322 251.764 474.545 239.559 474.545C229.231 474.545 202.707 392.711 202.707 361.069C202.707 351.248 203.177 350.376 209.28 349.284C221.016 347.102 278.522 341.647 314.2 339.246C368.186 335.755 370.533 335.755 405.272 335.318L437.663 334.882L432.264 341.428ZM447.967 371.107C441.63 408.205 415.341 510.77 403.37 546.122C397.972 562.052 396.798 563.58 390.226 564.889C381.307 566.417 364.876 563.143 352.201 557.033C338.587 550.705 291.174 523.863 274.743 513.17C261.834 504.66 260.895 503.787 262.068 497.022C263.946 486.765 271.222 478.254 289.531 465.161C298.215 458.833 329.668 435.701 359.243 413.442C409.004 376.126 448.671 349.066 450.549 350.812C451.042 351.248 449.869 360.414 447.967 371.107ZM516.036 358.013C535.753 364.778 587.626 385.728 608.282 394.893C626.355 402.967 648.654 420.425 648.654 426.317C648.654 431.118 627.764 461.233 610.864 480.219C596.546 496.585 574.247 516.007 570.022 516.007C566.971 516.007 563.919 511.206 548.897 483.274C530.354 449.013 489.043 357.577 489.043 351.248C489.043 349.503 500.075 352.34 516.036 358.013ZM478.716 368.052C482.237 374.38 492.799 396.203 502.188 416.715C511.577 437.01 523.313 462.542 528.477 473.454C539.508 496.585 543.733 512.952 542.56 528.009L541.856 538.702L516.975 548.959C503.127 554.414 487.4 559.652 481.767 560.525C476.134 561.398 462.755 564.453 451.958 567.508C441.395 570.563 429.659 572.745 426.138 572.309C420.74 571.654 419.801 570.563 419.097 563.362C418.158 552.232 427.547 506.624 443.273 447.267C454.774 403.622 469.562 356.704 471.674 356.704C472.167 356.704 475.43 361.941 478.716 368.052ZM186.253 370.234C196.816 386.601 215.594 443.775 218.41 468.653L219.819 481.31L209.491 479.782C203.858 478.909 189.305 476.072 177.334 473.235C165.363 470.398 153.627 467.998 151.28 467.998C148.933 467.998 142.361 465.598 136.727 462.761C131.094 459.924 121.001 455.996 114.429 454.032C107.857 452.068 100.58 449.013 97.9984 447.485C93.7734 444.648 93.7734 443.993 97.529 437.01C102.693 426.754 154.566 375.035 166.302 368.488C178.508 361.723 180.62 361.941 186.253 370.234ZM789.721 449.449C783.383 490.039 783.149 490.693 781.271 478.036C778.924 461.67 781.036 434.828 785.965 422.389C789.252 413.224 793.946 406.023 795.589 407.332C795.824 407.768 793.242 426.754 789.721 449.449ZM726.112 435.264C734.562 437.665 743.481 440.72 745.828 442.466C750.288 445.521 750.288 445.739 745.124 459.487C731.745 493.748 698.415 545.249 697.945 531.937C697.945 529.319 694.424 511.643 689.965 492.657C685.505 473.672 681.045 452.068 680.106 444.648C678.698 431.773 678.933 431.336 684.097 430.245C692.547 428.718 709.235 430.682 726.112 435.264ZM676.82 476.945C684.566 512.079 686.679 538.266 682.219 542.412C678.229 546.122 627.529 543.503 607.578 538.702C593.494 535.211 591.147 533.901 591.851 530.192C594.198 516.662 617.201 483.274 647.48 450.54C663.441 433.082 663.676 432.864 666.727 438.101C668.37 441.157 672.853 458.614 676.82 476.945ZM102.223 461.233C109.5 463.415 121.471 466.47 128.982 467.998C136.727 469.526 144.004 471.49 145.412 472.581C146.82 473.672 158.791 478.036 172.405 482.401C185.784 486.765 199.633 491.784 203.388 493.748L209.726 497.24L198.694 507.933C176.63 528.664 131.094 555.287 117.48 555.287C111.612 555.287 105.275 541.321 96.8248 510.333C90.4874 486.983 85.5582 457.087 88.1401 457.087C88.8443 457.087 95.1818 459.051 102.223 461.233ZM770.709 468.434C781.036 490.475 778.924 504.005 763.198 517.316C754.748 524.3 722.591 540.012 716.723 540.012C713.437 540.012 717.896 530.628 733.623 504.005C750.288 476.072 761.789 459.269 764.371 459.269C765.31 459.269 768.361 463.415 770.709 468.434ZM86.4971 506.187C95.8859 540.23 98.4679 555.287 95.1818 555.287C94.0082 555.287 88.6096 553.76 83.211 552.014C71.9444 548.304 70.7708 550.705 80.3944 557.906C84.1499 560.743 89.3137 567.071 92.1304 572.091C94.7123 576.891 99.6415 583.002 103.162 585.62C109.265 589.985 115.837 605.697 115.837 615.735C115.837 620.318 115.368 620.536 110.908 618.354C108.326 617.045 104.336 613.116 102.223 609.407C99.8762 605.697 89.5485 590.639 78.7513 575.582C68.1889 560.743 59.9736 547.65 60.6778 546.558C61.382 545.685 60.2084 540.666 58.3306 535.647C52.6973 520.59 53.8709 508.369 63.7292 484.801L72.4138 463.415L75.6999 470.617C77.343 474.545 82.2721 490.475 86.4971 506.187ZM221.227 519.717C226.391 530.41 229.207 567.944 227.33 603.951C226.156 629.047 224.982 638.212 222.635 638.212C213.481 638.212 136.493 586.93 131.094 576.891C127.808 570.999 127.808 570.127 132.502 564.234C138.37 556.815 143.065 553.542 179.212 530.846C209.021 511.861 216.532 509.897 221.227 519.717ZM271.222 524.736C283.193 528.882 338.118 558.779 360.651 573.4L374.265 582.129L367.693 588.457C354.783 601.114 260.895 640.394 243.76 640.394H238.596L236.953 581.256C236.249 548.741 236.014 521.244 236.953 520.153C238.831 517.316 256.904 519.717 271.222 524.736ZM670.506 555.506C675.201 557.033 679.191 559.434 679.191 560.961C679.191 570.563 634.594 637.339 623.797 644.104C619.102 646.941 618.398 646.723 613.939 639.74C606.193 628.61 589.997 590.64 586.007 575.146C582.016 559.652 583.19 555.287 592.579 552.669C601.264 550.268 660.39 552.45 670.506 555.506ZM539.508 567.29C529.181 592.822 491.86 659.38 478.481 676.183C475.43 680.111 474.726 680.111 469.327 676.838C454.305 667.672 426.608 621.627 424.261 601.769C422.852 591.731 423.322 590.64 429.19 586.275C432.945 583.656 444.916 578.855 455.948 575.8C466.98 572.527 480.124 568.162 485.053 565.762C493.503 561.834 528.946 553.76 539.978 553.323L545.377 553.105L539.508 567.29ZM571.923 568.817C579.669 578.637 582.721 584.093 590.701 604.388C599.621 626.865 603.376 642.577 602.202 653.27L601.264 661.78L576.383 668.545C546.104 676.62 515.825 683.166 498.925 685.348L486.25 686.876L501.977 657.634C527.561 610.28 559.014 561.834 564.412 561.834C565.328 561.834 568.849 565.107 571.923 568.817ZM693.251 622.064C690.199 635.812 682.923 643.231 667.901 647.814C653.583 652.397 634.57 654.579 634.57 651.96C634.57 648.687 667.197 603.296 681.28 586.93L694.424 571.654L695.128 591.076C695.598 601.769 694.659 615.735 693.251 622.064ZM176.419 623.155C213.505 648.687 214.209 650.651 184.634 648.25C160.458 646.068 137.455 639.085 129.709 631.447C122.902 624.682 118.208 610.716 118.208 596.75V587.584L130.883 594.131C137.901 597.623 158.322 610.716 176.419 623.155ZM375.204 621.409C372.152 635.157 367.458 646.068 356.661 664.617C342.578 689.058 342.108 689.495 333.658 690.149C314.646 691.677 277.325 678.584 259.017 664.181L251.036 657.852L256.435 653.924C267.702 646.286 293.756 633.193 318.167 622.718C343.751 611.807 376.612 600.678 378.49 602.205C378.959 602.86 377.551 611.371 375.204 621.409ZM413.933 622.064C433.649 642.358 456.652 682.73 453.131 691.459C451.253 695.823 427.547 699.533 391.165 700.842L357.6 702.152V691.895C357.6 670.509 389.052 609.843 400.084 609.843C401.023 609.843 407.126 615.299 413.933 622.064ZM280.377 685.13C292.113 690.804 317.697 706.516 317.697 708.262C317.697 710.662 301.267 716.118 289.061 717.645C282.959 718.518 274.039 718.082 268.875 716.991C261.364 715.027 258.782 712.626 253.853 704.334C250.567 698.442 247.046 690.149 246.342 685.567C245.403 680.984 243.995 675.747 243.291 674.001C242.352 671.6 245.638 672.037 257.139 676.183C265.613 679.02 276.175 683.166 280.377 685.13ZM449.141 708.044C444.447 716.336 422.148 734.667 410.881 739.686L399.38 744.705L388.583 740.341C382.48 737.94 373.091 731.83 367.458 727.029C357.834 718.3 357.6 717.864 362.764 716.118C371.214 713.281 391.869 710.008 420.974 706.953C435.762 705.425 448.906 704.116 449.845 703.897C450.784 703.897 450.549 705.643 449.141 708.044ZM541.856 716.336L555.939 720.264L537.161 725.065C518.618 729.648 445.855 743.396 426.138 746.015C416.515 747.324 416.045 747.324 419.097 743.178C426.138 733.794 451.019 718.955 464.633 715.9C472.378 714.154 480.594 712.19 483.175 711.535C492.33 709.353 528.007 712.19 541.856 716.336ZM354.548 728.557C366.05 733.794 376.377 739.686 377.082 741.65C378.02 743.614 377.786 745.142 376.847 745.142C375.908 745.142 353.844 740.995 327.555 735.976C278.968 726.593 275.917 725.065 297.276 721.355C320.772 716.991 332.015 718.3 354.548 728.557Z" stroke="white" stroke-opacity="0.5" stroke-miterlimit="10"/>
</svg>
