<svg width="672" height="742" viewBox="0 0 672 742" fill="none" xmlns="http://www.w3.org/2000/svg">
<path d="M337.08 5.43873C324.023 14.1048 244.719 32.7052 215.725 33.7621C196.139 34.3962 190.762 36.5099 187.306 44.7532C186.154 47.501 182.697 51.517 179.433 53.4193C172.328 57.858 172.136 60.1831 178.473 60.1831C182.121 60.1831 183.849 61.874 185.386 65.89L187.498 71.8083L190.762 64.6218C195.371 55.1103 201.323 51.9397 214.956 51.7284C228.782 51.7284 271.602 64.1991 266.993 66.9469C257.2 73.0766 191.53 91.8883 180.393 91.8883C178.473 91.8883 177.513 89.7746 177.513 85.7586C177.513 77.938 174.441 75.613 171.752 81.3199C170.6 83.645 168.296 85.5473 166.376 85.5473C164.648 85.5473 158.311 89.5633 152.55 94.4247C143.334 102.034 129.508 108.798 123.172 108.798C122.02 108.798 123.364 106.05 126.244 102.879C134.117 93.7906 132.389 92.9452 120.867 100.132C114.915 103.725 107.042 107.53 103.202 108.375C96.4811 109.855 95.713 110.7 92.6408 122.537C90.7206 129.512 88.6084 136.91 88.0323 139.023C87.2642 141.771 88.0323 142.405 91.4886 142.194C95.713 141.56 95.9051 142.194 95.329 152.128C94.945 159.103 91.6807 169.672 86.1121 183.199C81.5037 194.613 77.6633 204.548 77.6633 205.604C77.6633 208.775 57.5014 224.839 47.9005 229.278L39.2597 233.294L42.3319 226.953C43.8681 223.359 48.2845 215.327 51.9329 208.986C59.9976 195.247 60.9577 187.215 53.277 198.207C50.2047 202.222 45.0202 210.889 41.3719 217.23C37.7235 223.782 31.5789 231.603 27.7386 234.773L20.6339 240.691L19.4818 268.381C18.3297 298.818 12.7611 331.368 5.46443 349.335C-0.488142 364.131 -0.488142 373.853 5.46443 383.365C12.5691 394.779 22.9381 454.173 26.7785 504.268C27.9306 519.909 28.1226 520.332 34.6512 523.713C38.2996 525.616 41.1798 528.786 41.1798 530.477C41.1798 532.38 44.4441 537.664 48.4765 542.737C61.7258 558.801 84.96 598.538 90.5285 615.025C95.9051 630.666 95.9051 630.877 105.506 634.259C110.882 636.161 121.828 641.868 130.084 647.153C138.533 652.225 145.83 656.03 146.406 655.185C147.75 653.705 142.758 648.843 129.124 638.909C123.94 635.316 120.099 632.145 120.483 631.723C120.675 631.511 132.197 633.414 145.83 635.95C175.785 641.446 185.194 646.307 194.41 661.526C200.555 671.883 205.548 687.312 203.627 689.426C203.051 690.06 197.675 687.101 191.53 683.085C164.456 665.119 153.895 662.794 175.977 679.492C182.697 684.565 193.834 693.654 200.747 699.995C213.036 710.774 213.804 711.197 225.709 711.197C245.103 711.408 300.021 726.627 318.262 736.984L325.559 741L334.2 735.504C348.985 725.993 433.857 706.97 462.084 706.97C474.949 706.97 474.949 706.97 481.286 698.304C484.742 693.442 494.151 684.142 502.024 677.801C509.897 671.248 515.273 665.753 513.929 665.119C512.585 664.696 507.208 667.867 502.024 672.094C487.623 683.719 470.341 688.792 450.179 687.312C432.129 686.044 405.439 678.012 410.047 675.265C413.887 672.728 490.503 651.38 491.463 652.437C492.039 652.859 491.463 656.453 490.503 660.469C488.199 669.346 489.351 670.826 494.919 665.33C497.223 663.005 502.984 658.989 507.784 656.453C512.585 653.916 518.153 649.478 520.266 646.73C522.378 643.982 529.867 639.332 537.163 636.373C547.916 631.723 550.028 631.511 550.028 634.259C550.028 635.95 549.26 636.795 548.108 636.161C547.148 635.527 546.188 636.795 546.188 639.12C546.188 643.559 549.26 646.941 550.412 643.771C550.604 642.714 556.173 639.121 562.702 635.527C576.719 627.707 577.295 627.072 584.208 608.472C587.28 600.229 593.617 586.49 598.609 577.612C603.602 568.946 607.634 560.703 607.634 559.012C607.634 553.939 602.449 560.914 593.425 577.612C588.624 586.701 582.096 597.27 578.831 601.286L572.879 608.684L573.839 588.604C574.415 577.612 576.143 563.662 577.871 557.532C583.44 537.452 599.377 519.909 620.499 510.609L630.484 506.381L625.684 518.218C622.995 524.559 621.267 530.477 621.843 530.9C622.227 531.534 626.836 526.039 632.02 518.852C637.013 511.666 643.349 504.479 646.23 502.999C651.03 500.252 651.222 499.618 650.262 483.342C649.11 459.458 652.566 435.15 662.359 400.486C667.16 383.576 671 368.358 671 366.667C671 364.976 669.272 361.171 667.16 358.212C665.047 355.253 663.319 349.546 663.319 344.896C663.319 335.173 661.207 334.962 656.599 344.262L652.95 351.448L644.501 341.091C634.709 329.043 630.868 328.832 639.701 340.88C657.559 365.187 656.599 386.324 637.205 404.079L629.332 411.054L625.108 375.544C622.611 356.099 620.307 337.075 619.731 333.271C618.771 326.718 618.771 326.507 625.876 326.507C630.676 326.507 632.596 325.662 631.828 323.759C623.379 301.566 622.995 273.031 630.676 252.951C633.172 246.821 635.477 242.171 635.861 242.805C637.589 244.708 642.389 267.324 646.998 295.436C649.686 311.711 653.142 327.775 654.678 331.368L657.175 338.132L657.367 331.157C657.559 327.352 655.447 313.825 652.758 300.931C647.382 274.933 644.117 248.301 644.117 232.025C644.117 222.302 643.541 220.4 638.933 217.23C635.861 215.327 631.252 210.677 628.564 207.295C623.572 200.954 623.571 200.954 622.227 205.604C621.459 208.141 620.307 210.254 619.539 210.254C617.043 210.043 604.37 196.516 599.953 189.118C597.457 185.102 592.656 178.338 589.2 174.322C583.44 167.558 576.911 151.071 576.911 143.674C576.911 141.771 577.871 138.601 579.215 136.487C582.288 130.991 577.679 113.659 572.302 109.855C565.39 105.205 534.475 91.2542 533.515 92.5224C532.939 93.1565 536.779 97.3839 542.348 101.823C550.028 108.164 551.373 110.066 548.492 110.489C541.964 111.546 519.69 104.782 507.208 98.018C486.278 86.3927 480.326 79.629 473.029 58.7035C471.301 53.4193 471.301 53.2079 478.022 54.4761C481.67 55.1103 484.742 55.1102 484.742 54.6875C484.742 51.3056 480.326 45.3873 478.022 45.3873C476.485 45.3873 473.029 41.5827 470.341 36.9326C465.924 29.112 464.772 28.4779 456.9 28.4779C431.745 28.4779 382.204 17.9095 361.658 8.39789C353.21 4.38189 345.529 1 344.953 1C344.204 1 340.728 2.90231 337.08 5.43873ZM325.002 24.6732C322.314 28.4779 314.057 36.2985 306.376 42.2168L292.359 52.7852H267.205C247.619 52.7852 238.978 51.9397 229.761 48.7692C223.232 46.4442 218.432 43.9077 219.2 43.2736C222.08 40.3145 240.13 35.0303 258.18 31.6484C268.165 29.7461 279.11 27.421 282.182 26.3642C287.751 24.4619 318.666 18.7549 326.154 18.1208C329.399 17.9095 329.207 18.5436 325.002 24.6732ZM389.117 23.1937C403.134 25.9414 421.952 30.5915 430.977 33.3393L447.107 38.2008L435.586 41.7941C420.608 46.4442 414.271 46.2328 405.247 41.3713C401.214 39.0463 391.805 35.6644 384.317 33.7621C371.451 30.5915 359.93 24.0391 359.93 19.8118C359.93 17.2753 360.122 17.2754 389.117 23.1937ZM361.274 27.6324C369.531 32.9166 380.668 46.6555 378.556 48.9806C377.212 50.2488 318.07 57.858 307.509 58.0694H302.133L310.39 46.6555C314.998 40.3145 320.374 34.1848 322.487 32.9166C324.599 31.6484 329.399 28.0551 333.048 25.096C340.92 18.7549 348.409 19.389 361.274 27.6324ZM462.66 51.0943C468.997 58.2808 471.877 64.4105 475.717 78.5721L478.79 89.7746L472.645 86.8155C469.189 85.3359 460.932 81.3199 454.019 78.1494C434.049 68.8492 411.775 55.7444 412.927 53.6307C414.848 50.0374 432.129 45.5987 444.61 45.5987C455.94 45.3873 457.86 46.0214 462.66 51.0943ZM385.661 64.1991C388.925 66.3128 398.142 69.2719 406.015 70.7515C428.481 74.5561 433.857 76.6698 453.443 88.0837C466.308 95.6929 470.917 99.2862 468.997 100.554C464.772 103.725 448.067 108.586 434.433 110.7C417.92 113.237 408.511 110.911 401.598 102.457L396.03 95.6929L391.613 100.343C387.389 104.57 385.661 104.993 374.908 103.936C364.923 102.879 357.818 99.9203 333.24 86.3927L303.477 69.906L310.966 68.0037C323.447 65.2559 358.202 60.6058 369.339 60.3945C376.444 60.1831 381.648 61.4513 385.661 64.1991ZM275.442 85.1245C275.442 94.4247 262.577 127.61 251.056 147.478C246.639 155.299 245.871 155.722 239.343 154.665C227.054 152.34 212.076 142.194 198.251 126.341C176.361 101.611 176.169 104.148 201.131 95.9043C232.622 85.7586 249.904 81.7426 263.537 81.5313C273.906 81.3199 275.442 81.7426 275.442 85.1245ZM309.429 84.4904C327.671 90.4087 373.372 118.309 373.372 123.382C373.372 129.089 314.038 151.071 266.993 162.697L261.425 163.965L262.577 152.762C263.729 139.658 280.435 95.6929 287.539 87.0268C292.916 80.4744 295.988 80.0517 309.429 84.4904ZM145.83 116.618C140.261 131.203 104.93 180.663 99.9375 180.663C98.9774 180.663 98.5933 173.054 99.3614 161.64C100.514 141.56 104.738 127.61 112.035 120.634C117.219 115.562 134.309 109.009 142.566 108.798H148.71L145.83 116.618ZM537.547 113.237C550.989 116.196 562.51 124.228 568.078 134.796C572.687 143.674 578.255 167.347 576.143 169.46C574.031 171.785 565.774 165.444 535.243 138.601C508.36 114.716 505.672 111.968 509.897 110.7C514.697 109.221 521.61 109.855 537.547 113.237ZM482.63 118.098C488.391 121.48 492.231 129.723 497.991 152.34C502.6 169.672 511.625 213.002 510.857 213.848C509.513 215.327 483.974 196.516 465.732 180.663C454.403 170.729 439.618 158.258 433.089 152.551C422.72 143.674 413.311 129.723 415.808 126.764C416.384 126.341 424.448 123.382 434.049 120.634C453.654 114.716 474.565 113.659 482.63 118.098ZM192.874 130.357C202.475 137.332 211.308 145.364 212.46 147.69C213.612 150.226 216.493 154.453 218.797 157.412C221.293 160.372 223.789 164.81 224.365 167.135C225.517 170.94 224.365 172.208 218.029 174.956C207.276 179.817 177.129 186.159 147.75 190.175C134.117 191.865 119.907 193.768 116.451 194.402C110.69 195.247 110.306 194.825 111.459 190.597C114.531 178.761 141.605 137.755 154.855 124.65C165.8 113.659 171.56 114.505 192.874 130.357ZM517.021 133.951C536.222 149.592 562.529 175.167 566.561 181.72C570.402 188.272 568.097 193.345 556.768 201.8C548.704 207.929 524.317 216.384 522.013 214.059C521.437 213.425 516.252 193.556 510.492 169.883C504.731 146.21 499.547 125.496 499.163 124.016C497.607 119.155 501.659 121.48 517.021 133.951ZM383.741 147.267C387.197 165.444 385.661 225.262 380.86 264.153C378.172 286.77 377.212 290.574 374.332 290.574C367.611 290.574 338.616 265.21 308.085 232.448C275.25 197.361 263.921 184.045 263.921 180.452C263.921 174.533 321.143 152.34 352.25 146.21C376.847 141.348 382.78 141.56 383.741 147.267ZM419.091 155.087C429.268 160.794 442.325 171.151 482.265 205.604C499.163 220.189 503.963 227.375 500.891 233.082C495.13 243.228 435.605 280.429 409.49 290.363L398.353 294.59L397.009 288.883C394.513 278.949 395.281 189.54 397.969 170.095C399.505 160.16 401.041 151.494 401.425 150.649C403.134 147.69 407.935 148.958 419.091 155.087ZM226.286 191.654C223.405 202.011 214.956 218.075 197.291 246.821C187.114 263.308 175.401 282.331 171.368 288.883C158.119 310.654 151.59 311.923 140.453 295.224C127.972 276.624 106.466 222.302 106.466 209.832C106.466 207.718 117.219 204.548 147.366 197.995C194.026 187.849 194.794 187.849 213.612 187.215C227.438 187.004 227.63 187.004 226.286 191.654ZM260.081 204.548C265.073 207.084 278.707 219.766 292.724 234.773C305.973 248.935 322.871 266.267 330.551 273.454C338.232 280.64 348.025 291.42 352.25 297.55C359.354 307.272 359.738 308.541 356.474 309.809C345.145 314.459 264.881 320.166 209.772 320.166H166.184L168.104 313.825C170.6 306.004 182.889 285.079 213.804 235.407L237.423 197.15L244.527 198.629C248.368 199.263 255.28 202.011 260.081 204.548ZM619.539 215.961C629.716 226.53 630.292 239.212 622.035 266.267C618.003 279.372 615.699 284.233 613.587 284.233C610.322 284.233 597.457 233.505 593.617 205.816L592.849 200.32L603.602 205.393C609.554 208.352 616.659 213.002 619.539 215.961ZM585.744 215.327C590.928 228.009 598.801 259.715 600.913 277.681L602.257 289.095L577.679 270.494C545.804 246.61 541.964 242.594 541.964 232.871C541.964 228.432 543.692 222.514 545.996 219.132C551.181 211.1 564.238 203.913 573.647 203.913C580.559 203.913 581.135 204.336 585.744 215.327ZM79.5835 218.709C79.5835 221.668 66.3342 250.203 55.0052 271.129C46.1723 287.615 45.5963 288.461 42.524 284.656C38.1075 279.372 34.6512 260.983 36.1874 251.894C37.5315 243.651 47.9005 233.716 67.1023 222.514C77.8553 216.173 79.5835 215.539 79.5835 218.709ZM98.4205 225.473C108.982 244.496 131.832 297.55 132.792 305.159C133.752 313.402 133.752 313.614 126.647 315.093C108.597 318.686 71.1539 310.443 59.2488 300.086L53.8722 295.224L65.5854 268.803C78.4506 240.057 89.9717 218.709 92.852 218.709C93.7929 218.709 96.2891 221.88 98.4205 225.473ZM520.65 257.601C520.842 257.812 522.378 263.519 523.914 270.494C528.906 291.209 532.747 326.084 533.323 353.985C533.707 380.406 533.707 380.406 529.29 379.983C517.769 378.504 438.658 341.937 418.88 328.621C410.431 323.125 408.703 320.8 409.471 317.418C411.199 309.809 424.448 297.55 439.81 289.306C448.259 284.867 462.66 276.413 472.069 270.706C491.463 258.658 503.944 254.219 513.545 255.91C517.193 256.544 520.458 257.39 520.65 257.601ZM549.068 262.462C564.43 270.917 583.632 285.713 591.12 294.802C602.642 308.963 601.105 315.516 578.639 348.912C564.046 370.472 558.477 375.756 551.565 374.699C547.724 374.065 546.764 371.951 543.884 357.155C540.62 340.457 534.091 290.363 531.787 266.69C530.827 254.642 530.827 254.43 535.051 255.91C537.547 256.544 543.903 259.715 549.068 262.462ZM30.8108 293.111C29.0827 302.2 27.7386 312.345 27.7386 315.727C27.7386 318.898 26.7785 324.816 25.4343 328.832C23.1301 336.653 16.2175 348.489 15.0653 347.01C13.7212 345.53 19.8658 302.2 24.2822 281.063L28.3146 262.04L31.0029 269.226C33.4991 275.567 33.4991 278.738 30.8108 293.111ZM103.221 319.955C116.854 323.336 128.183 326.507 128.759 326.93C131.064 329.466 122.807 350.603 114.358 363.708C99.5726 386.958 68.4656 416.761 64.2412 411.688C63.2812 410.843 60.4009 398.584 57.5206 384.633C52.3361 359.269 50.4159 330.734 53.2962 319.532C54.6403 314.036 55.2164 313.825 66.7375 313.825C73.2469 313.825 89.7797 316.573 103.221 319.955ZM44.8282 344.685C50.0127 371.106 54.4291 413.379 51.9329 411.477C50.7808 410.843 45.9803 407.038 41.3719 403.234C36.7634 399.218 32.539 396.47 32.155 397.104C31.5789 397.738 34.2672 403.656 38.1075 410.42C53.277 437.687 54.8131 460.092 43.292 486.09L36.7634 500.674L34.2672 493.065C28.1226 473.408 12.5691 386.958 14.8733 384.422C15.2574 383.999 17.9456 385.479 20.8259 388.015C27.9306 394.145 28.5066 392.243 22.9381 382.942C15.6414 371.106 15.0653 364.553 20.6339 351.448C26.9705 336.441 37.1474 321.223 39.4517 323.759C40.4118 324.816 42.908 334.116 44.8282 344.685ZM614.355 348.067C616.275 362.44 617.235 380.829 616.851 394.145L616.275 416.338L610.514 416.973C602.642 418.029 583.248 413.591 574.607 408.729C568.462 405.347 567.31 403.656 567.31 397.738C567.31 389.917 577.487 365.187 586.896 350.18C595.153 336.864 607.634 322.068 609.554 323.336C610.322 323.971 612.434 334.962 614.355 348.067ZM353.805 330.734C351.309 334.116 341.516 343.416 332.107 351.237C322.506 359.058 300.616 378.504 283.334 394.145C237.25 436.207 206.143 459.669 196.158 459.669C187.709 459.669 166.011 380.406 166.011 349.757C166.011 340.246 166.395 339.4 171.387 338.344C180.988 336.23 228.033 330.946 257.22 328.621C301.384 325.239 303.304 325.239 331.723 324.816L358.221 324.393L353.805 330.734ZM366.651 359.48C361.466 395.413 339.96 494.756 330.167 528.998C325.751 544.428 324.791 545.907 319.414 547.175C312.118 548.655 298.676 545.484 288.307 539.566C277.17 533.436 238.383 507.438 224.941 497.081C214.38 488.838 213.612 487.992 214.572 481.44C216.109 471.506 222.061 463.262 237.039 450.58C244.143 444.45 269.874 422.045 294.068 400.486C334.776 364.342 367.227 338.132 368.763 339.823C369.166 340.246 368.206 349.123 366.651 359.48ZM422.336 346.798C438.466 353.351 480.902 373.642 497.799 382.52C512.585 390.34 530.827 407.25 530.827 412.957C530.827 417.607 513.737 446.775 499.912 465.165C488.199 481.017 469.957 499.829 466.5 499.829C464.004 499.829 461.508 495.179 449.219 468.124C434.049 434.939 400.254 346.376 400.254 340.246C400.254 338.555 409.279 341.303 422.336 346.798ZM391.805 356.521C394.686 362.651 403.326 383.788 411.007 403.656C418.688 423.314 428.289 448.044 432.513 458.612C441.538 481.017 444.994 496.87 444.034 511.454L443.458 521.811L423.104 531.746C411.775 537.03 398.91 542.103 394.302 542.948C389.693 543.793 378.748 546.753 369.915 549.712C361.274 552.671 351.674 554.785 348.793 554.362C344.377 553.728 343.609 552.671 343.033 545.696C342.265 534.916 349.945 490.74 362.811 433.248C372.219 390.974 384.317 345.53 386.045 345.53C386.448 345.53 389.117 350.603 391.805 356.521ZM152.55 358.635C161.191 374.488 176.553 429.866 178.857 453.962L180.009 466.221L171.56 464.742C166.952 463.896 155.047 461.149 145.254 458.401C135.461 455.653 125.86 453.328 123.94 453.328C122.02 453.328 116.643 451.003 112.035 448.255C107.426 445.507 99.1694 441.703 93.7929 439.8C88.4164 437.898 82.4638 434.939 80.3516 433.459C76.8952 430.711 76.8953 430.077 79.9675 423.314C84.1919 413.379 126.628 363.285 136.229 356.944C146.214 350.392 147.942 350.603 152.55 358.635ZM646.23 435.362C641.045 474.676 640.853 475.31 639.317 463.051C637.397 447.198 639.125 421.2 643.157 409.152C645.846 400.275 649.686 393.299 651.03 394.568C651.222 394.99 649.11 413.379 646.23 435.362ZM594.193 421.623C601.105 423.948 608.402 426.907 610.322 428.598C613.971 431.557 613.971 431.768 609.746 445.085C598.801 478.269 571.535 528.152 571.151 515.259C571.151 512.722 568.27 495.602 564.622 477.213C560.973 458.823 557.325 437.898 556.557 430.711C555.405 418.241 555.597 417.818 559.821 416.761C566.734 415.282 580.387 417.184 594.193 421.623ZM553.869 461.994C560.205 496.024 561.934 521.388 558.285 525.404C555.021 528.998 513.545 526.461 497.223 521.811C485.702 518.429 483.782 517.161 484.358 513.568C486.278 500.463 505.096 468.124 529.867 436.418C542.924 419.509 543.116 419.298 545.612 424.37C546.956 427.33 550.624 444.239 553.869 461.994ZM83.8079 446.775C89.7605 448.889 99.5534 451.848 105.698 453.328C112.035 454.807 117.987 456.71 119.139 457.767C120.291 458.823 130.084 463.051 141.221 467.278C152.166 471.506 163.496 476.367 166.568 478.269L171.752 481.651L162.727 492.008C144.678 512.088 107.426 537.875 96.2891 537.875C91.4886 537.875 86.3041 524.348 79.3915 494.333C74.207 471.717 70.1746 442.76 72.2868 442.76C72.8629 442.76 78.0474 444.662 83.8079 446.775ZM630.676 453.751C639.125 475.099 637.397 488.204 624.532 501.097C617.619 507.861 591.312 523.079 586.512 523.079C583.824 523.079 587.472 513.991 600.337 488.204C613.97 461.148 623.379 444.873 625.492 444.873C626.26 444.873 628.756 448.889 630.676 453.751ZM70.9427 490.317C78.6234 523.291 80.7356 537.875 78.0474 537.875C77.0873 537.875 72.6708 536.396 68.2544 534.705C59.0375 531.111 58.0775 533.436 65.9502 540.412C69.0225 543.159 73.2469 549.289 75.5511 554.151C77.6633 558.801 81.6957 564.719 84.576 567.255C89.5685 571.483 94.945 586.701 94.945 596.424C94.945 600.863 94.5609 601.074 90.9126 598.961C88.8004 597.692 85.5361 593.888 83.8079 590.294C81.8877 586.701 73.4389 572.117 64.6061 557.532C55.9653 543.159 49.2446 530.477 49.8207 529.42C50.3967 528.575 49.4366 523.713 47.9005 518.852C43.292 504.268 44.2521 492.431 52.3169 469.603L59.4216 448.889L62.1098 455.864C63.454 459.669 67.4863 475.099 70.9427 490.317ZM181.161 503.422C185.386 513.779 187.69 550.134 186.154 585.01C185.194 609.318 184.233 618.195 182.313 618.195C174.825 618.195 111.843 568.524 107.426 558.801C104.738 553.094 104.738 552.248 108.578 546.541C113.379 539.355 117.219 536.184 146.79 514.202C171.176 495.813 177.321 493.911 181.161 503.422ZM222.061 508.284C231.854 512.3 276.786 541.257 295.22 555.419L306.357 563.873L300.981 570.003C290.42 582.263 213.612 620.309 199.595 620.309H195.371L194.026 563.028C193.45 531.534 193.258 504.902 194.026 503.845C195.563 501.097 210.348 503.422 222.061 508.284ZM548.704 538.087C552.544 539.566 555.808 541.891 555.808 543.371C555.808 552.671 519.325 617.35 510.492 623.902C506.651 626.65 506.075 626.438 502.427 619.675C496.091 608.895 482.841 572.117 479.577 557.11C476.313 542.103 477.273 537.875 484.953 535.339C492.058 533.014 540.428 535.127 548.704 538.087ZM441.538 549.5C433.089 574.23 402.558 638.698 391.613 654.973C389.117 658.778 388.541 658.778 384.125 655.607C371.835 646.73 349.177 602.131 347.257 582.897C346.105 573.174 346.489 572.117 351.289 567.89C354.362 565.353 364.155 560.703 373.18 557.744C382.204 554.573 392.957 550.346 396.99 548.021C403.903 544.216 432.897 536.396 441.922 535.973L446.339 535.761L441.538 549.5ZM468.056 550.98C474.392 560.492 476.889 565.776 483.417 585.433C490.714 607.204 493.786 622.422 492.826 632.779L492.058 641.023L471.704 647.575C446.934 655.396 422.163 661.737 408.338 663.851L397.969 665.33L410.834 637.007C431.764 591.14 457.495 544.216 461.911 544.216C462.66 544.216 465.54 547.387 468.056 550.98ZM567.31 602.554C564.814 615.87 558.861 623.057 546.572 627.495C534.859 631.934 519.306 634.048 519.306 631.511C519.306 628.341 545.996 584.376 557.517 568.524L568.27 553.728L568.846 572.54C569.23 582.897 568.462 596.424 567.31 602.554ZM144.505 603.611C174.844 628.341 175.42 630.243 151.226 627.918C131.448 625.804 112.63 619.041 106.293 611.643C100.725 605.09 96.8844 591.563 96.8844 578.035V569.158L107.253 575.499C112.995 578.881 129.7 591.563 144.505 603.611ZM307.125 601.92C304.629 615.236 300.789 625.804 291.956 643.771C280.435 667.444 280.051 667.867 273.138 668.501C257.585 669.98 227.054 657.298 212.076 643.348L205.548 637.218L209.964 633.414C219.181 626.016 240.495 613.334 260.465 603.188C281.395 592.62 308.277 581.84 309.814 583.319C310.198 583.953 309.045 592.197 307.125 601.92ZM338.808 602.554C354.938 622.211 373.756 661.314 370.875 669.769C369.339 673.996 349.945 677.59 320.183 678.858L292.724 680.126V670.192C292.724 649.478 318.454 590.717 327.479 590.717C328.247 590.717 333.24 596.001 338.808 602.554ZM229.55 663.639C239.151 669.135 260.081 684.353 260.081 686.044C260.081 688.369 246.639 693.654 236.655 695.133C231.662 695.979 224.365 695.556 220.141 694.499C213.996 692.597 211.884 690.272 207.852 682.24C205.164 676.533 202.283 668.501 201.707 664.062C200.939 659.623 199.787 654.55 199.211 652.859C198.443 650.534 201.131 650.957 210.54 654.973C217.472 657.721 226.113 661.737 229.55 663.639ZM367.611 685.833C363.771 693.865 345.529 711.62 336.312 716.481L326.903 721.343L318.07 717.115C313.078 714.79 305.397 708.872 300.789 704.222C292.916 695.767 292.724 695.344 296.948 693.654C303.861 690.906 320.759 687.735 344.569 684.776C356.666 683.296 367.419 682.028 368.187 681.817C368.955 681.817 368.763 683.508 367.611 685.833ZM443.458 693.865L454.979 697.67L439.618 702.32C424.448 706.758 364.923 720.074 348.793 722.611C340.92 723.879 340.536 723.879 343.033 719.863C348.793 710.774 369.147 696.401 380.284 693.442C386.621 691.751 393.341 689.849 395.454 689.215C402.942 687.101 432.129 689.849 443.458 693.865ZM290.228 705.701C299.637 710.774 308.085 716.481 308.661 718.384C309.429 720.286 309.237 721.765 308.469 721.765C307.701 721.765 289.652 717.749 268.146 712.888C228.398 703.799 225.901 702.32 243.375 698.726C262.596 694.499 271.794 695.767 290.228 705.701Z" stroke="white" stroke-opacity="0.5" stroke-miterlimit="10"/>
</svg>
