<svg width="563" height="766" fill="none" xmlns="http://www.w3.org/2000/svg"><path d="M411.82 5.583c-15.961 8.947-112.9 28.15-148.343 29.242-23.942.654-30.514 2.836-34.739 11.347-1.408 2.837-5.633 6.983-9.624 8.947-8.684 4.583-8.919 6.983-1.173 6.983 4.459 0 6.572 1.746 8.45 5.893l2.582 6.11 3.99-7.42c5.633-9.82 12.91-13.093 29.575-13.311 16.9 0 69.242 12.875 63.609 15.712-11.971 6.328-92.245 25.75-105.859 25.75-2.347 0-3.521-2.182-3.521-6.328 0-8.075-3.755-10.475-7.041-4.583-1.409 2.4-4.225 4.364-6.573 4.364-2.112 0-9.858 4.147-16.9 9.166-11.266 7.856-28.166 14.839-35.912 14.839-1.408 0 .235-2.837 3.756-6.11 9.623-9.384 7.511-10.257-6.572-2.837-7.277 3.71-16.9 7.638-21.595 8.51-8.215 1.528-9.154 2.401-12.909 14.621-2.348 7.202-4.93 14.84-5.634 17.022-.939 2.837 0 3.491 4.225 3.273 5.164-.654 5.399 0 4.695 10.257-.47 7.201-4.46 18.112-11.267 32.079-5.633 11.784-10.328 22.04-10.328 23.131 0 3.274-24.645 19.859-36.381 24.441l-10.563 4.146 3.756-6.546c1.877-3.71 7.276-12.003 11.736-18.549 9.858-14.185 11.032-22.477 1.643-11.13-3.756 4.147-10.093 13.094-14.553 19.641-4.46 6.764-11.97 14.839-16.665 18.112L25 248.465l-1.408 28.588c-1.408 31.424-8.215 65.03-17.135 83.579-7.276 15.276-7.276 25.314 0 35.134 8.685 11.784 21.36 73.105 26.054 124.824 1.409 16.148 1.643 16.585 9.624 20.076 4.46 1.964 7.98 5.238 7.98 6.984 0 1.964 3.99 7.419 8.92 12.656 16.196 16.585 44.597 57.611 51.404 74.633 6.572 16.148 6.572 16.367 18.308 19.858 6.572 1.964 19.951 7.856 30.044 13.312 10.328 5.237 19.247 9.165 19.951 8.292 1.643-1.527-4.459-6.546-21.124-16.803-6.338-3.71-11.032-6.983-10.563-7.42.235-.218 14.318 1.746 30.983 4.365 36.617 5.674 48.118 10.693 59.385 26.405 7.511 10.693 13.613 26.623 11.266 28.806-.704.654-7.276-2.401-14.787-6.547-33.096-18.549-46.005-20.95-19.013-3.71 8.216 5.237 21.829 14.621 30.279 21.168 15.023 11.129 15.961 11.565 30.514 11.565 23.707.219 90.837 15.931 113.136 26.624l8.919 4.146 10.563-5.674c18.073-9.82 121.82-29.46 156.324-29.46 15.726 0 15.726 0 23.472-8.947 4.225-5.019 15.726-14.621 25.35-21.168 9.623-6.765 16.195-12.439 14.552-13.093-1.643-.437-8.215 2.837-14.552 7.201-17.604 12.002-38.729 17.24-63.375 15.712-22.064-1.309-54.69-9.602-49.057-12.438 4.695-2.619 98.348-24.66 99.522-23.569.704.437 0 4.147-1.174 8.293-2.816 9.165-1.408 10.693 5.399 5.019 2.817-2.4 9.858-6.547 15.726-9.165 5.868-2.619 12.675-7.202 15.257-10.039 2.582-2.837 11.736-7.637 20.656-10.693 13.144-4.8 15.726-5.019 15.726-2.182 0 1.746-.939 2.619-2.347 1.964-1.174-.654-2.348.655-2.348 3.055 0 4.583 3.756 8.075 5.164 4.801.235-1.091 7.042-4.801 15.022-8.51 17.135-8.075 17.839-8.729 26.289-27.933 3.756-8.511 11.501-22.695 17.604-31.861 6.103-8.947 11.032-17.458 11.032-19.203 0-5.238-6.337 1.964-17.369 19.203-5.868 9.384-13.849 20.295-17.839 24.441l-7.276 7.638 1.173-20.731c.704-11.348 2.817-25.75 4.929-32.079 6.807-20.731 26.289-38.844 52.108-48.445l12.206-4.365-5.868 12.221c-3.286 6.546-5.399 12.657-4.695 13.093.47.655 6.103-5.019 12.441-12.439 6.102-7.419 13.848-14.839 17.369-16.367 5.868-2.836 6.103-3.491 4.929-20.294-1.408-24.66 2.817-49.755 14.788-85.544 5.868-17.458 10.562-33.17 10.562-34.916 0-1.745-2.112-5.673-4.694-8.729-2.582-3.055-4.695-8.947-4.695-13.748 0-10.038-2.582-10.256-8.215-.654l-4.46 7.419-10.328-10.693c-11.97-12.438-16.665-12.657-5.868-.218 21.83 25.096 20.656 46.918-3.051 65.249l-9.623 7.201-5.164-36.661c-3.052-20.077-5.868-39.717-6.572-43.645-1.174-6.765-1.174-6.983 7.511-6.983 5.868 0 8.215-.873 7.276-2.837-10.328-22.913-10.797-52.374-1.408-73.105 3.051-6.328 5.868-11.129 6.337-10.474 2.113 1.964 7.981 25.313 13.614 54.337 3.286 16.803 7.511 33.388 9.389 37.098l3.051 6.983.235-7.201c.235-3.928-2.347-17.894-5.633-31.206-6.573-26.842-10.563-54.338-10.563-71.141 0-10.038-.704-12.002-6.337-15.275-3.756-1.965-9.389-6.765-12.675-10.257-6.103-6.547-6.103-6.547-7.746-1.746-.939 2.619-2.347 4.801-3.286 4.801-3.052-.218-18.543-14.184-23.942-21.822-3.051-4.146-8.919-11.13-13.144-15.276-7.042-6.983-15.022-24.004-15.022-31.642 0-1.964 1.173-5.238 2.816-7.42 3.756-5.674-1.877-23.568-8.45-27.496-8.45-4.801-46.24-19.204-47.413-17.894-.704.654 3.99 5.019 10.797 9.602 9.389 6.546 11.032 8.51 7.511 8.947-7.98 1.091-35.208-5.892-50.465-12.875-25.585-12.003-32.861-18.986-41.78-40.59-2.113-5.456-2.113-5.674 6.102-4.364 4.46.654 8.216.654 8.216.218 0-3.492-5.399-9.602-8.216-9.602-1.877 0-6.102-3.928-9.388-8.729-5.399-8.074-6.807-8.729-16.431-8.729-30.748 0-91.306-10.911-116.421-20.731C431.537 4.492 422.148 1 421.444 1c-.916 0-5.164 1.964-9.624 4.583zM397.056 25.44c-3.286 3.928-13.379 12.002-22.768 18.113l-17.134 10.91h-30.749c-23.941 0-34.504-.872-45.77-4.145-7.981-2.401-13.849-5.02-12.91-5.674 3.521-3.056 25.585-8.511 47.648-12.003 12.206-1.964 25.585-4.364 29.341-5.455 6.806-1.964 44.597-7.856 53.751-8.51 3.966-.22 3.732.436-1.409 6.764zm78.374-1.527c17.134 2.836 40.137 7.637 51.169 10.474l19.716 5.02-14.083 3.71c-18.308 4.8-26.054 4.582-37.086-.437-4.929-2.4-16.43-5.892-25.584-7.856-15.727-3.274-29.81-10.039-29.81-14.403 0-2.619.235-2.619 35.678 3.491zm-34.035 4.582c10.093 5.456 23.707 19.64 21.125 22.04-1.643 1.31-73.937 9.166-86.847 9.384h-6.572l10.093-11.784c5.633-6.547 12.206-12.875 14.788-14.184 2.581-1.31 8.449-5.02 12.909-8.074 9.624-6.547 18.778-5.893 34.504 2.618zM565.328 52.72c7.746 7.42 11.266 13.748 15.961 28.369l3.755 11.566-7.511-3.055c-4.225-1.528-14.318-5.674-22.768-8.948-24.411-9.601-51.638-23.131-50.23-25.313 2.347-3.71 23.472-8.293 38.729-8.293 13.849-.218 16.196.437 22.064 5.674zm-94.123 13.53c3.99 2.182 15.257 5.237 24.88 6.765 27.462 3.928 34.035 6.11 57.976 17.894 15.726 7.856 21.36 11.566 19.013 12.875-5.164 3.274-25.585 8.293-42.25 10.475-20.186 2.619-31.688.218-40.137-8.511l-6.807-6.983-5.399 4.801c-5.164 4.364-7.276 4.801-20.421 3.71-12.205-1.091-20.89-4.146-50.934-18.113l-36.382-17.021 9.154-1.964c15.257-2.837 57.742-7.638 71.355-7.856 8.685-.218 15.046 1.09 19.952 3.928zm-134.73 21.604c0 9.602-15.726 43.863-29.81 64.376-5.398 8.074-6.337 8.51-14.318 7.419-15.022-2.4-33.33-12.875-50.23-29.242-26.758-25.532-26.993-22.913 3.521-31.424 38.494-10.474 59.619-14.62 76.284-14.839 12.675-.218 14.553.218 14.553 3.71zm41.545-.655c22.299 6.11 78.163 34.916 78.163 40.153 0 5.892-72.529 28.588-130.036 40.59l-6.807 1.309 1.409-11.566c1.408-13.529 21.829-58.92 30.513-67.867 6.572-6.765 10.328-7.201 26.758-2.619zm-199.982 33.17c-6.807 15.058-49.995 66.122-56.098 66.122-1.174 0-1.643-7.856-.704-19.64 1.408-20.731 6.572-35.134 15.491-42.336 6.338-5.237 27.228-12.002 37.321-12.22h7.511l-3.521 8.074zm478.831-3.491c16.43 3.055 30.514 11.347 37.321 22.258 5.633 9.166 12.44 33.607 9.858 35.789-2.582 2.4-12.675-4.146-49.996-31.861-32.861-24.659-36.147-27.496-30.983-28.805 5.868-1.528 14.318-.873 33.8 2.619zm-67.13 5.019c7.041 3.491 11.736 12.002 18.777 35.352 5.634 17.894 16.666 62.63 15.727 63.503-1.643 1.527-32.861-17.894-55.16-34.261-13.848-10.257-31.922-23.132-39.902-29.024-12.675-9.165-24.176-23.568-21.125-26.623.704-.437 10.562-3.492 22.298-6.329 23.965-6.11 49.527-7.201 59.385-2.618zm-354.194 12.657c11.736 7.201 22.533 15.494 23.941 17.894 1.409 2.619 4.93 6.983 7.746 10.038 3.052 3.055 6.103 7.638 6.807 10.039 1.408 3.928 0 5.237-7.746 8.074-13.144 5.019-49.995 11.566-85.908 15.712-16.665 1.746-34.034 3.71-38.259 4.364-7.042.873-7.511.437-6.103-3.928 3.756-12.22 36.851-54.555 53.047-68.085 13.379-11.348 20.421-10.475 46.475 5.892zm396.232 3.709c23.472 16.149 55.629 42.554 60.558 49.319 4.695 6.765 1.878 12.002-11.971 20.731-9.858 6.329-39.667 15.058-42.484 12.657-.704-.655-7.042-21.168-14.083-45.609-7.042-24.441-13.379-45.826-13.849-47.354-1.901-5.019 3.052-2.619 21.829 10.256zm-162.919 13.749c4.224 18.767 2.347 80.524-3.521 120.677-3.286 23.35-4.46 27.278-7.981 27.278-8.215 0-43.658-26.187-80.979-60.011-40.137-36.226-53.985-49.974-53.985-53.683 0-6.111 69.946-29.024 107.971-35.353 30.068-5.019 37.321-4.8 38.495 1.092zm43.212 8.074c12.44 5.892 28.401 16.585 77.223 52.155 20.655 15.058 26.523 22.477 22.768 28.369-7.042 10.475-79.805 48.882-111.727 59.139l-13.614 4.364-1.643-5.892c-3.052-10.256-2.113-102.565 1.173-122.641 1.878-10.257 3.756-19.204 4.225-20.077 2.089-3.055 7.957-1.746 21.595 4.583zm-235.684 37.752c-3.52 10.693-13.848 27.278-35.443 56.957a42118.737 42118.737 0 00-31.687 43.426c-16.196 22.477-24.176 23.787-37.79 6.547-15.257-19.204-41.546-75.287-41.546-88.162 0-2.183 13.145-5.456 49.996-12.221 57.037-10.475 57.976-10.475 80.979-11.129 16.9-.218 17.134-.218 15.491 4.582zm41.311 13.312c6.103 2.619 22.768 15.712 39.903 31.206 16.196 14.621 36.851 32.515 46.24 39.935 9.389 7.419 21.359 18.549 26.523 24.877 8.685 10.039 9.154 11.348 5.164 12.657-13.848 4.801-111.962 10.693-179.327 10.693h-53.281l2.347-6.546c3.051-8.075 18.073-29.679 55.863-80.961l28.871-39.5 8.685 1.528c4.694.655 13.144 3.491 19.012 6.11zm439.398 11.784c12.44 10.911 13.144 24.005 3.051 51.937-4.929 13.53-7.746 18.549-10.328 18.549-3.99 0-19.716-52.373-24.411-80.961l-.938-5.673 13.144 5.237c7.276 3.055 15.961 7.856 19.482 10.911zm-41.311-.655c6.337 13.094 15.961 45.827 18.543 64.376l1.643 11.784-30.044-19.203c-38.964-24.659-43.658-28.806-43.658-38.844 0-4.583 2.112-10.693 4.929-14.185 6.337-8.292 22.298-15.712 33.799-15.712 8.45 0 9.155.437 14.788 11.784zM97.059 225.77c0 3.055-16.195 32.515-30.044 54.119-10.797 17.022-11.501 17.895-15.257 13.967-5.398-5.456-9.623-24.441-7.745-33.825 1.643-8.511 14.318-18.767 37.79-30.333 13.144-6.547 15.257-7.201 15.257-3.928zm23.027 6.983c12.909 19.64 40.841 74.414 42.015 82.27 1.173 8.511 1.173 8.729-7.511 10.257-22.064 3.71-67.835-4.801-82.387-15.494l-6.573-5.019 14.318-27.278c15.727-29.678 29.81-51.719 33.331-51.719 1.15 0 4.201 3.273 6.807 6.983zm516.127 33.17c.235.218 2.113 6.11 3.991 13.312 6.103 21.386 10.797 57.393 11.501 86.198.47 27.278.47 27.278-4.929 26.841-14.083-1.527-110.788-39.28-134.965-53.028-10.327-5.674-12.44-8.074-11.501-11.566 2.113-7.856 18.308-20.513 37.086-29.023 10.328-4.583 27.932-13.312 39.433-19.204 23.707-12.439 38.964-17.021 50.7-15.276 4.46.655 8.45 1.528 8.684 1.746zm34.739 5.019c18.778 8.729 42.25 24.005 51.404 33.388 14.083 14.621 12.206 21.386-15.257 55.866-17.839 22.258-24.645 27.714-33.095 26.623-4.695-.655-5.868-2.837-9.389-18.113-3.991-17.239-11.971-68.958-14.788-93.399-1.173-12.439-1.173-12.657 3.991-11.13 3.051.655 10.82 3.928 17.134 6.765zM37.44 302.585c-2.112 9.383-3.755 19.858-3.755 23.35 0 3.273-1.174 9.383-2.817 13.529-2.816 8.075-11.266 20.295-12.675 18.768-1.643-1.528 5.868-46.264 11.267-68.086l4.93-19.64 3.285 7.419c3.052 6.547 3.052 9.82-.235 24.66zm88.514 27.714c16.665 3.492 30.513 6.765 31.218 7.201 2.816 2.619-7.277 24.441-17.605 37.971-18.073 24.005-56.098 54.774-61.262 49.537-1.173-.873-4.694-13.53-8.215-27.933-6.337-26.186-8.685-55.647-5.164-67.212 1.643-5.674 2.347-5.892 16.43-5.892 7.958 0 28.167 2.836 44.598 6.328zm-71.379 25.532c6.337 27.278 11.736 70.923 8.685 68.959-1.409-.655-7.277-4.583-12.91-8.511-5.633-4.146-10.797-6.983-11.267-6.328-.704.654 2.582 6.764 7.277 13.748 18.543 28.15 20.42 51.282 6.337 78.124l-7.98 15.057-3.052-7.856c-7.51-20.295-26.523-109.548-23.706-112.167.469-.436 3.755 1.091 7.276 3.71 8.685 6.328 9.389 4.364 2.582-5.237-8.92-12.221-9.624-18.986-2.817-32.516 7.746-15.494 20.186-31.206 23.003-28.587 1.173 1.091 4.225 10.693 6.572 21.604zm696.182 3.492c2.348 14.839 3.521 33.824 3.052 47.572l-.704 22.914-7.042.655c-9.624 1.091-33.33-3.492-43.893-8.511-7.511-3.492-8.919-5.238-8.919-11.348 0-8.074 12.44-33.606 23.941-49.1 10.093-13.748 25.35-29.024 27.697-27.714.939.654 3.521 12.002 5.868 25.532zm-318.493-17.895c-3.051 3.492-15.022 13.094-26.523 21.168-11.736 8.074-38.494 28.151-59.619 44.299-56.333 43.427-94.358 67.65-106.563 67.65-10.328 0-36.852-81.834-36.852-113.476 0-9.821.47-10.693 6.573-11.785 11.736-2.182 69.242-7.637 104.92-10.038 53.986-3.491 56.333-3.491 91.072-3.928l32.391-.436-5.399 6.546zm15.703 29.679c-6.337 37.098-32.626 139.663-44.597 175.015-5.398 15.93-6.572 17.458-13.144 18.767-8.919 1.528-25.35-1.746-38.025-7.856-13.614-6.328-61.027-33.17-77.458-43.863-12.909-8.51-13.848-9.383-12.675-16.148 1.878-10.257 9.154-18.768 27.463-31.861 8.684-6.328 40.137-29.46 69.712-51.719 49.761-37.316 89.428-64.376 91.306-62.63.493.436-.68 9.602-2.582 20.295zm68.069-13.094c19.717 6.765 71.59 27.715 92.246 36.88 18.073 8.074 40.372 25.532 40.372 31.424 0 4.801-20.89 34.916-37.79 53.902-14.318 16.366-36.617 35.788-40.842 35.788-3.051 0-6.103-4.801-21.125-32.733-18.543-34.261-59.854-125.697-59.854-132.026 0-1.745 11.032 1.092 26.993 6.765zm-37.32 10.039c3.521 6.328 14.083 28.151 23.472 48.663 9.389 20.295 21.125 45.827 26.289 56.739 11.031 23.131 15.256 39.498 14.083 54.555l-.704 10.693-24.881 10.257c-13.848 5.455-29.575 10.693-35.208 11.566-5.633.873-19.012 3.928-29.809 6.983-10.563 3.055-22.299 5.237-25.82 4.801-5.398-.655-6.337-1.746-7.041-8.947-.939-11.13 8.45-56.738 24.176-116.095 11.501-43.645 26.289-90.563 28.401-90.563.493 0 3.756 5.237 7.042 11.348zm-292.463 2.182c10.563 16.367 29.341 73.541 32.157 98.419l1.409 12.657-10.328-1.528c-5.633-.873-20.186-3.71-32.157-6.547-11.971-2.837-23.707-5.237-26.054-5.237-2.347 0-8.919-2.4-14.553-5.237-5.633-2.837-15.726-6.765-22.298-8.729-6.572-1.964-13.849-5.019-16.43-6.547-4.226-2.837-4.226-3.492-.47-10.475 5.164-10.256 57.037-61.975 68.773-68.522 12.206-6.765 14.318-6.547 19.951 1.746zm603.468 79.215c-6.338 40.59-6.572 41.244-8.45 28.587-2.347-16.366-.235-43.208 4.694-55.647 3.287-9.165 7.981-16.366 9.624-15.057.235.436-2.347 19.422-5.868 42.117zm-63.609-14.185c8.45 2.401 17.369 5.456 19.716 7.202 4.46 3.055 4.46 3.273-.704 17.021-13.379 34.261-46.709 85.762-47.179 72.45 0-2.618-3.521-20.294-7.98-39.28-4.46-18.985-8.92-40.589-9.859-48.009-1.408-12.875-1.173-13.312 3.991-14.403 8.45-1.527 25.138.437 42.015 5.019zm-49.292 41.681c7.746 35.134 9.859 61.321 5.399 65.467-3.99 3.71-54.69 1.091-74.641-3.71-14.084-3.491-16.431-4.801-15.727-8.51 2.347-13.53 25.35-46.918 55.629-79.652 15.961-17.458 16.196-17.676 19.247-12.439 1.643 3.056 6.126 20.513 10.093 38.844zm-574.597-15.712c7.277 2.182 19.248 5.237 26.759 6.765 7.745 1.528 15.022 3.492 16.43 4.583 1.408 1.091 13.379 5.455 26.993 9.82 13.379 4.364 27.228 9.383 30.983 11.347l6.338 3.492-11.032 10.693c-22.064 20.731-67.6 47.354-81.214 47.354-5.868 0-12.205-13.966-20.655-44.954-6.338-23.35-11.267-53.246-8.685-53.246.704 0 7.042 1.964 14.083 4.146zm668.486 7.201c10.327 22.041 8.215 35.571-7.511 48.882-8.45 6.984-40.607 22.696-46.475 22.696-3.286 0 1.173-9.384 16.9-36.007 16.665-27.933 28.166-44.736 30.748-44.736.939 0 3.99 4.146 6.338 9.165zM86.497 506.187c9.389 34.043 11.97 49.1 8.685 49.1-1.174 0-6.572-1.527-11.971-3.273-11.267-3.71-12.44-1.309-2.817 5.892 3.756 2.837 8.92 9.165 11.736 14.185 2.582 4.8 7.511 10.911 11.032 13.529 6.103 4.365 12.675 20.077 12.675 30.115 0 4.583-.469 4.801-4.929 2.619-2.582-1.309-6.572-5.238-8.685-8.947-2.347-3.71-12.674-18.768-23.472-33.825-10.562-14.839-18.777-27.932-18.073-29.024.704-.873-.47-5.892-2.347-10.911-5.634-15.057-4.46-27.278 5.398-50.846l8.685-21.386 3.286 7.202c1.643 3.928 6.572 19.858 10.797 35.57zm134.73 13.53c5.164 10.693 7.98 48.227 6.103 84.234-1.174 25.096-2.348 34.261-4.695 34.261-9.154 0-86.142-51.282-91.541-61.321-3.286-5.892-3.286-6.764 1.408-12.657 5.868-7.419 10.563-10.692 46.71-33.388 29.809-18.985 37.32-20.949 42.015-11.129zm49.995 5.019c11.971 4.146 66.896 34.043 89.429 48.664l13.614 8.729-6.572 6.328c-12.91 12.657-106.798 51.937-123.933 51.937h-5.164l-1.643-59.138c-.704-32.515-.939-60.012 0-61.103 1.878-2.837 19.951-.436 34.269 4.583zm399.284 30.77c4.695 1.527 8.685 3.928 8.685 5.455 0 9.602-44.597 76.378-55.394 83.143-4.695 2.837-5.399 2.619-9.858-4.364-7.746-11.13-23.942-49.1-27.932-64.594-3.991-15.494-2.817-19.859 6.572-22.477 8.685-2.401 67.811-.219 77.927 2.837zM539.508 567.29c-10.327 25.532-47.648 92.09-61.027 108.893-3.051 3.928-3.755 3.928-9.154.655-15.022-9.166-42.719-55.211-45.066-75.069-1.409-10.038-.939-11.129 4.929-15.494 3.755-2.619 15.726-7.42 26.758-10.475 11.032-3.273 24.176-7.638 29.105-10.038 8.45-3.928 43.893-12.002 54.925-12.439l5.399-.218-5.869 14.185zm32.415 1.527c7.746 9.82 10.798 15.276 18.778 35.571 8.92 22.477 12.675 38.189 11.501 48.882l-.938 8.51-24.881 6.765c-30.279 8.075-60.558 14.621-77.458 16.803l-12.675 1.528 15.727-29.242c25.584-47.354 57.037-95.8 62.435-95.8.916 0 4.437 3.273 7.511 6.983zm121.328 53.247c-3.052 13.748-10.328 21.167-25.35 25.75-14.318 4.583-33.331 6.765-33.331 4.146 0-3.273 32.627-48.664 46.71-65.03l13.144-15.276.704 19.422c.47 10.693-.469 24.659-1.877 30.988zm-516.832 1.091c37.086 25.532 37.79 27.496 8.215 25.095-24.176-2.182-47.179-9.165-54.925-16.803-6.807-6.765-11.501-20.731-11.501-34.697v-9.166l12.675 6.547c7.018 3.492 27.439 16.585 45.536 29.024zm198.785-1.746c-3.052 13.748-7.746 24.659-18.543 43.208-14.083 24.441-14.553 24.878-23.003 25.532-19.012 1.528-56.333-11.565-74.641-25.968l-7.981-6.329 5.399-3.928c11.267-7.638 37.321-20.731 61.732-31.206 25.584-10.911 58.445-22.04 60.323-20.513.469.655-.939 9.166-3.286 19.204zm38.729.655c19.716 20.294 42.719 60.666 39.198 69.395-1.878 4.364-25.584 8.074-61.966 9.383l-33.565 1.31v-10.257c0-21.386 31.452-82.052 42.484-82.052.939 0 7.042 5.456 13.849 12.221zM280.377 685.13c11.736 5.674 37.32 21.386 37.32 23.132 0 2.4-16.43 7.856-28.636 9.383-6.102.873-15.022.437-20.186-.654-7.511-1.964-10.093-4.365-15.022-12.657-3.286-5.892-6.807-14.185-7.511-18.767-.939-4.583-2.347-9.82-3.051-11.566-.939-2.401 2.347-1.964 13.848 2.182 8.474 2.837 19.036 6.983 23.238 8.947zm168.764 22.914c-4.694 8.292-26.993 26.623-38.26 31.642l-11.501 5.019-10.797-4.364c-6.103-2.401-15.492-8.511-21.125-13.312-9.624-8.729-9.858-9.165-4.694-10.911 8.45-2.837 29.105-6.11 58.21-9.165 14.788-1.528 27.932-2.837 28.871-3.056.939 0 .704 1.746-.704 4.147zm92.715 8.292l14.083 3.928-18.778 4.801c-18.543 4.583-91.306 18.331-111.023 20.95-9.623 1.309-10.093 1.309-7.041-2.837 7.041-9.384 31.922-24.223 45.536-27.278 7.745-1.746 15.961-3.71 18.542-4.365 9.155-2.182 44.832.655 58.681 4.801zm-187.308 12.221c11.502 5.237 21.829 11.129 22.534 13.093.938 1.964.704 3.492-.235 3.492s-23.003-4.147-49.292-9.166c-48.587-9.383-51.638-10.911-30.279-14.621 23.496-4.364 34.739-3.055 57.272 7.202z" stroke="#fff" stroke-opacity=".5" stroke-miterlimit="10"/></svg>