<svg width="883" height="1479" viewBox="0 0 883 1479" fill="none" xmlns="http://www.w3.org/2000/svg">
<path d="M-258.498 12.5643C-287.266 33.9923 -483.837 96.5259 -559.394 107.979C-610.484 115.556 -623.263 121.49 -627.059 138.981C-628.324 144.811 -634.833 153.904 -642.195 158.737C-658.025 169.846 -657.038 174.527 -640.377 172.483C-630.784 171.306 -625.155 174.108 -618.538 181.591L-609.184 192.666L-605.215 177.337C-599.205 156.955 -585.589 148.736 -549.879 143.918C-513.528 139.458 -392.936 150.419 -403.288 157.364C-425.102 172.701 -585.691 231.256 -614.973 234.849C-620.022 235.468 -623.903 231.579 -626.482 223.601C-631.503 208.065 -641.073 204.437 -644.478 216.641C-646.014 221.632 -650.851 226.154 -655.9 226.774C-660.444 227.331 -674.526 237.353 -686.551 248.869C-705.9 266.959 -737.909 284.856 -754.569 286.9C-757.599 287.271 -755.829 281.379 -750.291 274.151C-735.426 253.556 -740.513 252.434 -766.191 270.427C-779.536 279.486 -797.793 289.584 -807.347 292.502C-824.068 297.609 -825.545 299.537 -826.024 324.042C-826.594 338.518 -827.399 353.896 -827.556 358.281C-827.812 363.988 -825.385 365 -816.433 363.465C-805.733 360.842 -804.821 362.04 -799.958 381.961C-796.489 395.942 -798.287 417.99 -804.244 446.66C-809.033 470.821 -812.753 491.795 -812.074 493.895C-810.039 500.193 -852.737 538.61 -875.131 550.525L-895.272 561.29L-891.265 547.702C-889.533 540.068 -883.078 522.688 -877.556 508.914C-865.172 479.018 -867.804 462.752 -880.943 487.065C-886.442 496.034 -894.51 514.923 -900.032 528.697C-905.418 542.89 -916.553 560.409 -924.615 567.946L-939.496 581.995L-924.748 637.374C-908.237 698.211 -901.981 764.673 -909.632 802.718C-915.784 834.031 -909.542 853.347 -887.784 870.322C-861.776 890.705 -796.382 1005.35 -754.124 1103.63C-741.054 1134.33 -740.277 1135.11 -720.941 1139.72C-710.127 1142.32 -700.518 1147.69 -699.433 1151.05C-698.211 1154.83 -686.236 1164.28 -672.377 1173.05C-627.228 1200.69 -540.627 1272.14 -515.401 1303.09C-491.223 1332.43 -491.088 1332.85 -463.673 1336.47C-448.315 1338.52 -415.874 1346.32 -390.772 1354.16C-365.301 1361.51 -343.673 1366.71 -342.701 1364.85C-340.117 1361.48 -356.365 1353.43 -398.588 1338.09C-414.527 1332.63 -426.66 1327.57 -425.921 1326.6C-425.552 1326.12 -394.038 1326.18 -356.564 1326.82C-274.276 1328.08 -246.416 1334.7 -212.412 1361.96C-189.607 1380.55 -166.574 1409.6 -170.266 1414.41C-171.374 1415.86 -187.41 1411.72 -206.144 1405.72C-288.865 1378.76 -318.126 1377.55 -249.346 1403.6C-228.418 1411.51 -193.301 1425.97 -171.054 1436.34C-131.822 1453.79 -129.531 1454.38 -98.2291 1450.54C-47.1013 1444.7 107.062 1457.22 161.674 1471.91L183.438 1477.54L202.629 1463.83C235.398 1440.17 446.338 1375 520.554 1365.89C554.381 1361.74 554.381 1361.74 565.478 1342.48C571.444 1331.71 590.213 1310.2 606.841 1295.06C623.335 1279.5 633.943 1266.85 630.002 1266.03C626.196 1265.62 614.095 1273.65 603.178 1283.72C572.776 1311.46 530.594 1327.12 476.632 1330.68C428.36 1333.98 353.027 1326.64 363.379 1319.69C371.848 1313.42 559.587 1246.29 562.79 1248.08C564.576 1248.73 565.368 1256.06 565.422 1264.35C565.063 1282.72 569.042 1285.29 580.155 1272.58C584.721 1267.22 597.289 1257.38 608.282 1250.79C619.276 1244.21 631.067 1233.59 634.857 1227.45C638.646 1221.31 655.351 1209.66 672.636 1201.43C697.924 1188.72 703.342 1187.62 705.106 1193.08C706.191 1196.44 704.714 1198.36 701.278 1197.47C698.347 1196.52 696.637 1199.35 698.129 1203.97C700.979 1212.79 711.228 1218.52 712.222 1211.85C712.048 1209.69 724.382 1200.75 739.241 1191.51C771.076 1171.45 772.184 1170 778.418 1130.82C781.203 1113.45 789.044 1084.12 796.471 1064.87C804.034 1046.04 809.344 1028.37 808.259 1025.01C805.002 1014.93 795.848 1030.46 782.839 1066.54C776.053 1086.15 765.672 1109.25 759.668 1118.28L748.766 1134.9L738.399 1094.7C732.857 1072.68 728.445 1044.4 729.054 1031.67C730.804 989.983 761.445 949.99 811.01 924.701L834.55 913.082L829.527 938.145C826.53 951.609 825.785 963.924 827.571 964.578C828.988 965.714 837.577 953.31 846.595 937.36C855.108 921.473 867.155 905.153 873.778 901.284C884.636 894.277 884.733 892.955 871.76 860.933C853.397 813.855 846.88 764.452 850.374 692.429C852.14 657.288 852.467 625.817 851.381 622.457C850.296 619.098 843.309 612.097 835.856 606.9C828.403 601.703 820.195 590.923 817.21 581.685C810.968 562.37 805.278 562.631 799.132 582.593L794.153 598.047L765.29 580.197C731.806 559.422 721.573 560.241 752.532 581.326C815.09 623.854 826.136 666.154 786.542 707.682L770.321 724.078L736.416 654.897C717.369 617.072 699.098 580.024 695.14 572.652C688.409 559.944 688.274 559.524 706.954 557.233C719.576 555.684 724.082 553.385 720.841 549.854C684.378 508.49 665.049 451.927 672.353 409.558C674.981 396.576 678.054 386.595 679.471 387.731C685.236 390.952 712.378 434.333 742.542 488.693C760.059 520.159 779.46 550.956 785.806 557.599L796.711 570.231L792.738 556.312C790.801 548.692 776.562 522.499 761.217 497.753C730.389 447.839 704.709 395.985 694.26 363.652C688.018 344.337 685.282 340.744 671.129 335.932C661.83 333.144 646.728 325.392 637.489 319.541C620.291 308.555 620.291 308.555 619.742 318.226C619.351 323.513 617.679 328.083 615.659 328.331C608.96 328.716 566.954 305.931 550.593 292.659C541.451 285.486 524.487 273.598 512.821 266.735C493.333 255.156 465.582 224.51 460.833 209.813C459.612 206.034 460.101 199.426 462.278 194.794C466.827 182.885 443.583 149.94 427.004 144.116C405.844 137.108 315.603 119.367 313.893 122.196C312.786 123.642 325.597 130.801 343.088 137.823C367.354 147.942 372.109 151.288 364.807 153.057C348.32 157.262 285.413 151.011 248.254 141.6C185.759 125.257 165.766 113.741 133.147 74.5241C125.211 64.5841 125.075 64.1642 143.559 64.5156C153.559 64.5984 161.637 63.6073 161.366 62.7675C159.195 56.0491 143.783 45.7165 137.724 46.4598C133.685 46.9554 122.155 40.5121 112.102 32.1415C95.4688 18.0298 92.0325 17.1418 71.3327 19.6814C5.19453 27.7959 -131.847 22.782 -191.975 10.5143C-216.768 5.26162 -239.134 1.02091 -240.648 1.20673C-242.617 1.44831 -250.534 6.34857 -258.498 12.5643ZM-277.906 54.6715C-282.532 63.0969 -299.221 81.2968 -315.616 95.5317L-345.687 121.049L-411.825 129.163C-463.322 135.481 -486.584 136.589 -512.853 133.264C-531.512 130.751 -545.762 127.261 -544.149 125.753C-538.476 118.945 -494.41 102.625 -449.124 90.0842C-424.092 83.0841 -396.807 74.9344 -389.407 71.8438C-375.987 66.2684 -298.367 44.9583 -279.084 41.2829C-270.687 39.8162 -270.785 41.1378 -277.906 54.6715ZM-110.279 31.0496C-71.6598 31.9865 -19.197 35.154 6.29609 37.7014L51.8264 42.1559L23.841 53.0108C-12.5537 67.0801 -29.3502 68.7043 -56.2002 61.9579C-68.2952 58.6398 -95.2051 54.9566 -116.116 53.5932C-151.978 51.4448 -186.477 42.1444 -189.191 33.7464C-190.82 28.7076 -190.315 28.6457 -110.279 31.0496ZM-180.636 48.8492C-155.534 56.6832 -117.431 80.3841 -121.492 85.6844C-124.212 88.6374 -274.828 122.832 -302.46 126.659L-316.596 128.393L-302.214 103.055C-294.168 88.9714 -283.967 75.0598 -279.228 71.8591C-274.489 68.6583 -264.174 59.9714 -256.481 52.9159C-239.852 37.7792 -219.755 36.6232 -180.636 48.8492ZM100.999 62.7526C122.273 74.9851 133.781 86.2331 152.971 113.128L168.241 134.391L150.185 130.495C140.147 128.67 115.86 123.356 95.6487 119.287C37.1713 107.254 -29.8071 88.4051 -28.1348 83.8345C-25.393 76.0767 17.1958 61.684 50.0125 57.6577C79.6642 53.5832 85.12 54.2235 100.999 62.7526ZM-93.0417 113.625C-83.1019 116.771 -56.9684 119.677 -35.3187 120.076C26.1938 120.387 41.6872 122.852 100.512 139.209C139.223 150.175 153.647 155.826 149.413 158.965C140.341 166.627 99.5381 181.673 65.0492 190.27C23.2586 200.636 -2.97283 199.052 -26.5761 184.486L-45.5597 172.846L-54.1864 183.508C-62.5797 193.269 -66.8521 194.666 -95.8034 196.036C-122.735 197.157 -143.315 193.57 -216.624 174.625L-305.463 151.474L-286.994 145.279C-255.942 135.794 -167.545 115.345 -138.398 111.332C-119.854 108.62 -105.358 109.461 -93.0417 113.625ZM-369.404 190.751C-363.433 209.226 -375.955 279.301 -393.492 322.488C-400.083 339.449 -401.831 340.537 -419.675 340.543C-453.48 339.889 -499.373 324.565 -545.902 297.532C-619.334 255.465 -618.21 260.566 -557.869 236.137C-481.584 205.823 -438.723 192.27 -403.013 187.453C-375.886 183.688 -371.575 184.032 -369.404 190.751ZM-280.449 178.527C-228.687 184.4 -90.6149 225.084 -87.3582 235.162C-83.6944 246.499 -225.587 309.309 -341.817 347.58L-355.645 351.895L-359.807 329.269C-365.191 302.864 -349.493 210.135 -336.376 190.627C-326.446 175.876 -318.64 174.045 -280.449 178.527ZM-689.974 295.127C-695.252 325.896 -756.395 435.551 -769.522 437.161C-772.046 437.471 -777.941 422.478 -783.249 399.556C-793.111 359.294 -790.96 330.217 -776.253 314.007C-765.878 302.257 -725.151 283.727 -703.577 280.644L-687.421 278.661L-689.974 295.127ZM337.794 162.046C375.035 163.589 410.483 175.828 431.91 195.027C449.726 211.176 479.565 256.409 475.369 261.289C471.308 266.589 445.527 256.656 348.019 213.177C262.003 174.4 253.171 169.809 263.464 165.927C275.136 161.439 293.718 160.469 337.794 162.046ZM196.521 189.419C213.839 194.279 229.228 209.417 258.894 252.488C282.138 285.433 333.685 368.601 332.209 370.529C329.624 373.902 250.399 344.769 192.259 319.161C156.094 303.08 109.213 283.075 88.3833 273.844C55.4209 259.553 21.7261 234.875 26.3897 228.191C27.6329 227.165 46.9377 218.685 70.4173 210.129C118.165 192.048 172.467 183.203 196.521 189.419ZM-557.46 307.245C-527.738 318.004 -499.357 331.111 -494.836 335.358C-490.178 340.026 -479.891 347.494 -471.933 352.63C-463.47 357.703 -454.057 365.716 -451.049 370.149C-445.578 377.335 -447.793 380.226 -462.689 387.729C-487.841 400.856 -563.035 423.178 -637.702 440.633C-672.462 448.39 -708.602 456.753 -717.282 459.128C-731.886 462.666 -733.167 461.95 -732.852 453.18C-732.373 428.674 -687.511 338.48 -661.088 308.172C-639.367 282.806 -623.678 282.628 -557.46 307.245ZM297.121 209.818C357.65 234.696 443.237 277.018 458.046 288.734C472.35 300.512 469.548 311.333 445.189 331.784C427.919 346.563 369.229 371.226 361.677 367.35C359.756 366.276 333.369 328.478 303.024 283.307C272.68 238.136 245.75 198.659 243.79 195.843C236.58 186.687 248.725 189.999 297.121 209.818ZM-44.7612 279.266C-24.0035 314.262 10.36 433.59 22.7066 512.4C30.1581 558.197 30.0762 566.065 22.5031 566.994C4.83262 569.162 -87.6868 528.127 -188.995 472.891C-297.853 413.78 -336.19 390.981 -338.497 383.842C-342.296 372.085 -206.093 309.537 -128.239 287.325C-66.6857 269.732 -50.9494 268.238 -44.7612 279.266ZM53.2065 283.399C83.6285 291.453 124.609 307.816 251.741 363.376C305.533 386.898 322.768 399.626 318.354 411.955C309.722 433.968 177.094 527.073 114.809 555.232L88.2408 567.223L81.0429 556.319C68.1018 537.389 12.7211 359.523 7.30509 320.025C4.96627 299.794 3.44165 282.083 3.90861 280.279C6.5022 273.85 19.9382 274.82 53.2065 283.399ZM-430.26 418.238C-431.184 439.742 -443.085 474.38 -471.078 537.185C-487.252 573.221 -505.836 614.79 -512.232 629.108C-533.091 676.632 -549.443 681.257 -589.445 651.678C-634.204 618.753 -725.624 517.776 -733.63 493.002C-734.987 488.803 -708.749 479.035 -633.691 456.293C-517.521 421.086 -515.501 420.838 -466.431 413.508C-430.216 408.628 -429.711 408.567 -430.26 418.238ZM-333.125 432.95C-318.37 436.378 -274.382 457.174 -227.892 482.466C-183.964 506.325 -128.408 535.306 -103.599 547.105C-78.7906 558.904 -46.1215 577.16 -31.0791 587.974C-6.15674 604.998 -4.33282 607.393 -12.1015 610.966C-38.9035 623.858 -246.276 661.087 -391.174 678.865L-505.78 692.926L-504.803 679.709C-503.26 663.368 -484.382 617.833 -434.987 509.184L-397.449 425.563L-377.819 426.21C-367.314 426.231 -347.375 429.46 -333.125 432.95ZM619.323 339.668C652.866 357.381 662.523 382.389 658.183 438.8C655.994 466.134 653.056 476.535 647.502 477.217C638.92 478.27 572.526 381.644 544.652 327.875L539.104 317.206L570.634 323.815C588.185 327.773 609.85 334.719 619.323 339.668ZM530.059 349.311C551.832 372.832 592.887 433.278 609.974 468.288L620.836 490.529L544.271 461.506C445.129 424.34 432.453 417.601 426.211 398.285C423.361 389.467 424.105 377.153 427.993 369.691C436.468 352.062 466.185 333.573 490.924 330.538C509.099 328.308 510.885 328.962 530.059 349.311ZM-798.612 519.309C-796.713 525.188 -813.23 586.149 -829.583 631.373C-842.223 666.975 -843.194 668.84 -853.715 662.273C-868.719 653.2 -889.613 617.784 -891.409 599.233C-893.167 582.423 -872.282 559.343 -828.987 530.894C-804.785 514.828 -800.648 513.011 -798.612 519.309ZM-744.742 526.67C-704.761 561.054 -610.622 659.078 -603.212 673.885C-595.396 689.951 -595.26 690.371 -612.99 695.602C-658.141 708.563 -761.883 704.266 -799.835 687.531L-817.092 679.608L-803.257 623.341C-787.886 562.085 -771.299 515.958 -763.726 515.029C-761.252 514.726 -752.653 520.219 -744.742 526.67ZM386.047 454.289C386.687 454.647 394.39 465.489 402.907 478.85C429.332 518.39 461.82 586.435 481.246 641.676C499.218 694.04 499.218 694.04 487.335 694.625C456.093 695.402 224.61 648.279 164.059 628.206C138.316 620.014 132.28 615.952 132.128 608.986C131.787 593.312 158.753 564.684 193.85 543.352C213.215 531.809 245.652 510.367 266.727 495.995C309.985 465.804 339.952 452.96 366.281 453.222C376.281 453.305 385.406 453.931 386.047 454.289ZM463.889 454.78C509.706 466.62 569.692 489.819 595.217 505.459C634.602 529.876 634.769 543.388 597.139 616.98C572.61 664.518 561.361 676.811 542.508 676.942C532.003 676.921 528.122 673.032 511.05 644.568C491.747 612.449 442.421 515.038 421.164 468.752C410.905 445.128 410.769 444.708 422.826 446.284C429.797 446.739 448.544 450.987 463.889 454.78ZM-879.084 682.848C-877.793 701.461 -874.814 722.05 -872.643 728.768C-870.607 735.067 -869.332 747.134 -870.288 755.546C-871.325 771.825 -881.902 797.57 -885.881 795.002C-890.365 792.496 -902.027 704.434 -903.985 661.02L-905.595 621.928L-893.913 635.337C-883.279 647.129 -881.244 653.427 -879.084 682.848ZM-671.463 712.817C-633.446 715.137 -601.624 717.781 -599.838 718.435C-592.151 722.731 -600.29 767.384 -614.091 796.144C-638.04 847.102 -700.696 916.343 -715.06 907.628C-718.127 906.258 -733.57 882.833 -750.099 856.049C-780.015 807.333 -803.383 751.266 -803.002 728.082C-802.996 716.731 -801.617 716.125 -771.324 712.409C-754.209 710.309 -708.976 710.434 -671.463 712.817ZM-809.118 780.782C-778.525 831.597 -739.773 914.153 -747.558 911.179C-750.994 910.291 -766.058 904.281 -780.618 898.21C-795.313 891.718 -808.184 887.622 -808.787 889.006C-809.894 890.451 -799.027 901.341 -784.587 913.539C-727.197 962.813 -708.774 1006.83 -722.375 1062.19L-730.178 1093.27L-741.626 1078.96C-770.402 1041.89 -866.797 875.168 -862.367 869.386C-861.629 868.423 -853.611 870.495 -844.409 874.604C-821.794 884.49 -821.5 880.525 -842.112 863.845C-868.897 842.685 -874.618 829.854 -868.39 802.024C-861.364 770.166 -844.376 736.651 -836.689 740.946C-833.486 742.736 -820.952 760.406 -809.118 780.782ZM690.503 603.779C704.779 631.713 719.109 667.935 726.648 694.512L739.382 738.788L724.643 741.906C704.622 746.545 650.78 743.983 624.94 737.113C606.613 732.376 602.498 729.389 598.698 717.632C593.677 702.095 604.559 649.684 619.663 616.836C632.824 587.719 656.141 554.299 662.004 556.199C664.431 557.211 677.041 578.365 690.503 603.779ZM-5.68509 653.397C-10.0773 660.921 -29.855 682.555 -49.5729 701.127C-69.7957 719.76 -114.867 765.453 -150.264 802.1C-244.429 900.527 -311.156 957.17 -337.409 960.391C-359.624 963.117 -467.561 812.653 -487.237 751.768C-493.343 732.872 -492.876 731.069 -480.428 727.359C-456.542 720.063 -336.24 694.389 -260.993 680.355C-147.043 659.39 -141.995 658.77 -67.5449 648.763L1.85604 639.375L-5.68509 653.397ZM46.5458 706.359C55.9828 779.415 63.2152 983.706 59.4497 1054.89C57.7436 1086.97 56.1692 1090.22 42.847 1094.47C24.6117 1099.76 -12.7648 1097.8 -43.8274 1089.39C-77.0452 1080.8 -195.72 1041.67 -237.71 1025.43C-270.771 1012.46 -273.333 1011.03 -275.015 997.701C-277.354 977.47 -266.995 959.174 -235.757 929.148C-221.012 914.679 -167.743 861.869 -117.97 811.235C-34.1419 726.3 34.3549 663.764 39.4795 666.627C40.8111 667.337 43.986 685.283 46.5458 706.359ZM184.817 663.202C231.433 671.016 356.036 697.637 406.164 709.822C450.06 720.589 508.879 748.296 512.543 759.634C515.528 768.871 489.321 832.331 464.776 873.322C444.156 908.593 408.27 951.849 399.182 952.964C392.619 953.769 383.07 945.336 333.389 895.553C272.2 834.522 126.485 669.486 122.55 657.309C121.464 653.949 146.957 656.497 184.817 663.202ZM110.784 692.366C122.293 703.614 158.582 742.817 191.532 779.81C224.347 816.383 265.467 862.414 283.359 882.047C321.472 923.645 340.737 954.023 347.576 983.306L352.71 1004.07L305.572 1030.37C279.177 1044.52 248.607 1058.75 237.033 1061.91C225.459 1065.08 198.581 1074.49 177.257 1083.22C156.437 1091.88 132.55 1099.18 124.706 1099.27C112.687 1099.43 109.989 1097.58 103.996 1083.91C95.0562 1062.74 86.8902 972.507 83.8068 854.144C81.406 767.128 84.0379 672.947 88.5818 672.39C89.642 672.26 99.9165 681.476 110.784 692.366ZM-516.929 773.746C-484.033 802.451 -408.09 907.51 -386.562 954.635L-375.662 978.618L-398.827 978.404C-411.486 978.211 -444.552 976.592 -472.065 974.293C-499.577 971.993 -526.314 970.471 -531.362 971.091C-536.411 971.71 -552.04 968.826 -565.921 964.854C-579.802 960.882 -603.954 955.987 -619.312 953.942C-634.67 951.897 -652.22 947.939 -658.724 945.681C-669.576 941.337 -669.983 940.078 -666.247 925.65C-661.518 904.552 -582.102 791.346 -560.929 775.652C-538.882 759.414 -534.203 759.276 -516.929 773.746ZM830.355 766.916C841.963 846.69 841.865 848.011 829.956 824.153C814.73 793.28 802.583 741.074 805.45 715.839C806.819 697.336 812.438 682.24 816.787 684.326C817.563 685.104 823.815 722.317 830.355 766.916ZM684.714 756.409C704.382 758.798 725.467 762.322 731.601 765.062C743.094 769.764 743.229 770.184 740.671 798C733.198 867.455 693.531 975.348 684.244 949.858C682.615 944.819 664.051 911.736 642.652 876.382C621.254 841.027 598.227 800.634 591.594 786.605C580.559 762.203 580.792 761.301 591.221 757.839C608.446 752.669 645.564 752.044 684.714 756.409ZM604.609 849.618C643.117 915.178 663.945 965.008 656.931 974.163C650.655 982.355 539.974 990.695 494.075 986.723C461.611 983.721 455.748 981.821 454.956 974.497C451.591 947.843 480.307 877.528 525.081 806.552C548.556 768.748 548.925 768.266 558.746 777.539C564.179 782.984 584.678 815.393 604.609 849.618ZM-641.087 971.02C-624.079 973.299 -596.431 976.018 -579.325 976.975C-561.715 977.871 -544.842 979.729 -541.135 981.457C-537.427 983.185 -508.964 988.424 -476.968 993.229C-445.476 998.097 -412.568 1004.1 -403.269 1006.89L-387.466 1011.93L-404.546 1035.42C-439.112 1081.13 -520.502 1144.38 -549.785 1147.97C-562.407 1149.52 -584.723 1124.32 -622.167 1066.92C-650.319 1023.67 -679.511 967.44 -673.958 966.758C-672.443 966.572 -657.59 968.679 -641.087 971.02ZM801.266 808.464C837.186 848.149 841.055 874.74 815.506 904.505C801.673 920.171 742.276 958.89 729.654 960.439C722.586 961.306 726.343 942.073 743.615 886.695C762.091 828.55 776.381 793.182 781.935 792.501C783.954 792.253 793.096 799.426 801.266 808.464ZM-646.96 1061.67C-605.596 1124.7 -590.68 1152.99 -597.748 1153.86C-600.272 1154.17 -612.834 1152.65 -625.532 1150.72C-652.072 1146.55 -653.104 1151.48 -627.926 1162.8C-618.084 1167.26 -603.042 1178.08 -593.862 1186.99C-585.323 1195.55 -570.922 1206.01 -561.72 1210.12C-545.879 1216.9 -521.973 1245.4 -515.731 1264.72C-512.881 1273.54 -513.755 1274.08 -524.705 1271.06C-531.072 1269.22 -542.098 1262.71 -548.949 1256.13C-556.304 1249.61 -587.882 1223.37 -620.469 1197.24C-652.416 1171.48 -678.228 1148.45 -677.392 1146.16C-676.42 1144.3 -682.065 1134.95 -689.225 1125.79C-710.705 1098.3 -715.78 1074.48 -709.231 1026.53L-703.849 983.086L-692.303 996.075C-686.326 1003.2 -665.818 1032.55 -646.96 1061.67ZM-348.75 1052.15C-330.994 1071.36 -301.595 1142.84 -283.244 1212.62C-270.163 1261.22 -266.988 1279.16 -272.037 1279.78C-291.727 1282.2 -489.214 1203.84 -507.068 1185.95C-517.8 1175.48 -518.343 1173.8 -511.909 1161.22C-503.901 1145.4 -495.839 1137.86 -432.202 1084.65C-379.889 1040.25 -364.954 1034.49 -348.75 1052.15ZM-238.092 1048.61C-209.765 1053.43 -73.0342 1096.46 -15.4747 1118.65L19.2358 1131.85L9.03463 1145.77C-10.8628 1173.53 -188.386 1273.89 -225.242 1278.41L-236.349 1279.77L-276.657 1166.41C-298.391 1104.03 -315.993 1051.19 -314.652 1048.84C-312.378 1042.88 -272.01 1042.73 -238.092 1048.61ZM639.879 1002.45C650.927 1004.15 661.002 1007.71 661.952 1010.65C667.923 1029.13 613.521 1169.39 594.503 1185.25C586.17 1191.95 584.52 1191.72 570.585 1179.46C547.003 1160.09 488.556 1091.3 470.338 1062.54C452.121 1033.78 451.931 1025.07 470.498 1017.55C487.685 1010.64 616.22 999.239 639.879 1002.45ZM365.438 1059.69C359.1 1111.55 320.214 1249.47 301.885 1285.33C297.764 1293.69 296.249 1293.88 282.602 1289C244.591 1275.33 156.384 1194.04 138.986 1156.45C129.715 1137.51 130.046 1135.28 139.954 1125.34C146.404 1119.31 169.167 1106.91 190.996 1098.12C212.689 1088.91 238.248 1077.04 247.358 1071.12C263.091 1061.34 334.306 1036.45 357.763 1032.7L369.24 1030.85L365.438 1059.69ZM436.111 1054.08C458.878 1070.93 468.834 1080.62 498.619 1117.57C531.781 1158.46 549.63 1187.7 553.754 1208.59L557.027 1225.21L507.717 1244.8C447.61 1268.32 386.552 1288.91 351.558 1297.57L325.245 1303.85L340.888 1243.44C366.473 1145.57 404.001 1044.05 415.613 1042.62C417.582 1042.38 427.19 1047.75 436.111 1054.08ZM730.189 1124.52C732.175 1151.77 721.138 1167.97 691.675 1180.75C663.728 1193.35 624.19 1202.57 622.562 1197.53C620.527 1191.23 662.479 1095.28 682.594 1060.07L701.368 1027.21L714.959 1064.39C722.618 1084.85 729.283 1111.97 730.189 1124.52ZM-380.81 1263.01C-285.163 1302.35 -282.427 1305.94 -347.534 1309.13C-400.893 1311.31 -454.712 1303.94 -476.123 1291.29C-494.97 1280.07 -513.753 1254.43 -522.437 1227.56L-528.137 1209.92L-496.802 1219.18C-479.536 1224.04 -427.47 1243.85 -380.81 1263.01ZM45.6809 1207.19C47.6665 1234.45 44.354 1256.68 32.6642 1295.22C17.57 1345.97 16.8317 1346.93 -0.936641 1350.42C-40.8814 1358.38 -129.298 1343.03 -177.634 1320.15L-198.735 1310.08L-189.565 1301.1C-170.081 1283.43 -122.182 1251.36 -76.1888 1224.76C-27.9427 1197.01 35.8189 1166.93 40.8077 1169.37C42.2245 1170.51 44.4875 1187.25 45.6809 1207.19ZM129.392 1198.23C184.421 1232.08 259.002 1303.69 256.857 1321.41C255.532 1330.31 206.847 1343.7 129.406 1355.82L58.0237 1367.2L51.6459 1347.46C38.3475 1306.31 68.2764 1181.28 92.0053 1178.37C94.0248 1178.12 110.544 1187.01 129.392 1198.23ZM-118.664 1354.82C-89.8919 1362.64 -25.0906 1386.13 -24.005 1389.48C-22.5123 1394.1 -54.4609 1408.94 -79.7644 1415.1C-92.3483 1418.39 -111.805 1419.9 -123.59 1419.16C-140.968 1417.37 -148.014 1413.43 -163.773 1398.77C-174.505 1388.3 -187.234 1373.28 -191.599 1364.65C-196.468 1356.08 -202.754 1346.37 -205.354 1343.2C-208.866 1338.82 -201.527 1338.8 -174.21 1343.74C-154.22 1346.96 -128.922 1352.15 -118.664 1354.82ZM258.588 1354.38C253.647 1371.57 217.082 1412.73 195.97 1425.36L174.352 1438.05L148.414 1432.5C133.794 1429.5 109.8 1420.22 94.6978 1412.46C68.5702 1398.21 67.7939 1397.43 77.8155 1392.71C94.2268 1385.02 136.62 1373.27 197.324 1359.71C228.181 1352.87 255.64 1346.88 257.524 1346.21C259.543 1345.97 260.124 1349.39 258.588 1354.38ZM463.168 1345.87L495.903 1349.71L458.499 1363.9C421.464 1377.61 273.502 1423.27 232.721 1433.51C212.836 1438.57 211.826 1438.69 215.811 1429.91C225.122 1410 269.411 1374.88 296.794 1365.41C312.369 1360 328.819 1354.05 333.965 1352.11C352.298 1345.5 430.803 1341.54 463.168 1345.87ZM67.8797 1418.81C95.8752 1425.85 121.753 1434.46 124.489 1438.06C127.73 1441.59 128.175 1444.59 126.156 1444.84C124.136 1445.09 74.0999 1442.93 14.4332 1440.21C-95.9103 1434.98 -103.423 1432.84 -59.787 1420.07C-11.9633 1405.47 13.0342 1405.02 67.8797 1418.81Z" stroke="white" stroke-miterlimit="10"/>
</svg>
