<svg width="1348" height="1170" fill="none" xmlns="http://www.w3.org/2000/svg"><path d="M676.251 8.006c-26.235 13.68-185.571 43.04-243.827 44.708-39.352 1-50.155 4.337-57.099 17.349-2.315 4.337-9.259 10.676-15.818 13.68-14.275 7.006-14.661 10.675-1.929 10.675 7.33 0 10.802 2.67 13.889 9.009l4.244 9.342 6.558-11.344c9.26-15.014 21.219-20.018 48.611-20.352 27.778 0 113.812 19.685 104.553 24.022-19.676 9.675-151.621 39.369-173.997 39.369-3.858 0-5.787-3.336-5.787-9.675 0-12.345-6.173-16.015-11.574-7.007-2.315 3.67-6.945 6.673-10.803 6.673-3.472 0-16.203 6.339-27.777 14.013-18.519 12.011-46.297 22.687-59.028 22.687-2.315 0 .386-4.337 6.173-9.342 15.818-14.346 12.345-15.681-10.803-4.337-11.96 5.672-27.778 11.677-35.494 13.012-13.503 2.335-15.046 3.67-21.219 22.354-3.858 11.01-8.102 22.687-9.259 26.023-1.543 4.338 0 5.339 6.944 5.005 8.488-1.001 8.874 0 7.716 15.681-.771 11.01-7.33 27.692-18.518 49.045-9.259 18.016-16.975 33.697-16.975 35.365 0 5.005-40.51 30.361-59.8 37.368l-17.36 6.339 6.172-10.009c3.086-5.672 11.96-18.35 19.29-28.36 16.204-21.686 18.133-34.364 2.701-17.015-6.173 6.339-16.59 20.018-23.92 30.027-7.33 10.343-19.676 22.688-27.392 27.692l-14.275 9.342-2.315 43.707C35.82 471.095 24.63 522.476 9.97 550.835c-11.96 23.354-11.96 38.702 0 53.715 14.275 18.017 35.108 111.769 42.824 190.841 2.315 24.689 2.7 25.357 15.818 30.695 7.33 3.002 13.117 8.007 13.117 10.676 0 3.003 6.559 11.344 14.66 19.351 26.621 25.356 73.303 88.08 84.491 114.104 10.803 24.689 10.803 25.023 30.093 30.363 10.802 3 32.793 12.01 49.383 20.35 16.975 8.01 31.636 14.01 32.793 12.68 2.701-2.34-7.33-10.01-34.722-25.69-10.417-5.67-18.133-10.678-17.361-11.346.385-.333 23.534 2.67 50.926 6.676 60.185 8.67 79.089 16.35 97.608 40.37 12.345 16.35 22.376 40.7 18.518 44.04-1.157 1-11.96-3.67-24.306-10.01-54.398-28.36-75.617-32.03-31.25-5.67 13.504 8 35.88 22.35 49.769 32.36 24.691 17.01 26.235 17.68 50.154 17.68 38.966.34 149.306 24.36 185.957 40.71l14.661 6.34 17.361-8.68c29.707-15.01 200.231-45.04 256.944-45.04 25.849 0 25.849 0 38.58-13.68 6.945-7.67 25.849-22.35 41.672-32.36 15.81-10.35 26.62-19.02 23.91-20.02-2.7-.67-13.5 4.34-23.91 11.01-28.94 18.35-63.662 26.36-104.172 24.02-36.265-2-89.891-14.68-80.632-19.02 7.716-4 161.651-37.7 163.58-36.03 1.157.67 0 6.34-1.929 12.68-4.63 14.01-2.315 16.35 8.873 7.67 4.63-3.67 16.2-10.01 25.85-14.01 9.64-4 20.83-11.01 25.08-15.35 4.24-4.33 19.29-11.67 33.95-16.35 21.6-7.335 25.85-7.669 25.85-3.33 0 2.67-1.55 4-3.86 3-1.93-1-3.86 1-3.86 4.67 0 7.01 6.17 12.35 8.49 7.34.38-1.67 11.57-7.34 24.69-13.01 28.16-12.345 29.32-13.346 43.21-42.706 6.17-13.011 18.9-34.698 28.93-48.711 10.03-13.679 18.14-26.691 18.14-29.36 0-8.007-10.42 3.003-28.55 29.36-9.65 14.347-22.77 31.029-29.32 37.368l-11.96 11.677 1.93-31.696c1.15-17.349 4.63-39.369 8.1-49.044 11.19-31.696 43.21-59.388 85.65-74.068l20.06-6.673-9.65 18.684c-5.4 10.009-8.87 19.351-7.71 20.018.77 1.001 10.03-7.673 20.44-19.017 10.03-11.344 22.77-22.687 28.55-25.023 9.65-4.337 10.03-5.338 8.1-31.028-2.31-37.701 4.63-76.069 24.31-130.786 9.65-26.691 17.36-50.713 17.36-53.382 0-2.669-3.47-8.675-7.71-13.346-4.25-4.67-7.72-13.679-7.72-21.019 0-15.347-4.24-15.681-13.5-1.001l-7.33 11.344-16.98-16.348c-19.68-19.018-27.39-19.351-9.64-.334 35.88 38.369 33.95 71.732-5.02 99.758l-15.82 11.01-8.49-56.051c-5.01-30.695-9.64-60.722-10.8-66.728-1.93-10.342-1.93-10.676 12.35-10.676 9.64 0 13.5-1.335 11.96-4.337-16.98-35.032-17.75-80.073-2.32-111.769 5.02-9.676 9.65-17.016 10.42-16.015 3.47 3.003 13.12 38.702 22.38 83.076 5.4 25.69 12.34 51.047 15.43 56.719l5.01 10.676.39-11.01c.39-6.006-3.86-27.358-9.26-47.71-10.8-41.038-17.36-83.076-17.36-108.766 0-15.347-1.16-18.35-10.42-23.355-6.17-3.002-15.43-10.343-20.83-15.681-10.03-10.009-10.03-10.009-12.73-2.669-1.55 4.004-3.86 7.34-5.4 7.34-5.02-.333-30.48-21.686-39.36-33.364-5.01-6.339-14.66-17.015-21.6-23.354-11.57-10.677-24.69-36.7-24.69-48.378 0-3.002 1.93-8.007 4.63-11.343 6.17-8.675-3.09-36.033-13.89-42.039-13.89-7.34-76-29.36-77.93-27.358-1.16 1.001 6.56 7.674 17.74 14.68 15.44 10.009 18.14 13.012 12.35 13.679-13.12 1.668-57.87-9.008-82.95-19.684-42.051-18.35-54.011-29.027-68.671-62.057-3.472-8.34-3.472-8.674 10.031-6.673 7.33 1.001 13.503 1.001 13.503.334 0-5.338-8.874-14.68-13.503-14.68-3.087 0-10.031-6.006-15.432-13.346-8.874-12.344-11.189-13.345-27.006-13.345-50.541 0-150.078-16.682-191.358-31.696C708.658 6.338 693.226 1 692.069 1c-1.505 0-8.488 3.003-15.818 7.006zm-24.267 30.361c-5.401 6.006-21.991 18.35-37.423 27.692l-28.164 16.682h-50.54c-39.352 0-56.713-1.334-75.231-6.339-13.118-3.67-22.763-7.674-21.219-8.674 5.787-4.671 42.052-13.012 78.318-18.35 20.061-3.003 42.052-6.673 48.225-8.342 11.188-3.002 73.302-12.01 88.349-13.011 6.52-.334 6.134.667-2.315 10.342zm128.819-2.335c28.164 4.337 65.972 11.677 84.105 16.015l32.408 7.673-23.148 5.672c-30.093 7.34-42.825 7.006-60.957-.667-8.102-3.67-27.006-9.008-42.053-12.011-25.849-5.005-48.997-15.347-48.997-22.02 0-4.004.386-4.004 58.642 5.338zm-55.941 7.006c16.589 8.341 38.966 30.028 34.722 33.698-2.701 2.002-121.528 14.013-142.747 14.346h-10.802l16.589-18.016c9.26-10.01 20.062-19.685 24.306-21.687 4.244-2.002 13.889-7.673 21.219-12.344 15.818-10.01 30.864-9.008 56.713 4.003zm203.704 37.034c12.731 11.344 18.518 21.019 26.234 43.373l6.173 17.683-12.346-4.671c-6.944-2.336-23.534-8.675-37.422-13.679-40.124-14.68-84.877-35.366-82.562-38.702 3.858-5.672 38.58-12.678 63.657-12.678 22.763-.334 26.621.667 36.266 8.674zm-154.707 20.686c6.559 3.336 25.077 8.007 40.895 10.342 45.139 6.006 55.941 9.342 95.293 27.359 25.849 12.011 35.108 17.682 31.25 19.684-8.488 5.005-42.052 12.679-69.444 16.015-33.179 4.004-52.084.334-65.973-13.012l-11.188-10.676-8.873 7.34c-8.488 6.672-11.96 7.34-33.565 5.672-20.062-1.669-34.336-6.34-83.719-27.692l-59.8-26.024 15.047-3.003c25.077-4.337 94.907-11.677 117.284-12.01 14.274-.335 24.73 1.667 32.793 6.005zm-221.451 33.03c0 14.68-25.849 67.061-48.997 98.423-8.873 12.344-10.416 13.012-23.534 11.344-24.691-3.671-54.784-19.685-82.561-44.708-43.982-39.036-44.368-35.032 5.787-48.044 63.271-16.014 97.993-22.353 125.385-22.687 20.834-.334 23.92.334 23.92 5.672zm68.287-1.001c36.651 9.342 128.472 53.382 128.472 61.389 0 9.008-119.212 43.707-213.734 62.057l-11.188 2.002 2.314-17.683c2.315-20.686 35.88-90.082 50.155-103.762 10.802-10.342 16.975-11.01 43.981-4.003zM291.992 183.5c-11.189 23.021-82.176 101.092-92.207 101.092-1.929 0-2.701-12.011-1.158-30.027 2.315-31.696 10.803-53.716 25.463-64.726 10.417-8.007 44.753-18.35 61.343-18.684h12.346l-5.787 12.345zm787.038-5.338c27 4.67 50.15 17.349 61.34 34.031 9.26 14.012 20.45 51.38 16.2 54.716-4.24 3.67-20.83-6.339-82.17-48.711-54.01-37.701-59.41-42.038-50.93-44.04 9.65-2.336 23.54-1.335 55.56 4.004zm-110.341 7.673c11.574 5.338 19.29 18.35 30.864 54.049 9.257 27.359 27.397 95.754 25.847 97.089-2.7 2.335-54.01-27.358-90.661-52.381-22.763-15.681-52.47-35.366-65.587-44.374-20.833-14.013-39.738-36.033-34.722-40.704 1.157-.667 17.361-5.338 36.651-9.675 39.391-9.342 81.404-11.01 97.608-4.004zm-582.176 19.351c19.29 11.01 37.037 23.688 39.352 27.358 2.315 4.004 8.102 10.677 12.731 15.348 5.016 4.671 10.031 11.677 11.189 15.347 2.315 6.006 0 8.007-12.732 12.345-21.605 7.673-82.176 17.683-141.203 24.022-27.392 2.669-55.942 5.671-62.886 6.672-11.574 1.335-12.346.668-10.031-6.005 6.173-18.684 60.571-83.409 87.191-104.095 21.991-17.349 33.565-16.015 76.389 9.008zm651.277 5.672c38.58 24.689 91.43 65.059 99.53 75.402 7.72 10.343 3.09 18.35-19.67 31.696-16.21 9.675-65.2 23.021-69.83 19.351-1.16-1.001-11.58-32.363-23.15-69.731-11.58-37.367-21.99-70.063-22.76-72.399-3.128-7.674 5.01-4.004 35.88 15.681zm-267.789 21.019c6.944 28.693 3.858 123.112-5.787 184.502-5.401 35.699-7.33 41.704-13.118 41.704-13.503 0-71.759-40.036-133.101-91.75-65.973-55.384-88.735-76.403-88.735-82.075 0-9.342 114.969-44.374 177.469-54.049 49.421-7.674 61.343-7.34 63.272 1.668zm71.026 12.345c20.448 9.008 46.682 25.356 126.929 79.739 33.954 23.021 43.594 34.365 37.424 43.373-11.575 16.015-131.174 74.735-183.643 90.416l-22.377 6.673-2.7-9.009c-5.016-15.681-3.472-156.809 1.929-187.504 3.086-15.681 6.173-29.36 6.944-30.695 3.434-4.671 13.079-2.669 35.494 7.007zm-387.384 57.719c-5.787 16.348-22.763 41.705-58.256 87.08a65565.174 65565.174 0 00-52.084 66.393c-26.62 34.365-39.737 36.367-62.114 10.009-25.077-29.36-68.287-115.104-68.287-134.789 0-3.336 21.605-8.341 82.176-18.684 93.75-16.014 95.293-16.014 133.102-17.015 27.778-.334 28.163-.334 25.463 7.006zm67.901 20.352c10.031 4.004 37.423 24.022 65.586 47.71 26.621 22.354 60.571 49.712 76.003 61.056 15.433 11.343 35.109 28.359 43.596 38.035 14.275 15.347 15.047 17.349 8.488 19.351-22.762 7.34-184.028 16.348-294.753 16.348h-87.577l3.858-10.009c5.015-12.345 29.706-45.375 91.821-123.78l47.453-60.388 14.275 2.335c7.716 1.001 21.605 5.338 31.25 9.342zm722.226 18.016c20.44 16.682 21.6 36.701 5.01 79.406-8.1 20.686-12.73 28.359-16.97 28.359-6.56 0-32.41-80.073-40.13-123.779l-1.54-8.675 21.6 8.008c11.96 4.67 26.24 12.01 32.03 16.681zm-67.91-1c10.42 20.018 26.24 70.063 30.48 98.423l2.7 18.016-49.38-29.36c-64.04-37.701-71.76-44.04-71.76-59.388 0-7.006 3.47-16.348 8.1-21.686 10.42-12.678 36.66-24.022 55.56-24.022 13.89 0 15.05.667 24.3 18.017zm-1016.97 5.338c0 4.671-26.621 49.712-49.383 82.742-17.747 26.024-18.904 27.358-25.077 21.353-8.874-8.341-15.818-37.368-12.732-51.714 2.7-13.012 23.534-28.693 62.114-46.376 21.605-10.009 25.078-11.01 25.078-6.005zm37.847 10.676c21.219 30.027 67.129 113.77 69.059 125.781 1.929 13.012 1.929 13.346-12.346 15.681-36.266 5.672-111.497-7.34-135.417-23.688l-10.802-7.674 23.534-41.704c25.848-45.375 48.997-79.072 54.784-79.072 1.89 0 6.905 5.004 11.188 10.676zm848.343 50.713c.38.334 3.47 9.342 6.56 20.352 10.03 32.696 17.74 87.747 18.9 131.787.77 41.704.77 41.704-8.1 41.037-23.15-2.335-182.1-60.055-221.837-81.074-16.976-8.674-20.448-12.344-18.905-17.683 3.473-12.011 30.093-31.361 60.957-44.373 16.975-7.007 45.911-20.352 64.815-29.36 38.966-19.018 64.04-26.024 83.33-23.355 7.33 1.001 13.89 2.335 14.28 2.669zm57.1 7.674c30.86 13.345 69.44 36.7 84.49 51.046 23.15 22.354 20.06 32.697-25.08 85.411-29.32 34.032-40.51 42.372-54.4 40.704-7.71-1.001-9.64-4.337-15.43-27.692-6.56-26.357-19.68-105.429-24.31-142.797-1.92-19.017-1.92-19.351 6.56-17.015 5.02 1.001 17.79 6.005 28.17 10.343zM60.896 462.087c-3.472 14.347-6.173 30.361-6.173 35.699 0 5.005-1.929 14.347-4.63 20.686-4.63 12.345-18.518 31.028-20.833 28.693-2.7-2.336 9.645-70.731 18.519-104.095l8.101-30.028 5.402 11.344c5.015 10.009 5.015 15.014-.386 37.701zm145.486 42.372c27.392 5.338 50.154 10.343 51.312 11.01 4.629 4.004-11.96 37.368-28.936 58.053-29.706 36.7-92.206 83.743-100.694 75.736-1.929-1.335-7.716-20.686-13.503-42.706-10.417-40.036-14.275-85.077-8.488-102.76 2.701-8.675 3.858-9.008 27.006-9.008 13.079 0 46.297 4.337 73.303 9.675zM89.059 543.495c10.417 41.704 19.291 108.432 14.275 105.429-2.315-1.001-11.96-7.006-21.219-13.012-9.26-6.339-17.747-10.676-18.519-9.675-1.157 1.001 4.244 10.343 11.96 21.019 30.479 43.039 33.565 78.405 10.417 119.442l-13.117 23.021-5.016-12.011C55.495 746.68 24.245 610.222 28.874 606.219c.772-.668 6.173 1.668 11.96 5.671 14.275 9.676 15.432 6.673 4.244-8.007-14.66-18.684-15.818-29.026-4.63-49.712 12.732-23.688 33.18-47.71 37.809-43.706 1.929 1.668 6.944 16.348 10.802 33.03zm1144.291 5.338c3.86 22.687 5.79 51.714 5.01 72.733l-1.15 35.032-11.58 1.001c-15.81 1.668-54.78-5.338-72.14-13.012-12.35-5.338-14.66-8.007-14.66-17.349 0-12.345 20.45-51.38 39.35-75.069 16.59-21.019 41.67-44.374 45.52-42.372 1.55 1.001 5.79 18.35 9.65 39.036zm-523.496-27.358c-5.015 5.338-24.691 20.018-43.596 32.362-19.29 12.345-63.271 43.04-97.993 67.729-92.593 66.394-155.093 103.428-175.155 103.428-16.975 0-60.571-125.115-60.571-173.492 0-15.014.772-16.348 10.803-18.016 19.29-3.337 113.812-11.678 172.454-15.348 88.734-5.338 92.592-5.338 149.691-6.005l53.241-.668-8.874 10.01zm25.81 45.374c-10.416 56.719-53.626 213.528-73.302 267.578-8.874 24.355-10.803 26.691-21.605 28.692-14.66 2.336-41.667-2.669-62.5-12.01-22.377-9.676-100.309-50.713-127.315-67.062-21.219-13.012-22.762-14.346-20.833-24.689 3.086-15.681 15.046-28.693 45.139-48.711 14.274-9.675 65.972-45.041 114.583-79.072 81.79-57.052 146.991-98.423 150.077-95.754.81.667-1.119 14.68-4.244 31.028zm111.883-20.018c32.408 10.343 117.67 42.372 151.62 56.385 29.703 12.344 66.363 39.035 66.363 48.044 0 7.34-34.34 53.382-62.12 82.408-23.533 25.023-60.184 54.717-67.128 54.717-5.016 0-10.031-7.34-34.723-50.046-30.478-52.381-98.379-192.175-98.379-201.851 0-2.669 18.133 1.669 44.367 10.343zm-61.342 15.347c5.787 9.676 23.148 43.04 38.58 74.402 15.432 31.028 34.722 70.063 43.21 86.745 18.132 35.366 25.077 60.389 23.148 83.41l-1.158 16.348-40.895 15.681c-22.762 8.341-48.611 16.348-57.87 17.683-9.259 1.334-31.25 6.005-48.997 10.676-17.361 4.671-36.651 8.007-42.438 7.34-8.874-1.001-10.417-2.669-11.574-13.679-1.544-17.015 13.889-86.746 39.737-177.495 18.905-66.728 43.21-138.46 46.682-138.46.811 0 6.173 8.008 11.575 17.349zm-480.71 3.337c17.361 25.023 48.225 112.436 52.855 150.47l2.314 19.351-16.975-2.335c-9.259-1.335-33.179-5.672-52.855-10.009-19.676-4.338-38.966-8.008-42.824-8.008-3.858 0-14.66-3.67-23.92-8.007-9.259-4.337-25.848-10.343-36.651-13.345-10.802-3.003-22.762-7.674-27.006-10.01-6.945-4.337-6.945-5.338-.772-16.014 8.488-15.681 93.75-94.753 113.04-104.762 20.062-10.343 23.534-10.009 32.794 2.669zm991.895 121.11c-10.41 62.057-10.8 63.058-13.89 43.707-3.85-25.023-.38-66.061 7.72-85.078 5.4-14.013 13.12-25.023 15.82-23.021.38.667-3.86 29.694-9.65 64.392zm-104.55-21.686c13.89 3.67 28.55 8.341 32.41 11.01 7.33 4.671 7.33 5.004-1.16 26.024-21.99 52.381-76.77 131.119-77.55 110.767 0-4.003-5.78-31.028-13.11-60.055-7.33-29.026-14.66-62.056-16.21-73.4-2.31-19.684-1.93-20.352 6.56-22.02 13.89-2.335 41.32.667 69.06 7.674zm-81.02 63.725c12.73 53.715 16.21 93.752 8.88 100.091-6.56 5.672-89.9 1.668-122.69-5.672-23.148-5.338-27.006-7.34-25.849-13.012 3.858-20.685 41.669-71.732 91.439-121.778 26.23-26.691 26.62-27.024 31.63-19.017 2.7 4.671 10.07 31.362 16.59 59.388zm-944.443-24.022c11.96 3.336 31.636 8.007 43.982 10.342 12.731 2.336 24.691 5.339 27.006 7.007 2.315 1.668 21.991 8.341 44.367 15.014 21.991 6.672 44.753 14.346 50.926 17.349l10.417 5.338-18.133 16.348c-36.265 31.696-111.111 72.399-133.488 72.399-9.645 0-20.061-21.352-33.95-68.729-10.417-35.699-18.519-81.407-14.275-81.407 1.158 0 11.574 3.002 23.148 6.339zm1098.763 11.01c16.98 33.697 13.51 54.383-12.34 74.735-13.89 10.676-66.75 34.698-76.39 34.698-5.4 0 1.93-14.347 27.78-55.05 27.39-42.706 46.29-68.396 50.54-68.396 1.54 0 6.55 6.339 10.41 14.013zM141.529 773.371c15.432 52.047 19.675 75.068 14.274 75.068-1.929 0-10.802-2.335-19.676-5.004-18.518-5.672-20.447-2.002-4.629 9.008 6.173 4.337 14.66 14.013 19.29 21.687 4.244 7.34 12.345 16.681 18.133 20.685 10.03 6.673 20.833 30.695 20.833 46.042 0 7.006-.772 7.34-8.102 4.004-4.244-2.002-10.802-8.008-14.275-13.679-3.858-5.672-20.833-28.693-38.58-51.714-17.361-22.688-30.864-42.706-29.707-44.374 1.158-1.335-.771-9.008-3.858-16.682-9.259-23.021-7.33-41.705 8.874-77.738l14.274-32.696 5.402 11.01c2.7 6.006 10.802 30.361 17.747 54.383zm221.45 20.686c8.488 16.348 13.117 73.733 10.031 128.784-1.929 38.368-3.858 52.381-7.716 52.381-15.046 0-141.59-78.405-150.463-93.752-5.401-9.009-5.401-10.343 2.315-19.351 9.645-11.344 17.361-16.349 76.775-51.047 48.996-29.026 61.342-32.029 69.058-17.015zm82.176 7.673c19.676 6.339 109.954 52.048 146.991 74.401l22.376 13.346-10.802 9.675c-21.219 19.351-175.54 79.406-203.704 79.406h-8.487l-2.701-90.416c-1.157-49.712-1.543-91.75 0-93.418 3.086-4.338 32.793-.668 56.327 7.006zm656.285 47.043c7.72 2.336 14.28 6.006 14.28 8.341 0 14.68-73.3 116.773-91.05 127.116-7.72 4.337-8.87 4.004-16.2-6.673-12.736-17.015-39.357-75.068-45.915-98.757-6.559-23.688-4.63-30.361 10.802-34.364 14.275-3.67 111.463-.334 128.083 4.337zm-215.313 18.016c-16.975 39.036-78.318 140.791-100.308 166.481-5.016 6.01-6.173 6.01-15.047 1.01-24.691-14.02-70.216-84.415-74.074-114.776-2.314-15.347-1.543-17.015 8.102-23.688 6.173-4.004 25.849-11.344 43.982-16.015 18.132-5.004 39.737-11.677 47.839-15.347 13.889-6.005 72.145-18.35 90.278-19.017l8.873-.334-9.645 21.686zm53.28 2.336c12.731 15.014 17.747 23.355 30.864 54.383 14.66 34.365 20.833 58.386 18.904 74.735l-1.543 13.007-40.895 10.35c-49.769 12.34-99.537 22.35-127.315 25.69l-20.833 2.33 25.849-44.7c42.052-72.404 93.75-146.471 102.623-146.471 1.505 0 7.292 5.004 12.346 10.676zm199.423 81.408c-5.02 21.019-16.98 32.362-41.67 39.369-23.53 7.006-54.78 10.338-54.78 6.339 0-5.005 53.62-74.401 76.77-99.424l21.61-23.355 1.15 29.694c.78 16.348-.77 37.701-3.08 47.377zm-849.501 1.668c60.957 39.035 62.115 42.038 13.504 38.368-39.738-3.336-77.547-14.013-90.278-25.69-11.188-10.343-18.905-31.696-18.905-53.048v-14.013l20.834 10.009c11.535 5.338 45.1 25.356 74.845 44.374zm326.737-2.669c-5.016 21.019-12.732 37.701-30.479 66.058-23.148 37.37-23.92 38.04-37.808 39.04-31.25 2.33-92.593-17.69-122.686-39.71l-13.117-9.67 8.874-6.006c18.518-11.678 61.342-31.696 101.466-47.711 42.052-16.681 96.064-33.697 99.151-31.361.772 1-1.543 14.012-5.401 29.36zm63.657 1.001c32.407 31.028 70.216 92.747 64.429 106.097-3.086 6.67-42.052 12.34-101.852 14.35l-55.17 2v-15.68c0-32.7 51.698-125.451 69.831-125.451 1.543 0 11.574 8.341 22.762 18.684zm-219.522 96.417c19.291 8.68 61.343 32.7 61.343 35.37 0 3.67-27.006 12.01-47.068 14.35-10.031 1.33-24.691.66-33.179-1.01-12.346-3-16.589-6.67-24.691-19.35-5.402-9-11.189-21.68-12.346-28.69-1.543-7.01-3.858-15.01-5.015-17.68-1.544-3.67 3.858-3 22.762 3.33 13.927 4.34 31.289 10.68 38.194 13.68zm277.392 35.04c-7.716 12.67-44.367 40.7-62.885 48.37l-18.905 7.68-17.747-6.68c-10.031-3.67-25.463-13.01-34.722-20.35-15.818-13.34-16.204-14.01-7.716-16.68 13.889-4.34 47.84-9.34 95.679-14.01 24.306-2.34 45.911-4.34 47.454-4.67 1.543 0 1.157 2.67-1.158 6.34zm152.392 12.67l23.149 6.01-30.865 7.34c-30.478 7.01-150.077 28.03-182.484 32.03-15.818 2-16.59 2-11.574-4.34 11.574-14.35 52.469-37.03 74.845-41.7 12.732-2.67 26.235-5.68 30.479-6.68 15.046-3.33 73.688 1 96.45 7.34zm-307.87 18.69c18.904 8 35.88 17.01 37.037 20.02 1.543 3 1.157 5.33-.386 5.33-1.543 0-37.808-6.34-81.018-14.01-79.861-14.35-84.877-16.68-49.769-22.35 38.619-6.68 57.099-4.67 94.136 11.01z" stroke="#fff" stroke-opacity=".5" stroke-miterlimit="10"/></svg>