<svg width="672" height="742" fill="none" xmlns="http://www.w3.org/2000/svg"><path d="M337.08 5.439c-13.057 8.666-92.361 27.266-121.355 28.323-19.586.634-24.963 2.748-28.419 10.991-1.152 2.748-4.609 6.764-7.873 8.666-7.105 4.439-7.297 6.764-.96 6.764 3.648 0 5.376 1.691 6.913 5.707l2.112 5.918 3.264-7.186c4.609-9.512 10.561-12.682 24.194-12.894 13.826 0 56.646 12.471 52.037 15.219-9.793 6.13-75.463 24.941-86.6 24.941-1.92 0-2.88-2.113-2.88-6.13 0-7.82-3.072-10.145-5.761-4.438-1.152 2.325-3.456 4.227-5.376 4.227-1.728 0-8.065 4.016-13.826 8.878-9.216 7.609-23.042 14.373-29.378 14.373-1.152 0 .192-2.748 3.072-5.919 7.873-9.088 6.145-9.934-5.377-2.747-5.952 3.593-13.825 7.398-17.665 8.243-6.72 1.48-7.489 2.325-10.561 14.162-1.92 6.975-4.033 14.373-4.609 16.486-.768 2.748 0 3.382 3.457 3.171 4.224-.634 4.416 0 3.84 9.934-.384 6.975-3.648 17.544-9.217 31.071-4.608 11.414-8.449 21.349-8.449 22.405 0 3.171-20.162 19.235-29.762 23.674l-8.641 4.016 3.072-6.341c1.536-3.594 5.953-11.626 9.6-17.967 8.066-13.739 9.026-21.771 1.345-10.779-3.072 4.015-8.257 12.682-11.905 19.023-3.648 6.552-9.793 14.373-13.633 17.543l-7.105 5.918-1.152 27.69c-1.152 30.437-6.72 62.987-14.018 80.954-5.952 14.796-5.952 24.518 0 34.03 7.105 11.414 17.474 70.808 21.315 120.903 1.152 15.641 1.344 16.064 7.872 19.445 3.649 1.903 6.529 5.073 6.529 6.764 0 1.903 3.264 7.187 7.297 12.26 13.249 16.064 36.483 55.801 42.051 72.288 5.377 15.641 5.377 15.852 14.978 19.234 5.376 1.902 16.322 7.609 24.578 12.894 8.449 5.072 15.746 8.877 16.322 8.032 1.344-1.48-3.648-6.342-17.282-16.276-5.184-3.593-9.025-6.764-8.641-7.186.192-.212 11.714 1.691 25.347 4.227 29.955 5.496 39.364 10.357 48.58 25.576 6.145 10.357 11.138 25.786 9.217 27.9-.576.634-5.952-2.325-12.097-6.341-27.074-17.966-37.635-20.291-15.553-3.593 6.72 5.073 17.857 14.162 24.77 20.503 12.289 10.779 13.057 11.202 24.962 11.202 19.394.211 74.312 15.43 92.553 25.787l7.297 4.016 8.641-5.496c14.785-9.511 99.657-28.534 127.884-28.534 12.865 0 12.865 0 19.202-8.666 3.456-4.862 12.865-14.162 20.738-20.503 7.873-6.553 13.249-12.048 11.905-12.682-1.344-.423-6.721 2.748-11.905 6.975-14.401 11.625-31.683 16.698-51.845 15.218-18.05-1.268-44.74-9.3-40.132-12.047 3.84-2.537 80.456-23.885 81.416-22.828.576.422 0 4.016-.96 8.032-2.304 8.877-1.152 10.357 4.416 4.861 2.304-2.325 8.065-6.341 12.865-8.877 4.801-2.537 10.369-6.975 12.482-9.723 2.112-2.748 9.601-7.398 16.897-10.357 10.753-4.65 12.865-4.862 12.865-2.114 0 1.691-.768 2.536-1.92 1.902-.96-.634-1.92.634-1.92 2.959 0 4.439 3.072 7.821 4.224 4.651.192-1.057 5.761-4.65 12.29-8.244 14.017-7.82 14.593-8.455 21.506-27.055 3.072-8.243 9.409-21.982 14.401-30.86 4.993-8.666 9.025-16.909 9.025-18.6 0-5.073-5.185 1.902-14.209 18.6-4.801 9.089-11.329 19.658-14.594 23.674l-5.952 7.398.96-20.08c.576-10.992 2.304-24.942 4.032-31.072 5.569-20.08 21.506-37.623 42.628-46.923l9.985-4.228-4.8 11.837c-2.689 6.341-4.417 12.259-3.841 12.682.384.634 4.993-4.861 10.177-12.048 4.993-7.186 11.329-14.373 14.21-15.853 4.8-2.747 4.992-3.381 4.032-19.657-1.152-23.884 2.304-48.192 12.097-82.856 4.801-16.91 8.641-32.128 8.641-33.819 0-1.691-1.728-5.496-3.84-8.455-2.113-2.959-3.841-8.666-3.841-13.316 0-9.723-2.112-9.934-6.72-.634l-3.649 7.186-8.449-10.357c-9.792-12.048-13.633-12.259-4.8-.211 17.858 24.307 16.898 45.444-2.496 63.199l-7.873 6.975-4.224-35.51c-2.497-19.445-4.801-38.469-5.377-42.273-.96-6.553-.96-6.764 6.145-6.764 4.8 0 6.72-.845 5.952-2.748-8.449-22.193-8.833-50.728-1.152-70.808 2.496-6.13 4.801-10.78 5.185-10.146 1.728 1.903 6.528 24.519 11.137 52.631 2.688 16.275 6.144 32.339 7.68 35.932l2.497 6.764.192-6.975c.192-3.805-1.92-17.332-4.609-30.226-5.376-25.998-8.641-52.63-8.641-68.906 0-9.723-.576-11.625-5.184-14.795-3.072-1.903-7.681-6.553-10.369-9.935-4.992-6.341-4.993-6.341-6.337-1.691-.768 2.537-1.92 4.65-2.688 4.65-2.496-.211-15.169-13.738-19.586-21.136-2.496-4.016-7.297-10.78-10.753-14.796-5.76-6.764-12.289-23.251-12.289-30.648 0-1.903.96-5.073 2.304-7.187 3.073-5.496-1.536-22.828-6.913-26.632-6.912-4.65-37.827-18.6-38.787-17.333-.576.634 3.264 4.862 8.833 9.301 7.68 6.341 9.025 8.243 6.144 8.666-6.528 1.057-28.802-5.707-41.284-12.471-20.93-11.625-26.882-18.389-34.179-39.315-1.728-5.284-1.728-5.495 4.993-4.227 3.648.634 6.72.634 6.72.212 0-3.382-4.416-9.3-6.72-9.3-1.537 0-4.993-3.805-7.681-8.455-4.417-7.821-5.569-8.455-13.441-8.455-25.155 0-74.696-10.569-95.242-20.08C353.21 4.382 345.529 1 344.953 1c-.749 0-4.225 1.902-7.873 4.439zm-12.078 19.234c-2.688 3.805-10.945 11.625-18.626 17.544l-14.017 10.568h-25.154c-19.586 0-28.227-.845-37.444-4.016-6.529-2.325-11.329-4.861-10.561-5.495 2.88-2.96 20.93-8.244 38.98-11.626 9.985-1.902 20.93-4.227 24.002-5.284 5.569-1.902 36.484-7.61 43.972-8.243 3.245-.211 3.053.423-1.152 6.552zm64.115-1.48c14.017 2.748 32.835 7.398 41.86 10.146l16.13 4.862-11.521 3.593c-14.978 4.65-21.315 4.439-30.339-.423-4.033-2.325-13.442-5.707-20.93-7.609-12.866-3.17-24.387-9.723-24.387-13.95 0-2.537.192-2.537 29.187 3.382zm-27.843 4.44c8.257 5.284 19.394 19.023 17.282 21.348-1.344 1.268-60.486 8.877-71.047 9.088h-5.376l8.257-11.413c4.608-6.341 9.984-12.471 12.097-13.74 2.112-1.268 6.912-4.86 10.561-7.82 7.872-6.341 15.361-5.707 28.226 2.536zm101.386 23.46c6.337 7.187 9.217 13.316 13.057 27.478l3.073 11.203-6.145-2.96c-3.456-1.48-11.713-5.495-18.626-8.666-19.97-9.3-42.244-22.405-41.092-24.518 1.921-3.594 19.202-8.032 31.683-8.032 11.33-.212 13.25.422 18.05 5.495zM385.661 64.2c3.264 2.114 12.481 5.073 20.354 6.552 22.466 3.805 27.842 5.919 47.428 17.333 12.865 7.609 17.474 11.202 15.554 12.47-4.225 3.171-20.93 8.032-34.564 10.146-16.513 2.537-25.922.211-32.835-8.243l-5.568-6.764-4.417 4.65c-4.224 4.227-5.952 4.65-16.705 3.593-9.985-1.057-17.09-4.016-41.668-17.543l-29.763-16.487 7.489-1.902c12.481-2.748 47.236-7.398 58.373-7.61 7.105-.21 12.309 1.057 16.322 3.805zM275.442 85.124c0 9.3-12.865 42.486-24.386 62.354-4.417 7.821-5.185 8.244-11.713 7.187-12.289-2.325-27.267-12.471-41.092-28.324-21.89-24.73-22.082-22.193 2.88-30.437 31.491-10.145 48.773-14.161 62.406-14.373 10.369-.211 11.905.212 11.905 3.593zm33.987-.634c18.242 5.919 63.943 33.819 63.943 38.892 0 5.707-59.334 27.689-106.379 39.315l-5.568 1.268 1.152-11.203c1.152-13.104 17.858-57.07 24.962-65.735 5.377-6.553 8.449-6.975 21.89-2.537zM145.83 116.618c-5.569 14.585-40.9 64.045-45.893 64.045-.96 0-1.344-7.609-.576-19.023 1.153-20.08 5.377-34.03 12.674-41.006 5.184-5.072 22.274-11.625 30.531-11.836h6.144l-2.88 7.82zm391.717-3.381c13.442 2.959 24.963 10.991 30.531 21.559 4.609 8.878 10.177 32.551 8.065 34.664-2.112 2.325-10.369-4.016-40.9-30.859-26.883-23.885-29.571-26.633-25.346-27.901 4.8-1.479 11.713-.845 27.65 2.537zm-54.917 4.861c5.761 3.382 9.601 11.625 15.361 34.242 4.609 17.332 13.634 60.662 12.866 61.508-1.344 1.479-26.883-17.332-45.125-33.185-11.329-9.934-26.114-22.405-32.643-28.112-10.369-8.877-19.778-22.828-17.281-25.787.576-.423 8.64-3.382 18.241-6.13 19.605-5.918 40.516-6.975 48.581-2.536zm-289.756 12.259c9.601 6.975 18.434 15.007 19.586 17.333 1.152 2.536 4.033 6.763 6.337 9.722 2.496 2.96 4.992 7.398 5.568 9.723 1.152 3.805 0 5.073-6.336 7.821-10.753 4.861-40.9 11.203-70.279 15.219-13.633 1.69-27.843 3.593-31.299 4.227-5.761.845-6.145.423-4.992-3.805 3.072-11.836 30.146-52.842 43.396-65.947 10.945-10.991 16.705-10.145 38.019 5.707zm324.147 3.594c19.201 15.641 45.508 41.216 49.54 47.769 3.841 6.552 1.536 11.625-9.793 20.08-8.064 6.129-32.451 14.584-34.755 12.259-.576-.634-5.761-20.503-11.521-44.176-5.761-23.673-10.945-44.387-11.329-45.867-1.556-4.861 2.496-2.536 17.858 9.935zm-133.28 13.316c3.456 18.177 1.92 77.995-2.881 116.886-2.688 22.617-3.648 26.421-6.528 26.421-6.721 0-35.716-25.364-66.247-58.126-32.835-35.087-44.164-48.403-44.164-51.996 0-5.919 57.222-28.112 88.329-34.242 24.597-4.862 30.53-4.65 31.491 1.057zm35.35 7.82c10.177 5.707 23.234 16.064 63.174 50.517 16.898 14.585 21.698 21.771 18.626 27.478-5.761 10.146-65.286 47.347-91.401 57.281l-11.137 4.227-1.344-5.707c-2.496-9.934-1.728-99.343.96-118.788 1.536-9.935 3.072-18.601 3.456-19.446 1.709-2.959 6.51-1.691 17.666 4.438zm-192.805 36.567c-2.881 10.357-11.33 26.421-28.995 55.167a44055.392 44055.392 0 00-25.923 42.062c-13.249 21.771-19.778 23.04-30.915 6.341-12.481-18.6-33.987-72.922-33.987-85.392 0-2.114 10.753-5.284 40.9-11.837 46.66-10.146 47.428-10.146 66.246-10.78 13.826-.211 14.018-.211 12.674 4.439zm33.795 12.894c4.992 2.536 18.626 15.218 32.643 30.225 13.249 14.162 30.147 31.494 37.827 38.681 7.681 7.186 17.474 17.966 21.699 24.096 7.104 9.722 7.488 10.991 4.224 12.259-11.329 4.65-91.593 10.357-146.702 10.357h-43.588l1.92-6.341c2.496-7.821 14.785-28.746 45.7-78.418l23.619-38.257 7.104 1.479c3.841.634 10.753 3.382 15.554 5.919zm359.458 11.413c10.177 10.569 10.753 23.251 2.496 50.306-4.032 13.105-6.336 17.966-8.448 17.966-3.265 0-16.13-50.728-19.97-78.417l-.768-5.496 10.753 5.073c5.952 2.959 13.057 7.609 15.937 10.568zm-33.795-.634c5.184 12.682 13.057 44.388 15.169 62.354l1.344 11.414-24.578-18.601c-31.875-23.884-35.715-27.9-35.715-37.623 0-4.439 1.728-10.357 4.032-13.739 5.185-8.032 18.242-15.219 27.651-15.219 6.912 0 7.488.423 12.097 11.414zm-506.16 3.382c0 2.959-13.25 31.494-24.579 52.42-8.833 16.486-9.409 17.332-12.481 13.527-4.416-5.284-7.873-23.673-6.337-32.762 1.345-8.243 11.714-18.178 30.915-29.38 10.753-6.341 12.481-6.975 12.481-3.805zm18.837 6.764c10.561 19.023 33.411 72.077 34.371 79.686.96 8.243.96 8.455-6.145 9.934-18.05 3.593-55.493-4.65-67.398-15.007l-5.377-4.862 11.713-26.421c12.866-28.746 24.387-50.094 27.267-50.094.94 0 3.437 3.171 5.569 6.764zm422.229 32.128c.192.211 1.728 5.918 3.264 12.893 4.992 20.715 8.833 55.59 9.409 83.491.384 26.421.384 26.421-4.033 25.998-11.521-1.479-90.632-38.046-110.41-51.362-8.449-5.496-10.177-7.821-9.409-11.203 1.728-7.609 14.977-19.868 30.339-28.112 8.449-4.439 22.85-12.893 32.259-18.6 19.394-12.048 31.875-16.487 41.476-14.796 3.648.634 6.913 1.48 7.105 1.691zm28.418 4.861c15.362 8.455 34.564 23.251 42.052 32.34 11.522 14.161 9.985 20.714-12.481 54.11-14.593 21.56-20.162 26.844-27.074 25.787-3.841-.634-4.801-2.748-7.681-17.544-3.264-16.698-9.793-66.792-12.097-90.465-.96-12.048-.96-12.26 3.264-10.78 2.496.634 8.852 3.805 14.017 6.552zM30.811 293.111c-1.728 9.089-3.072 19.234-3.072 22.616 0 3.171-.96 9.089-2.305 13.105-2.304 7.821-9.216 19.657-10.369 18.178-1.344-1.48 4.8-44.81 9.217-65.947l4.033-19.023 2.688 7.186c2.496 6.341 2.496 9.512-.192 23.885zm72.41 26.844c13.633 3.381 24.962 6.552 25.538 6.975 2.305 2.536-5.952 23.673-14.401 36.778-14.785 23.25-45.892 53.053-50.117 47.98-.96-.845-3.84-13.104-6.72-27.055-5.185-25.364-7.105-53.899-4.225-65.101 1.344-5.496 1.92-5.707 13.441-5.707 6.51 0 23.043 2.748 36.484 6.13zm-58.393 24.73c5.185 26.421 9.601 68.694 7.105 66.792-1.152-.634-5.953-4.439-10.561-8.243-4.609-4.016-8.833-6.764-9.217-6.13-.576.634 2.112 6.552 5.953 13.316 15.169 27.267 16.705 49.672 5.184 75.67l-6.529 14.584-2.496-7.609c-6.144-19.657-21.698-106.107-19.394-108.643.384-.423 3.073 1.057 5.953 3.593 7.105 6.13 7.68 4.228 2.112-5.073-7.297-11.836-7.873-18.389-2.304-31.494 6.337-15.007 16.513-30.225 18.818-27.689.96 1.057 3.456 10.357 5.376 20.926zm569.527 3.382c1.92 14.373 2.88 32.762 2.496 46.078l-.576 22.193-5.761.635c-7.872 1.056-27.266-3.382-35.907-8.244-6.145-3.382-7.297-5.073-7.297-10.991 0-7.821 10.177-32.551 19.586-47.558 8.257-13.316 20.738-28.112 22.658-26.844.768.635 2.88 11.626 4.801 24.731zm-260.55-17.333c-2.496 3.382-12.289 12.682-21.698 20.503-9.601 7.821-31.491 27.267-48.773 42.908-46.084 42.062-77.191 65.524-87.176 65.524-8.449 0-30.147-79.263-30.147-109.912 0-9.511.384-10.357 5.376-11.413 9.601-2.114 56.646-7.398 85.833-9.723 44.164-3.382 46.084-3.382 74.503-3.805l26.498-.423-4.416 6.341zm12.846 28.746c-5.185 35.933-26.691 135.276-36.484 169.518-4.416 15.43-5.376 16.909-10.753 18.177-7.296 1.48-20.738-1.691-31.107-7.609-11.137-6.13-49.924-32.128-63.366-42.485-10.561-8.243-11.329-9.089-10.369-15.641 1.537-9.934 7.489-18.178 22.467-30.86 7.104-6.13 32.835-28.535 57.029-50.094 40.708-36.144 73.159-62.354 74.695-60.663.403.423-.557 9.3-2.112 19.657zm55.685-12.682c16.13 6.553 58.566 26.844 75.463 35.722 14.786 7.82 33.028 24.73 33.028 30.437 0 4.65-17.09 33.818-30.915 52.208-11.713 15.852-29.955 34.664-33.412 34.664-2.496 0-4.992-4.65-17.281-31.705-15.17-33.185-48.965-121.748-48.965-127.878 0-1.691 9.025 1.057 22.082 6.552zm-30.531 9.723c2.881 6.13 11.521 27.267 19.202 47.135 7.681 19.658 17.282 44.388 21.506 54.956 9.025 22.405 12.481 38.258 11.521 52.842l-.576 10.357-20.354 9.935c-11.329 5.284-24.194 10.357-28.802 11.202-4.609.845-15.554 3.805-24.387 6.764-8.641 2.959-18.241 5.073-21.122 4.65-4.416-.634-5.184-1.691-5.76-8.666-.768-10.78 6.912-54.956 19.778-112.448 9.408-42.274 21.506-87.718 23.234-87.718.403 0 3.072 5.073 5.76 10.991zm-239.255 2.114c8.641 15.853 24.003 71.231 26.307 95.327l1.152 12.259-8.449-1.479c-4.608-.846-16.513-3.593-26.306-6.341s-19.394-5.073-21.314-5.073c-1.92 0-7.297-2.325-11.905-5.073-4.609-2.748-12.866-6.552-18.242-8.455-5.377-1.902-11.33-4.861-13.441-6.341-3.457-2.748-3.457-3.382-.385-10.145 4.225-9.935 46.661-60.029 56.262-66.37 9.985-6.552 11.713-6.341 16.321 1.691zm493.68 76.727c-5.185 39.314-5.377 39.948-6.913 27.689-1.92-15.853-.192-41.851 3.84-53.899 2.689-8.877 6.529-15.853 7.873-14.584.192.422-1.92 18.811-4.8 40.794zm-52.037-13.739c6.912 2.325 14.209 5.284 16.129 6.975 3.649 2.959 3.649 3.17-.576 16.487-10.945 33.184-38.211 83.067-38.595 70.174 0-2.537-2.881-19.657-6.529-38.046-3.649-18.39-7.297-39.315-8.065-46.502-1.152-12.47-.96-12.893 3.264-13.95 6.913-1.479 20.566.423 34.372 4.862zm-40.324 40.371c6.336 34.03 8.065 59.394 4.416 63.41-3.264 3.594-44.74 1.057-61.062-3.593-11.521-3.382-13.441-4.65-12.865-8.243 1.92-13.105 20.738-45.444 45.509-77.15 13.057-16.909 13.249-17.12 15.745-12.048 1.344 2.96 5.012 19.869 8.257 37.624zM83.808 446.775c5.952 2.114 15.745 5.073 21.89 6.553 6.337 1.479 12.289 3.382 13.441 4.439 1.152 1.056 10.945 5.284 22.082 9.511 10.945 4.228 22.275 9.089 25.347 10.991l5.184 3.382-9.025 10.357c-18.049 20.08-55.301 45.867-66.438 45.867-4.8 0-9.985-13.527-16.898-43.542-5.184-22.616-9.216-51.573-7.104-51.573.576 0 5.76 1.902 11.52 4.015zm546.868 6.976c8.449 21.348 6.721 34.453-6.144 47.346-6.913 6.764-33.22 21.982-38.02 21.982-2.688 0 .96-9.088 13.825-34.875 13.633-27.056 23.042-43.331 25.155-43.331.768 0 3.264 4.016 5.184 8.878zM70.943 490.317c7.68 32.974 9.793 47.558 7.104 47.558-.96 0-5.376-1.479-9.793-3.17-9.217-3.594-10.177-1.269-2.304 5.707 3.072 2.747 7.297 8.877 9.601 13.739 2.112 4.65 6.145 10.568 9.025 13.104 4.993 4.228 10.369 19.446 10.369 29.169 0 4.439-.384 4.65-4.032 2.537-2.113-1.269-5.377-5.073-7.105-8.667-1.92-3.593-10.37-18.177-19.202-32.762-8.64-14.373-15.361-27.055-14.785-28.112.576-.845-.384-5.707-1.92-10.568-4.609-14.584-3.649-26.421 4.416-49.249l7.105-20.714 2.688 6.975c1.344 3.805 5.376 19.235 8.833 34.453zm110.218 13.105c4.225 10.357 6.529 46.712 4.993 81.588-.96 24.308-1.921 33.185-3.841 33.185-7.488 0-70.47-49.671-74.887-59.394-2.688-5.707-2.688-6.553 1.152-12.26 4.801-7.186 8.641-10.357 38.212-32.339 24.386-18.389 30.531-20.291 34.371-10.78zm40.9 4.862c9.793 4.016 54.725 32.973 73.159 47.135l11.137 8.454-5.376 6.13c-10.561 12.26-87.369 50.306-101.386 50.306h-4.224l-1.345-57.281c-.576-31.494-.768-58.126 0-59.183 1.537-2.748 16.322-.423 28.035 4.439zm326.643 29.803c3.84 1.479 7.104 3.804 7.104 5.284 0 9.3-36.483 73.979-45.316 80.531-3.841 2.748-4.417 2.536-8.065-4.227-6.336-10.78-19.586-47.558-22.85-62.565-3.264-15.007-2.304-19.235 5.376-21.771 7.105-2.325 55.475-.212 63.751 2.748zM441.538 549.5c-8.449 24.73-38.98 89.198-49.925 105.473-2.496 3.805-3.072 3.805-7.488.634-12.29-8.877-34.948-53.476-36.868-72.71-1.152-9.723-.768-10.78 4.032-15.007 3.073-2.537 12.866-7.187 21.891-10.146 9.024-3.171 19.777-7.398 23.81-9.723 6.913-3.805 35.907-11.625 44.932-12.048l4.417-.212-4.801 13.739zm26.518 1.48c6.336 9.512 8.833 14.796 15.361 34.453 7.297 21.771 10.369 36.989 9.409 47.346l-.768 8.244-20.354 6.552c-24.77 7.821-49.541 14.162-63.366 16.276l-10.369 1.479 12.865-28.323c20.93-45.867 46.661-92.791 51.077-92.791.749 0 3.629 3.171 6.145 6.764zm99.254 51.574c-2.496 13.316-8.449 20.503-20.738 24.941-11.713 4.439-27.266 6.553-27.266 4.016 0-3.17 26.69-47.135 38.211-62.987l10.753-14.796.576 18.812c.384 10.357-.384 23.884-1.536 30.014zm-422.805 1.057c30.339 24.73 30.915 26.632 6.721 24.307-19.778-2.114-38.596-8.877-44.933-16.275-5.568-6.553-9.409-20.08-9.409-33.608v-8.877l10.369 6.341c5.742 3.382 22.447 16.064 37.252 28.112zm162.62-1.691c-2.496 13.316-6.336 23.884-15.169 41.851-11.521 23.673-11.905 24.096-18.818 24.73-15.553 1.479-46.084-11.203-61.062-25.153l-6.528-6.13 4.416-3.804c9.217-7.398 30.531-20.08 50.501-30.226 20.93-10.568 47.812-21.348 49.349-19.869.384.634-.769 8.878-2.689 18.601zm31.683.634c16.13 19.657 34.948 58.76 32.067 67.215-1.536 4.227-20.93 7.821-50.692 9.089l-27.459 1.268v-9.934c0-20.714 25.73-79.475 34.755-79.475.768 0 5.761 5.284 11.329 11.837zM229.55 663.639c9.601 5.496 30.531 20.714 30.531 22.405 0 2.325-13.442 7.61-23.426 9.089-4.993.846-12.29.423-16.514-.634-6.145-1.902-8.257-4.227-12.289-12.259-2.688-5.707-5.569-13.739-6.145-18.178-.768-4.439-1.92-9.512-2.496-11.203-.768-2.325 1.92-1.902 11.329 2.114 6.932 2.748 15.573 6.764 19.01 8.666zm138.061 22.194c-3.84 8.032-22.082 25.787-31.299 30.648l-9.409 4.862-8.833-4.228c-4.992-2.325-12.673-8.243-17.281-12.893-7.873-8.455-8.065-8.878-3.841-10.568 6.913-2.748 23.811-5.919 47.621-8.878 12.097-1.48 22.85-2.748 23.618-2.959.768 0 .576 1.691-.576 4.016zm75.847 8.032l11.521 3.805-15.361 4.65c-15.17 4.438-74.695 17.754-90.825 20.291-7.873 1.268-8.257 1.268-5.76-2.748 5.76-9.089 26.114-23.462 37.251-26.421 6.337-1.691 13.057-3.593 15.17-4.227 7.488-2.114 36.675.634 48.004 4.65zm-153.23 11.836c9.409 5.073 17.857 10.78 18.433 12.683.768 1.902.576 3.381-.192 3.381s-18.817-4.016-40.323-8.877c-39.748-9.089-42.245-10.568-24.771-14.162 19.221-4.227 28.419-2.959 46.853 6.975z" stroke="#fff" stroke-opacity=".5" stroke-miterlimit="10"/></svg>