<svg width="115" height="204" fill="none" xmlns="http://www.w3.org/2000/svg"><g clip-path="url(#clip0)"><path d="M111.62 203.83H3c-1.66 0-3-1.34-3-3V14.09C0 6.32 6.32 0 14.09 0h86.44c7.77 0 14.09 6.32 14.09 14.09v186.74c0 1.66-1.34 3-3 3zM6 197.83h102.62v-57.67H6v57.67zm0-63.66h102.62V14.09c0-4.46-3.63-8.09-8.09-8.09H14.09C9.63 6 6 9.63 6 14.09v120.08zm42.98-6.95h-1.57c-1.66 0-3-1.34-3-3s1.34-3 3-3h1.57c1.66 0 3 1.34 3 3s-1.34 3-3 3zm-12.86 0h-1.57c-1.66 0-3-1.34-3-3s1.34-3 3-3h1.57c1.66 0 3 1.34 3 3s-1.34 3-3 3zm-12.85 0H21.7c-1.66 0-3-1.34-3-3s1.34-3 3-3h1.57c1.66 0 3 1.34 3 3s-1.34 3-3 3zm69.65-4.2H69.71c-1.66 0-3-1.34-3-3v-14.96c0-1.66 1.34-3 3-3h23.21c1.66 0 3 1.34 3 3v14.96c0 1.66-1.34 3-3 3zm-20.21-6h17.21v-8.96H72.71v8.96zm-23.73.62h-1.57c-1.66 0-3-1.34-3-3s1.34-3 3-3h1.57c1.66 0 3 1.34 3 3s-1.34 3-3 3zm-12.86 0h-1.57c-1.66 0-3-1.34-3-3s1.34-3 3-3h1.57c1.66 0 3 1.34 3 3s-1.34 3-3 3zm-12.85 0H21.7c-1.66 0-3-1.34-3-3s1.34-3 3-3h1.57c1.66 0 3 1.34 3 3s-1.34 3-3 3zm25.71-9.57h-1.57c-1.66 0-3-1.34-3-3s1.34-3 3-3h1.57c1.66 0 3 1.34 3 3s-1.34 3-3 3zm-12.86 0h-1.57c-1.66 0-3-1.34-3-3s1.34-3 3-3h1.57c1.66 0 3 1.34 3 3s-1.34 3-3 3zm-12.85 0H21.7c-1.66 0-3-1.34-3-3s1.34-3 3-3h1.57c1.66 0 3 1.34 3 3s-1.34 3-3 3zm69.65-13.65H21.7c-1.66 0-3-1.34-3-3V23.2c0-1.66 1.34-3 3-3h71.22c1.66 0 3 1.34 3 3v68.22c0 1.66-1.34 3-3 3zm-68.22-6h65.22V26.2H24.7v62.22z" fill="#3F7BA3"/></g><defs><clipPath id="clip0"><path fill="#fff" d="M0 0h114.63v203.83H0z"/></clipPath></defs></svg>