<svg width="100" height="121" fill="none" xmlns="http://www.w3.org/2000/svg"><g clip-path="url(#clip0)" fill="#306990" stroke="#306990" stroke-width="2"><path d="M99.116 116.979l-15.623-16.334c6.312-.227 11.378-5.433 11.378-11.803V18.73c0-3.818-1.334-7.546-3.755-10.498a16.561 16.561 0 00-9.557-5.725A131.218 131.218 0 0056.059 0H43.588C35.464 0 27.002.779 18.44 2.491c-7.698 1.542-13.284 8.363-13.284 16.22v70.13c0 6.425 5.151 11.664 11.537 11.808l-15.8 16.32a2.363 2.363 0 001.696 4.007h16.88c.758 0 1.469-.364 1.913-.977l7.161-9.892h43.15l7.162 9.892a2.362 2.362 0 001.911.977h16.645a2.361 2.361 0 001.705-3.997zM9.877 88.841v-70.13c0-5.612 3.991-10.485 9.489-11.586 7.707-1.541 15.85-2.4 24.22-2.4H56.06c8.234 0 16.503.814 24.582 2.418a11.83 11.83 0 016.826 4.089 11.853 11.853 0 012.681 7.498v70.11c0 3.909-3.177 7.089-7.082 7.089H16.96c-3.905 0-7.083-3.18-7.083-7.089zm8.388 27.409H8.164l15.096-15.595h6.295l-11.29 15.595zm13.7-10.869l3.42-4.726h29.466l3.42 4.726H31.966zM81.97 116.25l-11.29-15.595h6.287l14.915 15.595H81.97z"/><path d="M83.067 18.902H16.96a2.362 2.362 0 00-2.361 2.363v39.223a2.362 2.362 0 002.36 2.362h66.107a2.362 2.362 0 002.36-2.362V21.265a2.362 2.362 0 00-2.36-2.363zM47.653 58.125H19.322V23.628h28.33v34.497zm33.053 0H52.375V23.628h28.33v34.497zM75.984 69.94c-5.207 0-9.444 4.239-9.444 9.45 0 5.212 4.236 9.451 9.444 9.451 5.207 0 9.443-4.24 9.443-9.45 0-5.212-4.236-9.452-9.443-9.452zm0 14.176a4.73 4.73 0 01-4.722-4.726 4.73 4.73 0 014.722-4.725 4.73 4.73 0 014.722 4.725 4.73 4.73 0 01-4.722 4.726zM24.044 69.94c-5.208 0-9.444 4.239-9.444 9.45 0 5.212 4.237 9.451 9.444 9.451 5.207 0 9.443-4.24 9.443-9.45 0-5.212-4.236-9.452-9.443-9.452zm0 14.176a4.73 4.73 0 01-4.722-4.726 4.73 4.73 0 014.722-4.725 4.73 4.73 0 014.721 4.725 4.73 4.73 0 01-4.721 4.726zm35.413-11.814H40.57a2.362 2.362 0 000 4.725h18.887a2.362 2.362 0 000-4.725zm0 9.451H40.57a2.362 2.362 0 000 4.726h18.887a2.362 2.362 0 000-4.726z"/></g><defs><clipPath id="clip0"><path fill="#fff" d="M0 0h100v120.976H0z"/></clipPath></defs></svg>