<svg width="160" height="160" fill="none" xmlns="http://www.w3.org/2000/svg"><g clip-path="url(#clip0)" fill="#3F7BA3"><path d="M8 106.666h37.331a8 8 0 008-8V85.33h10.666a8 8 0 008-8V50.666a2.666 2.666 0 00-5.335 0V77.33A2.669 2.669 0 0163.997 80H53.33V66.666a8 8 0 00-8-8H8a8 8 0 00-8 8v32a8 8 0 008 8zm-2.666-40A2.667 2.667 0 018.004 64h37.33a2.669 2.669 0 012.67 2.666v32a2.666 2.666 0 01-2.67 2.665H8a2.668 2.668 0 01-2.669-2.665v-32h.003zm146.666-8h-37.334a8 8 0 00-8 8V80H96a2.667 2.667 0 01-2.665-2.669V50.666a2.667 2.667 0 00-5.335 0V77.33a8 8 0 008 8h10.666v13.335a8 8 0 008 8H152a8 8 0 008-8v-32c0-4.416-3.581-8-8-8zm2.666 40a2.666 2.666 0 01-2.669 2.665h-37.331a2.668 2.668 0 01-2.669-2.665v-32A2.667 2.667 0 01114.666 64H152a2.669 2.669 0 012.669 2.666v32h-.003z"/><path d="M80 48a2.669 2.669 0 00-2.669 2.666V112h-16a8 8 0 00-8 8v32a8 8 0 008 8h37.335a8 8 0 008-8v-32a8 8 0 00-8-8h-16V50.666A2.664 2.664 0 0080 48zm21.334 72v32a2.668 2.668 0 01-2.665 2.669H61.334A2.667 2.667 0 0158.67 152v-32a2.669 2.669 0 012.665-2.669H98.67a2.668 2.668 0 012.665 2.669zm-87.999-8a2.67 2.67 0 00-2.67 2.669V120a8 8 0 008 8h26.666a2.666 2.666 0 100-5.334H18.666a2.67 2.67 0 01-2.669-2.669v-5.334A2.661 2.661 0 0013.335 112zM136 128a8 8 0 008-8v-5.334a2.667 2.667 0 10-5.334 0V120a2.67 2.67 0 01-2.669 2.669h-21.334a2.668 2.668 0 100 5.334H136V128z"/><path d="M141.335 53.334a2.67 2.67 0 002.668-2.668V8a8 8 0 00-8-8H18.666a8 8 0 00-8 8v42.666a2.667 2.667 0 105.334 0v-24h122.67v24a2.663 2.663 0 002.666 2.668zM16 21.334V8a2.67 2.67 0 012.669-2.669H136A2.67 2.67 0 01138.669 8v13.331H16v.003z"/><path d="M26.666 13.335a2.666 2.666 0 01-5.335 0 2.667 2.667 0 115.334 0zm10.665 0a2.666 2.666 0 01-5.334 0 2.667 2.667 0 115.334 0zm10.669 0a2.667 2.667 0 11-5.333-.003 2.667 2.667 0 015.333.002zm74.669 39.999a2.667 2.667 0 002.665-2.668V40a8 8 0 00-8-8H42.669a8 8 0 00-8 8v10.666a2.669 2.669 0 002.665 2.668 2.67 2.67 0 002.669-2.668V40a2.67 2.67 0 012.669-2.669h74.665a2.67 2.67 0 012.669 2.67v10.665a2.659 2.659 0 002.663 2.668zm-44.785 70.379l-4.2 5.478-7.597 1.69a2.673 2.673 0 00-1.972 1.838 2.675 2.675 0 00.638 2.619l4.756 4.915-.41 6.241a2.67 2.67 0 003.487 2.712l7.41-2.418 7.413 2.418a2.667 2.667 0 003.488-2.712l-.41-6.241 4.757-4.915a2.668 2.668 0 00-1.335-4.457l-7.597-1.69-4.2-5.478a2.75 2.75 0 00-4.228 0zm4.785 9.49c.38.497.925.844 1.537.981l3.89.866-2.265 2.338a2.665 2.665 0 00-.747 2.031l.25 3.487-4.493-1.462a2.668 2.668 0 00-1.654 0l-4.493 1.462.23-3.487a2.66 2.66 0 00-.746-2.031l-2.266-2.338 3.891-.866a2.65 2.65 0 001.528-.981L80 129.716l2.669 3.487zm57.278-51.378a8 8 0 10-13.228 0A13.288 13.288 0 00120 93.331a2.667 2.667 0 002.669 2.666h21.334a2.666 2.666 0 002.666-2.666 13.3 13.3 0 00-6.722-11.506zm-9.281-4.494A2.666 2.666 0 11133.334 80a2.667 2.667 0 01-2.668-2.669zm-4.875 13.335a7.998 7.998 0 0115.087 0h-15.087zm-112.456-16H40a2.667 2.667 0 100-5.334H13.334a2.667 2.667 0 100 5.334zm0 10.668H40a2.669 2.669 0 002.669-2.665A2.67 2.67 0 0040 80H13.334a2.667 2.667 0 100 5.334zm0 10.666H40a2.669 2.669 0 002.669-2.666A2.67 2.67 0 0040 90.666H13.334a2.667 2.667 0 100 5.334z"/></g><defs><clipPath id="clip0"><path fill="#fff" d="M0 0h160v160H0z"/></clipPath></defs></svg>