<svg width="64" height="45" fill="none" xmlns="http://www.w3.org/2000/svg"><path d="M55.307 44.51S37.829 45 32.003 45C26.177 45 8.7 44.51 8.7 44.51c-4.513 0-8.208-3.71-8.208-8.247 0 0-.488-10.318-.488-13.764 0-3.446.488-13.764.488-13.764C.49 4.2 4.181.49 8.697.49 8.697.49 26.175 0 32 0c5.826 0 23.304.49 23.304.49 4.513 0 8.208 3.71 8.208 8.247 0 0 .488 10.309.488 13.764 0 3.456-.488 13.764-.488 13.764 0 4.535-3.693 8.245-8.206 8.245z" fill="red"/><path fill-rule="evenodd" clip-rule="evenodd" d="M25.872 32.555v-20.11l16.17 10.054-16.17 10.056z" fill="#fff"/></svg>